M48
; DRILL file {KiCad (6.0.0-0)} date Sunday, February 20, 2022 at 04:40:49 PM
; FORMAT={-:-/ absolute / metric / decimal}
; #@! TF.CreationDate,2022-02-20T16:40:49-06:00
; #@! TF.GenerationSoftware,Kicad,Pcbnew,(6.0.0-0)
; #@! TF.FileFunction,Plated,1,2,PTH
FMAT,2
METRIC
; #@! TA.AperFunction,Plated,PTH,ViaDrill
T1C0.400
; #@! TA.AperFunction,Plated,PTH,ComponentDrill
T2C1.000
; #@! TA.AperFunction,Plated,PTH,ComponentDrill
T3C1.400
; #@! TA.AperFunction,Plated,PTH,ComponentDrill
T4C1.700
%
G90
G05
T1
X210.312Y-53.086
X215.86Y-49.03
X217.27Y-51.31
T2
X228.95Y-50.635
X228.95Y-53.175
T3
X233.265Y-51.95
X237.225Y-51.95
X241.185Y-51.95
X245.145Y-51.95
X249.105Y-51.95
X253.065Y-51.95
X257.025Y-51.95
T4
X209.324Y-59.524
X209.324Y-65.024
X213.524Y-59.524
X213.524Y-65.024
X217.724Y-59.524
X217.724Y-65.024
X221.924Y-59.524
X221.924Y-65.024
X226.124Y-59.524
X226.124Y-65.024
X230.324Y-59.524
X230.324Y-65.024
X234.524Y-59.524
X234.524Y-65.024
X238.724Y-59.524
X238.724Y-65.024
X242.924Y-59.524
X242.924Y-65.024
X247.124Y-59.524
X247.124Y-65.024
X251.324Y-59.524
X251.324Y-65.024
X255.524Y-59.524
X255.524Y-65.024
T0
M30
