G04 #@! TF.GenerationSoftware,KiCad,Pcbnew,(6.0.0-0)*
G04 #@! TF.CreationDate,2022-02-20T21:50:19-06:00*
G04 #@! TF.ProjectId,mactxlc,6d616374-786c-4632-9e6b-696361645f70,rev?*
G04 #@! TF.SameCoordinates,Original*
G04 #@! TF.FileFunction,Copper,L1,Top*
G04 #@! TF.FilePolarity,Positive*
%FSLAX46Y46*%
G04 Gerber Fmt 4.6, Leading zero omitted, Abs format (unit mm)*
G04 Created by KiCad (PCBNEW (6.0.0-0)) date 2022-02-20 21:50:19*
%MOMM*%
%LPD*%
G01*
G04 APERTURE LIST*
G04 Aperture macros list*
%AMRoundRect*
0 Rectangle with rounded corners*
0 $1 Rounding radius*
0 $2 $3 $4 $5 $6 $7 $8 $9 X,Y pos of 4 corners*
0 Add a 4 corners polygon primitive as box body*
4,1,4,$2,$3,$4,$5,$6,$7,$8,$9,$2,$3,0*
0 Add four circle primitives for the rounded corners*
1,1,$1+$1,$2,$3*
1,1,$1+$1,$4,$5*
1,1,$1+$1,$6,$7*
1,1,$1+$1,$8,$9*
0 Add four rect primitives between the rounded corners*
20,1,$1+$1,$2,$3,$4,$5,0*
20,1,$1+$1,$4,$5,$6,$7,0*
20,1,$1+$1,$6,$7,$8,$9,0*
20,1,$1+$1,$8,$9,$2,$3,0*%
%AMFreePoly0*
4,1,22,0.500000,-0.750000,0.000000,-0.750000,0.000000,-0.745033,-0.079941,-0.743568,-0.215256,-0.701293,-0.333266,-0.622738,-0.424486,-0.514219,-0.481581,-0.384460,-0.499164,-0.250000,-0.500000,-0.250000,-0.500000,0.250000,-0.499164,0.250000,-0.499963,0.256109,-0.478152,0.396186,-0.417904,0.524511,-0.324060,0.630769,-0.204165,0.706417,-0.067858,0.745374,0.000000,0.744959,0.000000,0.750000,
0.500000,0.750000,0.500000,-0.750000,0.500000,-0.750000,$1*%
%AMFreePoly1*
4,1,20,0.000000,0.744959,0.073905,0.744508,0.209726,0.703889,0.328688,0.626782,0.421226,0.519385,0.479903,0.390333,0.500000,0.250000,0.500000,-0.250000,0.499851,-0.262216,0.476331,-0.402017,0.414519,-0.529596,0.319384,-0.634700,0.198574,-0.708877,0.061801,-0.746166,0.000000,-0.745033,0.000000,-0.750000,-0.500000,-0.750000,-0.500000,0.750000,0.000000,0.750000,0.000000,0.744959,
0.000000,0.744959,$1*%
G04 Aperture macros list end*
%ADD10C,0.300000*%
G04 #@! TA.AperFunction,NonConductor*
%ADD11C,0.300000*%
G04 #@! TD*
G04 #@! TA.AperFunction,SMDPad,CuDef*
%ADD12RoundRect,0.250000X0.550000X-1.075000X0.550000X1.075000X-0.550000X1.075000X-0.550000X-1.075000X0*%
G04 #@! TD*
G04 #@! TA.AperFunction,ComponentPad*
%ADD13RoundRect,0.251100X1.098900X1.398900X-1.098900X1.398900X-1.098900X-1.398900X1.098900X-1.398900X0*%
G04 #@! TD*
G04 #@! TA.AperFunction,ComponentPad*
%ADD14O,2.700000X3.300000*%
G04 #@! TD*
G04 #@! TA.AperFunction,ComponentPad*
%ADD15RoundRect,0.250000X1.330000X1.800000X-1.330000X1.800000X-1.330000X-1.800000X1.330000X-1.800000X0*%
G04 #@! TD*
G04 #@! TA.AperFunction,ComponentPad*
%ADD16O,3.160000X4.100000*%
G04 #@! TD*
G04 #@! TA.AperFunction,ComponentPad*
%ADD17R,1.700000X1.700000*%
G04 #@! TD*
G04 #@! TA.AperFunction,ComponentPad*
%ADD18O,1.700000X1.700000*%
G04 #@! TD*
G04 #@! TA.AperFunction,SMDPad,CuDef*
%ADD19RoundRect,0.150000X0.675000X0.150000X-0.675000X0.150000X-0.675000X-0.150000X0.675000X-0.150000X0*%
G04 #@! TD*
G04 #@! TA.AperFunction,SMDPad,CuDef*
%ADD20RoundRect,0.250000X0.450000X-0.262500X0.450000X0.262500X-0.450000X0.262500X-0.450000X-0.262500X0*%
G04 #@! TD*
G04 #@! TA.AperFunction,SMDPad,CuDef*
%ADD21FreePoly0,180.000000*%
G04 #@! TD*
G04 #@! TA.AperFunction,SMDPad,CuDef*
%ADD22FreePoly1,180.000000*%
G04 #@! TD*
G04 #@! TA.AperFunction,SMDPad,CuDef*
%ADD23RoundRect,0.250000X0.262500X0.450000X-0.262500X0.450000X-0.262500X-0.450000X0.262500X-0.450000X0*%
G04 #@! TD*
G04 #@! TA.AperFunction,SMDPad,CuDef*
%ADD24RoundRect,0.243750X0.243750X0.456250X-0.243750X0.456250X-0.243750X-0.456250X0.243750X-0.456250X0*%
G04 #@! TD*
G04 #@! TA.AperFunction,ViaPad*
%ADD25C,0.800000*%
G04 #@! TD*
G04 #@! TA.AperFunction,Conductor*
%ADD26C,0.500000*%
G04 #@! TD*
G04 #@! TA.AperFunction,Conductor*
%ADD27C,0.750000*%
G04 #@! TD*
G04 #@! TA.AperFunction,Conductor*
%ADD28C,0.250000*%
G04 #@! TD*
G04 #@! TA.AperFunction,Conductor*
%ADD29C,2.000000*%
G04 #@! TD*
G04 APERTURE END LIST*
D10*
D11*
X258425142Y-59004000D02*
X258353714Y-59218285D01*
X258282285Y-59289714D01*
X258139428Y-59361142D01*
X257925142Y-59361142D01*
X257782285Y-59289714D01*
X257710857Y-59218285D01*
X257639428Y-59075428D01*
X257639428Y-58504000D01*
X259139428Y-58504000D01*
X259139428Y-59004000D01*
X259068000Y-59146857D01*
X258996571Y-59218285D01*
X258853714Y-59289714D01*
X258710857Y-59289714D01*
X258568000Y-59218285D01*
X258496571Y-59146857D01*
X258425142Y-59004000D01*
X258425142Y-58504000D01*
X258068000Y-59932571D02*
X258068000Y-60646857D01*
X257639428Y-59789714D02*
X259139428Y-60289714D01*
X257639428Y-60789714D01*
X257639428Y-61289714D02*
X259139428Y-61289714D01*
X259139428Y-61646857D01*
X259068000Y-61861142D01*
X258925142Y-62004000D01*
X258782285Y-62075428D01*
X258496571Y-62146857D01*
X258282285Y-62146857D01*
X257996571Y-62075428D01*
X257853714Y-62004000D01*
X257710857Y-61861142D01*
X257639428Y-61646857D01*
X257639428Y-61289714D01*
X259139428Y-63789714D02*
X257639428Y-64146857D01*
X258710857Y-64432571D01*
X257639428Y-64718285D01*
X259139428Y-65075428D01*
X259139428Y-65932571D02*
X259139428Y-66218285D01*
X259068000Y-66361142D01*
X258925142Y-66504000D01*
X258639428Y-66575428D01*
X258139428Y-66575428D01*
X257853714Y-66504000D01*
X257710857Y-66361142D01*
X257639428Y-66218285D01*
X257639428Y-65932571D01*
X257710857Y-65789714D01*
X257853714Y-65646857D01*
X258139428Y-65575428D01*
X258639428Y-65575428D01*
X258925142Y-65646857D01*
X259068000Y-65789714D01*
X259139428Y-65932571D01*
X257639428Y-67932571D02*
X257639428Y-67218285D01*
X259139428Y-67218285D01*
X258425142Y-68932571D02*
X258425142Y-68432571D01*
X257639428Y-68432571D02*
X259139428Y-68432571D01*
X259139428Y-69146857D01*
D12*
X224680000Y-53575000D03*
X224680000Y-50225000D03*
X208400000Y-53575000D03*
X208400000Y-50225000D03*
D13*
X255524000Y-65024000D03*
D14*
X251324000Y-65024000D03*
X247124000Y-65024000D03*
X242924000Y-65024000D03*
X238724000Y-65024000D03*
X234524000Y-65024000D03*
X230324000Y-65024000D03*
X226124000Y-65024000D03*
X221924000Y-65024000D03*
X217724000Y-65024000D03*
X213524000Y-65024000D03*
X209324000Y-65024000D03*
X255524000Y-59524000D03*
X251324000Y-59524000D03*
X247124000Y-59524000D03*
X242924000Y-59524000D03*
X238724000Y-59524000D03*
X234524000Y-59524000D03*
X230324000Y-59524000D03*
X226124000Y-59524000D03*
X221924000Y-59524000D03*
X217724000Y-59524000D03*
X213524000Y-59524000D03*
X209324000Y-59524000D03*
D15*
X257048000Y-50038000D03*
D16*
X253088000Y-50038000D03*
X249128000Y-50038000D03*
X245168000Y-50038000D03*
X241208000Y-50038000D03*
X237248000Y-50038000D03*
X233288000Y-50038000D03*
D17*
X226055000Y-46228000D03*
D18*
X228595000Y-46228000D03*
D19*
X219165000Y-53805000D03*
X219165000Y-52535000D03*
X219165000Y-51265000D03*
X219165000Y-49995000D03*
X213915000Y-49995000D03*
X213915000Y-51265000D03*
X213915000Y-52535000D03*
X213915000Y-53805000D03*
D20*
X221260000Y-52812500D03*
X221260000Y-50987500D03*
X211820000Y-52812500D03*
X211820000Y-50987500D03*
D21*
X229504000Y-49529500D03*
D22*
X228204000Y-49529500D03*
D23*
X229766500Y-52070000D03*
X227941500Y-52070000D03*
D24*
X229771500Y-54355500D03*
X227896500Y-54355500D03*
D25*
X215860000Y-49030000D03*
X217270000Y-51310000D03*
X231394000Y-54610000D03*
X210312000Y-53086000D03*
D26*
X221260000Y-52812500D02*
X223917500Y-52812500D01*
X219165000Y-52535000D02*
X220982500Y-52535000D01*
X220982500Y-52535000D02*
X221260000Y-52812500D01*
X223917500Y-52812500D02*
X224680000Y-53575000D01*
X223917500Y-50987500D02*
X224680000Y-50225000D01*
X219165000Y-49995000D02*
X220267500Y-49995000D01*
X220267500Y-49995000D02*
X221260000Y-50987500D01*
X221260000Y-50987500D02*
X223917500Y-50987500D01*
X212812500Y-49995000D02*
X211820000Y-50987500D01*
X214895000Y-49995000D02*
X215860000Y-49030000D01*
X211820000Y-50987500D02*
X209162500Y-50987500D01*
X213915000Y-49995000D02*
X214895000Y-49995000D01*
X213915000Y-49995000D02*
X212812500Y-49995000D01*
X209162500Y-50987500D02*
X208400000Y-50225000D01*
D27*
X212030000Y-62230000D02*
X230270000Y-62230000D01*
X230324000Y-65024000D02*
X232548520Y-67248520D01*
X240948520Y-67248520D02*
X244899480Y-67248520D01*
X232548520Y-67248520D02*
X236499480Y-67248520D01*
X230270000Y-62230000D02*
X230324000Y-62284000D01*
X230324000Y-62284000D02*
X230324000Y-59524000D01*
D26*
X211546500Y-53086000D02*
X208889000Y-53086000D01*
D27*
X238724000Y-65024000D02*
X238724000Y-62266000D01*
X244899480Y-67248520D02*
X247124000Y-65024000D01*
D28*
X231139500Y-54355500D02*
X231394000Y-54610000D01*
D27*
X238724000Y-65024000D02*
X240948520Y-67248520D01*
X209324000Y-59524000D02*
X212030000Y-62230000D01*
X238724000Y-62194000D02*
X238724000Y-59524000D01*
X230324000Y-65024000D02*
X230324000Y-62284000D01*
D26*
X211820000Y-52812500D02*
X211546500Y-53086000D01*
X217315000Y-51265000D02*
X217270000Y-51310000D01*
D27*
X238724000Y-62266000D02*
X238760000Y-62230000D01*
D26*
X219165000Y-51265000D02*
X217315000Y-51265000D01*
D28*
X229771500Y-54355500D02*
X231139500Y-54355500D01*
D27*
X236499480Y-67248520D02*
X238724000Y-65024000D01*
X238760000Y-62230000D02*
X238724000Y-62194000D01*
X236448520Y-58757480D02*
X241329000Y-53877000D01*
X240999480Y-63099480D02*
X240999480Y-54206520D01*
X234524000Y-65024000D02*
X236448520Y-63099480D01*
X242924000Y-65024000D02*
X240999480Y-63099480D01*
X213524000Y-59524000D02*
X221924000Y-59524000D01*
X241329000Y-53877000D02*
X245168000Y-50038000D01*
X240999480Y-54206520D02*
X241329000Y-53877000D01*
D29*
X234524000Y-65024000D02*
X234524000Y-64304000D01*
D27*
X236448520Y-63099480D02*
X236448520Y-58757480D01*
D28*
X229766500Y-52070000D02*
X229766500Y-52485500D01*
X229766500Y-52485500D02*
X227896500Y-54355500D01*
X229504000Y-49529500D02*
X229504000Y-50507500D01*
X229504000Y-50507500D02*
X227941500Y-52070000D01*
G04 #@! TA.AperFunction,Conductor*
G36*
X224638621Y-45232002D02*
G01*
X224685114Y-45285658D01*
X224696500Y-45338000D01*
X224696500Y-47126134D01*
X224703255Y-47188316D01*
X224754385Y-47324705D01*
X224841739Y-47441261D01*
X224958295Y-47528615D01*
X225094684Y-47579745D01*
X225156866Y-47586500D01*
X226953134Y-47586500D01*
X227015316Y-47579745D01*
X227151705Y-47528615D01*
X227268261Y-47441261D01*
X227355615Y-47324705D01*
X227377799Y-47265529D01*
X227399598Y-47207382D01*
X227442240Y-47150618D01*
X227508802Y-47125918D01*
X227578150Y-47141126D01*
X227612817Y-47169114D01*
X227641250Y-47201938D01*
X227813126Y-47344632D01*
X228006000Y-47457338D01*
X228214692Y-47537030D01*
X228219760Y-47538061D01*
X228219763Y-47538062D01*
X228279945Y-47550306D01*
X228433597Y-47581567D01*
X228438772Y-47581757D01*
X228438774Y-47581757D01*
X228651673Y-47589564D01*
X228651677Y-47589564D01*
X228656837Y-47589753D01*
X228661957Y-47589097D01*
X228661959Y-47589097D01*
X228873288Y-47562025D01*
X228873289Y-47562025D01*
X228878416Y-47561368D01*
X228883366Y-47559883D01*
X229087429Y-47498661D01*
X229087434Y-47498659D01*
X229092384Y-47497174D01*
X229292994Y-47398896D01*
X229474860Y-47269173D01*
X229633096Y-47111489D01*
X229763453Y-46930077D01*
X229862430Y-46729811D01*
X229927370Y-46516069D01*
X229956529Y-46294590D01*
X229958156Y-46228000D01*
X229939852Y-46005361D01*
X229885431Y-45788702D01*
X229796354Y-45583840D01*
X229681589Y-45406440D01*
X229661382Y-45338380D01*
X229681178Y-45270199D01*
X229734694Y-45223545D01*
X229787381Y-45212000D01*
X259103800Y-45212000D01*
X259171921Y-45232002D01*
X259218414Y-45285658D01*
X259229800Y-45338000D01*
X259229800Y-47729956D01*
X259209798Y-47798077D01*
X259156142Y-47844570D01*
X259085868Y-47854674D01*
X259021288Y-47825180D01*
X258996656Y-47796259D01*
X258980332Y-47769880D01*
X258976478Y-47763652D01*
X258851303Y-47638695D01*
X258845072Y-47634854D01*
X258706968Y-47549725D01*
X258706966Y-47549724D01*
X258700738Y-47545885D01*
X258584320Y-47507271D01*
X258539389Y-47492368D01*
X258539387Y-47492368D01*
X258532861Y-47490203D01*
X258526025Y-47489503D01*
X258526022Y-47489502D01*
X258482969Y-47485091D01*
X258428400Y-47479500D01*
X255667600Y-47479500D01*
X255664354Y-47479837D01*
X255664350Y-47479837D01*
X255568692Y-47489762D01*
X255568688Y-47489763D01*
X255561834Y-47490474D01*
X255555298Y-47492655D01*
X255555296Y-47492655D01*
X255447512Y-47528615D01*
X255394054Y-47546450D01*
X255243652Y-47639522D01*
X255118695Y-47764697D01*
X255114855Y-47770927D01*
X255114854Y-47770928D01*
X255081413Y-47825180D01*
X255025885Y-47915262D01*
X254970203Y-48083139D01*
X254969503Y-48089975D01*
X254969502Y-48089978D01*
X254966132Y-48122872D01*
X254959500Y-48187600D01*
X254959500Y-48202942D01*
X254939498Y-48271063D01*
X254885842Y-48317556D01*
X254815568Y-48327660D01*
X254750988Y-48298166D01*
X254731564Y-48277003D01*
X254694380Y-48225823D01*
X254694377Y-48225820D01*
X254691791Y-48222260D01*
X254661427Y-48190817D01*
X254491946Y-48015314D01*
X254491942Y-48015311D01*
X254488892Y-48012152D01*
X254258726Y-47832327D01*
X254005774Y-47686285D01*
X253734958Y-47576868D01*
X253675427Y-47562025D01*
X253578851Y-47537946D01*
X253451550Y-47506206D01*
X253447182Y-47505747D01*
X253447177Y-47505746D01*
X253165435Y-47476134D01*
X253165432Y-47476134D01*
X253161066Y-47475675D01*
X253156678Y-47475828D01*
X253156672Y-47475828D01*
X252873557Y-47485715D01*
X252873551Y-47485716D01*
X252869159Y-47485869D01*
X252581512Y-47536589D01*
X252577341Y-47537944D01*
X252577334Y-47537946D01*
X252427902Y-47586500D01*
X252303724Y-47626848D01*
X252299771Y-47628776D01*
X252299766Y-47628778D01*
X252176416Y-47688940D01*
X252041200Y-47754889D01*
X252037561Y-47757343D01*
X252037555Y-47757347D01*
X251802697Y-47915761D01*
X251802690Y-47915766D01*
X251799051Y-47918221D01*
X251795782Y-47921165D01*
X251795780Y-47921166D01*
X251617340Y-48081834D01*
X251581990Y-48113663D01*
X251579161Y-48117035D01*
X251397070Y-48334042D01*
X251397066Y-48334047D01*
X251394242Y-48337413D01*
X251239461Y-48585114D01*
X251237676Y-48589124D01*
X251237673Y-48589129D01*
X251222081Y-48624150D01*
X251176102Y-48678246D01*
X251108175Y-48698896D01*
X251039866Y-48679544D01*
X250995723Y-48632056D01*
X250919205Y-48488148D01*
X250903473Y-48458561D01*
X250862527Y-48402203D01*
X250734380Y-48225823D01*
X250734377Y-48225820D01*
X250731791Y-48222260D01*
X250701427Y-48190817D01*
X250531946Y-48015314D01*
X250531942Y-48015311D01*
X250528892Y-48012152D01*
X250298726Y-47832327D01*
X250045774Y-47686285D01*
X249774958Y-47576868D01*
X249715427Y-47562025D01*
X249618851Y-47537946D01*
X249491550Y-47506206D01*
X249487182Y-47505747D01*
X249487177Y-47505746D01*
X249205435Y-47476134D01*
X249205432Y-47476134D01*
X249201066Y-47475675D01*
X249196678Y-47475828D01*
X249196672Y-47475828D01*
X248913557Y-47485715D01*
X248913551Y-47485716D01*
X248909159Y-47485869D01*
X248621512Y-47536589D01*
X248617341Y-47537944D01*
X248617334Y-47537946D01*
X248467902Y-47586500D01*
X248343724Y-47626848D01*
X248339771Y-47628776D01*
X248339766Y-47628778D01*
X248216416Y-47688940D01*
X248081200Y-47754889D01*
X248077561Y-47757343D01*
X248077555Y-47757347D01*
X247842697Y-47915761D01*
X247842690Y-47915766D01*
X247839051Y-47918221D01*
X247835782Y-47921165D01*
X247835780Y-47921166D01*
X247657340Y-48081834D01*
X247621990Y-48113663D01*
X247619161Y-48117035D01*
X247437070Y-48334042D01*
X247437066Y-48334047D01*
X247434242Y-48337413D01*
X247279461Y-48585114D01*
X247277676Y-48589124D01*
X247277672Y-48589131D01*
X247261821Y-48624732D01*
X247215841Y-48678827D01*
X247147914Y-48699476D01*
X247079606Y-48680123D01*
X247035464Y-48632635D01*
X246945119Y-48462719D01*
X246940460Y-48455263D01*
X246773996Y-48226145D01*
X246768349Y-48219415D01*
X246571611Y-48015686D01*
X246565089Y-48009815D01*
X246341912Y-47835450D01*
X246334639Y-47830544D01*
X246089374Y-47688940D01*
X246081464Y-47685082D01*
X245818884Y-47578994D01*
X245810532Y-47576280D01*
X245535734Y-47507765D01*
X245527090Y-47506240D01*
X245440015Y-47497088D01*
X245425364Y-47499768D01*
X245422000Y-47512087D01*
X245422000Y-52565309D01*
X245425779Y-52578178D01*
X245440845Y-52580101D01*
X245670043Y-52539687D01*
X245678544Y-52537567D01*
X245947900Y-52450049D01*
X245956047Y-52446758D01*
X246210597Y-52322604D01*
X246218194Y-52318219D01*
X246452989Y-52159847D01*
X246459912Y-52154439D01*
X246670376Y-51964936D01*
X246676483Y-51958611D01*
X246858522Y-51741667D01*
X246863684Y-51734562D01*
X247013770Y-51494374D01*
X247017886Y-51486633D01*
X247033623Y-51451288D01*
X247079603Y-51397193D01*
X247147530Y-51376544D01*
X247215838Y-51395897D01*
X247259979Y-51443383D01*
X247352527Y-51617439D01*
X247355113Y-51620998D01*
X247355114Y-51621000D01*
X247520987Y-51849305D01*
X247524209Y-51853740D01*
X247527265Y-51856904D01*
X247527267Y-51856907D01*
X247717598Y-52054000D01*
X247727108Y-52063848D01*
X247957274Y-52243673D01*
X248210226Y-52389715D01*
X248481042Y-52499132D01*
X248764450Y-52569794D01*
X248768818Y-52570253D01*
X248768823Y-52570254D01*
X249050565Y-52599866D01*
X249050568Y-52599866D01*
X249054934Y-52600325D01*
X249059322Y-52600172D01*
X249059328Y-52600172D01*
X249342443Y-52590285D01*
X249342449Y-52590284D01*
X249346841Y-52590131D01*
X249634488Y-52539411D01*
X249638659Y-52538056D01*
X249638666Y-52538054D01*
X249867526Y-52463692D01*
X249912276Y-52449152D01*
X249916229Y-52447224D01*
X249916234Y-52447222D01*
X250170849Y-52323038D01*
X250174800Y-52321111D01*
X250178439Y-52318657D01*
X250178445Y-52318653D01*
X250413303Y-52160239D01*
X250413310Y-52160234D01*
X250416949Y-52157779D01*
X250420659Y-52154439D01*
X250630736Y-51965285D01*
X250630737Y-51965284D01*
X250634010Y-51962337D01*
X250723214Y-51856027D01*
X250818930Y-51741958D01*
X250818934Y-51741953D01*
X250821758Y-51738587D01*
X250976539Y-51490886D01*
X250978328Y-51486869D01*
X250993919Y-51451850D01*
X251039898Y-51397754D01*
X251107825Y-51377104D01*
X251176134Y-51396456D01*
X251220277Y-51443944D01*
X251260096Y-51518831D01*
X251312527Y-51617439D01*
X251315113Y-51620998D01*
X251315114Y-51621000D01*
X251480987Y-51849305D01*
X251484209Y-51853740D01*
X251487265Y-51856904D01*
X251487267Y-51856907D01*
X251677598Y-52054000D01*
X251687108Y-52063848D01*
X251917274Y-52243673D01*
X252170226Y-52389715D01*
X252441042Y-52499132D01*
X252724450Y-52569794D01*
X252728818Y-52570253D01*
X252728823Y-52570254D01*
X253010565Y-52599866D01*
X253010568Y-52599866D01*
X253014934Y-52600325D01*
X253019322Y-52600172D01*
X253019328Y-52600172D01*
X253302443Y-52590285D01*
X253302449Y-52590284D01*
X253306841Y-52590131D01*
X253594488Y-52539411D01*
X253598659Y-52538056D01*
X253598666Y-52538054D01*
X253827526Y-52463692D01*
X253872276Y-52449152D01*
X253876229Y-52447224D01*
X253876234Y-52447222D01*
X254130849Y-52323038D01*
X254134800Y-52321111D01*
X254138439Y-52318657D01*
X254138445Y-52318653D01*
X254373303Y-52160239D01*
X254373310Y-52160234D01*
X254376949Y-52157779D01*
X254380659Y-52154439D01*
X254590736Y-51965285D01*
X254590737Y-51965284D01*
X254594010Y-51962337D01*
X254717659Y-51814978D01*
X254736978Y-51791954D01*
X254796088Y-51752627D01*
X254867076Y-51751501D01*
X254927403Y-51788932D01*
X254957917Y-51853037D01*
X254959500Y-51872945D01*
X254959500Y-51888400D01*
X254959837Y-51891646D01*
X254959837Y-51891650D01*
X254969415Y-51983955D01*
X254970474Y-51994166D01*
X254972655Y-52000702D01*
X254972655Y-52000704D01*
X255000087Y-52082928D01*
X255026450Y-52161946D01*
X255119522Y-52312348D01*
X255244697Y-52437305D01*
X255250927Y-52441145D01*
X255250928Y-52441146D01*
X255388090Y-52525694D01*
X255395262Y-52530115D01*
X255475005Y-52556564D01*
X255556611Y-52583632D01*
X255556613Y-52583632D01*
X255563139Y-52585797D01*
X255569975Y-52586497D01*
X255569978Y-52586498D01*
X255613031Y-52590909D01*
X255667600Y-52596500D01*
X258428400Y-52596500D01*
X258431646Y-52596163D01*
X258431650Y-52596163D01*
X258527308Y-52586238D01*
X258527312Y-52586237D01*
X258534166Y-52585526D01*
X258540702Y-52583345D01*
X258540704Y-52583345D01*
X258677916Y-52537567D01*
X258701946Y-52529550D01*
X258852348Y-52436478D01*
X258977305Y-52311303D01*
X258996540Y-52280098D01*
X259049312Y-52232605D01*
X259119384Y-52221181D01*
X259184508Y-52249455D01*
X259224007Y-52308449D01*
X259229800Y-52346214D01*
X259229800Y-57212857D01*
X259209798Y-57280978D01*
X259156142Y-57327471D01*
X259103800Y-57338857D01*
X256002500Y-57338857D01*
X256002500Y-57346651D01*
X255993147Y-57357445D01*
X255933421Y-57395829D01*
X255873558Y-57398555D01*
X255751100Y-57374419D01*
X255746543Y-57374192D01*
X255746542Y-57374192D01*
X255486292Y-57361236D01*
X255486286Y-57361236D01*
X255481723Y-57361009D01*
X255213231Y-57386625D01*
X255208797Y-57387710D01*
X255208791Y-57387711D01*
X254955688Y-57449645D01*
X254951250Y-57450731D01*
X254701267Y-57551985D01*
X254468518Y-57688265D01*
X254257881Y-57856716D01*
X254073766Y-58053809D01*
X253920032Y-58275416D01*
X253799899Y-58516894D01*
X253798478Y-58521228D01*
X253798477Y-58521231D01*
X253798415Y-58521422D01*
X253715882Y-58773186D01*
X253715102Y-58777677D01*
X253715102Y-58777678D01*
X253683525Y-58959547D01*
X253669743Y-59038921D01*
X253665500Y-59124149D01*
X253665500Y-59892512D01*
X253665664Y-59894777D01*
X253665665Y-59894792D01*
X253667888Y-59925422D01*
X253680047Y-60093004D01*
X253681031Y-60097459D01*
X253681031Y-60097462D01*
X253737180Y-60351778D01*
X253738194Y-60356372D01*
X253739812Y-60360642D01*
X253805944Y-60535194D01*
X253833750Y-60608588D01*
X253964714Y-60844368D01*
X253967486Y-60848000D01*
X254081608Y-60997535D01*
X254128343Y-61058773D01*
X254321208Y-61247312D01*
X254539270Y-61406034D01*
X254639031Y-61458521D01*
X254773921Y-61529490D01*
X254773927Y-61529493D01*
X254777961Y-61531615D01*
X254782266Y-61533135D01*
X254782270Y-61533137D01*
X255027967Y-61619902D01*
X255032280Y-61621425D01*
X255160032Y-61646605D01*
X255292428Y-61672700D01*
X255292434Y-61672701D01*
X255296900Y-61673581D01*
X255301453Y-61673808D01*
X255301456Y-61673808D01*
X255561708Y-61686764D01*
X255561714Y-61686764D01*
X255566277Y-61686991D01*
X255834769Y-61661375D01*
X255846555Y-61658491D01*
X255917477Y-61661730D01*
X255975390Y-61702799D01*
X256001906Y-61768658D01*
X256002500Y-61780881D01*
X256002500Y-62739500D01*
X255982498Y-62807621D01*
X255928842Y-62854114D01*
X255876500Y-62865500D01*
X254415774Y-62865501D01*
X254374632Y-62865501D01*
X254371388Y-62865838D01*
X254371380Y-62865838D01*
X254325096Y-62870641D01*
X254268707Y-62876491D01*
X254100685Y-62932547D01*
X253950064Y-63025754D01*
X253944891Y-63030936D01*
X253830097Y-63145930D01*
X253830093Y-63145935D01*
X253824926Y-63151111D01*
X253731982Y-63301894D01*
X253676219Y-63470014D01*
X253665500Y-63574631D01*
X253665501Y-66473368D01*
X253676491Y-66579293D01*
X253732547Y-66747315D01*
X253825754Y-66897936D01*
X253830936Y-66903109D01*
X253945930Y-67017903D01*
X253945935Y-67017907D01*
X253951111Y-67023074D01*
X253957341Y-67026914D01*
X253957342Y-67026915D01*
X254073238Y-67098354D01*
X254101894Y-67116018D01*
X254270014Y-67171781D01*
X254276851Y-67172481D01*
X254276853Y-67172482D01*
X254319922Y-67176895D01*
X254374631Y-67182500D01*
X254415159Y-67182500D01*
X255876500Y-67182499D01*
X255944621Y-67202501D01*
X255991114Y-67256157D01*
X256002500Y-67308499D01*
X256002500Y-69136000D01*
X255982498Y-69204121D01*
X255928842Y-69250614D01*
X255876500Y-69262000D01*
X205584000Y-69262000D01*
X205515879Y-69241998D01*
X205469386Y-69188342D01*
X205458000Y-69136000D01*
X205458000Y-65392512D01*
X207465500Y-65392512D01*
X207465664Y-65394777D01*
X207465665Y-65394792D01*
X207467888Y-65425422D01*
X207480047Y-65593004D01*
X207481031Y-65597459D01*
X207481031Y-65597462D01*
X207537178Y-65851769D01*
X207538194Y-65856372D01*
X207581753Y-65971343D01*
X207605944Y-66035194D01*
X207633750Y-66108588D01*
X207764714Y-66344368D01*
X207767486Y-66348000D01*
X207881608Y-66497535D01*
X207928343Y-66558773D01*
X208121208Y-66747312D01*
X208339270Y-66906034D01*
X208439031Y-66958521D01*
X208573921Y-67029490D01*
X208573927Y-67029493D01*
X208577961Y-67031615D01*
X208582266Y-67033135D01*
X208582270Y-67033137D01*
X208823493Y-67118322D01*
X208832280Y-67121425D01*
X208960032Y-67146605D01*
X209092428Y-67172700D01*
X209092434Y-67172701D01*
X209096900Y-67173581D01*
X209101453Y-67173808D01*
X209101456Y-67173808D01*
X209361708Y-67186764D01*
X209361714Y-67186764D01*
X209366277Y-67186991D01*
X209634769Y-67161375D01*
X209639203Y-67160290D01*
X209639209Y-67160289D01*
X209892312Y-67098355D01*
X209896750Y-67097269D01*
X210146733Y-66996015D01*
X210379482Y-66859735D01*
X210590119Y-66691284D01*
X210774234Y-66494191D01*
X210927968Y-66272584D01*
X211048101Y-66031106D01*
X211049523Y-66026769D01*
X211130698Y-65779147D01*
X211130699Y-65779141D01*
X211132118Y-65774814D01*
X211132919Y-65770201D01*
X211177601Y-65512860D01*
X211177602Y-65512852D01*
X211178257Y-65509079D01*
X211182500Y-65423851D01*
X211182500Y-64655488D01*
X211180114Y-64622592D01*
X211172823Y-64522116D01*
X211167953Y-64454996D01*
X211128831Y-64277799D01*
X211110791Y-64196088D01*
X211110790Y-64196084D01*
X211109806Y-64191628D01*
X211045321Y-64021422D01*
X211015868Y-63943682D01*
X211015867Y-63943679D01*
X211014250Y-63939412D01*
X210883286Y-63703632D01*
X210772045Y-63557871D01*
X210722429Y-63492859D01*
X210722428Y-63492858D01*
X210719657Y-63489227D01*
X210693327Y-63463487D01*
X210623225Y-63394958D01*
X210526792Y-63300688D01*
X210308730Y-63141966D01*
X210180899Y-63074711D01*
X210074079Y-63018510D01*
X210074073Y-63018507D01*
X210070039Y-63016385D01*
X210065734Y-63014865D01*
X210065730Y-63014863D01*
X209820033Y-62928098D01*
X209820032Y-62928098D01*
X209815720Y-62926575D01*
X209680006Y-62899826D01*
X209555572Y-62875300D01*
X209555566Y-62875299D01*
X209551100Y-62874419D01*
X209546547Y-62874192D01*
X209546544Y-62874192D01*
X209286292Y-62861236D01*
X209286286Y-62861236D01*
X209281723Y-62861009D01*
X209013231Y-62886625D01*
X209008797Y-62887710D01*
X209008791Y-62887711D01*
X208835035Y-62930229D01*
X208751250Y-62950731D01*
X208501267Y-63051985D01*
X208268518Y-63188265D01*
X208057881Y-63356716D01*
X207873766Y-63553809D01*
X207720032Y-63775416D01*
X207599899Y-64016894D01*
X207598478Y-64021228D01*
X207598477Y-64021231D01*
X207598415Y-64021422D01*
X207515882Y-64273186D01*
X207515102Y-64277677D01*
X207515102Y-64277678D01*
X207483525Y-64459547D01*
X207469743Y-64538921D01*
X207465500Y-64624149D01*
X207465500Y-65392512D01*
X205458000Y-65392512D01*
X205458000Y-59892512D01*
X207465500Y-59892512D01*
X207465664Y-59894777D01*
X207465665Y-59894792D01*
X207467888Y-59925422D01*
X207480047Y-60093004D01*
X207481031Y-60097459D01*
X207481031Y-60097462D01*
X207537180Y-60351778D01*
X207538194Y-60356372D01*
X207539812Y-60360642D01*
X207605944Y-60535194D01*
X207633750Y-60608588D01*
X207764714Y-60844368D01*
X207767486Y-60848000D01*
X207881608Y-60997535D01*
X207928343Y-61058773D01*
X208121208Y-61247312D01*
X208339270Y-61406034D01*
X208439031Y-61458521D01*
X208573921Y-61529490D01*
X208573927Y-61529493D01*
X208577961Y-61531615D01*
X208582266Y-61533135D01*
X208582270Y-61533137D01*
X208827967Y-61619902D01*
X208832280Y-61621425D01*
X208960032Y-61646605D01*
X209092428Y-61672700D01*
X209092434Y-61672701D01*
X209096900Y-61673581D01*
X209101453Y-61673808D01*
X209101456Y-61673808D01*
X209361708Y-61686764D01*
X209361714Y-61686764D01*
X209366277Y-61686991D01*
X209634769Y-61661375D01*
X209639203Y-61660290D01*
X209639209Y-61660289D01*
X209892312Y-61598355D01*
X209896750Y-61597269D01*
X209918651Y-61588398D01*
X209998067Y-61556232D01*
X210068714Y-61549198D01*
X210134464Y-61583921D01*
X211349085Y-62798542D01*
X211361926Y-62813577D01*
X211365927Y-62819084D01*
X211365932Y-62819090D01*
X211369815Y-62824434D01*
X211374725Y-62828855D01*
X211374726Y-62828856D01*
X211419194Y-62868895D01*
X211423979Y-62873436D01*
X211438015Y-62887472D01*
X211440575Y-62889545D01*
X211440576Y-62889546D01*
X211453443Y-62899966D01*
X211458453Y-62904246D01*
X211502921Y-62944284D01*
X211502926Y-62944288D01*
X211507831Y-62948704D01*
X211513543Y-62952002D01*
X211513546Y-62952004D01*
X211519446Y-62955410D01*
X211535742Y-62966610D01*
X211546161Y-62975047D01*
X211605363Y-63005213D01*
X211611133Y-63008346D01*
X211662945Y-63038260D01*
X211662950Y-63038262D01*
X211668669Y-63041564D01*
X211674949Y-63043605D01*
X211674957Y-63043608D01*
X211681421Y-63045708D01*
X211699683Y-63053272D01*
X211705749Y-63056363D01*
X211705758Y-63056366D01*
X211711637Y-63059362D01*
X211718015Y-63061071D01*
X211775804Y-63076556D01*
X211782106Y-63078422D01*
X211845298Y-63098954D01*
X211858205Y-63100311D01*
X211858628Y-63100355D01*
X211878071Y-63103958D01*
X211891029Y-63107430D01*
X211897619Y-63107775D01*
X211897623Y-63107776D01*
X211941573Y-63110079D01*
X211957372Y-63110907D01*
X211963931Y-63111423D01*
X211983694Y-63113500D01*
X212003555Y-63113500D01*
X212010150Y-63113673D01*
X212069902Y-63116805D01*
X212069906Y-63116805D01*
X212076493Y-63117150D01*
X212089747Y-63115051D01*
X212109456Y-63113500D01*
X212202710Y-63113500D01*
X212270831Y-63133502D01*
X212317324Y-63187158D01*
X212327428Y-63257432D01*
X212297934Y-63322012D01*
X212281406Y-63337902D01*
X212261449Y-63353862D01*
X212261447Y-63353864D01*
X212257881Y-63356716D01*
X212073766Y-63553809D01*
X211920032Y-63775416D01*
X211799899Y-64016894D01*
X211798478Y-64021228D01*
X211798477Y-64021231D01*
X211798415Y-64021422D01*
X211715882Y-64273186D01*
X211715102Y-64277677D01*
X211715102Y-64277678D01*
X211683525Y-64459547D01*
X211669743Y-64538921D01*
X211665500Y-64624149D01*
X211665500Y-65392512D01*
X211665664Y-65394777D01*
X211665665Y-65394792D01*
X211667888Y-65425422D01*
X211680047Y-65593004D01*
X211681031Y-65597459D01*
X211681031Y-65597462D01*
X211737178Y-65851769D01*
X211738194Y-65856372D01*
X211781753Y-65971343D01*
X211805944Y-66035194D01*
X211833750Y-66108588D01*
X211964714Y-66344368D01*
X211967486Y-66348000D01*
X212081608Y-66497535D01*
X212128343Y-66558773D01*
X212321208Y-66747312D01*
X212539270Y-66906034D01*
X212639031Y-66958521D01*
X212773921Y-67029490D01*
X212773927Y-67029493D01*
X212777961Y-67031615D01*
X212782266Y-67033135D01*
X212782270Y-67033137D01*
X213023493Y-67118322D01*
X213032280Y-67121425D01*
X213160032Y-67146605D01*
X213292428Y-67172700D01*
X213292434Y-67172701D01*
X213296900Y-67173581D01*
X213301453Y-67173808D01*
X213301456Y-67173808D01*
X213561708Y-67186764D01*
X213561714Y-67186764D01*
X213566277Y-67186991D01*
X213834769Y-67161375D01*
X213839203Y-67160290D01*
X213839209Y-67160289D01*
X214092312Y-67098355D01*
X214096750Y-67097269D01*
X214346733Y-66996015D01*
X214579482Y-66859735D01*
X214790119Y-66691284D01*
X214974234Y-66494191D01*
X215127968Y-66272584D01*
X215248101Y-66031106D01*
X215249523Y-66026769D01*
X215330698Y-65779147D01*
X215330699Y-65779141D01*
X215332118Y-65774814D01*
X215332919Y-65770201D01*
X215377601Y-65512860D01*
X215377602Y-65512852D01*
X215378257Y-65509079D01*
X215382500Y-65423851D01*
X215382500Y-64655488D01*
X215380114Y-64622592D01*
X215372823Y-64522116D01*
X215367953Y-64454996D01*
X215328831Y-64277799D01*
X215310791Y-64196088D01*
X215310790Y-64196084D01*
X215309806Y-64191628D01*
X215245321Y-64021422D01*
X215215868Y-63943682D01*
X215215867Y-63943679D01*
X215214250Y-63939412D01*
X215083286Y-63703632D01*
X214972045Y-63557871D01*
X214922429Y-63492859D01*
X214922428Y-63492858D01*
X214919657Y-63489227D01*
X214893327Y-63463487D01*
X214844818Y-63416067D01*
X214756367Y-63329599D01*
X214721637Y-63267678D01*
X214725898Y-63196809D01*
X214767798Y-63139495D01*
X214834032Y-63113931D01*
X214844446Y-63113500D01*
X216402710Y-63113500D01*
X216470831Y-63133502D01*
X216517324Y-63187158D01*
X216527428Y-63257432D01*
X216497934Y-63322012D01*
X216481406Y-63337902D01*
X216461449Y-63353862D01*
X216461447Y-63353864D01*
X216457881Y-63356716D01*
X216273766Y-63553809D01*
X216120032Y-63775416D01*
X215999899Y-64016894D01*
X215998478Y-64021228D01*
X215998477Y-64021231D01*
X215998415Y-64021422D01*
X215915882Y-64273186D01*
X215915102Y-64277677D01*
X215915102Y-64277678D01*
X215883525Y-64459547D01*
X215869743Y-64538921D01*
X215865500Y-64624149D01*
X215865500Y-65392512D01*
X215865664Y-65394777D01*
X215865665Y-65394792D01*
X215867888Y-65425422D01*
X215880047Y-65593004D01*
X215881031Y-65597459D01*
X215881031Y-65597462D01*
X215937178Y-65851769D01*
X215938194Y-65856372D01*
X215981753Y-65971343D01*
X216005944Y-66035194D01*
X216033750Y-66108588D01*
X216164714Y-66344368D01*
X216167486Y-66348000D01*
X216281608Y-66497535D01*
X216328343Y-66558773D01*
X216521208Y-66747312D01*
X216739270Y-66906034D01*
X216839031Y-66958521D01*
X216973921Y-67029490D01*
X216973927Y-67029493D01*
X216977961Y-67031615D01*
X216982266Y-67033135D01*
X216982270Y-67033137D01*
X217223493Y-67118322D01*
X217232280Y-67121425D01*
X217360032Y-67146605D01*
X217492428Y-67172700D01*
X217492434Y-67172701D01*
X217496900Y-67173581D01*
X217501453Y-67173808D01*
X217501456Y-67173808D01*
X217761708Y-67186764D01*
X217761714Y-67186764D01*
X217766277Y-67186991D01*
X218034769Y-67161375D01*
X218039203Y-67160290D01*
X218039209Y-67160289D01*
X218292312Y-67098355D01*
X218296750Y-67097269D01*
X218546733Y-66996015D01*
X218779482Y-66859735D01*
X218990119Y-66691284D01*
X219174234Y-66494191D01*
X219327968Y-66272584D01*
X219448101Y-66031106D01*
X219449523Y-66026769D01*
X219530698Y-65779147D01*
X219530699Y-65779141D01*
X219532118Y-65774814D01*
X219532919Y-65770201D01*
X219577601Y-65512860D01*
X219577602Y-65512852D01*
X219578257Y-65509079D01*
X219582500Y-65423851D01*
X219582500Y-64655488D01*
X219580114Y-64622592D01*
X219572823Y-64522116D01*
X219567953Y-64454996D01*
X219528831Y-64277799D01*
X219510791Y-64196088D01*
X219510790Y-64196084D01*
X219509806Y-64191628D01*
X219445321Y-64021422D01*
X219415868Y-63943682D01*
X219415867Y-63943679D01*
X219414250Y-63939412D01*
X219283286Y-63703632D01*
X219172045Y-63557871D01*
X219122429Y-63492859D01*
X219122428Y-63492858D01*
X219119657Y-63489227D01*
X219093327Y-63463487D01*
X219044818Y-63416067D01*
X218956367Y-63329599D01*
X218921637Y-63267678D01*
X218925898Y-63196809D01*
X218967798Y-63139495D01*
X219034032Y-63113931D01*
X219044446Y-63113500D01*
X220602710Y-63113500D01*
X220670831Y-63133502D01*
X220717324Y-63187158D01*
X220727428Y-63257432D01*
X220697934Y-63322012D01*
X220681406Y-63337902D01*
X220661449Y-63353862D01*
X220661447Y-63353864D01*
X220657881Y-63356716D01*
X220473766Y-63553809D01*
X220320032Y-63775416D01*
X220199899Y-64016894D01*
X220198478Y-64021228D01*
X220198477Y-64021231D01*
X220198415Y-64021422D01*
X220115882Y-64273186D01*
X220115102Y-64277677D01*
X220115102Y-64277678D01*
X220083525Y-64459547D01*
X220069743Y-64538921D01*
X220065500Y-64624149D01*
X220065500Y-65392512D01*
X220065664Y-65394777D01*
X220065665Y-65394792D01*
X220067888Y-65425422D01*
X220080047Y-65593004D01*
X220081031Y-65597459D01*
X220081031Y-65597462D01*
X220137178Y-65851769D01*
X220138194Y-65856372D01*
X220181753Y-65971343D01*
X220205944Y-66035194D01*
X220233750Y-66108588D01*
X220364714Y-66344368D01*
X220367486Y-66348000D01*
X220481608Y-66497535D01*
X220528343Y-66558773D01*
X220721208Y-66747312D01*
X220939270Y-66906034D01*
X221039031Y-66958521D01*
X221173921Y-67029490D01*
X221173927Y-67029493D01*
X221177961Y-67031615D01*
X221182266Y-67033135D01*
X221182270Y-67033137D01*
X221423493Y-67118322D01*
X221432280Y-67121425D01*
X221560032Y-67146605D01*
X221692428Y-67172700D01*
X221692434Y-67172701D01*
X221696900Y-67173581D01*
X221701453Y-67173808D01*
X221701456Y-67173808D01*
X221961708Y-67186764D01*
X221961714Y-67186764D01*
X221966277Y-67186991D01*
X222234769Y-67161375D01*
X222239203Y-67160290D01*
X222239209Y-67160289D01*
X222492312Y-67098355D01*
X222496750Y-67097269D01*
X222746733Y-66996015D01*
X222979482Y-66859735D01*
X223190119Y-66691284D01*
X223374234Y-66494191D01*
X223527968Y-66272584D01*
X223648101Y-66031106D01*
X223649523Y-66026769D01*
X223730698Y-65779147D01*
X223730699Y-65779141D01*
X223732118Y-65774814D01*
X223732919Y-65770201D01*
X223777601Y-65512860D01*
X223777602Y-65512852D01*
X223778257Y-65509079D01*
X223782500Y-65423851D01*
X223782500Y-64655488D01*
X223780114Y-64622592D01*
X223772823Y-64522116D01*
X223767953Y-64454996D01*
X223728831Y-64277799D01*
X223710791Y-64196088D01*
X223710790Y-64196084D01*
X223709806Y-64191628D01*
X223645321Y-64021422D01*
X223615868Y-63943682D01*
X223615867Y-63943679D01*
X223614250Y-63939412D01*
X223483286Y-63703632D01*
X223372045Y-63557871D01*
X223322429Y-63492859D01*
X223322428Y-63492858D01*
X223319657Y-63489227D01*
X223293327Y-63463487D01*
X223244818Y-63416067D01*
X223156367Y-63329599D01*
X223121637Y-63267678D01*
X223125898Y-63196809D01*
X223167798Y-63139495D01*
X223234032Y-63113931D01*
X223244446Y-63113500D01*
X224802710Y-63113500D01*
X224870831Y-63133502D01*
X224917324Y-63187158D01*
X224927428Y-63257432D01*
X224897934Y-63322012D01*
X224881406Y-63337902D01*
X224861449Y-63353862D01*
X224861447Y-63353864D01*
X224857881Y-63356716D01*
X224673766Y-63553809D01*
X224520032Y-63775416D01*
X224399899Y-64016894D01*
X224398478Y-64021228D01*
X224398477Y-64021231D01*
X224398415Y-64021422D01*
X224315882Y-64273186D01*
X224315102Y-64277677D01*
X224315102Y-64277678D01*
X224283525Y-64459547D01*
X224269743Y-64538921D01*
X224265500Y-64624149D01*
X224265500Y-65392512D01*
X224265664Y-65394777D01*
X224265665Y-65394792D01*
X224267888Y-65425422D01*
X224280047Y-65593004D01*
X224281031Y-65597459D01*
X224281031Y-65597462D01*
X224337178Y-65851769D01*
X224338194Y-65856372D01*
X224381753Y-65971343D01*
X224405944Y-66035194D01*
X224433750Y-66108588D01*
X224564714Y-66344368D01*
X224567486Y-66348000D01*
X224681608Y-66497535D01*
X224728343Y-66558773D01*
X224921208Y-66747312D01*
X225139270Y-66906034D01*
X225239031Y-66958521D01*
X225373921Y-67029490D01*
X225373927Y-67029493D01*
X225377961Y-67031615D01*
X225382266Y-67033135D01*
X225382270Y-67033137D01*
X225623493Y-67118322D01*
X225632280Y-67121425D01*
X225760032Y-67146605D01*
X225892428Y-67172700D01*
X225892434Y-67172701D01*
X225896900Y-67173581D01*
X225901453Y-67173808D01*
X225901456Y-67173808D01*
X226161708Y-67186764D01*
X226161714Y-67186764D01*
X226166277Y-67186991D01*
X226434769Y-67161375D01*
X226439203Y-67160290D01*
X226439209Y-67160289D01*
X226692312Y-67098355D01*
X226696750Y-67097269D01*
X226946733Y-66996015D01*
X227179482Y-66859735D01*
X227390119Y-66691284D01*
X227574234Y-66494191D01*
X227727968Y-66272584D01*
X227848101Y-66031106D01*
X227849523Y-66026769D01*
X227930698Y-65779147D01*
X227930699Y-65779141D01*
X227932118Y-65774814D01*
X227932919Y-65770201D01*
X227977601Y-65512860D01*
X227977602Y-65512852D01*
X227978257Y-65509079D01*
X227982500Y-65423851D01*
X227982500Y-64655488D01*
X227980114Y-64622592D01*
X227972823Y-64522116D01*
X227967953Y-64454996D01*
X227928831Y-64277799D01*
X227910791Y-64196088D01*
X227910790Y-64196084D01*
X227909806Y-64191628D01*
X227845321Y-64021422D01*
X227815868Y-63943682D01*
X227815867Y-63943679D01*
X227814250Y-63939412D01*
X227683286Y-63703632D01*
X227572045Y-63557871D01*
X227522429Y-63492859D01*
X227522428Y-63492858D01*
X227519657Y-63489227D01*
X227493327Y-63463487D01*
X227444818Y-63416067D01*
X227356367Y-63329599D01*
X227321637Y-63267678D01*
X227325898Y-63196809D01*
X227367798Y-63139495D01*
X227434032Y-63113931D01*
X227444446Y-63113500D01*
X229002710Y-63113500D01*
X229070831Y-63133502D01*
X229117324Y-63187158D01*
X229127428Y-63257432D01*
X229097934Y-63322012D01*
X229081406Y-63337902D01*
X229061449Y-63353862D01*
X229061447Y-63353864D01*
X229057881Y-63356716D01*
X228873766Y-63553809D01*
X228720032Y-63775416D01*
X228599899Y-64016894D01*
X228598478Y-64021228D01*
X228598477Y-64021231D01*
X228598415Y-64021422D01*
X228515882Y-64273186D01*
X228515102Y-64277677D01*
X228515102Y-64277678D01*
X228483525Y-64459547D01*
X228469743Y-64538921D01*
X228465500Y-64624149D01*
X228465500Y-65392512D01*
X228465664Y-65394777D01*
X228465665Y-65394792D01*
X228467888Y-65425422D01*
X228480047Y-65593004D01*
X228481031Y-65597459D01*
X228481031Y-65597462D01*
X228537178Y-65851769D01*
X228538194Y-65856372D01*
X228581753Y-65971343D01*
X228605944Y-66035194D01*
X228633750Y-66108588D01*
X228764714Y-66344368D01*
X228767486Y-66348000D01*
X228881608Y-66497535D01*
X228928343Y-66558773D01*
X229121208Y-66747312D01*
X229339270Y-66906034D01*
X229439031Y-66958521D01*
X229573921Y-67029490D01*
X229573927Y-67029493D01*
X229577961Y-67031615D01*
X229582266Y-67033135D01*
X229582270Y-67033137D01*
X229823493Y-67118322D01*
X229832280Y-67121425D01*
X229960032Y-67146605D01*
X230092428Y-67172700D01*
X230092434Y-67172701D01*
X230096900Y-67173581D01*
X230101453Y-67173808D01*
X230101456Y-67173808D01*
X230361708Y-67186764D01*
X230361714Y-67186764D01*
X230366277Y-67186991D01*
X230634769Y-67161375D01*
X230639203Y-67160290D01*
X230639209Y-67160289D01*
X230892316Y-67098354D01*
X230896750Y-67097269D01*
X230900976Y-67095557D01*
X230900980Y-67095556D01*
X230998066Y-67056232D01*
X231068713Y-67049198D01*
X231134463Y-67083921D01*
X231867608Y-67817066D01*
X231880445Y-67832094D01*
X231888335Y-67842954D01*
X231893245Y-67847375D01*
X231893246Y-67847376D01*
X231937704Y-67887406D01*
X231942489Y-67891947D01*
X231956534Y-67905992D01*
X231959108Y-67908076D01*
X231959111Y-67908079D01*
X231971966Y-67918489D01*
X231976982Y-67922773D01*
X232021440Y-67962803D01*
X232021445Y-67962807D01*
X232026351Y-67967224D01*
X232037617Y-67973729D01*
X232037968Y-67973931D01*
X232054261Y-67985129D01*
X232064681Y-67993567D01*
X232123883Y-68023733D01*
X232129653Y-68026866D01*
X232181465Y-68056780D01*
X232181470Y-68056782D01*
X232187189Y-68060084D01*
X232193469Y-68062125D01*
X232193477Y-68062128D01*
X232199941Y-68064228D01*
X232218203Y-68071792D01*
X232224271Y-68074883D01*
X232230157Y-68077882D01*
X232294326Y-68095076D01*
X232294333Y-68095078D01*
X232300632Y-68096944D01*
X232363818Y-68117474D01*
X232370387Y-68118164D01*
X232370394Y-68118166D01*
X232377165Y-68118878D01*
X232396594Y-68122478D01*
X232409549Y-68125949D01*
X232416145Y-68126295D01*
X232416147Y-68126295D01*
X232448949Y-68128014D01*
X232475873Y-68129425D01*
X232482432Y-68129941D01*
X232502214Y-68132020D01*
X232522094Y-68132020D01*
X232528689Y-68132193D01*
X232588422Y-68135324D01*
X232588426Y-68135324D01*
X232595013Y-68135669D01*
X232608260Y-68133571D01*
X232627970Y-68132020D01*
X236420023Y-68132020D01*
X236439735Y-68133571D01*
X236452987Y-68135670D01*
X236459574Y-68135325D01*
X236459578Y-68135325D01*
X236519330Y-68132193D01*
X236525925Y-68132020D01*
X236545786Y-68132020D01*
X236565549Y-68129943D01*
X236572108Y-68129427D01*
X236587907Y-68128599D01*
X236631857Y-68126296D01*
X236631861Y-68126295D01*
X236638451Y-68125950D01*
X236651409Y-68122478D01*
X236670852Y-68118875D01*
X236671275Y-68118831D01*
X236684182Y-68117474D01*
X236747374Y-68096942D01*
X236753676Y-68095076D01*
X236811465Y-68079591D01*
X236817843Y-68077882D01*
X236823722Y-68074886D01*
X236823731Y-68074883D01*
X236829797Y-68071792D01*
X236848059Y-68064228D01*
X236854523Y-68062128D01*
X236854531Y-68062125D01*
X236860811Y-68060084D01*
X236866530Y-68056782D01*
X236866535Y-68056780D01*
X236918347Y-68026866D01*
X236924117Y-68023733D01*
X236983319Y-67993567D01*
X236993739Y-67985129D01*
X237010032Y-67973931D01*
X237010383Y-67973729D01*
X237021649Y-67967224D01*
X237026555Y-67962807D01*
X237026560Y-67962803D01*
X237071018Y-67922773D01*
X237076034Y-67918489D01*
X237088889Y-67908079D01*
X237088892Y-67908076D01*
X237091466Y-67905992D01*
X237105511Y-67891947D01*
X237110296Y-67887406D01*
X237154754Y-67847376D01*
X237154755Y-67847375D01*
X237159665Y-67842954D01*
X237167555Y-67832094D01*
X237180392Y-67817066D01*
X237912845Y-67084613D01*
X237975157Y-67050587D01*
X238043895Y-67054899D01*
X238232280Y-67121425D01*
X238360032Y-67146605D01*
X238492428Y-67172700D01*
X238492434Y-67172701D01*
X238496900Y-67173581D01*
X238501453Y-67173808D01*
X238501456Y-67173808D01*
X238761708Y-67186764D01*
X238761714Y-67186764D01*
X238766277Y-67186991D01*
X239034769Y-67161375D01*
X239039203Y-67160290D01*
X239039209Y-67160289D01*
X239292316Y-67098354D01*
X239296750Y-67097269D01*
X239300976Y-67095557D01*
X239300980Y-67095556D01*
X239398066Y-67056232D01*
X239468713Y-67049198D01*
X239534463Y-67083921D01*
X240267608Y-67817066D01*
X240280445Y-67832094D01*
X240288335Y-67842954D01*
X240293245Y-67847375D01*
X240293246Y-67847376D01*
X240337704Y-67887406D01*
X240342489Y-67891947D01*
X240356534Y-67905992D01*
X240359108Y-67908076D01*
X240359111Y-67908079D01*
X240371966Y-67918489D01*
X240376982Y-67922773D01*
X240421440Y-67962803D01*
X240421445Y-67962807D01*
X240426351Y-67967224D01*
X240437617Y-67973729D01*
X240437968Y-67973931D01*
X240454261Y-67985129D01*
X240464681Y-67993567D01*
X240523883Y-68023733D01*
X240529653Y-68026866D01*
X240581465Y-68056780D01*
X240581470Y-68056782D01*
X240587189Y-68060084D01*
X240593469Y-68062125D01*
X240593477Y-68062128D01*
X240599941Y-68064228D01*
X240618203Y-68071792D01*
X240624271Y-68074883D01*
X240630157Y-68077882D01*
X240694326Y-68095076D01*
X240694333Y-68095078D01*
X240700632Y-68096944D01*
X240763818Y-68117474D01*
X240770387Y-68118164D01*
X240770394Y-68118166D01*
X240777165Y-68118878D01*
X240796594Y-68122478D01*
X240809549Y-68125949D01*
X240816145Y-68126295D01*
X240816147Y-68126295D01*
X240848949Y-68128014D01*
X240875873Y-68129425D01*
X240882432Y-68129941D01*
X240902214Y-68132020D01*
X240922094Y-68132020D01*
X240928689Y-68132193D01*
X240988422Y-68135324D01*
X240988426Y-68135324D01*
X240995013Y-68135669D01*
X241008260Y-68133571D01*
X241027970Y-68132020D01*
X244820023Y-68132020D01*
X244839735Y-68133571D01*
X244852987Y-68135670D01*
X244859574Y-68135325D01*
X244859578Y-68135325D01*
X244919330Y-68132193D01*
X244925925Y-68132020D01*
X244945786Y-68132020D01*
X244965549Y-68129943D01*
X244972108Y-68129427D01*
X244987907Y-68128599D01*
X245031857Y-68126296D01*
X245031861Y-68126295D01*
X245038451Y-68125950D01*
X245051409Y-68122478D01*
X245070852Y-68118875D01*
X245071275Y-68118831D01*
X245084182Y-68117474D01*
X245147374Y-68096942D01*
X245153676Y-68095076D01*
X245211465Y-68079591D01*
X245217843Y-68077882D01*
X245223722Y-68074886D01*
X245223731Y-68074883D01*
X245229797Y-68071792D01*
X245248059Y-68064228D01*
X245254523Y-68062128D01*
X245254531Y-68062125D01*
X245260811Y-68060084D01*
X245266530Y-68056782D01*
X245266535Y-68056780D01*
X245318347Y-68026866D01*
X245324117Y-68023733D01*
X245383319Y-67993567D01*
X245393739Y-67985129D01*
X245410032Y-67973931D01*
X245410383Y-67973729D01*
X245421649Y-67967224D01*
X245426555Y-67962807D01*
X245426560Y-67962803D01*
X245471018Y-67922773D01*
X245476034Y-67918489D01*
X245488889Y-67908079D01*
X245488892Y-67908076D01*
X245491466Y-67905992D01*
X245505511Y-67891947D01*
X245510296Y-67887406D01*
X245554754Y-67847376D01*
X245554755Y-67847375D01*
X245559665Y-67842954D01*
X245567555Y-67832094D01*
X245580392Y-67817066D01*
X246312845Y-67084613D01*
X246375157Y-67050587D01*
X246443895Y-67054899D01*
X246632280Y-67121425D01*
X246760032Y-67146605D01*
X246892428Y-67172700D01*
X246892434Y-67172701D01*
X246896900Y-67173581D01*
X246901453Y-67173808D01*
X246901456Y-67173808D01*
X247161708Y-67186764D01*
X247161714Y-67186764D01*
X247166277Y-67186991D01*
X247434769Y-67161375D01*
X247439203Y-67160290D01*
X247439209Y-67160289D01*
X247692312Y-67098355D01*
X247696750Y-67097269D01*
X247946733Y-66996015D01*
X248179482Y-66859735D01*
X248390119Y-66691284D01*
X248574234Y-66494191D01*
X248727968Y-66272584D01*
X248848101Y-66031106D01*
X248849523Y-66026769D01*
X248930698Y-65779147D01*
X248930699Y-65779141D01*
X248932118Y-65774814D01*
X248932919Y-65770201D01*
X248977601Y-65512860D01*
X248977602Y-65512852D01*
X248978257Y-65509079D01*
X248982500Y-65423851D01*
X248982500Y-65392512D01*
X249465500Y-65392512D01*
X249465664Y-65394777D01*
X249465665Y-65394792D01*
X249467888Y-65425422D01*
X249480047Y-65593004D01*
X249481031Y-65597459D01*
X249481031Y-65597462D01*
X249537178Y-65851769D01*
X249538194Y-65856372D01*
X249581753Y-65971343D01*
X249605944Y-66035194D01*
X249633750Y-66108588D01*
X249764714Y-66344368D01*
X249767486Y-66348000D01*
X249881608Y-66497535D01*
X249928343Y-66558773D01*
X250121208Y-66747312D01*
X250339270Y-66906034D01*
X250439031Y-66958521D01*
X250573921Y-67029490D01*
X250573927Y-67029493D01*
X250577961Y-67031615D01*
X250582266Y-67033135D01*
X250582270Y-67033137D01*
X250823493Y-67118322D01*
X250832280Y-67121425D01*
X250960032Y-67146605D01*
X251092428Y-67172700D01*
X251092434Y-67172701D01*
X251096900Y-67173581D01*
X251101453Y-67173808D01*
X251101456Y-67173808D01*
X251361708Y-67186764D01*
X251361714Y-67186764D01*
X251366277Y-67186991D01*
X251634769Y-67161375D01*
X251639203Y-67160290D01*
X251639209Y-67160289D01*
X251892312Y-67098355D01*
X251896750Y-67097269D01*
X252146733Y-66996015D01*
X252379482Y-66859735D01*
X252590119Y-66691284D01*
X252774234Y-66494191D01*
X252927968Y-66272584D01*
X253048101Y-66031106D01*
X253049523Y-66026769D01*
X253130698Y-65779147D01*
X253130699Y-65779141D01*
X253132118Y-65774814D01*
X253132919Y-65770201D01*
X253177601Y-65512860D01*
X253177602Y-65512852D01*
X253178257Y-65509079D01*
X253182500Y-65423851D01*
X253182500Y-64655488D01*
X253180114Y-64622592D01*
X253172823Y-64522116D01*
X253167953Y-64454996D01*
X253128831Y-64277799D01*
X253110791Y-64196088D01*
X253110790Y-64196084D01*
X253109806Y-64191628D01*
X253045321Y-64021422D01*
X253015868Y-63943682D01*
X253015867Y-63943679D01*
X253014250Y-63939412D01*
X252883286Y-63703632D01*
X252772045Y-63557871D01*
X252722429Y-63492859D01*
X252722428Y-63492858D01*
X252719657Y-63489227D01*
X252693327Y-63463487D01*
X252623225Y-63394958D01*
X252526792Y-63300688D01*
X252308730Y-63141966D01*
X252180899Y-63074711D01*
X252074079Y-63018510D01*
X252074073Y-63018507D01*
X252070039Y-63016385D01*
X252065734Y-63014865D01*
X252065730Y-63014863D01*
X251820033Y-62928098D01*
X251820032Y-62928098D01*
X251815720Y-62926575D01*
X251680006Y-62899826D01*
X251555572Y-62875300D01*
X251555566Y-62875299D01*
X251551100Y-62874419D01*
X251546547Y-62874192D01*
X251546544Y-62874192D01*
X251286292Y-62861236D01*
X251286286Y-62861236D01*
X251281723Y-62861009D01*
X251013231Y-62886625D01*
X251008797Y-62887710D01*
X251008791Y-62887711D01*
X250835035Y-62930229D01*
X250751250Y-62950731D01*
X250501267Y-63051985D01*
X250268518Y-63188265D01*
X250057881Y-63356716D01*
X249873766Y-63553809D01*
X249720032Y-63775416D01*
X249599899Y-64016894D01*
X249598478Y-64021228D01*
X249598477Y-64021231D01*
X249598415Y-64021422D01*
X249515882Y-64273186D01*
X249515102Y-64277677D01*
X249515102Y-64277678D01*
X249483525Y-64459547D01*
X249469743Y-64538921D01*
X249465500Y-64624149D01*
X249465500Y-65392512D01*
X248982500Y-65392512D01*
X248982500Y-64655488D01*
X248980114Y-64622592D01*
X248972823Y-64522116D01*
X248967953Y-64454996D01*
X248928831Y-64277799D01*
X248910791Y-64196088D01*
X248910790Y-64196084D01*
X248909806Y-64191628D01*
X248845321Y-64021422D01*
X248815868Y-63943682D01*
X248815867Y-63943679D01*
X248814250Y-63939412D01*
X248683286Y-63703632D01*
X248572045Y-63557871D01*
X248522429Y-63492859D01*
X248522428Y-63492858D01*
X248519657Y-63489227D01*
X248493327Y-63463487D01*
X248423225Y-63394958D01*
X248326792Y-63300688D01*
X248108730Y-63141966D01*
X247980899Y-63074711D01*
X247874079Y-63018510D01*
X247874073Y-63018507D01*
X247870039Y-63016385D01*
X247865734Y-63014865D01*
X247865730Y-63014863D01*
X247620033Y-62928098D01*
X247620032Y-62928098D01*
X247615720Y-62926575D01*
X247480006Y-62899826D01*
X247355572Y-62875300D01*
X247355566Y-62875299D01*
X247351100Y-62874419D01*
X247346547Y-62874192D01*
X247346544Y-62874192D01*
X247086292Y-62861236D01*
X247086286Y-62861236D01*
X247081723Y-62861009D01*
X246813231Y-62886625D01*
X246808797Y-62887710D01*
X246808791Y-62887711D01*
X246635035Y-62930229D01*
X246551250Y-62950731D01*
X246301267Y-63051985D01*
X246068518Y-63188265D01*
X245857881Y-63356716D01*
X245673766Y-63553809D01*
X245520032Y-63775416D01*
X245399899Y-64016894D01*
X245398478Y-64021228D01*
X245398477Y-64021231D01*
X245398415Y-64021422D01*
X245315882Y-64273186D01*
X245315102Y-64277677D01*
X245315102Y-64277678D01*
X245283525Y-64459547D01*
X245269743Y-64538921D01*
X245265500Y-64624149D01*
X245265500Y-65392512D01*
X245274229Y-65512811D01*
X245277602Y-65559302D01*
X245262582Y-65628691D01*
X245241027Y-65657515D01*
X244913613Y-65984929D01*
X244851301Y-66018955D01*
X244780486Y-66013890D01*
X244723650Y-65971343D01*
X244698839Y-65904823D01*
X244704787Y-65856585D01*
X244730210Y-65779031D01*
X244732412Y-65770201D01*
X244777103Y-65512811D01*
X244777950Y-65505193D01*
X244781922Y-65425408D01*
X244782000Y-65422267D01*
X244782000Y-65296115D01*
X244777525Y-65280876D01*
X244776135Y-65279671D01*
X244768452Y-65278000D01*
X241084115Y-65278000D01*
X241068876Y-65282475D01*
X241067671Y-65283865D01*
X241066000Y-65291548D01*
X241066000Y-65390206D01*
X241066165Y-65394777D01*
X241080213Y-65588380D01*
X241081527Y-65597389D01*
X241137689Y-65851769D01*
X241138338Y-65853945D01*
X241138341Y-65854722D01*
X241138674Y-65856229D01*
X241138348Y-65856301D01*
X241138630Y-65924941D01*
X241100493Y-65984825D01*
X241036034Y-66014584D01*
X240965719Y-66004769D01*
X240928494Y-65979036D01*
X240606778Y-65657320D01*
X240572752Y-65595008D01*
X240571730Y-65546670D01*
X240577601Y-65512859D01*
X240577602Y-65512854D01*
X240578257Y-65509079D01*
X240582500Y-65423851D01*
X240582500Y-64751885D01*
X241066000Y-64751885D01*
X241070475Y-64767124D01*
X241071865Y-64768329D01*
X241079548Y-64770000D01*
X242651885Y-64770000D01*
X242667124Y-64765525D01*
X242668329Y-64764135D01*
X242670000Y-64756452D01*
X242670000Y-64751885D01*
X243178000Y-64751885D01*
X243182475Y-64767124D01*
X243183865Y-64768329D01*
X243191548Y-64770000D01*
X244763885Y-64770000D01*
X244779124Y-64765525D01*
X244780329Y-64764135D01*
X244782000Y-64756452D01*
X244782000Y-64657794D01*
X244781835Y-64653223D01*
X244767787Y-64459620D01*
X244766473Y-64450611D01*
X244710311Y-64196231D01*
X244707708Y-64187501D01*
X244615414Y-63943893D01*
X244611579Y-63935632D01*
X244485085Y-63707899D01*
X244480095Y-63700274D01*
X244322054Y-63493191D01*
X244316014Y-63486364D01*
X244129736Y-63304265D01*
X244122774Y-63298382D01*
X243912157Y-63145078D01*
X243904427Y-63140267D01*
X243673878Y-63018969D01*
X243665528Y-63015322D01*
X243419901Y-62928581D01*
X243411106Y-62926175D01*
X243195775Y-62883733D01*
X243182863Y-62884912D01*
X243178000Y-62900015D01*
X243178000Y-64751885D01*
X242670000Y-64751885D01*
X242670000Y-62899826D01*
X242665749Y-62885349D01*
X242653488Y-62883286D01*
X242617867Y-62886685D01*
X242608875Y-62888205D01*
X242355842Y-62950122D01*
X242347173Y-62952922D01*
X242105718Y-63050722D01*
X242097545Y-63054744D01*
X241872747Y-63186368D01*
X241865235Y-63191531D01*
X241661787Y-63354231D01*
X241655104Y-63360420D01*
X241477267Y-63550794D01*
X241471557Y-63557871D01*
X241323066Y-63771918D01*
X241318429Y-63779759D01*
X241202396Y-64012997D01*
X241198940Y-64021422D01*
X241117788Y-64268974D01*
X241115588Y-64277799D01*
X241070897Y-64535189D01*
X241070050Y-64542807D01*
X241066078Y-64622592D01*
X241066000Y-64625733D01*
X241066000Y-64751885D01*
X240582500Y-64751885D01*
X240582500Y-64655488D01*
X240580114Y-64622592D01*
X240572823Y-64522116D01*
X240567953Y-64454996D01*
X240528831Y-64277799D01*
X240510791Y-64196088D01*
X240510790Y-64196084D01*
X240509806Y-64191628D01*
X240445321Y-64021422D01*
X240415868Y-63943682D01*
X240415867Y-63943679D01*
X240414250Y-63939412D01*
X240283286Y-63703632D01*
X240172045Y-63557871D01*
X240122429Y-63492859D01*
X240122428Y-63492858D01*
X240119657Y-63489227D01*
X240093327Y-63463487D01*
X240023225Y-63394958D01*
X239926792Y-63300688D01*
X239769165Y-63185955D01*
X239712422Y-63144653D01*
X239712419Y-63144651D01*
X239708730Y-63141966D01*
X239692643Y-63133502D01*
X239674832Y-63124131D01*
X239623859Y-63074711D01*
X239607500Y-63012623D01*
X239607500Y-62510883D01*
X239614592Y-62472619D01*
X239614021Y-62472466D01*
X239615728Y-62466096D01*
X239618096Y-62459927D01*
X239619129Y-62453403D01*
X239619131Y-62453397D01*
X239624348Y-62420463D01*
X239627089Y-62407566D01*
X239635721Y-62375349D01*
X239637430Y-62368971D01*
X239639521Y-62329075D01*
X239640899Y-62315960D01*
X239646118Y-62283009D01*
X239647150Y-62276493D01*
X239646805Y-62269906D01*
X239646805Y-62269901D01*
X239645059Y-62236594D01*
X239645059Y-62223406D01*
X239646805Y-62190100D01*
X239646805Y-62190094D01*
X239647150Y-62183507D01*
X239640899Y-62144036D01*
X239639521Y-62130924D01*
X239638663Y-62114543D01*
X239637430Y-62091029D01*
X239627087Y-62052428D01*
X239624348Y-62039542D01*
X239619130Y-62006598D01*
X239618097Y-62000074D01*
X239615729Y-61993906D01*
X239614021Y-61987530D01*
X239614591Y-61987377D01*
X239607500Y-61949115D01*
X239607500Y-61532668D01*
X239627502Y-61464547D01*
X239669835Y-61423936D01*
X239720369Y-61394347D01*
X239779482Y-61359735D01*
X239990119Y-61191284D01*
X240174234Y-60994191D01*
X240327968Y-60772584D01*
X240448101Y-60531106D01*
X240449523Y-60526769D01*
X240530698Y-60279147D01*
X240530699Y-60279141D01*
X240532118Y-60274814D01*
X240552518Y-60157321D01*
X240577601Y-60012860D01*
X240577602Y-60012852D01*
X240578257Y-60009079D01*
X240582500Y-59923851D01*
X240582500Y-59892512D01*
X241065500Y-59892512D01*
X241065664Y-59894777D01*
X241065665Y-59894792D01*
X241067888Y-59925422D01*
X241080047Y-60093004D01*
X241081031Y-60097459D01*
X241081031Y-60097462D01*
X241137180Y-60351778D01*
X241138194Y-60356372D01*
X241139812Y-60360642D01*
X241205944Y-60535194D01*
X241233750Y-60608588D01*
X241364714Y-60844368D01*
X241367486Y-60848000D01*
X241481608Y-60997535D01*
X241528343Y-61058773D01*
X241721208Y-61247312D01*
X241939270Y-61406034D01*
X242039031Y-61458521D01*
X242173921Y-61529490D01*
X242173927Y-61529493D01*
X242177961Y-61531615D01*
X242182266Y-61533135D01*
X242182270Y-61533137D01*
X242427967Y-61619902D01*
X242432280Y-61621425D01*
X242560032Y-61646605D01*
X242692428Y-61672700D01*
X242692434Y-61672701D01*
X242696900Y-61673581D01*
X242701453Y-61673808D01*
X242701456Y-61673808D01*
X242961708Y-61686764D01*
X242961714Y-61686764D01*
X242966277Y-61686991D01*
X243234769Y-61661375D01*
X243239203Y-61660290D01*
X243239209Y-61660289D01*
X243492312Y-61598355D01*
X243496750Y-61597269D01*
X243746733Y-61496015D01*
X243979482Y-61359735D01*
X244190119Y-61191284D01*
X244374234Y-60994191D01*
X244527968Y-60772584D01*
X244648101Y-60531106D01*
X244649523Y-60526769D01*
X244730698Y-60279147D01*
X244730699Y-60279141D01*
X244732118Y-60274814D01*
X244752518Y-60157321D01*
X244777601Y-60012860D01*
X244777602Y-60012852D01*
X244778257Y-60009079D01*
X244782500Y-59923851D01*
X244782500Y-59892512D01*
X245265500Y-59892512D01*
X245265664Y-59894777D01*
X245265665Y-59894792D01*
X245267888Y-59925422D01*
X245280047Y-60093004D01*
X245281031Y-60097459D01*
X245281031Y-60097462D01*
X245337180Y-60351778D01*
X245338194Y-60356372D01*
X245339812Y-60360642D01*
X245405944Y-60535194D01*
X245433750Y-60608588D01*
X245564714Y-60844368D01*
X245567486Y-60848000D01*
X245681608Y-60997535D01*
X245728343Y-61058773D01*
X245921208Y-61247312D01*
X246139270Y-61406034D01*
X246239031Y-61458521D01*
X246373921Y-61529490D01*
X246373927Y-61529493D01*
X246377961Y-61531615D01*
X246382266Y-61533135D01*
X246382270Y-61533137D01*
X246627967Y-61619902D01*
X246632280Y-61621425D01*
X246760032Y-61646605D01*
X246892428Y-61672700D01*
X246892434Y-61672701D01*
X246896900Y-61673581D01*
X246901453Y-61673808D01*
X246901456Y-61673808D01*
X247161708Y-61686764D01*
X247161714Y-61686764D01*
X247166277Y-61686991D01*
X247434769Y-61661375D01*
X247439203Y-61660290D01*
X247439209Y-61660289D01*
X247692312Y-61598355D01*
X247696750Y-61597269D01*
X247946733Y-61496015D01*
X248179482Y-61359735D01*
X248390119Y-61191284D01*
X248574234Y-60994191D01*
X248727968Y-60772584D01*
X248848101Y-60531106D01*
X248849523Y-60526769D01*
X248930698Y-60279147D01*
X248930699Y-60279141D01*
X248932118Y-60274814D01*
X248952518Y-60157321D01*
X248977601Y-60012860D01*
X248977602Y-60012852D01*
X248978257Y-60009079D01*
X248982500Y-59923851D01*
X248982500Y-59892512D01*
X249465500Y-59892512D01*
X249465664Y-59894777D01*
X249465665Y-59894792D01*
X249467888Y-59925422D01*
X249480047Y-60093004D01*
X249481031Y-60097459D01*
X249481031Y-60097462D01*
X249537180Y-60351778D01*
X249538194Y-60356372D01*
X249539812Y-60360642D01*
X249605944Y-60535194D01*
X249633750Y-60608588D01*
X249764714Y-60844368D01*
X249767486Y-60848000D01*
X249881608Y-60997535D01*
X249928343Y-61058773D01*
X250121208Y-61247312D01*
X250339270Y-61406034D01*
X250439031Y-61458521D01*
X250573921Y-61529490D01*
X250573927Y-61529493D01*
X250577961Y-61531615D01*
X250582266Y-61533135D01*
X250582270Y-61533137D01*
X250827967Y-61619902D01*
X250832280Y-61621425D01*
X250960032Y-61646605D01*
X251092428Y-61672700D01*
X251092434Y-61672701D01*
X251096900Y-61673581D01*
X251101453Y-61673808D01*
X251101456Y-61673808D01*
X251361708Y-61686764D01*
X251361714Y-61686764D01*
X251366277Y-61686991D01*
X251634769Y-61661375D01*
X251639203Y-61660290D01*
X251639209Y-61660289D01*
X251892312Y-61598355D01*
X251896750Y-61597269D01*
X252146733Y-61496015D01*
X252379482Y-61359735D01*
X252590119Y-61191284D01*
X252774234Y-60994191D01*
X252927968Y-60772584D01*
X253048101Y-60531106D01*
X253049523Y-60526769D01*
X253130698Y-60279147D01*
X253130699Y-60279141D01*
X253132118Y-60274814D01*
X253152518Y-60157321D01*
X253177601Y-60012860D01*
X253177602Y-60012852D01*
X253178257Y-60009079D01*
X253182500Y-59923851D01*
X253182500Y-59155488D01*
X253180114Y-59122592D01*
X253172823Y-59022116D01*
X253167953Y-58954996D01*
X253128831Y-58777799D01*
X253110791Y-58696088D01*
X253110790Y-58696084D01*
X253109806Y-58691628D01*
X253045321Y-58521422D01*
X253015868Y-58443682D01*
X253015867Y-58443679D01*
X253014250Y-58439412D01*
X252883286Y-58203632D01*
X252772045Y-58057871D01*
X252722429Y-57992859D01*
X252722428Y-57992858D01*
X252719657Y-57989227D01*
X252526792Y-57800688D01*
X252308730Y-57641966D01*
X252142948Y-57554744D01*
X252074079Y-57518510D01*
X252074073Y-57518507D01*
X252070039Y-57516385D01*
X252065734Y-57514865D01*
X252065730Y-57514863D01*
X251820033Y-57428098D01*
X251820032Y-57428098D01*
X251815720Y-57426575D01*
X251673557Y-57398555D01*
X251555572Y-57375300D01*
X251555566Y-57375299D01*
X251551100Y-57374419D01*
X251546547Y-57374192D01*
X251546544Y-57374192D01*
X251286292Y-57361236D01*
X251286286Y-57361236D01*
X251281723Y-57361009D01*
X251013231Y-57386625D01*
X251008797Y-57387710D01*
X251008791Y-57387711D01*
X250755688Y-57449645D01*
X250751250Y-57450731D01*
X250501267Y-57551985D01*
X250268518Y-57688265D01*
X250057881Y-57856716D01*
X249873766Y-58053809D01*
X249720032Y-58275416D01*
X249599899Y-58516894D01*
X249598478Y-58521228D01*
X249598477Y-58521231D01*
X249598415Y-58521422D01*
X249515882Y-58773186D01*
X249515102Y-58777677D01*
X249515102Y-58777678D01*
X249483525Y-58959547D01*
X249469743Y-59038921D01*
X249465500Y-59124149D01*
X249465500Y-59892512D01*
X248982500Y-59892512D01*
X248982500Y-59155488D01*
X248980114Y-59122592D01*
X248972823Y-59022116D01*
X248967953Y-58954996D01*
X248928831Y-58777799D01*
X248910791Y-58696088D01*
X248910790Y-58696084D01*
X248909806Y-58691628D01*
X248845321Y-58521422D01*
X248815868Y-58443682D01*
X248815867Y-58443679D01*
X248814250Y-58439412D01*
X248683286Y-58203632D01*
X248572045Y-58057871D01*
X248522429Y-57992859D01*
X248522428Y-57992858D01*
X248519657Y-57989227D01*
X248326792Y-57800688D01*
X248108730Y-57641966D01*
X247942948Y-57554744D01*
X247874079Y-57518510D01*
X247874073Y-57518507D01*
X247870039Y-57516385D01*
X247865734Y-57514865D01*
X247865730Y-57514863D01*
X247620033Y-57428098D01*
X247620032Y-57428098D01*
X247615720Y-57426575D01*
X247473557Y-57398555D01*
X247355572Y-57375300D01*
X247355566Y-57375299D01*
X247351100Y-57374419D01*
X247346547Y-57374192D01*
X247346544Y-57374192D01*
X247086292Y-57361236D01*
X247086286Y-57361236D01*
X247081723Y-57361009D01*
X246813231Y-57386625D01*
X246808797Y-57387710D01*
X246808791Y-57387711D01*
X246555688Y-57449645D01*
X246551250Y-57450731D01*
X246301267Y-57551985D01*
X246068518Y-57688265D01*
X245857881Y-57856716D01*
X245673766Y-58053809D01*
X245520032Y-58275416D01*
X245399899Y-58516894D01*
X245398478Y-58521228D01*
X245398477Y-58521231D01*
X245398415Y-58521422D01*
X245315882Y-58773186D01*
X245315102Y-58777677D01*
X245315102Y-58777678D01*
X245283525Y-58959547D01*
X245269743Y-59038921D01*
X245265500Y-59124149D01*
X245265500Y-59892512D01*
X244782500Y-59892512D01*
X244782500Y-59155488D01*
X244780114Y-59122592D01*
X244772823Y-59022116D01*
X244767953Y-58954996D01*
X244728831Y-58777799D01*
X244710791Y-58696088D01*
X244710790Y-58696084D01*
X244709806Y-58691628D01*
X244645321Y-58521422D01*
X244615868Y-58443682D01*
X244615867Y-58443679D01*
X244614250Y-58439412D01*
X244483286Y-58203632D01*
X244372045Y-58057871D01*
X244322429Y-57992859D01*
X244322428Y-57992858D01*
X244319657Y-57989227D01*
X244126792Y-57800688D01*
X243908730Y-57641966D01*
X243742948Y-57554744D01*
X243674079Y-57518510D01*
X243674073Y-57518507D01*
X243670039Y-57516385D01*
X243665734Y-57514865D01*
X243665730Y-57514863D01*
X243420033Y-57428098D01*
X243420032Y-57428098D01*
X243415720Y-57426575D01*
X243273557Y-57398555D01*
X243155572Y-57375300D01*
X243155566Y-57375299D01*
X243151100Y-57374419D01*
X243146547Y-57374192D01*
X243146544Y-57374192D01*
X242886292Y-57361236D01*
X242886286Y-57361236D01*
X242881723Y-57361009D01*
X242613231Y-57386625D01*
X242608797Y-57387710D01*
X242608791Y-57387711D01*
X242355688Y-57449645D01*
X242351250Y-57450731D01*
X242101267Y-57551985D01*
X241868518Y-57688265D01*
X241657881Y-57856716D01*
X241473766Y-58053809D01*
X241320032Y-58275416D01*
X241199899Y-58516894D01*
X241198478Y-58521228D01*
X241198477Y-58521231D01*
X241198415Y-58521422D01*
X241115882Y-58773186D01*
X241115102Y-58777677D01*
X241115102Y-58777678D01*
X241083525Y-58959547D01*
X241069743Y-59038921D01*
X241065500Y-59124149D01*
X241065500Y-59892512D01*
X240582500Y-59892512D01*
X240582500Y-59155488D01*
X240580114Y-59122592D01*
X240572823Y-59022116D01*
X240567953Y-58954996D01*
X240528831Y-58777799D01*
X240510791Y-58696088D01*
X240510790Y-58696084D01*
X240509806Y-58691628D01*
X240445321Y-58521422D01*
X240415868Y-58443682D01*
X240415867Y-58443679D01*
X240414250Y-58439412D01*
X240283286Y-58203632D01*
X240172045Y-58057871D01*
X240122429Y-57992859D01*
X240122428Y-57992858D01*
X240119657Y-57989227D01*
X239926792Y-57800688D01*
X239708730Y-57641966D01*
X239542948Y-57554744D01*
X239474079Y-57518510D01*
X239474073Y-57518507D01*
X239470039Y-57516385D01*
X239465734Y-57514865D01*
X239465730Y-57514863D01*
X239220033Y-57428098D01*
X239220032Y-57428098D01*
X239215720Y-57426575D01*
X239073557Y-57398555D01*
X238955572Y-57375300D01*
X238955566Y-57375299D01*
X238951100Y-57374419D01*
X238946547Y-57374192D01*
X238946544Y-57374192D01*
X238686292Y-57361236D01*
X238686286Y-57361236D01*
X238681723Y-57361009D01*
X238413231Y-57386625D01*
X238408797Y-57387710D01*
X238408791Y-57387711D01*
X238155688Y-57449645D01*
X238151250Y-57450731D01*
X237901267Y-57551985D01*
X237668518Y-57688265D01*
X237457881Y-57856716D01*
X237273766Y-58053809D01*
X237120032Y-58275416D01*
X236999899Y-58516894D01*
X236998478Y-58521228D01*
X236998477Y-58521231D01*
X236998415Y-58521422D01*
X236915882Y-58773186D01*
X236915102Y-58777677D01*
X236915102Y-58777678D01*
X236883525Y-58959547D01*
X236869743Y-59038921D01*
X236865500Y-59124149D01*
X236865500Y-59892512D01*
X236865664Y-59894777D01*
X236865665Y-59894792D01*
X236867888Y-59925422D01*
X236880047Y-60093004D01*
X236881031Y-60097459D01*
X236881031Y-60097462D01*
X236937180Y-60351778D01*
X236938194Y-60356372D01*
X236939812Y-60360642D01*
X237005944Y-60535194D01*
X237033750Y-60608588D01*
X237164714Y-60844368D01*
X237167486Y-60848000D01*
X237281608Y-60997535D01*
X237328343Y-61058773D01*
X237521208Y-61247312D01*
X237739270Y-61406034D01*
X237743315Y-61408162D01*
X237773168Y-61423869D01*
X237824141Y-61473289D01*
X237840500Y-61535377D01*
X237840500Y-62114543D01*
X237838949Y-62134255D01*
X237836850Y-62147507D01*
X237837195Y-62154094D01*
X237837195Y-62154098D01*
X237840327Y-62213850D01*
X237840500Y-62220445D01*
X237840500Y-62239555D01*
X237840327Y-62246150D01*
X237836850Y-62312493D01*
X237837882Y-62319007D01*
X237838949Y-62325744D01*
X237840500Y-62345456D01*
X237840500Y-63015332D01*
X237820498Y-63083453D01*
X237778165Y-63124064D01*
X237743002Y-63144653D01*
X237668518Y-63188265D01*
X237457881Y-63356716D01*
X237273766Y-63553809D01*
X237120032Y-63775416D01*
X236999899Y-64016894D01*
X236998478Y-64021228D01*
X236998477Y-64021231D01*
X236998415Y-64021422D01*
X236915882Y-64273186D01*
X236915102Y-64277677D01*
X236915102Y-64277678D01*
X236883525Y-64459547D01*
X236869743Y-64538921D01*
X236865500Y-64624149D01*
X236865500Y-65392512D01*
X236874229Y-65512811D01*
X236877602Y-65559302D01*
X236862582Y-65628691D01*
X236841027Y-65657515D01*
X236513613Y-65984929D01*
X236451301Y-66018955D01*
X236380486Y-66013890D01*
X236323650Y-65971343D01*
X236298839Y-65904823D01*
X236304787Y-65856585D01*
X236330210Y-65779031D01*
X236332412Y-65770201D01*
X236377103Y-65512811D01*
X236377950Y-65505193D01*
X236381922Y-65425408D01*
X236382000Y-65422267D01*
X236382000Y-65296115D01*
X236377525Y-65280876D01*
X236376135Y-65279671D01*
X236368452Y-65278000D01*
X232684115Y-65278000D01*
X232668876Y-65282475D01*
X232667671Y-65283865D01*
X232666000Y-65291548D01*
X232666000Y-65390206D01*
X232666165Y-65394777D01*
X232680213Y-65588380D01*
X232681527Y-65597389D01*
X232737689Y-65851769D01*
X232738338Y-65853945D01*
X232738341Y-65854722D01*
X232738674Y-65856229D01*
X232738348Y-65856301D01*
X232738630Y-65924941D01*
X232700493Y-65984825D01*
X232636034Y-66014584D01*
X232565719Y-66004769D01*
X232528494Y-65979036D01*
X232206778Y-65657320D01*
X232172752Y-65595008D01*
X232171730Y-65546670D01*
X232177601Y-65512859D01*
X232177602Y-65512854D01*
X232178257Y-65509079D01*
X232182500Y-65423851D01*
X232182500Y-64751885D01*
X232666000Y-64751885D01*
X232670475Y-64767124D01*
X232671865Y-64768329D01*
X232679548Y-64770000D01*
X234251885Y-64770000D01*
X234267124Y-64765525D01*
X234268329Y-64764135D01*
X234270000Y-64756452D01*
X234270000Y-64751885D01*
X234778000Y-64751885D01*
X234782475Y-64767124D01*
X234783865Y-64768329D01*
X234791548Y-64770000D01*
X236363885Y-64770000D01*
X236379124Y-64765525D01*
X236380329Y-64764135D01*
X236382000Y-64756452D01*
X236382000Y-64657794D01*
X236381835Y-64653223D01*
X236367787Y-64459620D01*
X236366473Y-64450611D01*
X236310311Y-64196231D01*
X236307708Y-64187501D01*
X236215414Y-63943893D01*
X236211579Y-63935632D01*
X236085085Y-63707899D01*
X236080095Y-63700274D01*
X235922054Y-63493191D01*
X235916014Y-63486364D01*
X235729736Y-63304265D01*
X235722774Y-63298382D01*
X235512157Y-63145078D01*
X235504427Y-63140267D01*
X235273878Y-63018969D01*
X235265528Y-63015322D01*
X235019901Y-62928581D01*
X235011106Y-62926175D01*
X234795775Y-62883733D01*
X234782863Y-62884912D01*
X234778000Y-62900015D01*
X234778000Y-64751885D01*
X234270000Y-64751885D01*
X234270000Y-62899826D01*
X234265749Y-62885349D01*
X234253488Y-62883286D01*
X234217867Y-62886685D01*
X234208875Y-62888205D01*
X233955842Y-62950122D01*
X233947173Y-62952922D01*
X233705718Y-63050722D01*
X233697545Y-63054744D01*
X233472747Y-63186368D01*
X233465235Y-63191531D01*
X233261787Y-63354231D01*
X233255104Y-63360420D01*
X233077267Y-63550794D01*
X233071557Y-63557871D01*
X232923066Y-63771918D01*
X232918429Y-63779759D01*
X232802396Y-64012997D01*
X232798940Y-64021422D01*
X232717788Y-64268974D01*
X232715588Y-64277799D01*
X232670897Y-64535189D01*
X232670050Y-64542807D01*
X232666078Y-64622592D01*
X232666000Y-64625733D01*
X232666000Y-64751885D01*
X232182500Y-64751885D01*
X232182500Y-64655488D01*
X232180114Y-64622592D01*
X232172823Y-64522116D01*
X232167953Y-64454996D01*
X232128831Y-64277799D01*
X232110791Y-64196088D01*
X232110790Y-64196084D01*
X232109806Y-64191628D01*
X232045321Y-64021422D01*
X232015868Y-63943682D01*
X232015867Y-63943679D01*
X232014250Y-63939412D01*
X231883286Y-63703632D01*
X231772045Y-63557871D01*
X231722429Y-63492859D01*
X231722428Y-63492858D01*
X231719657Y-63489227D01*
X231693327Y-63463487D01*
X231623225Y-63394958D01*
X231526792Y-63300688D01*
X231369165Y-63185955D01*
X231312422Y-63144653D01*
X231312419Y-63144651D01*
X231308730Y-63141966D01*
X231292643Y-63133502D01*
X231274832Y-63124131D01*
X231223859Y-63074711D01*
X231207500Y-63012623D01*
X231207500Y-62363457D01*
X231209051Y-62343745D01*
X231210118Y-62337008D01*
X231211150Y-62330493D01*
X231210389Y-62315960D01*
X231207673Y-62264150D01*
X231207500Y-62257555D01*
X231207500Y-61532668D01*
X231227502Y-61464547D01*
X231269835Y-61423936D01*
X231320369Y-61394347D01*
X231379482Y-61359735D01*
X231590119Y-61191284D01*
X231774234Y-60994191D01*
X231927968Y-60772584D01*
X232048101Y-60531106D01*
X232049523Y-60526769D01*
X232130698Y-60279147D01*
X232130699Y-60279141D01*
X232132118Y-60274814D01*
X232152518Y-60157321D01*
X232177601Y-60012860D01*
X232177602Y-60012852D01*
X232178257Y-60009079D01*
X232182500Y-59923851D01*
X232182500Y-59892512D01*
X232665500Y-59892512D01*
X232665664Y-59894777D01*
X232665665Y-59894792D01*
X232667888Y-59925422D01*
X232680047Y-60093004D01*
X232681031Y-60097459D01*
X232681031Y-60097462D01*
X232737180Y-60351778D01*
X232738194Y-60356372D01*
X232739812Y-60360642D01*
X232805944Y-60535194D01*
X232833750Y-60608588D01*
X232964714Y-60844368D01*
X232967486Y-60848000D01*
X233081608Y-60997535D01*
X233128343Y-61058773D01*
X233321208Y-61247312D01*
X233539270Y-61406034D01*
X233639031Y-61458521D01*
X233773921Y-61529490D01*
X233773927Y-61529493D01*
X233777961Y-61531615D01*
X233782266Y-61533135D01*
X233782270Y-61533137D01*
X234027967Y-61619902D01*
X234032280Y-61621425D01*
X234160032Y-61646605D01*
X234292428Y-61672700D01*
X234292434Y-61672701D01*
X234296900Y-61673581D01*
X234301453Y-61673808D01*
X234301456Y-61673808D01*
X234561708Y-61686764D01*
X234561714Y-61686764D01*
X234566277Y-61686991D01*
X234834769Y-61661375D01*
X234839203Y-61660290D01*
X234839209Y-61660289D01*
X235092312Y-61598355D01*
X235096750Y-61597269D01*
X235346733Y-61496015D01*
X235579482Y-61359735D01*
X235790119Y-61191284D01*
X235974234Y-60994191D01*
X236127968Y-60772584D01*
X236248101Y-60531106D01*
X236249523Y-60526769D01*
X236330698Y-60279147D01*
X236330699Y-60279141D01*
X236332118Y-60274814D01*
X236352518Y-60157321D01*
X236377601Y-60012860D01*
X236377602Y-60012852D01*
X236378257Y-60009079D01*
X236382500Y-59923851D01*
X236382500Y-59155488D01*
X236380114Y-59122592D01*
X236372823Y-59022116D01*
X236367953Y-58954996D01*
X236328831Y-58777799D01*
X236310791Y-58696088D01*
X236310790Y-58696084D01*
X236309806Y-58691628D01*
X236245321Y-58521422D01*
X236215868Y-58443682D01*
X236215867Y-58443679D01*
X236214250Y-58439412D01*
X236083286Y-58203632D01*
X235972045Y-58057871D01*
X235922429Y-57992859D01*
X235922428Y-57992858D01*
X235919657Y-57989227D01*
X235726792Y-57800688D01*
X235508730Y-57641966D01*
X235342948Y-57554744D01*
X235274079Y-57518510D01*
X235274073Y-57518507D01*
X235270039Y-57516385D01*
X235265734Y-57514865D01*
X235265730Y-57514863D01*
X235020033Y-57428098D01*
X235020032Y-57428098D01*
X235015720Y-57426575D01*
X234873557Y-57398555D01*
X234755572Y-57375300D01*
X234755566Y-57375299D01*
X234751100Y-57374419D01*
X234746547Y-57374192D01*
X234746544Y-57374192D01*
X234486292Y-57361236D01*
X234486286Y-57361236D01*
X234481723Y-57361009D01*
X234213231Y-57386625D01*
X234208797Y-57387710D01*
X234208791Y-57387711D01*
X233955688Y-57449645D01*
X233951250Y-57450731D01*
X233701267Y-57551985D01*
X233468518Y-57688265D01*
X233257881Y-57856716D01*
X233073766Y-58053809D01*
X232920032Y-58275416D01*
X232799899Y-58516894D01*
X232798478Y-58521228D01*
X232798477Y-58521231D01*
X232798415Y-58521422D01*
X232715882Y-58773186D01*
X232715102Y-58777677D01*
X232715102Y-58777678D01*
X232683525Y-58959547D01*
X232669743Y-59038921D01*
X232665500Y-59124149D01*
X232665500Y-59892512D01*
X232182500Y-59892512D01*
X232182500Y-59155488D01*
X232180114Y-59122592D01*
X232172823Y-59022116D01*
X232167953Y-58954996D01*
X232128831Y-58777799D01*
X232110791Y-58696088D01*
X232110790Y-58696084D01*
X232109806Y-58691628D01*
X232045321Y-58521422D01*
X232015868Y-58443682D01*
X232015867Y-58443679D01*
X232014250Y-58439412D01*
X231883286Y-58203632D01*
X231772045Y-58057871D01*
X231722429Y-57992859D01*
X231722428Y-57992858D01*
X231719657Y-57989227D01*
X231526792Y-57800688D01*
X231308730Y-57641966D01*
X231142948Y-57554744D01*
X231074079Y-57518510D01*
X231074073Y-57518507D01*
X231070039Y-57516385D01*
X231065734Y-57514865D01*
X231065730Y-57514863D01*
X230820033Y-57428098D01*
X230820032Y-57428098D01*
X230815720Y-57426575D01*
X230673557Y-57398555D01*
X230555572Y-57375300D01*
X230555566Y-57375299D01*
X230551100Y-57374419D01*
X230546547Y-57374192D01*
X230546544Y-57374192D01*
X230286292Y-57361236D01*
X230286286Y-57361236D01*
X230281723Y-57361009D01*
X230013231Y-57386625D01*
X230008797Y-57387710D01*
X230008791Y-57387711D01*
X229755688Y-57449645D01*
X229751250Y-57450731D01*
X229501267Y-57551985D01*
X229268518Y-57688265D01*
X229057881Y-57856716D01*
X228873766Y-58053809D01*
X228720032Y-58275416D01*
X228599899Y-58516894D01*
X228598478Y-58521228D01*
X228598477Y-58521231D01*
X228598415Y-58521422D01*
X228515882Y-58773186D01*
X228515102Y-58777677D01*
X228515102Y-58777678D01*
X228483525Y-58959547D01*
X228469743Y-59038921D01*
X228465500Y-59124149D01*
X228465500Y-59892512D01*
X228465664Y-59894777D01*
X228465665Y-59894792D01*
X228467888Y-59925422D01*
X228480047Y-60093004D01*
X228481031Y-60097459D01*
X228481031Y-60097462D01*
X228537180Y-60351778D01*
X228538194Y-60356372D01*
X228539812Y-60360642D01*
X228605944Y-60535194D01*
X228633750Y-60608588D01*
X228764714Y-60844368D01*
X228767486Y-60848000D01*
X228881608Y-60997535D01*
X228928343Y-61058773D01*
X229001615Y-61130401D01*
X229036343Y-61192323D01*
X229032081Y-61263191D01*
X228990182Y-61320506D01*
X228923947Y-61346069D01*
X228913534Y-61346500D01*
X227535250Y-61346500D01*
X227467129Y-61326498D01*
X227420636Y-61272842D01*
X227410532Y-61202568D01*
X227443175Y-61134488D01*
X227510926Y-61061961D01*
X227574234Y-60994191D01*
X227727968Y-60772584D01*
X227848101Y-60531106D01*
X227849523Y-60526769D01*
X227930698Y-60279147D01*
X227930699Y-60279141D01*
X227932118Y-60274814D01*
X227952518Y-60157321D01*
X227977601Y-60012860D01*
X227977602Y-60012852D01*
X227978257Y-60009079D01*
X227982500Y-59923851D01*
X227982500Y-59155488D01*
X227980114Y-59122592D01*
X227972823Y-59022116D01*
X227967953Y-58954996D01*
X227928831Y-58777799D01*
X227910791Y-58696088D01*
X227910790Y-58696084D01*
X227909806Y-58691628D01*
X227845321Y-58521422D01*
X227815868Y-58443682D01*
X227815867Y-58443679D01*
X227814250Y-58439412D01*
X227683286Y-58203632D01*
X227572045Y-58057871D01*
X227522429Y-57992859D01*
X227522428Y-57992858D01*
X227519657Y-57989227D01*
X227326792Y-57800688D01*
X227108730Y-57641966D01*
X226942948Y-57554744D01*
X226874079Y-57518510D01*
X226874073Y-57518507D01*
X226870039Y-57516385D01*
X226865734Y-57514865D01*
X226865730Y-57514863D01*
X226620033Y-57428098D01*
X226620032Y-57428098D01*
X226615720Y-57426575D01*
X226473557Y-57398555D01*
X226355572Y-57375300D01*
X226355566Y-57375299D01*
X226351100Y-57374419D01*
X226346547Y-57374192D01*
X226346544Y-57374192D01*
X226086292Y-57361236D01*
X226086286Y-57361236D01*
X226081723Y-57361009D01*
X225813231Y-57386625D01*
X225808797Y-57387710D01*
X225808791Y-57387711D01*
X225555688Y-57449645D01*
X225551250Y-57450731D01*
X225301267Y-57551985D01*
X225068518Y-57688265D01*
X224857881Y-57856716D01*
X224673766Y-58053809D01*
X224520032Y-58275416D01*
X224399899Y-58516894D01*
X224398478Y-58521228D01*
X224398477Y-58521231D01*
X224398415Y-58521422D01*
X224315882Y-58773186D01*
X224315102Y-58777677D01*
X224315102Y-58777678D01*
X224283525Y-58959547D01*
X224269743Y-59038921D01*
X224265500Y-59124149D01*
X224265500Y-59892512D01*
X224265664Y-59894777D01*
X224265665Y-59894792D01*
X224267888Y-59925422D01*
X224280047Y-60093004D01*
X224281031Y-60097459D01*
X224281031Y-60097462D01*
X224337180Y-60351778D01*
X224338194Y-60356372D01*
X224339812Y-60360642D01*
X224405944Y-60535194D01*
X224433750Y-60608588D01*
X224564714Y-60844368D01*
X224567486Y-60848000D01*
X224681608Y-60997535D01*
X224728343Y-61058773D01*
X224801615Y-61130401D01*
X224836343Y-61192323D01*
X224832081Y-61263191D01*
X224790182Y-61320506D01*
X224723947Y-61346069D01*
X224713534Y-61346500D01*
X223334568Y-61346500D01*
X223266447Y-61326498D01*
X223219954Y-61272842D01*
X223209850Y-61202568D01*
X223242492Y-61134488D01*
X223370733Y-60997206D01*
X223376443Y-60990129D01*
X223524934Y-60776082D01*
X223529571Y-60768241D01*
X223645604Y-60535003D01*
X223649060Y-60526578D01*
X223730212Y-60279026D01*
X223732412Y-60270201D01*
X223777103Y-60012811D01*
X223777950Y-60005193D01*
X223781922Y-59925408D01*
X223782000Y-59922267D01*
X223782000Y-59796115D01*
X223777525Y-59780876D01*
X223776135Y-59779671D01*
X223768452Y-59778000D01*
X220084115Y-59778000D01*
X220068876Y-59782475D01*
X220067671Y-59783865D01*
X220066000Y-59791548D01*
X220066000Y-59890206D01*
X220066165Y-59894777D01*
X220080213Y-60088380D01*
X220081527Y-60097389D01*
X220137689Y-60351769D01*
X220140292Y-60360499D01*
X220232586Y-60604107D01*
X220236421Y-60612368D01*
X220362915Y-60840101D01*
X220367905Y-60847726D01*
X220525946Y-61054809D01*
X220531980Y-61061628D01*
X220602329Y-61130399D01*
X220637059Y-61192321D01*
X220632798Y-61263190D01*
X220590899Y-61320505D01*
X220524664Y-61346069D01*
X220514250Y-61346500D01*
X219134568Y-61346500D01*
X219066447Y-61326498D01*
X219019954Y-61272842D01*
X219009850Y-61202568D01*
X219042492Y-61134488D01*
X219170733Y-60997206D01*
X219176443Y-60990129D01*
X219324934Y-60776082D01*
X219329571Y-60768241D01*
X219445604Y-60535003D01*
X219449060Y-60526578D01*
X219530212Y-60279026D01*
X219532412Y-60270201D01*
X219577103Y-60012811D01*
X219577950Y-60005193D01*
X219581922Y-59925408D01*
X219582000Y-59922267D01*
X219582000Y-59796115D01*
X219577525Y-59780876D01*
X219576135Y-59779671D01*
X219568452Y-59778000D01*
X215884115Y-59778000D01*
X215868876Y-59782475D01*
X215867671Y-59783865D01*
X215866000Y-59791548D01*
X215866000Y-59890206D01*
X215866165Y-59894777D01*
X215880213Y-60088380D01*
X215881527Y-60097389D01*
X215937689Y-60351769D01*
X215940292Y-60360499D01*
X216032586Y-60604107D01*
X216036421Y-60612368D01*
X216162915Y-60840101D01*
X216167905Y-60847726D01*
X216325946Y-61054809D01*
X216331980Y-61061628D01*
X216402329Y-61130399D01*
X216437059Y-61192321D01*
X216432798Y-61263190D01*
X216390899Y-61320505D01*
X216324664Y-61346069D01*
X216314250Y-61346500D01*
X214934568Y-61346500D01*
X214866447Y-61326498D01*
X214819954Y-61272842D01*
X214809850Y-61202568D01*
X214842492Y-61134488D01*
X214970733Y-60997206D01*
X214976443Y-60990129D01*
X215124934Y-60776082D01*
X215129571Y-60768241D01*
X215245604Y-60535003D01*
X215249060Y-60526578D01*
X215330212Y-60279026D01*
X215332412Y-60270201D01*
X215377103Y-60012811D01*
X215377950Y-60005193D01*
X215381922Y-59925408D01*
X215382000Y-59922267D01*
X215382000Y-59796115D01*
X215377525Y-59780876D01*
X215376135Y-59779671D01*
X215368452Y-59778000D01*
X211684115Y-59778000D01*
X211668876Y-59782475D01*
X211667671Y-59783865D01*
X211666000Y-59791548D01*
X211666000Y-59890206D01*
X211666165Y-59894777D01*
X211680213Y-60088380D01*
X211681527Y-60097389D01*
X211737691Y-60351778D01*
X211738339Y-60353951D01*
X211738342Y-60354726D01*
X211738674Y-60356229D01*
X211738349Y-60356301D01*
X211738629Y-60424947D01*
X211700489Y-60484829D01*
X211636029Y-60514585D01*
X211565714Y-60504768D01*
X211528494Y-60479037D01*
X211206778Y-60157321D01*
X211172752Y-60095009D01*
X211171730Y-60046671D01*
X211177601Y-60012860D01*
X211177602Y-60012852D01*
X211178257Y-60009079D01*
X211182500Y-59923851D01*
X211182500Y-59251885D01*
X211666000Y-59251885D01*
X211670475Y-59267124D01*
X211671865Y-59268329D01*
X211679548Y-59270000D01*
X213251885Y-59270000D01*
X213267124Y-59265525D01*
X213268329Y-59264135D01*
X213270000Y-59256452D01*
X213270000Y-59251885D01*
X213778000Y-59251885D01*
X213782475Y-59267124D01*
X213783865Y-59268329D01*
X213791548Y-59270000D01*
X215363885Y-59270000D01*
X215379124Y-59265525D01*
X215380329Y-59264135D01*
X215382000Y-59256452D01*
X215382000Y-59251885D01*
X215866000Y-59251885D01*
X215870475Y-59267124D01*
X215871865Y-59268329D01*
X215879548Y-59270000D01*
X217451885Y-59270000D01*
X217467124Y-59265525D01*
X217468329Y-59264135D01*
X217470000Y-59256452D01*
X217470000Y-59251885D01*
X217978000Y-59251885D01*
X217982475Y-59267124D01*
X217983865Y-59268329D01*
X217991548Y-59270000D01*
X219563885Y-59270000D01*
X219579124Y-59265525D01*
X219580329Y-59264135D01*
X219582000Y-59256452D01*
X219582000Y-59251885D01*
X220066000Y-59251885D01*
X220070475Y-59267124D01*
X220071865Y-59268329D01*
X220079548Y-59270000D01*
X221651885Y-59270000D01*
X221667124Y-59265525D01*
X221668329Y-59264135D01*
X221670000Y-59256452D01*
X221670000Y-59251885D01*
X222178000Y-59251885D01*
X222182475Y-59267124D01*
X222183865Y-59268329D01*
X222191548Y-59270000D01*
X223763885Y-59270000D01*
X223779124Y-59265525D01*
X223780329Y-59264135D01*
X223782000Y-59256452D01*
X223782000Y-59157794D01*
X223781835Y-59153223D01*
X223767787Y-58959620D01*
X223766473Y-58950611D01*
X223710311Y-58696231D01*
X223707708Y-58687501D01*
X223615414Y-58443893D01*
X223611579Y-58435632D01*
X223485085Y-58207899D01*
X223480095Y-58200274D01*
X223322054Y-57993191D01*
X223316014Y-57986364D01*
X223129736Y-57804265D01*
X223122774Y-57798382D01*
X222912157Y-57645078D01*
X222904427Y-57640267D01*
X222673878Y-57518969D01*
X222665528Y-57515322D01*
X222419901Y-57428581D01*
X222411106Y-57426175D01*
X222195775Y-57383733D01*
X222182863Y-57384912D01*
X222178000Y-57400015D01*
X222178000Y-59251885D01*
X221670000Y-59251885D01*
X221670000Y-57399826D01*
X221665749Y-57385349D01*
X221653488Y-57383286D01*
X221617867Y-57386685D01*
X221608875Y-57388205D01*
X221355842Y-57450122D01*
X221347173Y-57452922D01*
X221105718Y-57550722D01*
X221097545Y-57554744D01*
X220872747Y-57686368D01*
X220865235Y-57691531D01*
X220661787Y-57854231D01*
X220655104Y-57860420D01*
X220477267Y-58050794D01*
X220471557Y-58057871D01*
X220323066Y-58271918D01*
X220318429Y-58279759D01*
X220202396Y-58512997D01*
X220198940Y-58521422D01*
X220117788Y-58768974D01*
X220115588Y-58777799D01*
X220070897Y-59035189D01*
X220070050Y-59042807D01*
X220066078Y-59122592D01*
X220066000Y-59125733D01*
X220066000Y-59251885D01*
X219582000Y-59251885D01*
X219582000Y-59157794D01*
X219581835Y-59153223D01*
X219567787Y-58959620D01*
X219566473Y-58950611D01*
X219510311Y-58696231D01*
X219507708Y-58687501D01*
X219415414Y-58443893D01*
X219411579Y-58435632D01*
X219285085Y-58207899D01*
X219280095Y-58200274D01*
X219122054Y-57993191D01*
X219116014Y-57986364D01*
X218929736Y-57804265D01*
X218922774Y-57798382D01*
X218712157Y-57645078D01*
X218704427Y-57640267D01*
X218473878Y-57518969D01*
X218465528Y-57515322D01*
X218219901Y-57428581D01*
X218211106Y-57426175D01*
X217995775Y-57383733D01*
X217982863Y-57384912D01*
X217978000Y-57400015D01*
X217978000Y-59251885D01*
X217470000Y-59251885D01*
X217470000Y-57399826D01*
X217465749Y-57385349D01*
X217453488Y-57383286D01*
X217417867Y-57386685D01*
X217408875Y-57388205D01*
X217155842Y-57450122D01*
X217147173Y-57452922D01*
X216905718Y-57550722D01*
X216897545Y-57554744D01*
X216672747Y-57686368D01*
X216665235Y-57691531D01*
X216461787Y-57854231D01*
X216455104Y-57860420D01*
X216277267Y-58050794D01*
X216271557Y-58057871D01*
X216123066Y-58271918D01*
X216118429Y-58279759D01*
X216002396Y-58512997D01*
X215998940Y-58521422D01*
X215917788Y-58768974D01*
X215915588Y-58777799D01*
X215870897Y-59035189D01*
X215870050Y-59042807D01*
X215866078Y-59122592D01*
X215866000Y-59125733D01*
X215866000Y-59251885D01*
X215382000Y-59251885D01*
X215382000Y-59157794D01*
X215381835Y-59153223D01*
X215367787Y-58959620D01*
X215366473Y-58950611D01*
X215310311Y-58696231D01*
X215307708Y-58687501D01*
X215215414Y-58443893D01*
X215211579Y-58435632D01*
X215085085Y-58207899D01*
X215080095Y-58200274D01*
X214922054Y-57993191D01*
X214916014Y-57986364D01*
X214729736Y-57804265D01*
X214722774Y-57798382D01*
X214512157Y-57645078D01*
X214504427Y-57640267D01*
X214273878Y-57518969D01*
X214265528Y-57515322D01*
X214019901Y-57428581D01*
X214011106Y-57426175D01*
X213795775Y-57383733D01*
X213782863Y-57384912D01*
X213778000Y-57400015D01*
X213778000Y-59251885D01*
X213270000Y-59251885D01*
X213270000Y-57399826D01*
X213265749Y-57385349D01*
X213253488Y-57383286D01*
X213217867Y-57386685D01*
X213208875Y-57388205D01*
X212955842Y-57450122D01*
X212947173Y-57452922D01*
X212705718Y-57550722D01*
X212697545Y-57554744D01*
X212472747Y-57686368D01*
X212465235Y-57691531D01*
X212261787Y-57854231D01*
X212255104Y-57860420D01*
X212077267Y-58050794D01*
X212071557Y-58057871D01*
X211923066Y-58271918D01*
X211918429Y-58279759D01*
X211802396Y-58512997D01*
X211798940Y-58521422D01*
X211717788Y-58768974D01*
X211715588Y-58777799D01*
X211670897Y-59035189D01*
X211670050Y-59042807D01*
X211666078Y-59122592D01*
X211666000Y-59125733D01*
X211666000Y-59251885D01*
X211182500Y-59251885D01*
X211182500Y-59155488D01*
X211180114Y-59122592D01*
X211172823Y-59022116D01*
X211167953Y-58954996D01*
X211128831Y-58777799D01*
X211110791Y-58696088D01*
X211110790Y-58696084D01*
X211109806Y-58691628D01*
X211045321Y-58521422D01*
X211015868Y-58443682D01*
X211015867Y-58443679D01*
X211014250Y-58439412D01*
X210883286Y-58203632D01*
X210772045Y-58057871D01*
X210722429Y-57992859D01*
X210722428Y-57992858D01*
X210719657Y-57989227D01*
X210526792Y-57800688D01*
X210308730Y-57641966D01*
X210142948Y-57554744D01*
X210074079Y-57518510D01*
X210074073Y-57518507D01*
X210070039Y-57516385D01*
X210065734Y-57514865D01*
X210065730Y-57514863D01*
X209820033Y-57428098D01*
X209820032Y-57428098D01*
X209815720Y-57426575D01*
X209673557Y-57398555D01*
X209555572Y-57375300D01*
X209555566Y-57375299D01*
X209551100Y-57374419D01*
X209546547Y-57374192D01*
X209546544Y-57374192D01*
X209286292Y-57361236D01*
X209286286Y-57361236D01*
X209281723Y-57361009D01*
X209013231Y-57386625D01*
X209008797Y-57387710D01*
X209008791Y-57387711D01*
X208755688Y-57449645D01*
X208751250Y-57450731D01*
X208501267Y-57551985D01*
X208268518Y-57688265D01*
X208057881Y-57856716D01*
X207873766Y-58053809D01*
X207720032Y-58275416D01*
X207599899Y-58516894D01*
X207598478Y-58521228D01*
X207598477Y-58521231D01*
X207598415Y-58521422D01*
X207515882Y-58773186D01*
X207515102Y-58777677D01*
X207515102Y-58777678D01*
X207483525Y-58959547D01*
X207469743Y-59038921D01*
X207465500Y-59124149D01*
X207465500Y-59892512D01*
X205458000Y-59892512D01*
X205458000Y-54700400D01*
X207091500Y-54700400D01*
X207091837Y-54703646D01*
X207091837Y-54703650D01*
X207101146Y-54793365D01*
X207102474Y-54806166D01*
X207158450Y-54973946D01*
X207251522Y-55124348D01*
X207376697Y-55249305D01*
X207382927Y-55253145D01*
X207382928Y-55253146D01*
X207520090Y-55337694D01*
X207527262Y-55342115D01*
X207607005Y-55368564D01*
X207688611Y-55395632D01*
X207688613Y-55395632D01*
X207695139Y-55397797D01*
X207701975Y-55398497D01*
X207701978Y-55398498D01*
X207745031Y-55402909D01*
X207799600Y-55408500D01*
X209000400Y-55408500D01*
X209003646Y-55408163D01*
X209003650Y-55408163D01*
X209099308Y-55398238D01*
X209099312Y-55398237D01*
X209106166Y-55397526D01*
X209112702Y-55395345D01*
X209112704Y-55395345D01*
X209244806Y-55351272D01*
X209273946Y-55341550D01*
X209424348Y-55248478D01*
X209549305Y-55123303D01*
X209633152Y-54987279D01*
X209638275Y-54978968D01*
X209638276Y-54978966D01*
X209642115Y-54972738D01*
X209697797Y-54804861D01*
X209708500Y-54700400D01*
X209708500Y-54005805D01*
X209728502Y-53937684D01*
X209782158Y-53891191D01*
X209852432Y-53881087D01*
X209885749Y-53890698D01*
X210005958Y-53944218D01*
X210029712Y-53954794D01*
X210123112Y-53974647D01*
X210210056Y-53993128D01*
X210210061Y-53993128D01*
X210216513Y-53994500D01*
X210407487Y-53994500D01*
X210413939Y-53993128D01*
X210413944Y-53993128D01*
X210500887Y-53974647D01*
X210594288Y-53954794D01*
X210617800Y-53944326D01*
X210762722Y-53879803D01*
X210762724Y-53879802D01*
X210768752Y-53877118D01*
X210774091Y-53873239D01*
X210774098Y-53873235D01*
X210780528Y-53868563D01*
X210854587Y-53844500D01*
X211479430Y-53844500D01*
X211498380Y-53845933D01*
X211512615Y-53848099D01*
X211512619Y-53848099D01*
X211519849Y-53849199D01*
X211527141Y-53848606D01*
X211527144Y-53848606D01*
X211572518Y-53844915D01*
X211582733Y-53844500D01*
X211590793Y-53844500D01*
X211604083Y-53842951D01*
X211619007Y-53841211D01*
X211623382Y-53840778D01*
X211696137Y-53834860D01*
X211696147Y-53834978D01*
X211711081Y-53833500D01*
X212320400Y-53833500D01*
X212323646Y-53833163D01*
X212323650Y-53833163D01*
X212379163Y-53827403D01*
X212426166Y-53822526D01*
X212430357Y-53821128D01*
X212500210Y-53826228D01*
X212556982Y-53868860D01*
X212581693Y-53935417D01*
X212582001Y-53944218D01*
X212582001Y-54018983D01*
X212582195Y-54023920D01*
X212584430Y-54052336D01*
X212586730Y-54064931D01*
X212629107Y-54210790D01*
X212635352Y-54225221D01*
X212711911Y-54354678D01*
X212721551Y-54367104D01*
X212827896Y-54473449D01*
X212840322Y-54483089D01*
X212969779Y-54559648D01*
X212984210Y-54565893D01*
X213130065Y-54608269D01*
X213142667Y-54610570D01*
X213171084Y-54612807D01*
X213176014Y-54613000D01*
X213642885Y-54613000D01*
X213658124Y-54608525D01*
X213659329Y-54607135D01*
X213661000Y-54599452D01*
X213661000Y-54594884D01*
X214169000Y-54594884D01*
X214173475Y-54610123D01*
X214174865Y-54611328D01*
X214182548Y-54612999D01*
X214653984Y-54612999D01*
X214658920Y-54612805D01*
X214687336Y-54610570D01*
X214699931Y-54608270D01*
X214845790Y-54565893D01*
X214860221Y-54559648D01*
X214989678Y-54483089D01*
X215002104Y-54473449D01*
X215108449Y-54367104D01*
X215118089Y-54354678D01*
X215194648Y-54225221D01*
X215200893Y-54210790D01*
X215239939Y-54076395D01*
X215239899Y-54062294D01*
X215232630Y-54059000D01*
X214187115Y-54059000D01*
X214171876Y-54063475D01*
X214170671Y-54064865D01*
X214169000Y-54072548D01*
X214169000Y-54594884D01*
X213661000Y-54594884D01*
X213661000Y-53677000D01*
X213681002Y-53608879D01*
X213734658Y-53562386D01*
X213787000Y-53551000D01*
X215226878Y-53551000D01*
X215240409Y-53547027D01*
X215241544Y-53539129D01*
X215200893Y-53399210D01*
X215194648Y-53384779D01*
X215118089Y-53255323D01*
X215112129Y-53247640D01*
X215086180Y-53181556D01*
X215100078Y-53111933D01*
X215110421Y-53095839D01*
X215114453Y-53091807D01*
X215199145Y-52948601D01*
X215245562Y-52788831D01*
X215248500Y-52751502D01*
X215248500Y-52318498D01*
X215247526Y-52306120D01*
X215246067Y-52287579D01*
X215246066Y-52287574D01*
X215245562Y-52281169D01*
X215207564Y-52150378D01*
X215201357Y-52129012D01*
X215201356Y-52129010D01*
X215199145Y-52121399D01*
X215114453Y-51978193D01*
X215111771Y-51975511D01*
X215086498Y-51911139D01*
X215100400Y-51841516D01*
X215110572Y-51825688D01*
X215114453Y-51821807D01*
X215199145Y-51678601D01*
X215245562Y-51518831D01*
X215247469Y-51494610D01*
X215248307Y-51483958D01*
X215248307Y-51483950D01*
X215248500Y-51481502D01*
X215248500Y-51310000D01*
X216356496Y-51310000D01*
X216357186Y-51316565D01*
X216375508Y-51490886D01*
X216376458Y-51499928D01*
X216435473Y-51681556D01*
X216530960Y-51846944D01*
X216535378Y-51851851D01*
X216535379Y-51851852D01*
X216648265Y-51977225D01*
X216658747Y-51988866D01*
X216719393Y-52032928D01*
X216779636Y-52076697D01*
X216813248Y-52101118D01*
X216819276Y-52103802D01*
X216819278Y-52103803D01*
X216981681Y-52176109D01*
X216987712Y-52178794D01*
X217081112Y-52198647D01*
X217168056Y-52217128D01*
X217168061Y-52217128D01*
X217174513Y-52218500D01*
X217365487Y-52218500D01*
X217371939Y-52217128D01*
X217371944Y-52217128D01*
X217458888Y-52198647D01*
X217552288Y-52178794D01*
X217558443Y-52176054D01*
X217606990Y-52154439D01*
X217662542Y-52129706D01*
X217732908Y-52120272D01*
X217797205Y-52150378D01*
X217835019Y-52210467D01*
X217834838Y-52268189D01*
X217837390Y-52268655D01*
X217836232Y-52274994D01*
X217834438Y-52281169D01*
X217833934Y-52287574D01*
X217833933Y-52287579D01*
X217832474Y-52306120D01*
X217831500Y-52318498D01*
X217831500Y-52751502D01*
X217834438Y-52788831D01*
X217880855Y-52948601D01*
X217965547Y-53091807D01*
X217968229Y-53094489D01*
X217993502Y-53158861D01*
X217979600Y-53228484D01*
X217969428Y-53244312D01*
X217965547Y-53248193D01*
X217880855Y-53391399D01*
X217878644Y-53399010D01*
X217878643Y-53399012D01*
X217867875Y-53436078D01*
X217834438Y-53551169D01*
X217833934Y-53557574D01*
X217833933Y-53557579D01*
X217832328Y-53577974D01*
X217831500Y-53588498D01*
X217831500Y-54021502D01*
X217831693Y-54023950D01*
X217831693Y-54023958D01*
X217833927Y-54052336D01*
X217834438Y-54058831D01*
X217838571Y-54073056D01*
X217878586Y-54210790D01*
X217880855Y-54218601D01*
X217884892Y-54225427D01*
X217961509Y-54354980D01*
X217961511Y-54354983D01*
X217965547Y-54361807D01*
X218083193Y-54479453D01*
X218090017Y-54483489D01*
X218090020Y-54483491D01*
X218197589Y-54547107D01*
X218226399Y-54564145D01*
X218234010Y-54566356D01*
X218234012Y-54566357D01*
X218286231Y-54581528D01*
X218386169Y-54610562D01*
X218392574Y-54611066D01*
X218392579Y-54611067D01*
X218421042Y-54613307D01*
X218421050Y-54613307D01*
X218423498Y-54613500D01*
X219906502Y-54613500D01*
X219908950Y-54613307D01*
X219908958Y-54613307D01*
X219937421Y-54611067D01*
X219937426Y-54611066D01*
X219943831Y-54610562D01*
X220043769Y-54581528D01*
X220095988Y-54566357D01*
X220095990Y-54566356D01*
X220103601Y-54564145D01*
X220132411Y-54547107D01*
X220239980Y-54483491D01*
X220239983Y-54483489D01*
X220246807Y-54479453D01*
X220364453Y-54361807D01*
X220368489Y-54354983D01*
X220368491Y-54354980D01*
X220445108Y-54225427D01*
X220449145Y-54218601D01*
X220451415Y-54210790D01*
X220491429Y-54073056D01*
X220495562Y-54058831D01*
X220496074Y-54052336D01*
X220498307Y-54023958D01*
X220498307Y-54023950D01*
X220498500Y-54021502D01*
X220498500Y-53944326D01*
X220518502Y-53876205D01*
X220572158Y-53829712D01*
X220642432Y-53819608D01*
X220649146Y-53820809D01*
X220655139Y-53822797D01*
X220661979Y-53823498D01*
X220661980Y-53823498D01*
X220679430Y-53825286D01*
X220759600Y-53833500D01*
X221760400Y-53833500D01*
X221763646Y-53833163D01*
X221763650Y-53833163D01*
X221859308Y-53823238D01*
X221859312Y-53823237D01*
X221866166Y-53822526D01*
X221872702Y-53820345D01*
X221872704Y-53820345D01*
X222026998Y-53768868D01*
X222033946Y-53766550D01*
X222184348Y-53673478D01*
X222249731Y-53607982D01*
X222312013Y-53573903D01*
X222338903Y-53571000D01*
X223245500Y-53571000D01*
X223313621Y-53591002D01*
X223360114Y-53644658D01*
X223371500Y-53697000D01*
X223371500Y-54700400D01*
X223371837Y-54703646D01*
X223371837Y-54703650D01*
X223381146Y-54793365D01*
X223382474Y-54806166D01*
X223438450Y-54973946D01*
X223531522Y-55124348D01*
X223656697Y-55249305D01*
X223662927Y-55253145D01*
X223662928Y-55253146D01*
X223800090Y-55337694D01*
X223807262Y-55342115D01*
X223887005Y-55368564D01*
X223968611Y-55395632D01*
X223968613Y-55395632D01*
X223975139Y-55397797D01*
X223981975Y-55398497D01*
X223981978Y-55398498D01*
X224025031Y-55402909D01*
X224079600Y-55408500D01*
X225280400Y-55408500D01*
X225283646Y-55408163D01*
X225283650Y-55408163D01*
X225379308Y-55398238D01*
X225379312Y-55398237D01*
X225386166Y-55397526D01*
X225392702Y-55395345D01*
X225392704Y-55395345D01*
X225524806Y-55351272D01*
X225553946Y-55341550D01*
X225704348Y-55248478D01*
X225829305Y-55123303D01*
X225913152Y-54987279D01*
X225918275Y-54978968D01*
X225918276Y-54978966D01*
X225922115Y-54972738D01*
X225977797Y-54804861D01*
X225988500Y-54700400D01*
X225988500Y-53849269D01*
X226900500Y-53849269D01*
X226900501Y-54861730D01*
X226911384Y-54966629D01*
X226913563Y-54973160D01*
X226913564Y-54973165D01*
X226918273Y-54987279D01*
X226966898Y-55133026D01*
X227059203Y-55282189D01*
X227183347Y-55406117D01*
X227332671Y-55498161D01*
X227339619Y-55500466D01*
X227339620Y-55500466D01*
X227492634Y-55551219D01*
X227492636Y-55551219D01*
X227499165Y-55553385D01*
X227602769Y-55564000D01*
X227894234Y-55564000D01*
X228190230Y-55563999D01*
X228295129Y-55553116D01*
X228301660Y-55550937D01*
X228301665Y-55550936D01*
X228454578Y-55499920D01*
X228461526Y-55497602D01*
X228610689Y-55405297D01*
X228734617Y-55281153D01*
X228736419Y-55278230D01*
X228793029Y-55238092D01*
X228863952Y-55234858D01*
X228925364Y-55270482D01*
X228930916Y-55276878D01*
X228934203Y-55282189D01*
X229058347Y-55406117D01*
X229207671Y-55498161D01*
X229214619Y-55500466D01*
X229214620Y-55500466D01*
X229367634Y-55551219D01*
X229367636Y-55551219D01*
X229374165Y-55553385D01*
X229477769Y-55564000D01*
X229769234Y-55564000D01*
X230065230Y-55563999D01*
X230170129Y-55553116D01*
X230176660Y-55550937D01*
X230176665Y-55550936D01*
X230329578Y-55499920D01*
X230336526Y-55497602D01*
X230485689Y-55405297D01*
X230493176Y-55397797D01*
X230603455Y-55287326D01*
X230665738Y-55253247D01*
X230736558Y-55258250D01*
X230776936Y-55282706D01*
X230778333Y-55283964D01*
X230782747Y-55288866D01*
X230937248Y-55401118D01*
X230943276Y-55403802D01*
X230943278Y-55403803D01*
X231105681Y-55476109D01*
X231111712Y-55478794D01*
X231200196Y-55497602D01*
X231292056Y-55517128D01*
X231292061Y-55517128D01*
X231298513Y-55518500D01*
X231489487Y-55518500D01*
X231495939Y-55517128D01*
X231495944Y-55517128D01*
X231587804Y-55497602D01*
X231676288Y-55478794D01*
X231682319Y-55476109D01*
X231844722Y-55403803D01*
X231844724Y-55403802D01*
X231850752Y-55401118D01*
X232005253Y-55288866D01*
X232009675Y-55283955D01*
X232128621Y-55151852D01*
X232128622Y-55151851D01*
X232133040Y-55146944D01*
X232228527Y-54981556D01*
X232287542Y-54799928D01*
X232307504Y-54610000D01*
X232287542Y-54420072D01*
X232228527Y-54238444D01*
X232133040Y-54073056D01*
X232005253Y-53931134D01*
X231870872Y-53833500D01*
X231856094Y-53822763D01*
X231856093Y-53822762D01*
X231850752Y-53818882D01*
X231844724Y-53816198D01*
X231844722Y-53816197D01*
X231682319Y-53743891D01*
X231682318Y-53743891D01*
X231676288Y-53741206D01*
X231574170Y-53719500D01*
X231495944Y-53702872D01*
X231495939Y-53702872D01*
X231489487Y-53701500D01*
X231298513Y-53701500D01*
X231292061Y-53702872D01*
X231292056Y-53702872D01*
X231219484Y-53718298D01*
X231173580Y-53719500D01*
X231167393Y-53718520D01*
X231167384Y-53718520D01*
X231159557Y-53717280D01*
X231151665Y-53718026D01*
X231115539Y-53721441D01*
X231103681Y-53722000D01*
X230839944Y-53722000D01*
X230771823Y-53701998D01*
X230725330Y-53648342D01*
X230720421Y-53635877D01*
X230703422Y-53584927D01*
X230703421Y-53584925D01*
X230701102Y-53577974D01*
X230608797Y-53428811D01*
X230603615Y-53423638D01*
X230488409Y-53308632D01*
X230454330Y-53246349D01*
X230459333Y-53175529D01*
X230498695Y-53121357D01*
X230503348Y-53118478D01*
X230628305Y-52993303D01*
X230721115Y-52842738D01*
X230776797Y-52674861D01*
X230787500Y-52570400D01*
X230787500Y-51569600D01*
X230787163Y-51566350D01*
X230777238Y-51470692D01*
X230777237Y-51470688D01*
X230776526Y-51463834D01*
X230773533Y-51454861D01*
X230723271Y-51304209D01*
X230720550Y-51296054D01*
X230627478Y-51145652D01*
X230502303Y-51020695D01*
X230368868Y-50938444D01*
X230357968Y-50931725D01*
X230357966Y-50931724D01*
X230351738Y-50927885D01*
X230185580Y-50872773D01*
X230127220Y-50832342D01*
X230099983Y-50766778D01*
X230109609Y-50703142D01*
X230117181Y-50685645D01*
X230118420Y-50677822D01*
X230118423Y-50677812D01*
X230124099Y-50641976D01*
X230126505Y-50630356D01*
X230132844Y-50605666D01*
X230148298Y-50580933D01*
X231199500Y-50580933D01*
X231199653Y-50583119D01*
X231199653Y-50583123D01*
X231213876Y-50786511D01*
X231214775Y-50799373D01*
X231275503Y-51085074D01*
X231277006Y-51089203D01*
X231277007Y-51089207D01*
X231373256Y-51353650D01*
X231375401Y-51359544D01*
X231512527Y-51617439D01*
X231515113Y-51620998D01*
X231515114Y-51621000D01*
X231680987Y-51849305D01*
X231684209Y-51853740D01*
X231687265Y-51856904D01*
X231687267Y-51856907D01*
X231877598Y-52054000D01*
X231887108Y-52063848D01*
X232117274Y-52243673D01*
X232370226Y-52389715D01*
X232641042Y-52499132D01*
X232924450Y-52569794D01*
X232928818Y-52570253D01*
X232928823Y-52570254D01*
X233210565Y-52599866D01*
X233210568Y-52599866D01*
X233214934Y-52600325D01*
X233219322Y-52600172D01*
X233219328Y-52600172D01*
X233502443Y-52590285D01*
X233502449Y-52590284D01*
X233506841Y-52590131D01*
X233794488Y-52539411D01*
X233798659Y-52538056D01*
X233798666Y-52538054D01*
X234027526Y-52463692D01*
X234072276Y-52449152D01*
X234076229Y-52447224D01*
X234076234Y-52447222D01*
X234330849Y-52323038D01*
X234334800Y-52321111D01*
X234338439Y-52318657D01*
X234338445Y-52318653D01*
X234573303Y-52160239D01*
X234573310Y-52160234D01*
X234576949Y-52157779D01*
X234580659Y-52154439D01*
X234790736Y-51965285D01*
X234790737Y-51965284D01*
X234794010Y-51962337D01*
X234883214Y-51856027D01*
X234978930Y-51741958D01*
X234978934Y-51741953D01*
X234981758Y-51738587D01*
X235136539Y-51490886D01*
X235138328Y-51486869D01*
X235153919Y-51451850D01*
X235199898Y-51397754D01*
X235267825Y-51377104D01*
X235336134Y-51396456D01*
X235380277Y-51443944D01*
X235420096Y-51518831D01*
X235472527Y-51617439D01*
X235475113Y-51620998D01*
X235475114Y-51621000D01*
X235640987Y-51849305D01*
X235644209Y-51853740D01*
X235647265Y-51856904D01*
X235647267Y-51856907D01*
X235837598Y-52054000D01*
X235847108Y-52063848D01*
X236077274Y-52243673D01*
X236330226Y-52389715D01*
X236601042Y-52499132D01*
X236884450Y-52569794D01*
X236888818Y-52570253D01*
X236888823Y-52570254D01*
X237170565Y-52599866D01*
X237170568Y-52599866D01*
X237174934Y-52600325D01*
X237179322Y-52600172D01*
X237179328Y-52600172D01*
X237462443Y-52590285D01*
X237462449Y-52590284D01*
X237466841Y-52590131D01*
X237754488Y-52539411D01*
X237758659Y-52538056D01*
X237758666Y-52538054D01*
X237987526Y-52463692D01*
X238032276Y-52449152D01*
X238036229Y-52447224D01*
X238036234Y-52447222D01*
X238290849Y-52323038D01*
X238294800Y-52321111D01*
X238298439Y-52318657D01*
X238298445Y-52318653D01*
X238533303Y-52160239D01*
X238533310Y-52160234D01*
X238536949Y-52157779D01*
X238540659Y-52154439D01*
X238750736Y-51965285D01*
X238750737Y-51965284D01*
X238754010Y-51962337D01*
X238843214Y-51856027D01*
X238938930Y-51741958D01*
X238938934Y-51741953D01*
X238941758Y-51738587D01*
X239096539Y-51490886D01*
X239098328Y-51486869D01*
X239113919Y-51451850D01*
X239159898Y-51397754D01*
X239227825Y-51377104D01*
X239296134Y-51396456D01*
X239340277Y-51443944D01*
X239380096Y-51518831D01*
X239432527Y-51617439D01*
X239435113Y-51620998D01*
X239435114Y-51621000D01*
X239600987Y-51849305D01*
X239604209Y-51853740D01*
X239607265Y-51856904D01*
X239607267Y-51856907D01*
X239797598Y-52054000D01*
X239807108Y-52063848D01*
X240037274Y-52243673D01*
X240290226Y-52389715D01*
X240561042Y-52499132D01*
X240844450Y-52569794D01*
X240848818Y-52570253D01*
X240848823Y-52570254D01*
X241130565Y-52599866D01*
X241130568Y-52599866D01*
X241134934Y-52600325D01*
X241139322Y-52600172D01*
X241139328Y-52600172D01*
X241422443Y-52590285D01*
X241422449Y-52590284D01*
X241426841Y-52590131D01*
X241714488Y-52539411D01*
X241718659Y-52538056D01*
X241718666Y-52538054D01*
X241947526Y-52463692D01*
X241992276Y-52449152D01*
X241996229Y-52447224D01*
X241996234Y-52447222D01*
X242250849Y-52323038D01*
X242254800Y-52321111D01*
X242258439Y-52318657D01*
X242258445Y-52318653D01*
X242493303Y-52160239D01*
X242493310Y-52160234D01*
X242496949Y-52157779D01*
X242500659Y-52154439D01*
X242710736Y-51965285D01*
X242710737Y-51965284D01*
X242714010Y-51962337D01*
X242803214Y-51856027D01*
X242898930Y-51741958D01*
X242898934Y-51741953D01*
X242901758Y-51738587D01*
X243056539Y-51490886D01*
X243058327Y-51486871D01*
X243058328Y-51486869D01*
X243074179Y-51451268D01*
X243120159Y-51397173D01*
X243188086Y-51376524D01*
X243256394Y-51395877D01*
X243300536Y-51443365D01*
X243390881Y-51613281D01*
X243395540Y-51620737D01*
X243562004Y-51849855D01*
X243567651Y-51856585D01*
X243764389Y-52060314D01*
X243770911Y-52066185D01*
X243994088Y-52240550D01*
X244001361Y-52245456D01*
X244246626Y-52387060D01*
X244254536Y-52390918D01*
X244517116Y-52497006D01*
X244525468Y-52499720D01*
X244800266Y-52568235D01*
X244808910Y-52569760D01*
X244895985Y-52578912D01*
X244910636Y-52576232D01*
X244914000Y-52563913D01*
X244914000Y-47510691D01*
X244910221Y-47497822D01*
X244895155Y-47495899D01*
X244665957Y-47536313D01*
X244657456Y-47538433D01*
X244388100Y-47625951D01*
X244379953Y-47629242D01*
X244125403Y-47753396D01*
X244117806Y-47757781D01*
X243883011Y-47916153D01*
X243876088Y-47921561D01*
X243665624Y-48111064D01*
X243659517Y-48117389D01*
X243477478Y-48334333D01*
X243472316Y-48341438D01*
X243322230Y-48581626D01*
X243318114Y-48589367D01*
X243302377Y-48624712D01*
X243256397Y-48678807D01*
X243188470Y-48699456D01*
X243120162Y-48680103D01*
X243076020Y-48632616D01*
X243071828Y-48624732D01*
X242983473Y-48458561D01*
X242942527Y-48402203D01*
X242814380Y-48225823D01*
X242814377Y-48225820D01*
X242811791Y-48222260D01*
X242781427Y-48190817D01*
X242611946Y-48015314D01*
X242611942Y-48015311D01*
X242608892Y-48012152D01*
X242378726Y-47832327D01*
X242125774Y-47686285D01*
X241854958Y-47576868D01*
X241795427Y-47562025D01*
X241698851Y-47537946D01*
X241571550Y-47506206D01*
X241567182Y-47505747D01*
X241567177Y-47505746D01*
X241285435Y-47476134D01*
X241285432Y-47476134D01*
X241281066Y-47475675D01*
X241276678Y-47475828D01*
X241276672Y-47475828D01*
X240993557Y-47485715D01*
X240993551Y-47485716D01*
X240989159Y-47485869D01*
X240701512Y-47536589D01*
X240697341Y-47537944D01*
X240697334Y-47537946D01*
X240547902Y-47586500D01*
X240423724Y-47626848D01*
X240419771Y-47628776D01*
X240419766Y-47628778D01*
X240296416Y-47688940D01*
X240161200Y-47754889D01*
X240157561Y-47757343D01*
X240157555Y-47757347D01*
X239922697Y-47915761D01*
X239922690Y-47915766D01*
X239919051Y-47918221D01*
X239915782Y-47921165D01*
X239915780Y-47921166D01*
X239737340Y-48081834D01*
X239701990Y-48113663D01*
X239699161Y-48117035D01*
X239517070Y-48334042D01*
X239517066Y-48334047D01*
X239514242Y-48337413D01*
X239359461Y-48585114D01*
X239357676Y-48589124D01*
X239357673Y-48589129D01*
X239342081Y-48624150D01*
X239296102Y-48678246D01*
X239228175Y-48698896D01*
X239159866Y-48679544D01*
X239115723Y-48632056D01*
X239039205Y-48488148D01*
X239023473Y-48458561D01*
X238982527Y-48402203D01*
X238854380Y-48225823D01*
X238854377Y-48225820D01*
X238851791Y-48222260D01*
X238821427Y-48190817D01*
X238651946Y-48015314D01*
X238651942Y-48015311D01*
X238648892Y-48012152D01*
X238418726Y-47832327D01*
X238165774Y-47686285D01*
X237894958Y-47576868D01*
X237835427Y-47562025D01*
X237738851Y-47537946D01*
X237611550Y-47506206D01*
X237607182Y-47505747D01*
X237607177Y-47505746D01*
X237325435Y-47476134D01*
X237325432Y-47476134D01*
X237321066Y-47475675D01*
X237316678Y-47475828D01*
X237316672Y-47475828D01*
X237033557Y-47485715D01*
X237033551Y-47485716D01*
X237029159Y-47485869D01*
X236741512Y-47536589D01*
X236737341Y-47537944D01*
X236737334Y-47537946D01*
X236587902Y-47586500D01*
X236463724Y-47626848D01*
X236459771Y-47628776D01*
X236459766Y-47628778D01*
X236336416Y-47688940D01*
X236201200Y-47754889D01*
X236197561Y-47757343D01*
X236197555Y-47757347D01*
X235962697Y-47915761D01*
X235962690Y-47915766D01*
X235959051Y-47918221D01*
X235955782Y-47921165D01*
X235955780Y-47921166D01*
X235777340Y-48081834D01*
X235741990Y-48113663D01*
X235739161Y-48117035D01*
X235557070Y-48334042D01*
X235557066Y-48334047D01*
X235554242Y-48337413D01*
X235399461Y-48585114D01*
X235397676Y-48589124D01*
X235397673Y-48589129D01*
X235382081Y-48624150D01*
X235336102Y-48678246D01*
X235268175Y-48698896D01*
X235199866Y-48679544D01*
X235155723Y-48632056D01*
X235079205Y-48488148D01*
X235063473Y-48458561D01*
X235022527Y-48402203D01*
X234894380Y-48225823D01*
X234894377Y-48225820D01*
X234891791Y-48222260D01*
X234861427Y-48190817D01*
X234691946Y-48015314D01*
X234691942Y-48015311D01*
X234688892Y-48012152D01*
X234458726Y-47832327D01*
X234205774Y-47686285D01*
X233934958Y-47576868D01*
X233875427Y-47562025D01*
X233778851Y-47537946D01*
X233651550Y-47506206D01*
X233647182Y-47505747D01*
X233647177Y-47505746D01*
X233365435Y-47476134D01*
X233365432Y-47476134D01*
X233361066Y-47475675D01*
X233356678Y-47475828D01*
X233356672Y-47475828D01*
X233073557Y-47485715D01*
X233073551Y-47485716D01*
X233069159Y-47485869D01*
X232781512Y-47536589D01*
X232777341Y-47537944D01*
X232777334Y-47537946D01*
X232627902Y-47586500D01*
X232503724Y-47626848D01*
X232499771Y-47628776D01*
X232499766Y-47628778D01*
X232376416Y-47688940D01*
X232241200Y-47754889D01*
X232237561Y-47757343D01*
X232237555Y-47757347D01*
X232002697Y-47915761D01*
X232002690Y-47915766D01*
X231999051Y-47918221D01*
X231995782Y-47921165D01*
X231995780Y-47921166D01*
X231817340Y-48081834D01*
X231781990Y-48113663D01*
X231779161Y-48117035D01*
X231597070Y-48334042D01*
X231597066Y-48334047D01*
X231594242Y-48337413D01*
X231439461Y-48585114D01*
X231397161Y-48680123D01*
X231329095Y-48833002D01*
X231320660Y-48851947D01*
X231240150Y-49132716D01*
X231199500Y-49421958D01*
X231199500Y-50580933D01*
X230148298Y-50580933D01*
X230173222Y-50541046D01*
X230213034Y-50507163D01*
X230216452Y-50504254D01*
X230311260Y-50396903D01*
X230391226Y-50275166D01*
X230403591Y-50248831D01*
X230450191Y-50149576D01*
X230452095Y-50145521D01*
X230456320Y-50131704D01*
X230493372Y-50010511D01*
X230494683Y-50006223D01*
X230498865Y-49979368D01*
X230511827Y-49896109D01*
X230516717Y-49864705D01*
X230518497Y-49719062D01*
X230517937Y-49714777D01*
X230517729Y-49707740D01*
X230517729Y-49318453D01*
X230517727Y-49318453D01*
X230517318Y-49315484D01*
X230517359Y-49312167D01*
X230518496Y-49219062D01*
X230516744Y-49205659D01*
X230500508Y-49081498D01*
X230500508Y-49081496D01*
X230499926Y-49077048D01*
X230460755Y-48936752D01*
X230403072Y-48805659D01*
X230347548Y-48716456D01*
X230328470Y-48685806D01*
X230328467Y-48685802D01*
X230326103Y-48682004D01*
X230284605Y-48632635D01*
X230236831Y-48575801D01*
X230236830Y-48575800D01*
X230233946Y-48572369D01*
X230125361Y-48475282D01*
X230121628Y-48472797D01*
X230121624Y-48472794D01*
X230009865Y-48398401D01*
X230009863Y-48398400D01*
X230006136Y-48395919D01*
X229874667Y-48333211D01*
X229870388Y-48331874D01*
X229870385Y-48331873D01*
X229742240Y-48291838D01*
X229742242Y-48291838D01*
X229737961Y-48290501D01*
X229733537Y-48289784D01*
X229733535Y-48289784D01*
X229654623Y-48277003D01*
X229594179Y-48267213D01*
X229524298Y-48265932D01*
X229455461Y-48264670D01*
X229455459Y-48264670D01*
X229450980Y-48264588D01*
X229446535Y-48265141D01*
X229442056Y-48265378D01*
X229442049Y-48265251D01*
X229433661Y-48265771D01*
X229004000Y-48265771D01*
X228973813Y-48267930D01*
X228937627Y-48270518D01*
X228937626Y-48270518D01*
X228930889Y-48271000D01*
X228866917Y-48289784D01*
X228799235Y-48309657D01*
X228799233Y-48309658D01*
X228790589Y-48312196D01*
X228783010Y-48317067D01*
X228675159Y-48386378D01*
X228675156Y-48386380D01*
X228667579Y-48391250D01*
X228661678Y-48398060D01*
X228577726Y-48494945D01*
X228577724Y-48494948D01*
X228571824Y-48501757D01*
X228511081Y-48634766D01*
X228490271Y-48779500D01*
X228490271Y-49200019D01*
X228489767Y-49211277D01*
X228485318Y-49260873D01*
X228485167Y-49273215D01*
X228486806Y-49298393D01*
X228490005Y-49347536D01*
X228490271Y-49355721D01*
X228490271Y-49700019D01*
X228489767Y-49711277D01*
X228489419Y-49715162D01*
X228485318Y-49760873D01*
X228485167Y-49773215D01*
X228485325Y-49775637D01*
X228490005Y-49847536D01*
X228490271Y-49855721D01*
X228490271Y-50279500D01*
X228490432Y-50281750D01*
X228494981Y-50345348D01*
X228495500Y-50352611D01*
X228535152Y-50487653D01*
X228535152Y-50558647D01*
X228503351Y-50612244D01*
X228290999Y-50824596D01*
X228228687Y-50858621D01*
X228201904Y-50861500D01*
X227628600Y-50861500D01*
X227625354Y-50861837D01*
X227625350Y-50861837D01*
X227529692Y-50871762D01*
X227529688Y-50871763D01*
X227522834Y-50872474D01*
X227516298Y-50874655D01*
X227516296Y-50874655D01*
X227384194Y-50918728D01*
X227355054Y-50928450D01*
X227204652Y-51021522D01*
X227079695Y-51146697D01*
X226986885Y-51297262D01*
X226984581Y-51304209D01*
X226953740Y-51397193D01*
X226931203Y-51465139D01*
X226930503Y-51471975D01*
X226930502Y-51471978D01*
X226926995Y-51506206D01*
X226920500Y-51569600D01*
X226920500Y-52570400D01*
X226920837Y-52573646D01*
X226920837Y-52573650D01*
X226922098Y-52585797D01*
X226931474Y-52676166D01*
X226933655Y-52682702D01*
X226933655Y-52682704D01*
X226966924Y-52782421D01*
X226987450Y-52843946D01*
X227080522Y-52994348D01*
X227179533Y-53093186D01*
X227199861Y-53113479D01*
X227233940Y-53175761D01*
X227228937Y-53246581D01*
X227189108Y-53301397D01*
X227188533Y-53301853D01*
X227182311Y-53305703D01*
X227058383Y-53429847D01*
X226966339Y-53579171D01*
X226964034Y-53586119D01*
X226964034Y-53586120D01*
X226919794Y-53719500D01*
X226911115Y-53745665D01*
X226900500Y-53849269D01*
X225988500Y-53849269D01*
X225988500Y-52449600D01*
X225987623Y-52441146D01*
X225978238Y-52350692D01*
X225978237Y-52350688D01*
X225977526Y-52343834D01*
X225969898Y-52320968D01*
X225923868Y-52183002D01*
X225921550Y-52176054D01*
X225828478Y-52025652D01*
X225823296Y-52020479D01*
X225823292Y-52020474D01*
X225791892Y-51989129D01*
X225757812Y-51926847D01*
X225762815Y-51856027D01*
X225791735Y-51810939D01*
X225824133Y-51778484D01*
X225829305Y-51773303D01*
X225833146Y-51767072D01*
X225918275Y-51628968D01*
X225918276Y-51628966D01*
X225922115Y-51622738D01*
X225967180Y-51486871D01*
X225975632Y-51461389D01*
X225975632Y-51461387D01*
X225977797Y-51454861D01*
X225988500Y-51350400D01*
X225988500Y-49099600D01*
X225986160Y-49077048D01*
X225978238Y-49000692D01*
X225978237Y-49000688D01*
X225977526Y-48993834D01*
X225921550Y-48826054D01*
X225828478Y-48675652D01*
X225703303Y-48550695D01*
X225637211Y-48509955D01*
X225558968Y-48461725D01*
X225558966Y-48461724D01*
X225552738Y-48457885D01*
X225392254Y-48404655D01*
X225391389Y-48404368D01*
X225391387Y-48404368D01*
X225384861Y-48402203D01*
X225378025Y-48401503D01*
X225378022Y-48401502D01*
X225323529Y-48395919D01*
X225280400Y-48391500D01*
X224079600Y-48391500D01*
X224076354Y-48391837D01*
X224076350Y-48391837D01*
X223980692Y-48401762D01*
X223980688Y-48401763D01*
X223973834Y-48402474D01*
X223967298Y-48404655D01*
X223967296Y-48404655D01*
X223835194Y-48448728D01*
X223806054Y-48458450D01*
X223655652Y-48551522D01*
X223650479Y-48556704D01*
X223618115Y-48589124D01*
X223530695Y-48676697D01*
X223526855Y-48682927D01*
X223526854Y-48682928D01*
X223453549Y-48801851D01*
X223437885Y-48827262D01*
X223414025Y-48899198D01*
X223402930Y-48932650D01*
X223382203Y-48995139D01*
X223381503Y-49001975D01*
X223381502Y-49001978D01*
X223377091Y-49045031D01*
X223371500Y-49099600D01*
X223371500Y-50103000D01*
X223351498Y-50171121D01*
X223297842Y-50217614D01*
X223245500Y-50229000D01*
X222338915Y-50229000D01*
X222270794Y-50208998D01*
X222249897Y-50192173D01*
X222188483Y-50130866D01*
X222183303Y-50125695D01*
X222146485Y-50103000D01*
X222038968Y-50036725D01*
X222038966Y-50036724D01*
X222032738Y-50032885D01*
X221872254Y-49979655D01*
X221871389Y-49979368D01*
X221871387Y-49979368D01*
X221864861Y-49977203D01*
X221858025Y-49976503D01*
X221858022Y-49976502D01*
X221814969Y-49972091D01*
X221760400Y-49966500D01*
X221363871Y-49966500D01*
X221295750Y-49946498D01*
X221274776Y-49929595D01*
X220851270Y-49506089D01*
X220838884Y-49491677D01*
X220830351Y-49480082D01*
X220830346Y-49480077D01*
X220826008Y-49474182D01*
X220820430Y-49469443D01*
X220820427Y-49469440D01*
X220785732Y-49439965D01*
X220778216Y-49433035D01*
X220772521Y-49427340D01*
X220765718Y-49421958D01*
X220750249Y-49409719D01*
X220746845Y-49406928D01*
X220696797Y-49364409D01*
X220696795Y-49364408D01*
X220691215Y-49359667D01*
X220684699Y-49356339D01*
X220679650Y-49352972D01*
X220674521Y-49349805D01*
X220668784Y-49345266D01*
X220602625Y-49314345D01*
X220598725Y-49312439D01*
X220533692Y-49279231D01*
X220526584Y-49277492D01*
X220520941Y-49275393D01*
X220515178Y-49273476D01*
X220508550Y-49270378D01*
X220437083Y-49255513D01*
X220432799Y-49254543D01*
X220361890Y-49237192D01*
X220356288Y-49236844D01*
X220356285Y-49236844D01*
X220350736Y-49236500D01*
X220350738Y-49236464D01*
X220346745Y-49236225D01*
X220342553Y-49235851D01*
X220335385Y-49234360D01*
X220280122Y-49235855D01*
X220257979Y-49236454D01*
X220254572Y-49236500D01*
X220123754Y-49236500D01*
X220088602Y-49231497D01*
X219950011Y-49191233D01*
X219950007Y-49191232D01*
X219943831Y-49189438D01*
X219937426Y-49188934D01*
X219937421Y-49188933D01*
X219908958Y-49186693D01*
X219908950Y-49186693D01*
X219906502Y-49186500D01*
X218423498Y-49186500D01*
X218421050Y-49186693D01*
X218421042Y-49186693D01*
X218392579Y-49188933D01*
X218392574Y-49188934D01*
X218386169Y-49189438D01*
X218286231Y-49218472D01*
X218234012Y-49233643D01*
X218234010Y-49233644D01*
X218226399Y-49235855D01*
X218219572Y-49239892D01*
X218219573Y-49239892D01*
X218090020Y-49316509D01*
X218090017Y-49316511D01*
X218083193Y-49320547D01*
X217965547Y-49438193D01*
X217961511Y-49445017D01*
X217961509Y-49445020D01*
X217925393Y-49506089D01*
X217880855Y-49581399D01*
X217834438Y-49741169D01*
X217833934Y-49747574D01*
X217833933Y-49747579D01*
X217831725Y-49775637D01*
X217831500Y-49778498D01*
X217831500Y-50211502D01*
X217831693Y-50213950D01*
X217831693Y-50213958D01*
X217832649Y-50226097D01*
X217834438Y-50248831D01*
X217836232Y-50255007D01*
X217836233Y-50255011D01*
X217862478Y-50345348D01*
X217862275Y-50416344D01*
X217823721Y-50475960D01*
X217759056Y-50505268D01*
X217741481Y-50506500D01*
X217725724Y-50506500D01*
X217674475Y-50495607D01*
X217558319Y-50443891D01*
X217558318Y-50443891D01*
X217552288Y-50441206D01*
X217458887Y-50421353D01*
X217371944Y-50402872D01*
X217371939Y-50402872D01*
X217365487Y-50401500D01*
X217174513Y-50401500D01*
X217168061Y-50402872D01*
X217168056Y-50402872D01*
X217081112Y-50421353D01*
X216987712Y-50441206D01*
X216981682Y-50443891D01*
X216981681Y-50443891D01*
X216819278Y-50516197D01*
X216819276Y-50516198D01*
X216813248Y-50518882D01*
X216658747Y-50631134D01*
X216654326Y-50636044D01*
X216654325Y-50636045D01*
X216586374Y-50711513D01*
X216530960Y-50773056D01*
X216435473Y-50938444D01*
X216376458Y-51120072D01*
X216375768Y-51126633D01*
X216375768Y-51126635D01*
X216365529Y-51224053D01*
X216356496Y-51310000D01*
X215248500Y-51310000D01*
X215248500Y-51048498D01*
X215245562Y-51011169D01*
X215216528Y-50911231D01*
X215201357Y-50859012D01*
X215201356Y-50859010D01*
X215199145Y-50851399D01*
X215195109Y-50844574D01*
X215191962Y-50837303D01*
X215194074Y-50836389D01*
X215179475Y-50778845D01*
X215201992Y-50711513D01*
X215238367Y-50680014D01*
X215236937Y-50677833D01*
X215297976Y-50637814D01*
X215301680Y-50635477D01*
X215364107Y-50597595D01*
X215372484Y-50590197D01*
X215372508Y-50590224D01*
X215375500Y-50587571D01*
X215378733Y-50584868D01*
X215384852Y-50580856D01*
X215438128Y-50524617D01*
X215440506Y-50522175D01*
X216016331Y-49946350D01*
X216079228Y-49912199D01*
X216135824Y-49900169D01*
X216135833Y-49900166D01*
X216142288Y-49898794D01*
X216148319Y-49896109D01*
X216310722Y-49823803D01*
X216310724Y-49823802D01*
X216316752Y-49821118D01*
X216471253Y-49708866D01*
X216599040Y-49566944D01*
X216690146Y-49409144D01*
X216691223Y-49407279D01*
X216691224Y-49407278D01*
X216694527Y-49401556D01*
X216753542Y-49219928D01*
X216755635Y-49200019D01*
X216772814Y-49036565D01*
X216773504Y-49030000D01*
X216753542Y-48840072D01*
X216694527Y-48658444D01*
X216680857Y-48634766D01*
X216630100Y-48546854D01*
X216599040Y-48493056D01*
X216571725Y-48462719D01*
X216475675Y-48356045D01*
X216475674Y-48356044D01*
X216471253Y-48351134D01*
X216361045Y-48271063D01*
X216322094Y-48242763D01*
X216322093Y-48242762D01*
X216316752Y-48238882D01*
X216310724Y-48236198D01*
X216310722Y-48236197D01*
X216148319Y-48163891D01*
X216148318Y-48163891D01*
X216142288Y-48161206D01*
X216048887Y-48141353D01*
X215961944Y-48122872D01*
X215961939Y-48122872D01*
X215955487Y-48121500D01*
X215764513Y-48121500D01*
X215758061Y-48122872D01*
X215758056Y-48122872D01*
X215671112Y-48141353D01*
X215577712Y-48161206D01*
X215571682Y-48163891D01*
X215571681Y-48163891D01*
X215409278Y-48236197D01*
X215409276Y-48236198D01*
X215403248Y-48238882D01*
X215397907Y-48242762D01*
X215397906Y-48242763D01*
X215358955Y-48271063D01*
X215248747Y-48351134D01*
X215244326Y-48356044D01*
X215244325Y-48356045D01*
X215148276Y-48462719D01*
X215120960Y-48493056D01*
X215089900Y-48546854D01*
X215039144Y-48634766D01*
X215025473Y-48658444D01*
X214987590Y-48775037D01*
X214970613Y-48827285D01*
X214939875Y-48877444D01*
X214667724Y-49149595D01*
X214605412Y-49183621D01*
X214578629Y-49186500D01*
X213173498Y-49186500D01*
X213171050Y-49186693D01*
X213171042Y-49186693D01*
X213142579Y-49188933D01*
X213142574Y-49188934D01*
X213136169Y-49189438D01*
X213129993Y-49191232D01*
X213129989Y-49191233D01*
X212991398Y-49231497D01*
X212956246Y-49236500D01*
X212879570Y-49236500D01*
X212860620Y-49235067D01*
X212846385Y-49232901D01*
X212846381Y-49232901D01*
X212839151Y-49231801D01*
X212831859Y-49232394D01*
X212831856Y-49232394D01*
X212786482Y-49236085D01*
X212776267Y-49236500D01*
X212768207Y-49236500D01*
X212764573Y-49236924D01*
X212764567Y-49236924D01*
X212751542Y-49238443D01*
X212739980Y-49239791D01*
X212735632Y-49240221D01*
X212662864Y-49246140D01*
X212655903Y-49248395D01*
X212649963Y-49249582D01*
X212644088Y-49250971D01*
X212636819Y-49251818D01*
X212568170Y-49276736D01*
X212564042Y-49278153D01*
X212501564Y-49298393D01*
X212501562Y-49298394D01*
X212494601Y-49300649D01*
X212488346Y-49304445D01*
X212482872Y-49306951D01*
X212477442Y-49309670D01*
X212470563Y-49312167D01*
X212464443Y-49316180D01*
X212464442Y-49316180D01*
X212409524Y-49352186D01*
X212405820Y-49354523D01*
X212343393Y-49392405D01*
X212335016Y-49399803D01*
X212334992Y-49399776D01*
X212332000Y-49402429D01*
X212328767Y-49405132D01*
X212322648Y-49409144D01*
X212293451Y-49439965D01*
X212269372Y-49465383D01*
X212266994Y-49467825D01*
X211805224Y-49929595D01*
X211742912Y-49963621D01*
X211716129Y-49966500D01*
X211319600Y-49966500D01*
X211316354Y-49966837D01*
X211316350Y-49966837D01*
X211220692Y-49976762D01*
X211220688Y-49976763D01*
X211213834Y-49977474D01*
X211207298Y-49979655D01*
X211207296Y-49979655D01*
X211140938Y-50001794D01*
X211046054Y-50033450D01*
X210895652Y-50126522D01*
X210851131Y-50171121D01*
X210830270Y-50192018D01*
X210767987Y-50226097D01*
X210741097Y-50229000D01*
X209834500Y-50229000D01*
X209766379Y-50208998D01*
X209719886Y-50155342D01*
X209708500Y-50103000D01*
X209708500Y-49099600D01*
X209706160Y-49077048D01*
X209698238Y-49000692D01*
X209698237Y-49000688D01*
X209697526Y-48993834D01*
X209641550Y-48826054D01*
X209548478Y-48675652D01*
X209423303Y-48550695D01*
X209357211Y-48509955D01*
X209278968Y-48461725D01*
X209278966Y-48461724D01*
X209272738Y-48457885D01*
X209112254Y-48404655D01*
X209111389Y-48404368D01*
X209111387Y-48404368D01*
X209104861Y-48402203D01*
X209098025Y-48401503D01*
X209098022Y-48401502D01*
X209043529Y-48395919D01*
X209000400Y-48391500D01*
X207799600Y-48391500D01*
X207796354Y-48391837D01*
X207796350Y-48391837D01*
X207700692Y-48401762D01*
X207700688Y-48401763D01*
X207693834Y-48402474D01*
X207687298Y-48404655D01*
X207687296Y-48404655D01*
X207555194Y-48448728D01*
X207526054Y-48458450D01*
X207375652Y-48551522D01*
X207370479Y-48556704D01*
X207338115Y-48589124D01*
X207250695Y-48676697D01*
X207246855Y-48682927D01*
X207246854Y-48682928D01*
X207173549Y-48801851D01*
X207157885Y-48827262D01*
X207134025Y-48899198D01*
X207122930Y-48932650D01*
X207102203Y-48995139D01*
X207101503Y-49001975D01*
X207101502Y-49001978D01*
X207097091Y-49045031D01*
X207091500Y-49099600D01*
X207091500Y-51350400D01*
X207091837Y-51353646D01*
X207091837Y-51353650D01*
X207101206Y-51443944D01*
X207102474Y-51456166D01*
X207104655Y-51462702D01*
X207104655Y-51462704D01*
X207139234Y-51566350D01*
X207158450Y-51623946D01*
X207251522Y-51774348D01*
X207256704Y-51779521D01*
X207256708Y-51779526D01*
X207288108Y-51810871D01*
X207322188Y-51873153D01*
X207317185Y-51943973D01*
X207288265Y-51989061D01*
X207260358Y-52017017D01*
X207250695Y-52026697D01*
X207246855Y-52032927D01*
X207246854Y-52032928D01*
X207163486Y-52168176D01*
X207157885Y-52177262D01*
X207136893Y-52240550D01*
X207108054Y-52327500D01*
X207102203Y-52345139D01*
X207101503Y-52351975D01*
X207101502Y-52351978D01*
X207097467Y-52391363D01*
X207091500Y-52449600D01*
X207091500Y-54700400D01*
X205458000Y-54700400D01*
X205458000Y-45338000D01*
X205478002Y-45269879D01*
X205531658Y-45223386D01*
X205584000Y-45212000D01*
X224570500Y-45212000D01*
X224638621Y-45232002D01*
G37*
G04 #@! TD.AperFunction*
M02*
