M48
; DRILL file {KiCad (6.0.0-0)} date Sunday, February 20, 2022 at 09:50:23 PM
; FORMAT={-:-/ absolute / metric / decimal}
; #@! TF.CreationDate,2022-02-20T21:50:23-06:00
; #@! TF.GenerationSoftware,Kicad,Pcbnew,(6.0.0-0)
; #@! TF.FileFunction,Plated,1,2,PTH
FMAT,2
METRIC
; #@! TA.AperFunction,Plated,PTH,ViaDrill
T1C0.400
; #@! TA.AperFunction,Plated,PTH,ComponentDrill
T2C1.000
; #@! TA.AperFunction,Plated,PTH,ComponentDrill
T3C1.700
%
G90
G05
T1
X210.312Y-53.086
X215.86Y-49.03
X217.27Y-51.31
X231.394Y-54.61
T2
X226.055Y-46.228
X228.595Y-46.228
T3
X209.324Y-59.524
X209.324Y-65.024
X213.524Y-59.524
X213.524Y-65.024
X217.724Y-59.524
X217.724Y-65.024
X221.924Y-59.524
X221.924Y-65.024
X226.124Y-59.524
X226.124Y-65.024
X230.324Y-59.524
X230.324Y-65.024
X233.288Y-50.038
X234.524Y-59.524
X234.524Y-65.024
X237.248Y-50.038
X238.724Y-59.524
X238.724Y-65.024
X241.208Y-50.038
X242.924Y-59.524
X242.924Y-65.024
X245.168Y-50.038
X247.124Y-59.524
X247.124Y-65.024
X249.128Y-50.038
X251.324Y-59.524
X251.324Y-65.024
X253.088Y-50.038
X255.524Y-59.524
X255.524Y-65.024
X257.048Y-50.038
T0
M30
