G04 #@! TF.GenerationSoftware,KiCad,Pcbnew,(6.0.0-0)*
G04 #@! TF.CreationDate,2022-02-20T16:41:42-06:00*
G04 #@! TF.ProjectId,mactxlc,6d616374-786c-4632-9e6b-696361645f70,rev?*
G04 #@! TF.SameCoordinates,Original*
G04 #@! TF.FileFunction,Copper,L1,Top*
G04 #@! TF.FilePolarity,Positive*
%FSLAX46Y46*%
G04 Gerber Fmt 4.6, Leading zero omitted, Abs format (unit mm)*
G04 Created by KiCad (PCBNEW (6.0.0-0)) date 2022-02-20 16:41:42*
%MOMM*%
%LPD*%
G01*
G04 APERTURE LIST*
G04 Aperture macros list*
%AMRoundRect*
0 Rectangle with rounded corners*
0 $1 Rounding radius*
0 $2 $3 $4 $5 $6 $7 $8 $9 X,Y pos of 4 corners*
0 Add a 4 corners polygon primitive as box body*
4,1,4,$2,$3,$4,$5,$6,$7,$8,$9,$2,$3,0*
0 Add four circle primitives for the rounded corners*
1,1,$1+$1,$2,$3*
1,1,$1+$1,$4,$5*
1,1,$1+$1,$6,$7*
1,1,$1+$1,$8,$9*
0 Add four rect primitives between the rounded corners*
20,1,$1+$1,$2,$3,$4,$5,0*
20,1,$1+$1,$4,$5,$6,$7,0*
20,1,$1+$1,$6,$7,$8,$9,0*
20,1,$1+$1,$8,$9,$2,$3,0*%
G04 Aperture macros list end*
%ADD10C,0.300000*%
G04 #@! TA.AperFunction,NonConductor*
%ADD11C,0.300000*%
G04 #@! TD*
G04 #@! TA.AperFunction,ComponentPad*
%ADD12RoundRect,0.250001X0.949999X0.949999X-0.949999X0.949999X-0.949999X-0.949999X0.949999X-0.949999X0*%
G04 #@! TD*
G04 #@! TA.AperFunction,ComponentPad*
%ADD13C,2.400000*%
G04 #@! TD*
G04 #@! TA.AperFunction,SMDPad,CuDef*
%ADD14RoundRect,0.250000X0.550000X-1.075000X0.550000X1.075000X-0.550000X1.075000X-0.550000X-1.075000X0*%
G04 #@! TD*
G04 #@! TA.AperFunction,SMDPad,CuDef*
%ADD15RoundRect,0.150000X0.675000X0.150000X-0.675000X0.150000X-0.675000X-0.150000X0.675000X-0.150000X0*%
G04 #@! TD*
G04 #@! TA.AperFunction,SMDPad,CuDef*
%ADD16RoundRect,0.250000X0.450000X-0.262500X0.450000X0.262500X-0.450000X0.262500X-0.450000X-0.262500X0*%
G04 #@! TD*
G04 #@! TA.AperFunction,ComponentPad*
%ADD17RoundRect,0.251100X1.098900X1.398900X-1.098900X1.398900X-1.098900X-1.398900X1.098900X-1.398900X0*%
G04 #@! TD*
G04 #@! TA.AperFunction,ComponentPad*
%ADD18O,2.700000X3.300000*%
G04 #@! TD*
G04 #@! TA.AperFunction,ComponentPad*
%ADD19R,1.700000X1.700000*%
G04 #@! TD*
G04 #@! TA.AperFunction,ComponentPad*
%ADD20O,1.700000X1.700000*%
G04 #@! TD*
G04 #@! TA.AperFunction,ViaPad*
%ADD21C,0.800000*%
G04 #@! TD*
G04 #@! TA.AperFunction,Conductor*
%ADD22C,0.500000*%
G04 #@! TD*
G04 #@! TA.AperFunction,Conductor*
%ADD23C,0.250000*%
G04 #@! TD*
G04 #@! TA.AperFunction,Conductor*
%ADD24C,2.000000*%
G04 #@! TD*
G04 #@! TA.AperFunction,Conductor*
%ADD25C,0.750000*%
G04 #@! TD*
G04 APERTURE END LIST*
D10*
D11*
X258425142Y-59004000D02*
X258353714Y-59218285D01*
X258282285Y-59289714D01*
X258139428Y-59361142D01*
X257925142Y-59361142D01*
X257782285Y-59289714D01*
X257710857Y-59218285D01*
X257639428Y-59075428D01*
X257639428Y-58504000D01*
X259139428Y-58504000D01*
X259139428Y-59004000D01*
X259068000Y-59146857D01*
X258996571Y-59218285D01*
X258853714Y-59289714D01*
X258710857Y-59289714D01*
X258568000Y-59218285D01*
X258496571Y-59146857D01*
X258425142Y-59004000D01*
X258425142Y-58504000D01*
X258068000Y-59932571D02*
X258068000Y-60646857D01*
X257639428Y-59789714D02*
X259139428Y-60289714D01*
X257639428Y-60789714D01*
X257639428Y-61289714D02*
X259139428Y-61289714D01*
X259139428Y-61646857D01*
X259068000Y-61861142D01*
X258925142Y-62004000D01*
X258782285Y-62075428D01*
X258496571Y-62146857D01*
X258282285Y-62146857D01*
X257996571Y-62075428D01*
X257853714Y-62004000D01*
X257710857Y-61861142D01*
X257639428Y-61646857D01*
X257639428Y-61289714D01*
X259139428Y-63789714D02*
X257639428Y-64146857D01*
X258710857Y-64432571D01*
X257639428Y-64718285D01*
X259139428Y-65075428D01*
X259139428Y-65932571D02*
X259139428Y-66218285D01*
X259068000Y-66361142D01*
X258925142Y-66504000D01*
X258639428Y-66575428D01*
X258139428Y-66575428D01*
X257853714Y-66504000D01*
X257710857Y-66361142D01*
X257639428Y-66218285D01*
X257639428Y-65932571D01*
X257710857Y-65789714D01*
X257853714Y-65646857D01*
X258139428Y-65575428D01*
X258639428Y-65575428D01*
X258925142Y-65646857D01*
X259068000Y-65789714D01*
X259139428Y-65932571D01*
X257639428Y-67932571D02*
X257639428Y-67218285D01*
X259139428Y-67218285D01*
X258425142Y-68932571D02*
X258425142Y-68432571D01*
X257639428Y-68432571D02*
X259139428Y-68432571D01*
X259139428Y-69146857D01*
D12*
X257025000Y-51950000D03*
D13*
X253065000Y-51950000D03*
X249105000Y-51950000D03*
X245145000Y-51950000D03*
X241185000Y-51950000D03*
X237225000Y-51950000D03*
X233265000Y-51950000D03*
D14*
X224680000Y-50225000D03*
X224680000Y-53575000D03*
D15*
X219165000Y-53805000D03*
X219165000Y-52535000D03*
X219165000Y-51265000D03*
X219165000Y-49995000D03*
X213915000Y-49995000D03*
X213915000Y-51265000D03*
X213915000Y-52535000D03*
X213915000Y-53805000D03*
D16*
X211820000Y-52812500D03*
X211820000Y-50987500D03*
X221260000Y-52812500D03*
X221260000Y-50987500D03*
D14*
X208400000Y-53575000D03*
X208400000Y-50225000D03*
D17*
X255524000Y-65024000D03*
D18*
X251324000Y-65024000D03*
X247124000Y-65024000D03*
X242924000Y-65024000D03*
X238724000Y-65024000D03*
X234524000Y-65024000D03*
X230324000Y-65024000D03*
X226124000Y-65024000D03*
X221924000Y-65024000D03*
X217724000Y-65024000D03*
X213524000Y-65024000D03*
X209324000Y-65024000D03*
X255524000Y-59524000D03*
X251324000Y-59524000D03*
X247124000Y-59524000D03*
X242924000Y-59524000D03*
X238724000Y-59524000D03*
X234524000Y-59524000D03*
X230324000Y-59524000D03*
X226124000Y-59524000D03*
X221924000Y-59524000D03*
X217724000Y-59524000D03*
X213524000Y-59524000D03*
X209324000Y-59524000D03*
D19*
X228950000Y-53175000D03*
D20*
X228950000Y-50635000D03*
D21*
X215860000Y-49030000D03*
X210312000Y-53086000D03*
X217270000Y-51310000D03*
D22*
X211820000Y-52812500D02*
X211546500Y-53086000D01*
X211546500Y-53086000D02*
X208889000Y-53086000D01*
D23*
X242924000Y-59524000D02*
X242924000Y-54046000D01*
X242924000Y-54046000D02*
X243130000Y-53840000D01*
X243130000Y-53840000D02*
X243130000Y-49590000D01*
X243130000Y-49590000D02*
X242610000Y-49070000D01*
X242610000Y-49070000D02*
X229950000Y-49070000D01*
X229950000Y-49070000D02*
X228950000Y-50070000D01*
D24*
X234524000Y-65024000D02*
X234524000Y-64304000D01*
D25*
X213524000Y-59524000D02*
X221924000Y-59524000D01*
D22*
X213915000Y-49995000D02*
X214895000Y-49995000D01*
X214895000Y-49995000D02*
X215860000Y-49030000D01*
X219165000Y-51265000D02*
X217315000Y-51265000D01*
X217315000Y-51265000D02*
X217270000Y-51310000D01*
X211820000Y-50987500D02*
X209162500Y-50987500D01*
X209162500Y-50987500D02*
X208400000Y-50225000D01*
X213915000Y-49995000D02*
X212812500Y-49995000D01*
X212812500Y-49995000D02*
X211820000Y-50987500D01*
X221260000Y-52812500D02*
X223917500Y-52812500D01*
X223917500Y-52812500D02*
X224680000Y-53575000D01*
X219165000Y-52535000D02*
X220982500Y-52535000D01*
X220982500Y-52535000D02*
X221260000Y-52812500D01*
X221260000Y-50987500D02*
X223917500Y-50987500D01*
X223917500Y-50987500D02*
X224680000Y-50225000D01*
X219165000Y-49995000D02*
X220267500Y-49995000D01*
X220267500Y-49995000D02*
X221260000Y-50987500D01*
G04 #@! TA.AperFunction,Conductor*
G36*
X207181710Y-48553002D02*
G01*
X207228203Y-48606658D01*
X207238307Y-48676932D01*
X207220849Y-48725116D01*
X207157885Y-48827262D01*
X207102203Y-48995139D01*
X207101503Y-49001975D01*
X207101502Y-49001978D01*
X207097091Y-49045031D01*
X207091500Y-49099600D01*
X207091500Y-51350400D01*
X207091837Y-51353646D01*
X207091837Y-51353650D01*
X207101211Y-51443990D01*
X207102474Y-51456166D01*
X207104655Y-51462702D01*
X207104655Y-51462704D01*
X207143114Y-51577978D01*
X207158450Y-51623946D01*
X207251522Y-51774348D01*
X207256704Y-51779521D01*
X207256708Y-51779526D01*
X207288108Y-51810871D01*
X207322188Y-51873153D01*
X207317185Y-51943973D01*
X207288265Y-51989061D01*
X207260358Y-52017017D01*
X207250695Y-52026697D01*
X207246855Y-52032927D01*
X207246854Y-52032928D01*
X207169458Y-52158488D01*
X207157885Y-52177262D01*
X207133451Y-52250930D01*
X207108054Y-52327500D01*
X207102203Y-52345139D01*
X207091500Y-52449600D01*
X207091500Y-54700400D01*
X207102474Y-54806166D01*
X207158450Y-54973946D01*
X207251522Y-55124348D01*
X207376697Y-55249305D01*
X207382927Y-55253145D01*
X207382928Y-55253146D01*
X207520090Y-55337694D01*
X207527262Y-55342115D01*
X207607005Y-55368564D01*
X207688611Y-55395632D01*
X207688613Y-55395632D01*
X207695139Y-55397797D01*
X207701975Y-55398497D01*
X207701978Y-55398498D01*
X207745031Y-55402909D01*
X207799600Y-55408500D01*
X209000400Y-55408500D01*
X209003646Y-55408163D01*
X209003650Y-55408163D01*
X209099308Y-55398238D01*
X209099312Y-55398237D01*
X209106166Y-55397526D01*
X209112702Y-55395345D01*
X209112704Y-55395345D01*
X209244806Y-55351272D01*
X209273946Y-55341550D01*
X209424348Y-55248478D01*
X209549305Y-55123303D01*
X209642115Y-54972738D01*
X209697797Y-54804861D01*
X209708500Y-54700400D01*
X209708500Y-54005805D01*
X209728502Y-53937684D01*
X209782158Y-53891191D01*
X209852432Y-53881087D01*
X209885749Y-53890698D01*
X210005958Y-53944218D01*
X210029712Y-53954794D01*
X210122308Y-53974476D01*
X210210056Y-53993128D01*
X210210061Y-53993128D01*
X210216513Y-53994500D01*
X210407487Y-53994500D01*
X210413939Y-53993128D01*
X210413944Y-53993128D01*
X210501692Y-53974476D01*
X210594288Y-53954794D01*
X210617800Y-53944326D01*
X210762722Y-53879803D01*
X210762724Y-53879802D01*
X210768752Y-53877118D01*
X210774091Y-53873239D01*
X210774098Y-53873235D01*
X210780528Y-53868563D01*
X210854587Y-53844500D01*
X211479430Y-53844500D01*
X211498380Y-53845933D01*
X211512615Y-53848099D01*
X211512619Y-53848099D01*
X211519849Y-53849199D01*
X211527141Y-53848606D01*
X211527144Y-53848606D01*
X211572518Y-53844915D01*
X211582733Y-53844500D01*
X211590793Y-53844500D01*
X211604083Y-53842951D01*
X211619007Y-53841211D01*
X211623382Y-53840778D01*
X211696137Y-53834860D01*
X211696147Y-53834978D01*
X211711081Y-53833500D01*
X212320400Y-53833500D01*
X212323646Y-53833163D01*
X212323650Y-53833163D01*
X212379163Y-53827403D01*
X212426166Y-53822526D01*
X212430357Y-53821128D01*
X212500210Y-53826228D01*
X212556982Y-53868860D01*
X212581693Y-53935417D01*
X212582001Y-53944218D01*
X212582001Y-54018983D01*
X212582195Y-54023920D01*
X212584430Y-54052336D01*
X212586730Y-54064931D01*
X212629107Y-54210790D01*
X212635352Y-54225221D01*
X212711911Y-54354678D01*
X212721551Y-54367104D01*
X212827896Y-54473449D01*
X212840322Y-54483089D01*
X212969779Y-54559648D01*
X212984210Y-54565893D01*
X213130065Y-54608269D01*
X213142667Y-54610570D01*
X213171084Y-54612807D01*
X213176014Y-54613000D01*
X213642885Y-54613000D01*
X213658124Y-54608525D01*
X213659329Y-54607135D01*
X213661000Y-54599452D01*
X213661000Y-54594884D01*
X214169000Y-54594884D01*
X214173475Y-54610123D01*
X214174865Y-54611328D01*
X214182548Y-54612999D01*
X214653984Y-54612999D01*
X214658920Y-54612805D01*
X214687336Y-54610570D01*
X214699931Y-54608270D01*
X214845790Y-54565893D01*
X214860221Y-54559648D01*
X214989678Y-54483089D01*
X215002104Y-54473449D01*
X215108449Y-54367104D01*
X215118089Y-54354678D01*
X215194648Y-54225221D01*
X215200893Y-54210790D01*
X215239939Y-54076395D01*
X215239899Y-54062294D01*
X215232630Y-54059000D01*
X214187115Y-54059000D01*
X214171876Y-54063475D01*
X214170671Y-54064865D01*
X214169000Y-54072548D01*
X214169000Y-54594884D01*
X213661000Y-54594884D01*
X213661000Y-53677000D01*
X213681002Y-53608879D01*
X213734658Y-53562386D01*
X213787000Y-53551000D01*
X215226878Y-53551000D01*
X215240409Y-53547027D01*
X215241544Y-53539129D01*
X215200893Y-53399210D01*
X215194648Y-53384779D01*
X215118089Y-53255323D01*
X215112129Y-53247640D01*
X215086180Y-53181556D01*
X215100078Y-53111933D01*
X215110421Y-53095839D01*
X215114453Y-53091807D01*
X215199145Y-52948601D01*
X215245562Y-52788831D01*
X215247576Y-52763251D01*
X215248307Y-52753958D01*
X215248307Y-52753950D01*
X215248500Y-52751502D01*
X215248500Y-52318498D01*
X215248307Y-52316042D01*
X215246067Y-52287579D01*
X215246066Y-52287574D01*
X215245562Y-52281169D01*
X215207564Y-52150378D01*
X215201357Y-52129012D01*
X215201356Y-52129010D01*
X215199145Y-52121399D01*
X215114453Y-51978193D01*
X215111771Y-51975511D01*
X215086498Y-51911139D01*
X215100400Y-51841516D01*
X215110572Y-51825688D01*
X215114453Y-51821807D01*
X215199145Y-51678601D01*
X215245562Y-51518831D01*
X215247567Y-51493365D01*
X215248307Y-51483958D01*
X215248307Y-51483950D01*
X215248500Y-51481502D01*
X215248500Y-51048498D01*
X215245562Y-51011169D01*
X215199145Y-50851399D01*
X215195109Y-50844574D01*
X215191962Y-50837303D01*
X215194074Y-50836389D01*
X215179475Y-50778845D01*
X215201992Y-50711513D01*
X215238367Y-50680014D01*
X215236937Y-50677833D01*
X215297976Y-50637814D01*
X215301680Y-50635477D01*
X215364107Y-50597595D01*
X215372484Y-50590197D01*
X215372508Y-50590224D01*
X215375500Y-50587571D01*
X215378733Y-50584868D01*
X215384852Y-50580856D01*
X215438128Y-50524617D01*
X215440506Y-50522175D01*
X216016331Y-49946350D01*
X216079228Y-49912199D01*
X216135824Y-49900169D01*
X216135833Y-49900166D01*
X216142288Y-49898794D01*
X216148319Y-49896109D01*
X216310722Y-49823803D01*
X216310724Y-49823802D01*
X216316752Y-49821118D01*
X216471253Y-49708866D01*
X216551833Y-49619373D01*
X216594621Y-49571852D01*
X216594622Y-49571851D01*
X216599040Y-49566944D01*
X216690146Y-49409144D01*
X216691223Y-49407279D01*
X216691224Y-49407278D01*
X216694527Y-49401556D01*
X216753542Y-49219928D01*
X216756370Y-49193027D01*
X216772814Y-49036565D01*
X216773504Y-49030000D01*
X216753542Y-48840072D01*
X216707359Y-48697936D01*
X216705331Y-48626969D01*
X216741994Y-48566171D01*
X216805706Y-48534845D01*
X216827192Y-48533000D01*
X223393589Y-48533000D01*
X223461710Y-48553002D01*
X223508203Y-48606658D01*
X223518307Y-48676932D01*
X223500849Y-48725116D01*
X223437885Y-48827262D01*
X223382203Y-48995139D01*
X223381503Y-49001975D01*
X223381502Y-49001978D01*
X223377091Y-49045031D01*
X223371500Y-49099600D01*
X223371500Y-50103000D01*
X223351498Y-50171121D01*
X223297842Y-50217614D01*
X223245500Y-50229000D01*
X222338915Y-50229000D01*
X222270794Y-50208998D01*
X222249897Y-50192173D01*
X222188483Y-50130866D01*
X222183303Y-50125695D01*
X222146485Y-50103000D01*
X222038968Y-50036725D01*
X222038966Y-50036724D01*
X222032738Y-50032885D01*
X221952995Y-50006436D01*
X221871389Y-49979368D01*
X221871387Y-49979368D01*
X221864861Y-49977203D01*
X221858025Y-49976503D01*
X221858022Y-49976502D01*
X221814969Y-49972091D01*
X221760400Y-49966500D01*
X221363871Y-49966500D01*
X221295750Y-49946498D01*
X221274776Y-49929595D01*
X220851270Y-49506089D01*
X220838884Y-49491677D01*
X220830351Y-49480082D01*
X220830346Y-49480077D01*
X220826008Y-49474182D01*
X220820430Y-49469443D01*
X220820427Y-49469440D01*
X220785732Y-49439965D01*
X220778216Y-49433035D01*
X220772521Y-49427340D01*
X220756236Y-49414456D01*
X220750249Y-49409719D01*
X220746845Y-49406928D01*
X220696797Y-49364409D01*
X220696795Y-49364408D01*
X220691215Y-49359667D01*
X220684699Y-49356339D01*
X220679650Y-49352972D01*
X220674521Y-49349805D01*
X220668784Y-49345266D01*
X220602625Y-49314345D01*
X220598725Y-49312439D01*
X220533692Y-49279231D01*
X220526584Y-49277492D01*
X220520941Y-49275393D01*
X220515178Y-49273476D01*
X220508550Y-49270378D01*
X220437083Y-49255513D01*
X220432799Y-49254543D01*
X220361890Y-49237192D01*
X220356288Y-49236844D01*
X220356285Y-49236844D01*
X220350736Y-49236500D01*
X220350738Y-49236464D01*
X220346745Y-49236225D01*
X220342553Y-49235851D01*
X220335385Y-49234360D01*
X220280122Y-49235855D01*
X220257979Y-49236454D01*
X220254572Y-49236500D01*
X220123754Y-49236500D01*
X220088602Y-49231497D01*
X219950011Y-49191233D01*
X219950007Y-49191232D01*
X219943831Y-49189438D01*
X219937426Y-49188934D01*
X219937421Y-49188933D01*
X219908958Y-49186693D01*
X219908950Y-49186693D01*
X219906502Y-49186500D01*
X218423498Y-49186500D01*
X218421050Y-49186693D01*
X218421042Y-49186693D01*
X218392579Y-49188933D01*
X218392574Y-49188934D01*
X218386169Y-49189438D01*
X218303811Y-49213365D01*
X218234012Y-49233643D01*
X218234010Y-49233644D01*
X218226399Y-49235855D01*
X218219572Y-49239892D01*
X218219573Y-49239892D01*
X218090020Y-49316509D01*
X218090017Y-49316511D01*
X218083193Y-49320547D01*
X217965547Y-49438193D01*
X217961511Y-49445017D01*
X217961509Y-49445020D01*
X217925393Y-49506089D01*
X217880855Y-49581399D01*
X217834438Y-49741169D01*
X217831500Y-49778498D01*
X217831500Y-50211502D01*
X217831693Y-50213950D01*
X217831693Y-50213958D01*
X217833888Y-50241837D01*
X217834438Y-50248831D01*
X217836232Y-50255007D01*
X217836233Y-50255011D01*
X217862478Y-50345348D01*
X217862275Y-50416344D01*
X217823721Y-50475960D01*
X217759056Y-50505268D01*
X217741481Y-50506500D01*
X217725724Y-50506500D01*
X217674475Y-50495607D01*
X217558319Y-50443891D01*
X217558318Y-50443891D01*
X217552288Y-50441206D01*
X217458887Y-50421353D01*
X217371944Y-50402872D01*
X217371939Y-50402872D01*
X217365487Y-50401500D01*
X217174513Y-50401500D01*
X217168061Y-50402872D01*
X217168056Y-50402872D01*
X217081112Y-50421353D01*
X216987712Y-50441206D01*
X216981682Y-50443891D01*
X216981681Y-50443891D01*
X216819278Y-50516197D01*
X216819276Y-50516198D01*
X216813248Y-50518882D01*
X216807907Y-50522762D01*
X216807906Y-50522763D01*
X216795358Y-50531880D01*
X216658747Y-50631134D01*
X216654326Y-50636044D01*
X216654325Y-50636045D01*
X216542853Y-50759848D01*
X216530960Y-50773056D01*
X216501135Y-50824715D01*
X216441490Y-50928023D01*
X216435473Y-50938444D01*
X216376458Y-51120072D01*
X216375768Y-51126633D01*
X216375768Y-51126635D01*
X216362380Y-51254020D01*
X216356496Y-51310000D01*
X216357186Y-51316565D01*
X216374780Y-51483958D01*
X216376458Y-51499928D01*
X216435473Y-51681556D01*
X216438776Y-51687278D01*
X216438777Y-51687279D01*
X216458105Y-51720756D01*
X216530960Y-51846944D01*
X216535378Y-51851851D01*
X216535379Y-51851852D01*
X216626597Y-51953160D01*
X216658747Y-51988866D01*
X216719393Y-52032928D01*
X216793408Y-52086703D01*
X216813248Y-52101118D01*
X216819276Y-52103802D01*
X216819278Y-52103803D01*
X216981681Y-52176109D01*
X216987712Y-52178794D01*
X217081112Y-52198647D01*
X217168056Y-52217128D01*
X217168061Y-52217128D01*
X217174513Y-52218500D01*
X217365487Y-52218500D01*
X217371939Y-52217128D01*
X217371944Y-52217128D01*
X217458888Y-52198647D01*
X217552288Y-52178794D01*
X217558443Y-52176054D01*
X217597896Y-52158488D01*
X217662542Y-52129706D01*
X217732908Y-52120272D01*
X217797205Y-52150378D01*
X217835019Y-52210467D01*
X217834838Y-52268189D01*
X217837390Y-52268655D01*
X217836232Y-52274994D01*
X217834438Y-52281169D01*
X217833934Y-52287574D01*
X217833933Y-52287579D01*
X217831693Y-52316042D01*
X217831500Y-52318498D01*
X217831500Y-52751502D01*
X217831693Y-52753950D01*
X217831693Y-52753958D01*
X217832425Y-52763251D01*
X217834438Y-52788831D01*
X217880855Y-52948601D01*
X217965547Y-53091807D01*
X217968229Y-53094489D01*
X217993502Y-53158861D01*
X217979600Y-53228484D01*
X217969428Y-53244312D01*
X217965547Y-53248193D01*
X217880855Y-53391399D01*
X217878644Y-53399010D01*
X217878643Y-53399012D01*
X217863472Y-53451231D01*
X217834438Y-53551169D01*
X217833934Y-53557574D01*
X217833933Y-53557579D01*
X217831693Y-53586042D01*
X217831500Y-53588498D01*
X217831500Y-54021502D01*
X217831693Y-54023950D01*
X217831693Y-54023958D01*
X217833927Y-54052336D01*
X217834438Y-54058831D01*
X217856659Y-54135316D01*
X217878586Y-54210790D01*
X217880855Y-54218601D01*
X217884892Y-54225427D01*
X217961509Y-54354980D01*
X217961511Y-54354983D01*
X217965547Y-54361807D01*
X218083193Y-54479453D01*
X218090017Y-54483489D01*
X218090020Y-54483491D01*
X218173957Y-54533131D01*
X218226399Y-54564145D01*
X218234010Y-54566356D01*
X218234012Y-54566357D01*
X218286231Y-54581528D01*
X218386169Y-54610562D01*
X218392574Y-54611066D01*
X218392579Y-54611067D01*
X218421042Y-54613307D01*
X218421050Y-54613307D01*
X218423498Y-54613500D01*
X219906502Y-54613500D01*
X219908950Y-54613307D01*
X219908958Y-54613307D01*
X219937421Y-54611067D01*
X219937426Y-54611066D01*
X219943831Y-54610562D01*
X220043769Y-54581528D01*
X220095988Y-54566357D01*
X220095990Y-54566356D01*
X220103601Y-54564145D01*
X220156043Y-54533131D01*
X220239980Y-54483491D01*
X220239983Y-54483489D01*
X220246807Y-54479453D01*
X220364453Y-54361807D01*
X220368489Y-54354983D01*
X220368491Y-54354980D01*
X220445108Y-54225427D01*
X220449145Y-54218601D01*
X220451415Y-54210790D01*
X220473341Y-54135316D01*
X220495562Y-54058831D01*
X220496074Y-54052336D01*
X220498307Y-54023958D01*
X220498307Y-54023950D01*
X220498500Y-54021502D01*
X220498500Y-53944326D01*
X220518502Y-53876205D01*
X220572158Y-53829712D01*
X220642432Y-53819608D01*
X220649146Y-53820809D01*
X220655139Y-53822797D01*
X220661979Y-53823498D01*
X220661980Y-53823498D01*
X220679430Y-53825286D01*
X220759600Y-53833500D01*
X221760400Y-53833500D01*
X221763646Y-53833163D01*
X221763650Y-53833163D01*
X221859308Y-53823238D01*
X221859312Y-53823237D01*
X221866166Y-53822526D01*
X221872702Y-53820345D01*
X221872704Y-53820345D01*
X222026998Y-53768868D01*
X222033946Y-53766550D01*
X222184348Y-53673478D01*
X222249731Y-53607982D01*
X222312013Y-53573903D01*
X222338903Y-53571000D01*
X223245500Y-53571000D01*
X223313621Y-53591002D01*
X223360114Y-53644658D01*
X223371500Y-53697000D01*
X223371500Y-54700400D01*
X223382474Y-54806166D01*
X223438450Y-54973946D01*
X223531522Y-55124348D01*
X223656697Y-55249305D01*
X223662927Y-55253145D01*
X223662928Y-55253146D01*
X223800090Y-55337694D01*
X223807262Y-55342115D01*
X223887005Y-55368564D01*
X223968611Y-55395632D01*
X223968613Y-55395632D01*
X223975139Y-55397797D01*
X223981975Y-55398497D01*
X223981978Y-55398498D01*
X224025031Y-55402909D01*
X224079600Y-55408500D01*
X225280400Y-55408500D01*
X225283646Y-55408163D01*
X225283650Y-55408163D01*
X225379308Y-55398238D01*
X225379312Y-55398237D01*
X225386166Y-55397526D01*
X225392702Y-55395345D01*
X225392704Y-55395345D01*
X225524806Y-55351272D01*
X225553946Y-55341550D01*
X225704348Y-55248478D01*
X225829305Y-55123303D01*
X225922115Y-54972738D01*
X225977797Y-54804861D01*
X225988500Y-54700400D01*
X225988500Y-52449600D01*
X225977526Y-52343834D01*
X225969898Y-52320968D01*
X225923868Y-52183002D01*
X225921550Y-52176054D01*
X225828478Y-52025652D01*
X225823296Y-52020479D01*
X225823292Y-52020474D01*
X225791892Y-51989129D01*
X225757812Y-51926847D01*
X225762815Y-51856027D01*
X225791735Y-51810939D01*
X225824133Y-51778484D01*
X225829305Y-51773303D01*
X225833146Y-51767072D01*
X225918275Y-51628968D01*
X225918276Y-51628966D01*
X225922115Y-51622738D01*
X225977797Y-51454861D01*
X225979762Y-51435689D01*
X225988172Y-51353598D01*
X225988500Y-51350400D01*
X225988500Y-49099600D01*
X225981960Y-49036565D01*
X225978238Y-49000692D01*
X225978237Y-49000688D01*
X225977526Y-48993834D01*
X225921550Y-48826054D01*
X225859203Y-48725303D01*
X225840365Y-48656851D01*
X225861526Y-48589082D01*
X225915967Y-48543510D01*
X225966347Y-48533000D01*
X229286906Y-48533000D01*
X229355027Y-48553002D01*
X229401520Y-48606658D01*
X229411624Y-48676932D01*
X229382130Y-48741512D01*
X229376001Y-48748095D01*
X228877057Y-49247039D01*
X228814745Y-49281065D01*
X228807028Y-49282492D01*
X228634091Y-49308955D01*
X228421756Y-49378357D01*
X228417164Y-49380747D01*
X228417165Y-49380747D01*
X228262734Y-49461139D01*
X228223607Y-49481507D01*
X228219474Y-49484610D01*
X228219471Y-49484612D01*
X228049100Y-49612530D01*
X228044965Y-49615635D01*
X227890629Y-49777138D01*
X227887715Y-49781410D01*
X227887714Y-49781411D01*
X227863275Y-49817237D01*
X227764743Y-49961680D01*
X227670688Y-50164305D01*
X227610989Y-50379570D01*
X227587251Y-50601695D01*
X227587548Y-50606848D01*
X227587548Y-50606851D01*
X227598465Y-50796185D01*
X227600110Y-50824715D01*
X227601247Y-50829761D01*
X227601248Y-50829767D01*
X227617595Y-50902303D01*
X227649222Y-51042639D01*
X227733266Y-51249616D01*
X227735965Y-51254020D01*
X227832101Y-51410900D01*
X227849987Y-51440088D01*
X227996250Y-51608938D01*
X228000230Y-51612242D01*
X228004981Y-51616187D01*
X228044616Y-51675090D01*
X228046113Y-51746071D01*
X228008997Y-51806593D01*
X227968725Y-51831112D01*
X227902265Y-51856027D01*
X227853295Y-51874385D01*
X227736739Y-51961739D01*
X227649385Y-52078295D01*
X227598255Y-52214684D01*
X227591500Y-52276866D01*
X227591500Y-54073134D01*
X227598255Y-54135316D01*
X227649385Y-54271705D01*
X227736739Y-54388261D01*
X227853295Y-54475615D01*
X227989684Y-54526745D01*
X228051866Y-54533500D01*
X229848134Y-54533500D01*
X229910316Y-54526745D01*
X230046705Y-54475615D01*
X230163261Y-54388261D01*
X230250615Y-54271705D01*
X230301745Y-54135316D01*
X230308500Y-54073134D01*
X230308500Y-52276866D01*
X230301745Y-52214684D01*
X230250615Y-52078295D01*
X230163261Y-51961739D01*
X230087756Y-51905151D01*
X231552296Y-51905151D01*
X231552520Y-51909817D01*
X231552520Y-51909822D01*
X231557677Y-52017173D01*
X231564480Y-52158798D01*
X231579341Y-52233510D01*
X231601546Y-52345139D01*
X231614021Y-52407857D01*
X231615600Y-52412255D01*
X231615602Y-52412262D01*
X231660022Y-52535980D01*
X231699831Y-52646858D01*
X231820025Y-52870551D01*
X231822820Y-52874294D01*
X231822822Y-52874297D01*
X231969171Y-53070282D01*
X231969176Y-53070288D01*
X231971963Y-53074020D01*
X231975272Y-53077300D01*
X231975277Y-53077306D01*
X232148990Y-53249509D01*
X232152307Y-53252797D01*
X232156069Y-53255555D01*
X232156072Y-53255558D01*
X232264253Y-53334879D01*
X232357094Y-53402953D01*
X232361229Y-53405129D01*
X232361233Y-53405131D01*
X232478447Y-53466800D01*
X232581827Y-53521191D01*
X232633194Y-53539129D01*
X232815764Y-53602885D01*
X232821568Y-53604912D01*
X233071050Y-53652278D01*
X233191532Y-53657011D01*
X233320125Y-53662064D01*
X233320130Y-53662064D01*
X233324793Y-53662247D01*
X233415821Y-53652278D01*
X233572569Y-53635112D01*
X233572575Y-53635111D01*
X233577222Y-53634602D01*
X233596909Y-53629419D01*
X233818273Y-53571138D01*
X233822793Y-53569948D01*
X233987221Y-53499305D01*
X234051807Y-53471557D01*
X234051810Y-53471555D01*
X234056110Y-53469708D01*
X234060090Y-53467245D01*
X234060094Y-53467243D01*
X234268064Y-53338547D01*
X234268066Y-53338545D01*
X234272047Y-53336082D01*
X234370428Y-53252797D01*
X234462289Y-53175031D01*
X234462291Y-53175029D01*
X234465862Y-53172006D01*
X234633295Y-52981084D01*
X234650049Y-52955038D01*
X234768141Y-52771442D01*
X234770669Y-52767512D01*
X234874967Y-52535980D01*
X234876288Y-52531298D01*
X234898421Y-52452817D01*
X234943896Y-52291575D01*
X234967784Y-52103803D01*
X234975545Y-52042798D01*
X234975545Y-52042792D01*
X234975943Y-52039667D01*
X234976027Y-52036483D01*
X234977578Y-51977225D01*
X234978291Y-51950000D01*
X234974958Y-51905151D01*
X235512296Y-51905151D01*
X235512520Y-51909817D01*
X235512520Y-51909822D01*
X235517677Y-52017173D01*
X235524480Y-52158798D01*
X235539341Y-52233510D01*
X235561546Y-52345139D01*
X235574021Y-52407857D01*
X235575600Y-52412255D01*
X235575602Y-52412262D01*
X235620022Y-52535980D01*
X235659831Y-52646858D01*
X235780025Y-52870551D01*
X235782820Y-52874294D01*
X235782822Y-52874297D01*
X235929171Y-53070282D01*
X235929176Y-53070288D01*
X235931963Y-53074020D01*
X235935272Y-53077300D01*
X235935277Y-53077306D01*
X236108990Y-53249509D01*
X236112307Y-53252797D01*
X236116069Y-53255555D01*
X236116072Y-53255558D01*
X236224253Y-53334879D01*
X236317094Y-53402953D01*
X236321229Y-53405129D01*
X236321233Y-53405131D01*
X236438447Y-53466800D01*
X236541827Y-53521191D01*
X236593194Y-53539129D01*
X236775764Y-53602885D01*
X236781568Y-53604912D01*
X237031050Y-53652278D01*
X237151532Y-53657011D01*
X237280125Y-53662064D01*
X237280130Y-53662064D01*
X237284793Y-53662247D01*
X237375821Y-53652278D01*
X237532569Y-53635112D01*
X237532575Y-53635111D01*
X237537222Y-53634602D01*
X237556909Y-53629419D01*
X237778273Y-53571138D01*
X237782793Y-53569948D01*
X237947221Y-53499305D01*
X238011807Y-53471557D01*
X238011810Y-53471555D01*
X238016110Y-53469708D01*
X238020090Y-53467245D01*
X238020094Y-53467243D01*
X238228064Y-53338547D01*
X238228066Y-53338545D01*
X238232047Y-53336082D01*
X238330428Y-53252797D01*
X238422289Y-53175031D01*
X238422291Y-53175029D01*
X238425862Y-53172006D01*
X238593295Y-52981084D01*
X238610049Y-52955038D01*
X238728141Y-52771442D01*
X238730669Y-52767512D01*
X238834967Y-52535980D01*
X238836288Y-52531298D01*
X238858421Y-52452817D01*
X238903896Y-52291575D01*
X238927784Y-52103803D01*
X238935545Y-52042798D01*
X238935545Y-52042792D01*
X238935943Y-52039667D01*
X238936027Y-52036483D01*
X238937578Y-51977225D01*
X238938291Y-51950000D01*
X238934958Y-51905151D01*
X238919818Y-51701411D01*
X238919817Y-51701407D01*
X238919472Y-51696759D01*
X238915364Y-51678601D01*
X238864459Y-51453639D01*
X238863428Y-51449082D01*
X238861448Y-51443990D01*
X238773084Y-51216762D01*
X238773083Y-51216760D01*
X238771391Y-51212409D01*
X238750866Y-51176498D01*
X238647702Y-50995997D01*
X238647700Y-50995995D01*
X238645383Y-50991940D01*
X238488171Y-50792517D01*
X238364368Y-50676055D01*
X238306610Y-50621722D01*
X238306608Y-50621720D01*
X238303209Y-50618523D01*
X238258592Y-50587571D01*
X238098393Y-50476437D01*
X238098390Y-50476435D01*
X238094561Y-50473779D01*
X238090384Y-50471719D01*
X238090377Y-50471715D01*
X237870996Y-50363528D01*
X237870992Y-50363527D01*
X237866810Y-50361464D01*
X237624960Y-50284047D01*
X237620355Y-50283297D01*
X237378935Y-50243980D01*
X237378934Y-50243980D01*
X237374323Y-50243229D01*
X237247364Y-50241567D01*
X237125083Y-50239966D01*
X237125080Y-50239966D01*
X237120406Y-50239905D01*
X236868787Y-50274149D01*
X236864301Y-50275457D01*
X236864299Y-50275457D01*
X236837401Y-50283297D01*
X236624993Y-50345208D01*
X236620740Y-50347168D01*
X236620739Y-50347169D01*
X236592818Y-50360041D01*
X236394380Y-50451522D01*
X236390471Y-50454085D01*
X236185928Y-50588189D01*
X236185923Y-50588193D01*
X236182015Y-50590755D01*
X235992562Y-50759848D01*
X235830183Y-50955087D01*
X235698447Y-51172182D01*
X235696638Y-51176496D01*
X235696637Y-51176498D01*
X235625084Y-51347134D01*
X235600246Y-51406365D01*
X235599095Y-51410897D01*
X235599094Y-51410900D01*
X235573311Y-51512421D01*
X235537738Y-51652490D01*
X235512296Y-51905151D01*
X234974958Y-51905151D01*
X234959818Y-51701411D01*
X234959817Y-51701407D01*
X234959472Y-51696759D01*
X234955364Y-51678601D01*
X234904459Y-51453639D01*
X234903428Y-51449082D01*
X234901448Y-51443990D01*
X234813084Y-51216762D01*
X234813083Y-51216760D01*
X234811391Y-51212409D01*
X234790866Y-51176498D01*
X234687702Y-50995997D01*
X234687700Y-50995995D01*
X234685383Y-50991940D01*
X234528171Y-50792517D01*
X234404368Y-50676055D01*
X234346610Y-50621722D01*
X234346608Y-50621720D01*
X234343209Y-50618523D01*
X234298592Y-50587571D01*
X234138393Y-50476437D01*
X234138390Y-50476435D01*
X234134561Y-50473779D01*
X234130384Y-50471719D01*
X234130377Y-50471715D01*
X233910996Y-50363528D01*
X233910992Y-50363527D01*
X233906810Y-50361464D01*
X233664960Y-50284047D01*
X233660355Y-50283297D01*
X233418935Y-50243980D01*
X233418934Y-50243980D01*
X233414323Y-50243229D01*
X233287364Y-50241567D01*
X233165083Y-50239966D01*
X233165080Y-50239966D01*
X233160406Y-50239905D01*
X232908787Y-50274149D01*
X232904301Y-50275457D01*
X232904299Y-50275457D01*
X232877401Y-50283297D01*
X232664993Y-50345208D01*
X232660740Y-50347168D01*
X232660739Y-50347169D01*
X232632818Y-50360041D01*
X232434380Y-50451522D01*
X232430471Y-50454085D01*
X232225928Y-50588189D01*
X232225923Y-50588193D01*
X232222015Y-50590755D01*
X232032562Y-50759848D01*
X231870183Y-50955087D01*
X231738447Y-51172182D01*
X231736638Y-51176496D01*
X231736637Y-51176498D01*
X231665084Y-51347134D01*
X231640246Y-51406365D01*
X231639095Y-51410897D01*
X231639094Y-51410900D01*
X231613311Y-51512421D01*
X231577738Y-51652490D01*
X231552296Y-51905151D01*
X230087756Y-51905151D01*
X230046705Y-51874385D01*
X230034132Y-51869672D01*
X229928203Y-51829960D01*
X229871439Y-51787318D01*
X229846739Y-51720756D01*
X229861947Y-51651408D01*
X229883493Y-51622727D01*
X229920758Y-51585592D01*
X229988096Y-51518489D01*
X230001434Y-51499928D01*
X230115435Y-51341277D01*
X230118453Y-51337077D01*
X230180068Y-51212409D01*
X230215136Y-51141453D01*
X230215137Y-51141451D01*
X230217430Y-51136811D01*
X230273332Y-50952817D01*
X230280865Y-50928023D01*
X230280865Y-50928021D01*
X230282370Y-50923069D01*
X230311529Y-50701590D01*
X230312056Y-50680014D01*
X230313074Y-50638365D01*
X230313074Y-50638361D01*
X230313156Y-50635000D01*
X230294852Y-50412361D01*
X230240431Y-50195702D01*
X230151354Y-49990840D01*
X230133745Y-49963621D01*
X230117787Y-49938953D01*
X230097581Y-49870893D01*
X230117378Y-49802712D01*
X230134485Y-49781419D01*
X230175499Y-49740405D01*
X230237811Y-49706379D01*
X230264594Y-49703500D01*
X242295405Y-49703500D01*
X242363526Y-49723502D01*
X242384501Y-49740405D01*
X242459596Y-49815501D01*
X242493621Y-49877814D01*
X242496500Y-49904596D01*
X242496500Y-50546463D01*
X242476498Y-50614584D01*
X242422842Y-50661077D01*
X242352568Y-50671181D01*
X242284168Y-50638238D01*
X242266617Y-50621728D01*
X242266610Y-50621722D01*
X242263209Y-50618523D01*
X242218592Y-50587571D01*
X242058393Y-50476437D01*
X242058390Y-50476435D01*
X242054561Y-50473779D01*
X242050384Y-50471719D01*
X242050377Y-50471715D01*
X241830996Y-50363528D01*
X241830992Y-50363527D01*
X241826810Y-50361464D01*
X241584960Y-50284047D01*
X241580355Y-50283297D01*
X241338935Y-50243980D01*
X241338934Y-50243980D01*
X241334323Y-50243229D01*
X241207364Y-50241567D01*
X241085083Y-50239966D01*
X241085080Y-50239966D01*
X241080406Y-50239905D01*
X240828787Y-50274149D01*
X240824301Y-50275457D01*
X240824299Y-50275457D01*
X240797401Y-50283297D01*
X240584993Y-50345208D01*
X240580740Y-50347168D01*
X240580739Y-50347169D01*
X240552818Y-50360041D01*
X240354380Y-50451522D01*
X240350471Y-50454085D01*
X240145928Y-50588189D01*
X240145923Y-50588193D01*
X240142015Y-50590755D01*
X239952562Y-50759848D01*
X239790183Y-50955087D01*
X239658447Y-51172182D01*
X239656638Y-51176496D01*
X239656637Y-51176498D01*
X239585084Y-51347134D01*
X239560246Y-51406365D01*
X239559095Y-51410897D01*
X239559094Y-51410900D01*
X239533311Y-51512421D01*
X239497738Y-51652490D01*
X239472296Y-51905151D01*
X239472520Y-51909817D01*
X239472520Y-51909822D01*
X239477677Y-52017173D01*
X239484480Y-52158798D01*
X239499341Y-52233510D01*
X239521546Y-52345139D01*
X239534021Y-52407857D01*
X239535600Y-52412255D01*
X239535602Y-52412262D01*
X239580022Y-52535980D01*
X239619831Y-52646858D01*
X239740025Y-52870551D01*
X239742820Y-52874294D01*
X239742822Y-52874297D01*
X239889171Y-53070282D01*
X239889176Y-53070288D01*
X239891963Y-53074020D01*
X239895272Y-53077300D01*
X239895277Y-53077306D01*
X240068990Y-53249509D01*
X240072307Y-53252797D01*
X240076069Y-53255555D01*
X240076072Y-53255558D01*
X240184253Y-53334879D01*
X240277094Y-53402953D01*
X240281229Y-53405129D01*
X240281233Y-53405131D01*
X240398447Y-53466800D01*
X240501827Y-53521191D01*
X240553194Y-53539129D01*
X240735764Y-53602885D01*
X240741568Y-53604912D01*
X240991050Y-53652278D01*
X241111532Y-53657011D01*
X241240125Y-53662064D01*
X241240130Y-53662064D01*
X241244793Y-53662247D01*
X241335821Y-53652278D01*
X241492569Y-53635112D01*
X241492575Y-53635111D01*
X241497222Y-53634602D01*
X241516909Y-53629419D01*
X241738273Y-53571138D01*
X241742793Y-53569948D01*
X241907221Y-53499305D01*
X241971807Y-53471557D01*
X241971810Y-53471555D01*
X241976110Y-53469708D01*
X241980090Y-53467245D01*
X241980094Y-53467243D01*
X242188064Y-53338547D01*
X242188066Y-53338545D01*
X242192047Y-53336082D01*
X242289090Y-53253929D01*
X242354004Y-53225181D01*
X242424157Y-53236093D01*
X242477275Y-53283200D01*
X242496500Y-53350097D01*
X242496500Y-53525405D01*
X242476498Y-53593526D01*
X242459595Y-53614500D01*
X242447865Y-53626230D01*
X242445385Y-53629427D01*
X242437682Y-53638447D01*
X242407414Y-53670679D01*
X242403595Y-53677625D01*
X242403593Y-53677628D01*
X242397652Y-53688434D01*
X242386801Y-53704953D01*
X242374386Y-53720959D01*
X242371241Y-53728228D01*
X242371238Y-53728232D01*
X242356826Y-53761537D01*
X242351609Y-53772187D01*
X242330305Y-53810940D01*
X242328334Y-53818615D01*
X242328334Y-53818616D01*
X242325267Y-53830562D01*
X242318863Y-53849266D01*
X242317609Y-53852165D01*
X242310819Y-53867855D01*
X242309580Y-53875678D01*
X242309577Y-53875688D01*
X242303901Y-53911524D01*
X242301495Y-53923144D01*
X242298344Y-53935417D01*
X242290500Y-53965970D01*
X242290500Y-53986224D01*
X242288949Y-54005934D01*
X242285780Y-54025943D01*
X242289466Y-54064931D01*
X242289941Y-54069961D01*
X242290500Y-54081819D01*
X242290500Y-57390429D01*
X242270498Y-57458550D01*
X242211803Y-57507213D01*
X242101267Y-57551985D01*
X241868518Y-57688265D01*
X241657881Y-57856716D01*
X241473766Y-58053809D01*
X241320032Y-58275416D01*
X241199899Y-58516894D01*
X241198478Y-58521228D01*
X241198477Y-58521231D01*
X241198415Y-58521422D01*
X241115882Y-58773186D01*
X241115102Y-58777677D01*
X241115102Y-58777678D01*
X241083525Y-58959547D01*
X241069743Y-59038921D01*
X241065500Y-59124149D01*
X241065500Y-59892512D01*
X241065664Y-59894777D01*
X241065665Y-59894792D01*
X241067888Y-59925422D01*
X241080047Y-60093004D01*
X241081031Y-60097459D01*
X241081031Y-60097462D01*
X241137178Y-60351769D01*
X241138194Y-60356372D01*
X241139812Y-60360642D01*
X241205944Y-60535194D01*
X241233750Y-60608588D01*
X241364714Y-60844368D01*
X241367486Y-60848000D01*
X241481608Y-60997535D01*
X241528343Y-61058773D01*
X241721208Y-61247312D01*
X241939270Y-61406034D01*
X242039031Y-61458521D01*
X242173921Y-61529490D01*
X242173927Y-61529493D01*
X242177961Y-61531615D01*
X242182266Y-61533135D01*
X242182270Y-61533137D01*
X242427967Y-61619902D01*
X242432280Y-61621425D01*
X242560032Y-61646605D01*
X242692428Y-61672700D01*
X242692434Y-61672701D01*
X242696900Y-61673581D01*
X242701453Y-61673808D01*
X242701456Y-61673808D01*
X242961708Y-61686764D01*
X242961714Y-61686764D01*
X242966277Y-61686991D01*
X243234769Y-61661375D01*
X243239203Y-61660290D01*
X243239209Y-61660289D01*
X243492312Y-61598355D01*
X243496750Y-61597269D01*
X243746733Y-61496015D01*
X243979482Y-61359735D01*
X244190119Y-61191284D01*
X244374234Y-60994191D01*
X244527968Y-60772584D01*
X244648101Y-60531106D01*
X244649523Y-60526769D01*
X244730698Y-60279147D01*
X244730699Y-60279141D01*
X244732118Y-60274814D01*
X244732919Y-60270201D01*
X244777601Y-60012860D01*
X244777602Y-60012852D01*
X244778257Y-60009079D01*
X244782500Y-59923851D01*
X244782500Y-59892512D01*
X245265500Y-59892512D01*
X245265664Y-59894777D01*
X245265665Y-59894792D01*
X245267888Y-59925422D01*
X245280047Y-60093004D01*
X245281031Y-60097459D01*
X245281031Y-60097462D01*
X245337178Y-60351769D01*
X245338194Y-60356372D01*
X245339812Y-60360642D01*
X245405944Y-60535194D01*
X245433750Y-60608588D01*
X245564714Y-60844368D01*
X245567486Y-60848000D01*
X245681608Y-60997535D01*
X245728343Y-61058773D01*
X245921208Y-61247312D01*
X246139270Y-61406034D01*
X246239031Y-61458521D01*
X246373921Y-61529490D01*
X246373927Y-61529493D01*
X246377961Y-61531615D01*
X246382266Y-61533135D01*
X246382270Y-61533137D01*
X246627967Y-61619902D01*
X246632280Y-61621425D01*
X246760032Y-61646605D01*
X246892428Y-61672700D01*
X246892434Y-61672701D01*
X246896900Y-61673581D01*
X246901453Y-61673808D01*
X246901456Y-61673808D01*
X247161708Y-61686764D01*
X247161714Y-61686764D01*
X247166277Y-61686991D01*
X247434769Y-61661375D01*
X247439203Y-61660290D01*
X247439209Y-61660289D01*
X247692312Y-61598355D01*
X247696750Y-61597269D01*
X247946733Y-61496015D01*
X248179482Y-61359735D01*
X248390119Y-61191284D01*
X248574234Y-60994191D01*
X248727968Y-60772584D01*
X248848101Y-60531106D01*
X248849523Y-60526769D01*
X248930698Y-60279147D01*
X248930699Y-60279141D01*
X248932118Y-60274814D01*
X248932919Y-60270201D01*
X248977601Y-60012860D01*
X248977602Y-60012852D01*
X248978257Y-60009079D01*
X248982500Y-59923851D01*
X248982500Y-59892512D01*
X249465500Y-59892512D01*
X249465664Y-59894777D01*
X249465665Y-59894792D01*
X249467888Y-59925422D01*
X249480047Y-60093004D01*
X249481031Y-60097459D01*
X249481031Y-60097462D01*
X249537178Y-60351769D01*
X249538194Y-60356372D01*
X249539812Y-60360642D01*
X249605944Y-60535194D01*
X249633750Y-60608588D01*
X249764714Y-60844368D01*
X249767486Y-60848000D01*
X249881608Y-60997535D01*
X249928343Y-61058773D01*
X250121208Y-61247312D01*
X250339270Y-61406034D01*
X250439031Y-61458521D01*
X250573921Y-61529490D01*
X250573927Y-61529493D01*
X250577961Y-61531615D01*
X250582266Y-61533135D01*
X250582270Y-61533137D01*
X250827967Y-61619902D01*
X250832280Y-61621425D01*
X250960032Y-61646605D01*
X251092428Y-61672700D01*
X251092434Y-61672701D01*
X251096900Y-61673581D01*
X251101453Y-61673808D01*
X251101456Y-61673808D01*
X251361708Y-61686764D01*
X251361714Y-61686764D01*
X251366277Y-61686991D01*
X251634769Y-61661375D01*
X251639203Y-61660290D01*
X251639209Y-61660289D01*
X251892312Y-61598355D01*
X251896750Y-61597269D01*
X252146733Y-61496015D01*
X252379482Y-61359735D01*
X252590119Y-61191284D01*
X252774234Y-60994191D01*
X252927968Y-60772584D01*
X253048101Y-60531106D01*
X253049523Y-60526769D01*
X253130698Y-60279147D01*
X253130699Y-60279141D01*
X253132118Y-60274814D01*
X253132919Y-60270201D01*
X253177601Y-60012860D01*
X253177602Y-60012852D01*
X253178257Y-60009079D01*
X253182500Y-59923851D01*
X253182500Y-59155488D01*
X253180114Y-59122592D01*
X253172823Y-59022116D01*
X253167953Y-58954996D01*
X253128831Y-58777799D01*
X253110791Y-58696088D01*
X253110790Y-58696084D01*
X253109806Y-58691628D01*
X253045321Y-58521422D01*
X253015868Y-58443682D01*
X253015867Y-58443679D01*
X253014250Y-58439412D01*
X252883286Y-58203632D01*
X252772045Y-58057871D01*
X252722429Y-57992859D01*
X252722428Y-57992858D01*
X252719657Y-57989227D01*
X252526792Y-57800688D01*
X252308730Y-57641966D01*
X252142948Y-57554744D01*
X252074079Y-57518510D01*
X252074073Y-57518507D01*
X252070039Y-57516385D01*
X252065734Y-57514865D01*
X252065730Y-57514863D01*
X251820033Y-57428098D01*
X251820032Y-57428098D01*
X251815720Y-57426575D01*
X251673557Y-57398555D01*
X251555572Y-57375300D01*
X251555566Y-57375299D01*
X251551100Y-57374419D01*
X251546547Y-57374192D01*
X251546544Y-57374192D01*
X251286292Y-57361236D01*
X251286286Y-57361236D01*
X251281723Y-57361009D01*
X251013231Y-57386625D01*
X251008797Y-57387710D01*
X251008791Y-57387711D01*
X250755688Y-57449645D01*
X250751250Y-57450731D01*
X250501267Y-57551985D01*
X250268518Y-57688265D01*
X250057881Y-57856716D01*
X249873766Y-58053809D01*
X249720032Y-58275416D01*
X249599899Y-58516894D01*
X249598478Y-58521228D01*
X249598477Y-58521231D01*
X249598415Y-58521422D01*
X249515882Y-58773186D01*
X249515102Y-58777677D01*
X249515102Y-58777678D01*
X249483525Y-58959547D01*
X249469743Y-59038921D01*
X249465500Y-59124149D01*
X249465500Y-59892512D01*
X248982500Y-59892512D01*
X248982500Y-59155488D01*
X248980114Y-59122592D01*
X248972823Y-59022116D01*
X248967953Y-58954996D01*
X248928831Y-58777799D01*
X248910791Y-58696088D01*
X248910790Y-58696084D01*
X248909806Y-58691628D01*
X248845321Y-58521422D01*
X248815868Y-58443682D01*
X248815867Y-58443679D01*
X248814250Y-58439412D01*
X248683286Y-58203632D01*
X248572045Y-58057871D01*
X248522429Y-57992859D01*
X248522428Y-57992858D01*
X248519657Y-57989227D01*
X248326792Y-57800688D01*
X248108730Y-57641966D01*
X247942948Y-57554744D01*
X247874079Y-57518510D01*
X247874073Y-57518507D01*
X247870039Y-57516385D01*
X247865734Y-57514865D01*
X247865730Y-57514863D01*
X247620033Y-57428098D01*
X247620032Y-57428098D01*
X247615720Y-57426575D01*
X247473557Y-57398555D01*
X247355572Y-57375300D01*
X247355566Y-57375299D01*
X247351100Y-57374419D01*
X247346547Y-57374192D01*
X247346544Y-57374192D01*
X247086292Y-57361236D01*
X247086286Y-57361236D01*
X247081723Y-57361009D01*
X246813231Y-57386625D01*
X246808797Y-57387710D01*
X246808791Y-57387711D01*
X246555688Y-57449645D01*
X246551250Y-57450731D01*
X246301267Y-57551985D01*
X246068518Y-57688265D01*
X245857881Y-57856716D01*
X245673766Y-58053809D01*
X245520032Y-58275416D01*
X245399899Y-58516894D01*
X245398478Y-58521228D01*
X245398477Y-58521231D01*
X245398415Y-58521422D01*
X245315882Y-58773186D01*
X245315102Y-58777677D01*
X245315102Y-58777678D01*
X245283525Y-58959547D01*
X245269743Y-59038921D01*
X245265500Y-59124149D01*
X245265500Y-59892512D01*
X244782500Y-59892512D01*
X244782500Y-59155488D01*
X244780114Y-59122592D01*
X244772823Y-59022116D01*
X244767953Y-58954996D01*
X244728831Y-58777799D01*
X244710791Y-58696088D01*
X244710790Y-58696084D01*
X244709806Y-58691628D01*
X244645321Y-58521422D01*
X244615868Y-58443682D01*
X244615867Y-58443679D01*
X244614250Y-58439412D01*
X244483286Y-58203632D01*
X244372045Y-58057871D01*
X244322429Y-57992859D01*
X244322428Y-57992858D01*
X244319657Y-57989227D01*
X244126792Y-57800688D01*
X243908730Y-57641966D01*
X243742948Y-57554744D01*
X243674079Y-57518510D01*
X243674073Y-57518507D01*
X243670039Y-57516385D01*
X243641543Y-57506322D01*
X243583970Y-57464778D01*
X243557998Y-57398702D01*
X243557500Y-57387513D01*
X243557500Y-54360595D01*
X243577502Y-54292474D01*
X243594405Y-54271500D01*
X243606135Y-54259770D01*
X243608615Y-54256573D01*
X243616320Y-54247551D01*
X243641159Y-54221100D01*
X243646586Y-54215321D01*
X243650405Y-54208375D01*
X243650407Y-54208372D01*
X243656348Y-54197566D01*
X243667199Y-54181047D01*
X243674758Y-54171301D01*
X243679614Y-54165041D01*
X243682759Y-54157772D01*
X243682762Y-54157768D01*
X243697174Y-54124463D01*
X243702391Y-54113813D01*
X243723695Y-54075060D01*
X243728733Y-54055437D01*
X243735137Y-54036734D01*
X243740033Y-54025420D01*
X243740033Y-54025419D01*
X243743181Y-54018145D01*
X243744420Y-54010322D01*
X243744423Y-54010312D01*
X243750099Y-53974476D01*
X243752505Y-53962856D01*
X243761528Y-53927711D01*
X243761528Y-53927710D01*
X243763500Y-53920030D01*
X243763500Y-53899776D01*
X243765051Y-53880065D01*
X243765093Y-53879803D01*
X243768220Y-53860057D01*
X243764059Y-53816038D01*
X243763500Y-53804181D01*
X243763500Y-53323359D01*
X244136386Y-53323359D01*
X244145099Y-53334879D01*
X244233586Y-53399760D01*
X244241505Y-53404708D01*
X244457877Y-53518547D01*
X244466451Y-53522275D01*
X244697282Y-53602885D01*
X244706291Y-53605299D01*
X244946518Y-53650908D01*
X244955775Y-53651962D01*
X245200107Y-53661563D01*
X245209420Y-53661237D01*
X245452478Y-53634618D01*
X245461655Y-53632917D01*
X245698107Y-53570665D01*
X245706926Y-53567628D01*
X245931584Y-53471107D01*
X245939856Y-53466800D01*
X246147777Y-53338135D01*
X246149620Y-53336796D01*
X246157038Y-53325541D01*
X246150974Y-53315184D01*
X245157812Y-52322022D01*
X245143868Y-52314408D01*
X245142035Y-52314539D01*
X245135420Y-52318790D01*
X244143044Y-53311166D01*
X244136386Y-53323359D01*
X243763500Y-53323359D01*
X243763500Y-53024480D01*
X243783502Y-52956359D01*
X243800405Y-52935385D01*
X244772978Y-51962812D01*
X244779356Y-51951132D01*
X245509408Y-51951132D01*
X245509539Y-51952965D01*
X245513790Y-51959580D01*
X246508732Y-52954522D01*
X246521112Y-52961282D01*
X246529453Y-52955038D01*
X246647700Y-52771202D01*
X246652147Y-52763011D01*
X246752572Y-52540076D01*
X246755767Y-52531298D01*
X246822135Y-52295973D01*
X246823993Y-52286844D01*
X246855044Y-52042770D01*
X246855525Y-52036483D01*
X246857706Y-51953160D01*
X246857555Y-51946851D01*
X246854456Y-51905151D01*
X247392296Y-51905151D01*
X247392520Y-51909817D01*
X247392520Y-51909822D01*
X247397677Y-52017173D01*
X247404480Y-52158798D01*
X247419341Y-52233510D01*
X247441546Y-52345139D01*
X247454021Y-52407857D01*
X247455600Y-52412255D01*
X247455602Y-52412262D01*
X247500022Y-52535980D01*
X247539831Y-52646858D01*
X247660025Y-52870551D01*
X247662820Y-52874294D01*
X247662822Y-52874297D01*
X247809171Y-53070282D01*
X247809176Y-53070288D01*
X247811963Y-53074020D01*
X247815272Y-53077300D01*
X247815277Y-53077306D01*
X247988990Y-53249509D01*
X247992307Y-53252797D01*
X247996069Y-53255555D01*
X247996072Y-53255558D01*
X248104253Y-53334879D01*
X248197094Y-53402953D01*
X248201229Y-53405129D01*
X248201233Y-53405131D01*
X248318447Y-53466800D01*
X248421827Y-53521191D01*
X248473194Y-53539129D01*
X248655764Y-53602885D01*
X248661568Y-53604912D01*
X248911050Y-53652278D01*
X249031532Y-53657011D01*
X249160125Y-53662064D01*
X249160130Y-53662064D01*
X249164793Y-53662247D01*
X249255821Y-53652278D01*
X249412569Y-53635112D01*
X249412575Y-53635111D01*
X249417222Y-53634602D01*
X249436909Y-53629419D01*
X249658273Y-53571138D01*
X249662793Y-53569948D01*
X249827221Y-53499305D01*
X249891807Y-53471557D01*
X249891810Y-53471555D01*
X249896110Y-53469708D01*
X249900090Y-53467245D01*
X249900094Y-53467243D01*
X250108064Y-53338547D01*
X250108066Y-53338545D01*
X250112047Y-53336082D01*
X250210428Y-53252797D01*
X250302289Y-53175031D01*
X250302291Y-53175029D01*
X250305862Y-53172006D01*
X250473295Y-52981084D01*
X250490049Y-52955038D01*
X250608141Y-52771442D01*
X250610669Y-52767512D01*
X250714967Y-52535980D01*
X250716288Y-52531298D01*
X250738421Y-52452817D01*
X250783896Y-52291575D01*
X250807784Y-52103803D01*
X250815545Y-52042798D01*
X250815545Y-52042792D01*
X250815943Y-52039667D01*
X250816027Y-52036483D01*
X250817578Y-51977225D01*
X250818291Y-51950000D01*
X250814958Y-51905151D01*
X251352296Y-51905151D01*
X251352520Y-51909817D01*
X251352520Y-51909822D01*
X251357677Y-52017173D01*
X251364480Y-52158798D01*
X251379341Y-52233510D01*
X251401546Y-52345139D01*
X251414021Y-52407857D01*
X251415600Y-52412255D01*
X251415602Y-52412262D01*
X251460022Y-52535980D01*
X251499831Y-52646858D01*
X251620025Y-52870551D01*
X251622820Y-52874294D01*
X251622822Y-52874297D01*
X251769171Y-53070282D01*
X251769176Y-53070288D01*
X251771963Y-53074020D01*
X251775272Y-53077300D01*
X251775277Y-53077306D01*
X251948990Y-53249509D01*
X251952307Y-53252797D01*
X251956069Y-53255555D01*
X251956072Y-53255558D01*
X252064253Y-53334879D01*
X252157094Y-53402953D01*
X252161229Y-53405129D01*
X252161233Y-53405131D01*
X252278447Y-53466800D01*
X252381827Y-53521191D01*
X252433194Y-53539129D01*
X252615764Y-53602885D01*
X252621568Y-53604912D01*
X252871050Y-53652278D01*
X252991532Y-53657011D01*
X253120125Y-53662064D01*
X253120130Y-53662064D01*
X253124793Y-53662247D01*
X253215821Y-53652278D01*
X253372569Y-53635112D01*
X253372575Y-53635111D01*
X253377222Y-53634602D01*
X253396909Y-53629419D01*
X253618273Y-53571138D01*
X253622793Y-53569948D01*
X253787221Y-53499305D01*
X253851807Y-53471557D01*
X253851810Y-53471555D01*
X253856110Y-53469708D01*
X253860090Y-53467245D01*
X253860094Y-53467243D01*
X254068064Y-53338547D01*
X254068066Y-53338545D01*
X254072047Y-53336082D01*
X254170428Y-53252797D01*
X254262289Y-53175031D01*
X254262291Y-53175029D01*
X254265862Y-53172006D01*
X254433295Y-52981084D01*
X254450049Y-52955038D01*
X254453032Y-52950400D01*
X255316500Y-52950400D01*
X255316837Y-52953646D01*
X255316837Y-52953650D01*
X255319684Y-52981084D01*
X255327474Y-53056165D01*
X255383450Y-53223945D01*
X255476522Y-53374348D01*
X255601697Y-53499305D01*
X255607927Y-53503145D01*
X255607928Y-53503146D01*
X255745090Y-53587694D01*
X255752262Y-53592115D01*
X255792011Y-53605299D01*
X255913611Y-53645632D01*
X255913613Y-53645632D01*
X255920139Y-53647797D01*
X255926975Y-53648497D01*
X255926978Y-53648498D01*
X255970031Y-53652909D01*
X256024600Y-53658500D01*
X258025400Y-53658500D01*
X258028646Y-53658163D01*
X258028650Y-53658163D01*
X258124307Y-53648238D01*
X258124311Y-53648237D01*
X258131165Y-53647526D01*
X258137701Y-53645345D01*
X258137703Y-53645345D01*
X258269805Y-53601272D01*
X258298945Y-53591550D01*
X258449348Y-53498478D01*
X258574305Y-53373303D01*
X258578146Y-53367072D01*
X258663275Y-53228968D01*
X258663276Y-53228966D01*
X258667115Y-53222738D01*
X258712808Y-53084978D01*
X258720632Y-53061389D01*
X258720632Y-53061387D01*
X258722797Y-53054861D01*
X258733500Y-52950400D01*
X258733500Y-50949600D01*
X258732545Y-50940395D01*
X258723238Y-50850693D01*
X258723237Y-50850689D01*
X258722526Y-50843835D01*
X258666550Y-50676055D01*
X258573478Y-50525652D01*
X258448303Y-50400695D01*
X258388765Y-50363995D01*
X258303968Y-50311725D01*
X258303966Y-50311724D01*
X258297738Y-50307885D01*
X258217995Y-50281436D01*
X258136389Y-50254368D01*
X258136387Y-50254368D01*
X258129861Y-50252203D01*
X258123025Y-50251503D01*
X258123022Y-50251502D01*
X258079969Y-50247091D01*
X258025400Y-50241500D01*
X256024600Y-50241500D01*
X256021354Y-50241837D01*
X256021350Y-50241837D01*
X255925693Y-50251762D01*
X255925689Y-50251763D01*
X255918835Y-50252474D01*
X255912299Y-50254655D01*
X255912297Y-50254655D01*
X255780195Y-50298728D01*
X255751055Y-50308450D01*
X255600652Y-50401522D01*
X255475695Y-50526697D01*
X255471855Y-50532927D01*
X255471854Y-50532928D01*
X255392862Y-50661077D01*
X255382885Y-50677262D01*
X255380581Y-50684209D01*
X255332302Y-50829767D01*
X255327203Y-50845139D01*
X255326503Y-50851975D01*
X255326502Y-50851978D01*
X255324090Y-50875520D01*
X255316500Y-50949600D01*
X255316500Y-52950400D01*
X254453032Y-52950400D01*
X254568141Y-52771442D01*
X254570669Y-52767512D01*
X254674967Y-52535980D01*
X254676288Y-52531298D01*
X254698421Y-52452817D01*
X254743896Y-52291575D01*
X254767784Y-52103803D01*
X254775545Y-52042798D01*
X254775545Y-52042792D01*
X254775943Y-52039667D01*
X254776027Y-52036483D01*
X254777578Y-51977225D01*
X254778291Y-51950000D01*
X254774958Y-51905151D01*
X254759818Y-51701411D01*
X254759817Y-51701407D01*
X254759472Y-51696759D01*
X254755364Y-51678601D01*
X254704459Y-51453639D01*
X254703428Y-51449082D01*
X254701448Y-51443990D01*
X254613084Y-51216762D01*
X254613083Y-51216760D01*
X254611391Y-51212409D01*
X254590866Y-51176498D01*
X254487702Y-50995997D01*
X254487700Y-50995995D01*
X254485383Y-50991940D01*
X254328171Y-50792517D01*
X254204368Y-50676055D01*
X254146610Y-50621722D01*
X254146608Y-50621720D01*
X254143209Y-50618523D01*
X254098592Y-50587571D01*
X253938393Y-50476437D01*
X253938390Y-50476435D01*
X253934561Y-50473779D01*
X253930384Y-50471719D01*
X253930377Y-50471715D01*
X253710996Y-50363528D01*
X253710992Y-50363527D01*
X253706810Y-50361464D01*
X253464960Y-50284047D01*
X253460355Y-50283297D01*
X253218935Y-50243980D01*
X253218934Y-50243980D01*
X253214323Y-50243229D01*
X253087364Y-50241567D01*
X252965083Y-50239966D01*
X252965080Y-50239966D01*
X252960406Y-50239905D01*
X252708787Y-50274149D01*
X252704301Y-50275457D01*
X252704299Y-50275457D01*
X252677401Y-50283297D01*
X252464993Y-50345208D01*
X252460740Y-50347168D01*
X252460739Y-50347169D01*
X252432818Y-50360041D01*
X252234380Y-50451522D01*
X252230471Y-50454085D01*
X252025928Y-50588189D01*
X252025923Y-50588193D01*
X252022015Y-50590755D01*
X251832562Y-50759848D01*
X251670183Y-50955087D01*
X251538447Y-51172182D01*
X251536638Y-51176496D01*
X251536637Y-51176498D01*
X251465084Y-51347134D01*
X251440246Y-51406365D01*
X251439095Y-51410897D01*
X251439094Y-51410900D01*
X251413311Y-51512421D01*
X251377738Y-51652490D01*
X251352296Y-51905151D01*
X250814958Y-51905151D01*
X250799818Y-51701411D01*
X250799817Y-51701407D01*
X250799472Y-51696759D01*
X250795364Y-51678601D01*
X250744459Y-51453639D01*
X250743428Y-51449082D01*
X250741448Y-51443990D01*
X250653084Y-51216762D01*
X250653083Y-51216760D01*
X250651391Y-51212409D01*
X250630866Y-51176498D01*
X250527702Y-50995997D01*
X250527700Y-50995995D01*
X250525383Y-50991940D01*
X250368171Y-50792517D01*
X250244368Y-50676055D01*
X250186610Y-50621722D01*
X250186608Y-50621720D01*
X250183209Y-50618523D01*
X250138592Y-50587571D01*
X249978393Y-50476437D01*
X249978390Y-50476435D01*
X249974561Y-50473779D01*
X249970384Y-50471719D01*
X249970377Y-50471715D01*
X249750996Y-50363528D01*
X249750992Y-50363527D01*
X249746810Y-50361464D01*
X249504960Y-50284047D01*
X249500355Y-50283297D01*
X249258935Y-50243980D01*
X249258934Y-50243980D01*
X249254323Y-50243229D01*
X249127364Y-50241567D01*
X249005083Y-50239966D01*
X249005080Y-50239966D01*
X249000406Y-50239905D01*
X248748787Y-50274149D01*
X248744301Y-50275457D01*
X248744299Y-50275457D01*
X248717401Y-50283297D01*
X248504993Y-50345208D01*
X248500740Y-50347168D01*
X248500739Y-50347169D01*
X248472818Y-50360041D01*
X248274380Y-50451522D01*
X248270471Y-50454085D01*
X248065928Y-50588189D01*
X248065923Y-50588193D01*
X248062015Y-50590755D01*
X247872562Y-50759848D01*
X247710183Y-50955087D01*
X247578447Y-51172182D01*
X247576638Y-51176496D01*
X247576637Y-51176498D01*
X247505084Y-51347134D01*
X247480246Y-51406365D01*
X247479095Y-51410897D01*
X247479094Y-51410900D01*
X247453311Y-51512421D01*
X247417738Y-51652490D01*
X247392296Y-51905151D01*
X246854456Y-51905151D01*
X246839321Y-51701486D01*
X246837944Y-51692280D01*
X246783979Y-51453786D01*
X246781255Y-51444875D01*
X246692633Y-51216983D01*
X246688619Y-51208567D01*
X246567284Y-50996276D01*
X246562074Y-50988553D01*
X246530787Y-50948865D01*
X246518863Y-50940395D01*
X246507328Y-50946882D01*
X245517022Y-51937188D01*
X245509408Y-51951132D01*
X244779356Y-51951132D01*
X244780592Y-51948868D01*
X244780461Y-51947035D01*
X244776210Y-51940420D01*
X243800405Y-50964615D01*
X243766379Y-50902303D01*
X243763500Y-50875520D01*
X243763500Y-50574917D01*
X244134330Y-50574917D01*
X244138903Y-50584693D01*
X245132188Y-51577978D01*
X245146132Y-51585592D01*
X245147965Y-51585461D01*
X245154580Y-51581210D01*
X246147488Y-50588302D01*
X246153872Y-50576612D01*
X246144460Y-50564502D01*
X246018144Y-50476873D01*
X246010116Y-50472145D01*
X245790810Y-50363995D01*
X245782177Y-50360507D01*
X245549288Y-50285958D01*
X245540238Y-50283785D01*
X245298891Y-50244480D01*
X245289602Y-50243668D01*
X245045114Y-50240467D01*
X245035803Y-50241037D01*
X244793522Y-50274010D01*
X244784403Y-50275948D01*
X244549668Y-50344367D01*
X244540915Y-50347639D01*
X244318869Y-50450004D01*
X244310714Y-50454524D01*
X244143468Y-50564175D01*
X244134330Y-50574917D01*
X243763500Y-50574917D01*
X243763500Y-49668767D01*
X243764027Y-49657584D01*
X243765702Y-49650091D01*
X243763562Y-49582014D01*
X243763500Y-49578055D01*
X243763500Y-49550144D01*
X243762995Y-49546144D01*
X243762062Y-49534301D01*
X243760922Y-49498030D01*
X243760673Y-49490111D01*
X243755021Y-49470657D01*
X243751013Y-49451300D01*
X243749468Y-49439070D01*
X243749468Y-49439069D01*
X243748474Y-49431203D01*
X243745555Y-49423830D01*
X243732196Y-49390088D01*
X243728351Y-49378858D01*
X243718229Y-49344017D01*
X243718229Y-49344016D01*
X243716018Y-49336407D01*
X243711985Y-49329588D01*
X243711983Y-49329583D01*
X243705707Y-49318972D01*
X243697012Y-49301224D01*
X243689552Y-49282383D01*
X243679748Y-49268888D01*
X243663564Y-49246613D01*
X243657048Y-49236693D01*
X243638580Y-49205465D01*
X243638578Y-49205462D01*
X243634542Y-49198638D01*
X243620221Y-49184317D01*
X243607380Y-49169283D01*
X243600132Y-49159307D01*
X243595472Y-49152893D01*
X243561407Y-49124712D01*
X243552626Y-49116722D01*
X243184000Y-48748095D01*
X243149975Y-48685783D01*
X243155040Y-48614967D01*
X243197587Y-48558132D01*
X243264107Y-48533321D01*
X243273096Y-48533000D01*
X259103800Y-48533000D01*
X259171921Y-48553002D01*
X259218414Y-48606658D01*
X259229800Y-48659000D01*
X259229800Y-57212857D01*
X259209798Y-57280978D01*
X259156142Y-57327471D01*
X259103800Y-57338857D01*
X256002500Y-57338857D01*
X256002500Y-57346651D01*
X255993147Y-57357445D01*
X255933421Y-57395829D01*
X255873558Y-57398555D01*
X255751100Y-57374419D01*
X255746543Y-57374192D01*
X255746542Y-57374192D01*
X255486292Y-57361236D01*
X255486286Y-57361236D01*
X255481723Y-57361009D01*
X255213231Y-57386625D01*
X255208797Y-57387710D01*
X255208791Y-57387711D01*
X254955688Y-57449645D01*
X254951250Y-57450731D01*
X254701267Y-57551985D01*
X254468518Y-57688265D01*
X254257881Y-57856716D01*
X254073766Y-58053809D01*
X253920032Y-58275416D01*
X253799899Y-58516894D01*
X253798478Y-58521228D01*
X253798477Y-58521231D01*
X253798415Y-58521422D01*
X253715882Y-58773186D01*
X253715102Y-58777677D01*
X253715102Y-58777678D01*
X253683525Y-58959547D01*
X253669743Y-59038921D01*
X253665500Y-59124149D01*
X253665500Y-59892512D01*
X253665664Y-59894777D01*
X253665665Y-59894792D01*
X253667888Y-59925422D01*
X253680047Y-60093004D01*
X253681031Y-60097459D01*
X253681031Y-60097462D01*
X253737178Y-60351769D01*
X253738194Y-60356372D01*
X253739812Y-60360642D01*
X253805944Y-60535194D01*
X253833750Y-60608588D01*
X253964714Y-60844368D01*
X253967486Y-60848000D01*
X254081608Y-60997535D01*
X254128343Y-61058773D01*
X254321208Y-61247312D01*
X254539270Y-61406034D01*
X254639031Y-61458521D01*
X254773921Y-61529490D01*
X254773927Y-61529493D01*
X254777961Y-61531615D01*
X254782266Y-61533135D01*
X254782270Y-61533137D01*
X255027967Y-61619902D01*
X255032280Y-61621425D01*
X255160032Y-61646605D01*
X255292428Y-61672700D01*
X255292434Y-61672701D01*
X255296900Y-61673581D01*
X255301453Y-61673808D01*
X255301456Y-61673808D01*
X255561708Y-61686764D01*
X255561714Y-61686764D01*
X255566277Y-61686991D01*
X255834769Y-61661375D01*
X255846555Y-61658491D01*
X255917477Y-61661730D01*
X255975390Y-61702799D01*
X256001906Y-61768658D01*
X256002500Y-61780881D01*
X256002500Y-62739500D01*
X255982498Y-62807621D01*
X255928842Y-62854114D01*
X255876500Y-62865500D01*
X254415774Y-62865501D01*
X254374632Y-62865501D01*
X254371388Y-62865838D01*
X254371380Y-62865838D01*
X254325096Y-62870641D01*
X254268707Y-62876491D01*
X254100685Y-62932547D01*
X253950064Y-63025754D01*
X253944891Y-63030936D01*
X253830097Y-63145930D01*
X253830093Y-63145935D01*
X253824926Y-63151111D01*
X253731982Y-63301894D01*
X253676219Y-63470014D01*
X253665500Y-63574631D01*
X253665501Y-66473368D01*
X253676491Y-66579293D01*
X253732547Y-66747315D01*
X253825754Y-66897936D01*
X253830936Y-66903109D01*
X253945930Y-67017903D01*
X253945935Y-67017907D01*
X253951111Y-67023074D01*
X253957341Y-67026914D01*
X253957342Y-67026915D01*
X254071478Y-67097269D01*
X254101894Y-67116018D01*
X254270014Y-67171781D01*
X254276851Y-67172481D01*
X254276853Y-67172482D01*
X254319922Y-67176895D01*
X254374631Y-67182500D01*
X254415159Y-67182500D01*
X255876500Y-67182499D01*
X255944621Y-67202501D01*
X255991114Y-67256157D01*
X256002500Y-67308499D01*
X256002500Y-69136000D01*
X255982498Y-69204121D01*
X255928842Y-69250614D01*
X255876500Y-69262000D01*
X205584000Y-69262000D01*
X205515879Y-69241998D01*
X205469386Y-69188342D01*
X205458000Y-69136000D01*
X205458000Y-65392512D01*
X207465500Y-65392512D01*
X207465664Y-65394777D01*
X207465665Y-65394792D01*
X207467888Y-65425422D01*
X207480047Y-65593004D01*
X207481031Y-65597459D01*
X207481031Y-65597462D01*
X207537178Y-65851769D01*
X207538194Y-65856372D01*
X207539812Y-65860642D01*
X207605944Y-66035194D01*
X207633750Y-66108588D01*
X207764714Y-66344368D01*
X207767486Y-66348000D01*
X207881608Y-66497535D01*
X207928343Y-66558773D01*
X208121208Y-66747312D01*
X208339270Y-66906034D01*
X208439031Y-66958521D01*
X208573921Y-67029490D01*
X208573927Y-67029493D01*
X208577961Y-67031615D01*
X208582266Y-67033135D01*
X208582270Y-67033137D01*
X208827967Y-67119902D01*
X208832280Y-67121425D01*
X208960032Y-67146605D01*
X209092428Y-67172700D01*
X209092434Y-67172701D01*
X209096900Y-67173581D01*
X209101453Y-67173808D01*
X209101456Y-67173808D01*
X209361708Y-67186764D01*
X209361714Y-67186764D01*
X209366277Y-67186991D01*
X209634769Y-67161375D01*
X209639203Y-67160290D01*
X209639209Y-67160289D01*
X209892312Y-67098355D01*
X209896750Y-67097269D01*
X210146733Y-66996015D01*
X210379482Y-66859735D01*
X210590119Y-66691284D01*
X210774234Y-66494191D01*
X210927968Y-66272584D01*
X211048101Y-66031106D01*
X211049523Y-66026769D01*
X211130698Y-65779147D01*
X211130699Y-65779141D01*
X211132118Y-65774814D01*
X211132919Y-65770201D01*
X211177601Y-65512860D01*
X211177602Y-65512852D01*
X211178257Y-65509079D01*
X211182500Y-65423851D01*
X211182500Y-65392512D01*
X211665500Y-65392512D01*
X211665664Y-65394777D01*
X211665665Y-65394792D01*
X211667888Y-65425422D01*
X211680047Y-65593004D01*
X211681031Y-65597459D01*
X211681031Y-65597462D01*
X211737178Y-65851769D01*
X211738194Y-65856372D01*
X211739812Y-65860642D01*
X211805944Y-66035194D01*
X211833750Y-66108588D01*
X211964714Y-66344368D01*
X211967486Y-66348000D01*
X212081608Y-66497535D01*
X212128343Y-66558773D01*
X212321208Y-66747312D01*
X212539270Y-66906034D01*
X212639031Y-66958521D01*
X212773921Y-67029490D01*
X212773927Y-67029493D01*
X212777961Y-67031615D01*
X212782266Y-67033135D01*
X212782270Y-67033137D01*
X213027967Y-67119902D01*
X213032280Y-67121425D01*
X213160032Y-67146605D01*
X213292428Y-67172700D01*
X213292434Y-67172701D01*
X213296900Y-67173581D01*
X213301453Y-67173808D01*
X213301456Y-67173808D01*
X213561708Y-67186764D01*
X213561714Y-67186764D01*
X213566277Y-67186991D01*
X213834769Y-67161375D01*
X213839203Y-67160290D01*
X213839209Y-67160289D01*
X214092312Y-67098355D01*
X214096750Y-67097269D01*
X214346733Y-66996015D01*
X214579482Y-66859735D01*
X214790119Y-66691284D01*
X214974234Y-66494191D01*
X215127968Y-66272584D01*
X215248101Y-66031106D01*
X215249523Y-66026769D01*
X215330698Y-65779147D01*
X215330699Y-65779141D01*
X215332118Y-65774814D01*
X215332919Y-65770201D01*
X215377601Y-65512860D01*
X215377602Y-65512852D01*
X215378257Y-65509079D01*
X215382500Y-65423851D01*
X215382500Y-65392512D01*
X215865500Y-65392512D01*
X215865664Y-65394777D01*
X215865665Y-65394792D01*
X215867888Y-65425422D01*
X215880047Y-65593004D01*
X215881031Y-65597459D01*
X215881031Y-65597462D01*
X215937178Y-65851769D01*
X215938194Y-65856372D01*
X215939812Y-65860642D01*
X216005944Y-66035194D01*
X216033750Y-66108588D01*
X216164714Y-66344368D01*
X216167486Y-66348000D01*
X216281608Y-66497535D01*
X216328343Y-66558773D01*
X216521208Y-66747312D01*
X216739270Y-66906034D01*
X216839031Y-66958521D01*
X216973921Y-67029490D01*
X216973927Y-67029493D01*
X216977961Y-67031615D01*
X216982266Y-67033135D01*
X216982270Y-67033137D01*
X217227967Y-67119902D01*
X217232280Y-67121425D01*
X217360032Y-67146605D01*
X217492428Y-67172700D01*
X217492434Y-67172701D01*
X217496900Y-67173581D01*
X217501453Y-67173808D01*
X217501456Y-67173808D01*
X217761708Y-67186764D01*
X217761714Y-67186764D01*
X217766277Y-67186991D01*
X218034769Y-67161375D01*
X218039203Y-67160290D01*
X218039209Y-67160289D01*
X218292312Y-67098355D01*
X218296750Y-67097269D01*
X218546733Y-66996015D01*
X218779482Y-66859735D01*
X218990119Y-66691284D01*
X219174234Y-66494191D01*
X219327968Y-66272584D01*
X219448101Y-66031106D01*
X219449523Y-66026769D01*
X219530698Y-65779147D01*
X219530699Y-65779141D01*
X219532118Y-65774814D01*
X219532919Y-65770201D01*
X219577601Y-65512860D01*
X219577602Y-65512852D01*
X219578257Y-65509079D01*
X219582500Y-65423851D01*
X219582500Y-65392512D01*
X220065500Y-65392512D01*
X220065664Y-65394777D01*
X220065665Y-65394792D01*
X220067888Y-65425422D01*
X220080047Y-65593004D01*
X220081031Y-65597459D01*
X220081031Y-65597462D01*
X220137178Y-65851769D01*
X220138194Y-65856372D01*
X220139812Y-65860642D01*
X220205944Y-66035194D01*
X220233750Y-66108588D01*
X220364714Y-66344368D01*
X220367486Y-66348000D01*
X220481608Y-66497535D01*
X220528343Y-66558773D01*
X220721208Y-66747312D01*
X220939270Y-66906034D01*
X221039031Y-66958521D01*
X221173921Y-67029490D01*
X221173927Y-67029493D01*
X221177961Y-67031615D01*
X221182266Y-67033135D01*
X221182270Y-67033137D01*
X221427967Y-67119902D01*
X221432280Y-67121425D01*
X221560032Y-67146605D01*
X221692428Y-67172700D01*
X221692434Y-67172701D01*
X221696900Y-67173581D01*
X221701453Y-67173808D01*
X221701456Y-67173808D01*
X221961708Y-67186764D01*
X221961714Y-67186764D01*
X221966277Y-67186991D01*
X222234769Y-67161375D01*
X222239203Y-67160290D01*
X222239209Y-67160289D01*
X222492312Y-67098355D01*
X222496750Y-67097269D01*
X222746733Y-66996015D01*
X222979482Y-66859735D01*
X223190119Y-66691284D01*
X223374234Y-66494191D01*
X223527968Y-66272584D01*
X223648101Y-66031106D01*
X223649523Y-66026769D01*
X223730698Y-65779147D01*
X223730699Y-65779141D01*
X223732118Y-65774814D01*
X223732919Y-65770201D01*
X223777601Y-65512860D01*
X223777602Y-65512852D01*
X223778257Y-65509079D01*
X223782500Y-65423851D01*
X223782500Y-65392512D01*
X224265500Y-65392512D01*
X224265664Y-65394777D01*
X224265665Y-65394792D01*
X224267888Y-65425422D01*
X224280047Y-65593004D01*
X224281031Y-65597459D01*
X224281031Y-65597462D01*
X224337178Y-65851769D01*
X224338194Y-65856372D01*
X224339812Y-65860642D01*
X224405944Y-66035194D01*
X224433750Y-66108588D01*
X224564714Y-66344368D01*
X224567486Y-66348000D01*
X224681608Y-66497535D01*
X224728343Y-66558773D01*
X224921208Y-66747312D01*
X225139270Y-66906034D01*
X225239031Y-66958521D01*
X225373921Y-67029490D01*
X225373927Y-67029493D01*
X225377961Y-67031615D01*
X225382266Y-67033135D01*
X225382270Y-67033137D01*
X225627967Y-67119902D01*
X225632280Y-67121425D01*
X225760032Y-67146605D01*
X225892428Y-67172700D01*
X225892434Y-67172701D01*
X225896900Y-67173581D01*
X225901453Y-67173808D01*
X225901456Y-67173808D01*
X226161708Y-67186764D01*
X226161714Y-67186764D01*
X226166277Y-67186991D01*
X226434769Y-67161375D01*
X226439203Y-67160290D01*
X226439209Y-67160289D01*
X226692312Y-67098355D01*
X226696750Y-67097269D01*
X226946733Y-66996015D01*
X227179482Y-66859735D01*
X227390119Y-66691284D01*
X227574234Y-66494191D01*
X227727968Y-66272584D01*
X227848101Y-66031106D01*
X227849523Y-66026769D01*
X227930698Y-65779147D01*
X227930699Y-65779141D01*
X227932118Y-65774814D01*
X227932919Y-65770201D01*
X227977601Y-65512860D01*
X227977602Y-65512852D01*
X227978257Y-65509079D01*
X227982500Y-65423851D01*
X227982500Y-65392512D01*
X228465500Y-65392512D01*
X228465664Y-65394777D01*
X228465665Y-65394792D01*
X228467888Y-65425422D01*
X228480047Y-65593004D01*
X228481031Y-65597459D01*
X228481031Y-65597462D01*
X228537178Y-65851769D01*
X228538194Y-65856372D01*
X228539812Y-65860642D01*
X228605944Y-66035194D01*
X228633750Y-66108588D01*
X228764714Y-66344368D01*
X228767486Y-66348000D01*
X228881608Y-66497535D01*
X228928343Y-66558773D01*
X229121208Y-66747312D01*
X229339270Y-66906034D01*
X229439031Y-66958521D01*
X229573921Y-67029490D01*
X229573927Y-67029493D01*
X229577961Y-67031615D01*
X229582266Y-67033135D01*
X229582270Y-67033137D01*
X229827967Y-67119902D01*
X229832280Y-67121425D01*
X229960032Y-67146605D01*
X230092428Y-67172700D01*
X230092434Y-67172701D01*
X230096900Y-67173581D01*
X230101453Y-67173808D01*
X230101456Y-67173808D01*
X230361708Y-67186764D01*
X230361714Y-67186764D01*
X230366277Y-67186991D01*
X230634769Y-67161375D01*
X230639203Y-67160290D01*
X230639209Y-67160289D01*
X230892312Y-67098355D01*
X230896750Y-67097269D01*
X231146733Y-66996015D01*
X231379482Y-66859735D01*
X231590119Y-66691284D01*
X231774234Y-66494191D01*
X231927968Y-66272584D01*
X232048101Y-66031106D01*
X232049523Y-66026769D01*
X232130698Y-65779147D01*
X232130699Y-65779141D01*
X232132118Y-65774814D01*
X232132919Y-65770201D01*
X232177601Y-65512860D01*
X232177602Y-65512852D01*
X232178257Y-65509079D01*
X232182500Y-65423851D01*
X232182500Y-65390206D01*
X232666000Y-65390206D01*
X232666165Y-65394777D01*
X232680213Y-65588380D01*
X232681527Y-65597389D01*
X232737689Y-65851769D01*
X232740292Y-65860499D01*
X232832586Y-66104107D01*
X232836421Y-66112368D01*
X232962915Y-66340101D01*
X232967905Y-66347726D01*
X233125946Y-66554809D01*
X233131986Y-66561636D01*
X233318264Y-66743735D01*
X233325226Y-66749618D01*
X233535843Y-66902922D01*
X233543573Y-66907733D01*
X233774122Y-67029031D01*
X233782472Y-67032678D01*
X234028099Y-67119419D01*
X234036894Y-67121825D01*
X234252225Y-67164267D01*
X234265137Y-67163088D01*
X234269939Y-67148174D01*
X234778000Y-67148174D01*
X234782251Y-67162651D01*
X234794512Y-67164714D01*
X234830133Y-67161315D01*
X234839125Y-67159795D01*
X235092158Y-67097878D01*
X235100827Y-67095078D01*
X235342282Y-66997278D01*
X235350455Y-66993256D01*
X235575253Y-66861632D01*
X235582765Y-66856469D01*
X235786213Y-66693769D01*
X235792896Y-66687580D01*
X235970733Y-66497206D01*
X235976443Y-66490129D01*
X236124934Y-66276082D01*
X236129571Y-66268241D01*
X236245604Y-66035003D01*
X236249060Y-66026578D01*
X236330212Y-65779026D01*
X236332412Y-65770201D01*
X236377103Y-65512811D01*
X236377950Y-65505193D01*
X236381922Y-65425408D01*
X236382000Y-65422267D01*
X236382000Y-65392512D01*
X236865500Y-65392512D01*
X236865664Y-65394777D01*
X236865665Y-65394792D01*
X236867888Y-65425422D01*
X236880047Y-65593004D01*
X236881031Y-65597459D01*
X236881031Y-65597462D01*
X236937178Y-65851769D01*
X236938194Y-65856372D01*
X236939812Y-65860642D01*
X237005944Y-66035194D01*
X237033750Y-66108588D01*
X237164714Y-66344368D01*
X237167486Y-66348000D01*
X237281608Y-66497535D01*
X237328343Y-66558773D01*
X237521208Y-66747312D01*
X237739270Y-66906034D01*
X237839031Y-66958521D01*
X237973921Y-67029490D01*
X237973927Y-67029493D01*
X237977961Y-67031615D01*
X237982266Y-67033135D01*
X237982270Y-67033137D01*
X238227967Y-67119902D01*
X238232280Y-67121425D01*
X238360032Y-67146605D01*
X238492428Y-67172700D01*
X238492434Y-67172701D01*
X238496900Y-67173581D01*
X238501453Y-67173808D01*
X238501456Y-67173808D01*
X238761708Y-67186764D01*
X238761714Y-67186764D01*
X238766277Y-67186991D01*
X239034769Y-67161375D01*
X239039203Y-67160290D01*
X239039209Y-67160289D01*
X239292312Y-67098355D01*
X239296750Y-67097269D01*
X239546733Y-66996015D01*
X239779482Y-66859735D01*
X239990119Y-66691284D01*
X240174234Y-66494191D01*
X240327968Y-66272584D01*
X240448101Y-66031106D01*
X240449523Y-66026769D01*
X240530698Y-65779147D01*
X240530699Y-65779141D01*
X240532118Y-65774814D01*
X240532919Y-65770201D01*
X240577601Y-65512860D01*
X240577602Y-65512852D01*
X240578257Y-65509079D01*
X240582500Y-65423851D01*
X240582500Y-65390206D01*
X241066000Y-65390206D01*
X241066165Y-65394777D01*
X241080213Y-65588380D01*
X241081527Y-65597389D01*
X241137689Y-65851769D01*
X241140292Y-65860499D01*
X241232586Y-66104107D01*
X241236421Y-66112368D01*
X241362915Y-66340101D01*
X241367905Y-66347726D01*
X241525946Y-66554809D01*
X241531986Y-66561636D01*
X241718264Y-66743735D01*
X241725226Y-66749618D01*
X241935843Y-66902922D01*
X241943573Y-66907733D01*
X242174122Y-67029031D01*
X242182472Y-67032678D01*
X242428099Y-67119419D01*
X242436894Y-67121825D01*
X242652225Y-67164267D01*
X242665137Y-67163088D01*
X242669939Y-67148174D01*
X243178000Y-67148174D01*
X243182251Y-67162651D01*
X243194512Y-67164714D01*
X243230133Y-67161315D01*
X243239125Y-67159795D01*
X243492158Y-67097878D01*
X243500827Y-67095078D01*
X243742282Y-66997278D01*
X243750455Y-66993256D01*
X243975253Y-66861632D01*
X243982765Y-66856469D01*
X244186213Y-66693769D01*
X244192896Y-66687580D01*
X244370733Y-66497206D01*
X244376443Y-66490129D01*
X244524934Y-66276082D01*
X244529571Y-66268241D01*
X244645604Y-66035003D01*
X244649060Y-66026578D01*
X244730212Y-65779026D01*
X244732412Y-65770201D01*
X244777103Y-65512811D01*
X244777950Y-65505193D01*
X244781922Y-65425408D01*
X244782000Y-65422267D01*
X244782000Y-65392512D01*
X245265500Y-65392512D01*
X245265664Y-65394777D01*
X245265665Y-65394792D01*
X245267888Y-65425422D01*
X245280047Y-65593004D01*
X245281031Y-65597459D01*
X245281031Y-65597462D01*
X245337178Y-65851769D01*
X245338194Y-65856372D01*
X245339812Y-65860642D01*
X245405944Y-66035194D01*
X245433750Y-66108588D01*
X245564714Y-66344368D01*
X245567486Y-66348000D01*
X245681608Y-66497535D01*
X245728343Y-66558773D01*
X245921208Y-66747312D01*
X246139270Y-66906034D01*
X246239031Y-66958521D01*
X246373921Y-67029490D01*
X246373927Y-67029493D01*
X246377961Y-67031615D01*
X246382266Y-67033135D01*
X246382270Y-67033137D01*
X246627967Y-67119902D01*
X246632280Y-67121425D01*
X246760032Y-67146605D01*
X246892428Y-67172700D01*
X246892434Y-67172701D01*
X246896900Y-67173581D01*
X246901453Y-67173808D01*
X246901456Y-67173808D01*
X247161708Y-67186764D01*
X247161714Y-67186764D01*
X247166277Y-67186991D01*
X247434769Y-67161375D01*
X247439203Y-67160290D01*
X247439209Y-67160289D01*
X247692312Y-67098355D01*
X247696750Y-67097269D01*
X247946733Y-66996015D01*
X248179482Y-66859735D01*
X248390119Y-66691284D01*
X248574234Y-66494191D01*
X248727968Y-66272584D01*
X248848101Y-66031106D01*
X248849523Y-66026769D01*
X248930698Y-65779147D01*
X248930699Y-65779141D01*
X248932118Y-65774814D01*
X248932919Y-65770201D01*
X248977601Y-65512860D01*
X248977602Y-65512852D01*
X248978257Y-65509079D01*
X248982500Y-65423851D01*
X248982500Y-65392512D01*
X249465500Y-65392512D01*
X249465664Y-65394777D01*
X249465665Y-65394792D01*
X249467888Y-65425422D01*
X249480047Y-65593004D01*
X249481031Y-65597459D01*
X249481031Y-65597462D01*
X249537178Y-65851769D01*
X249538194Y-65856372D01*
X249539812Y-65860642D01*
X249605944Y-66035194D01*
X249633750Y-66108588D01*
X249764714Y-66344368D01*
X249767486Y-66348000D01*
X249881608Y-66497535D01*
X249928343Y-66558773D01*
X250121208Y-66747312D01*
X250339270Y-66906034D01*
X250439031Y-66958521D01*
X250573921Y-67029490D01*
X250573927Y-67029493D01*
X250577961Y-67031615D01*
X250582266Y-67033135D01*
X250582270Y-67033137D01*
X250827967Y-67119902D01*
X250832280Y-67121425D01*
X250960032Y-67146605D01*
X251092428Y-67172700D01*
X251092434Y-67172701D01*
X251096900Y-67173581D01*
X251101453Y-67173808D01*
X251101456Y-67173808D01*
X251361708Y-67186764D01*
X251361714Y-67186764D01*
X251366277Y-67186991D01*
X251634769Y-67161375D01*
X251639203Y-67160290D01*
X251639209Y-67160289D01*
X251892312Y-67098355D01*
X251896750Y-67097269D01*
X252146733Y-66996015D01*
X252379482Y-66859735D01*
X252590119Y-66691284D01*
X252774234Y-66494191D01*
X252927968Y-66272584D01*
X253048101Y-66031106D01*
X253049523Y-66026769D01*
X253130698Y-65779147D01*
X253130699Y-65779141D01*
X253132118Y-65774814D01*
X253132919Y-65770201D01*
X253177601Y-65512860D01*
X253177602Y-65512852D01*
X253178257Y-65509079D01*
X253182500Y-65423851D01*
X253182500Y-64655488D01*
X253180114Y-64622592D01*
X253172823Y-64522116D01*
X253167953Y-64454996D01*
X253128831Y-64277799D01*
X253110791Y-64196088D01*
X253110790Y-64196084D01*
X253109806Y-64191628D01*
X253045321Y-64021422D01*
X253015868Y-63943682D01*
X253015867Y-63943679D01*
X253014250Y-63939412D01*
X252883286Y-63703632D01*
X252772045Y-63557871D01*
X252722429Y-63492859D01*
X252722428Y-63492858D01*
X252719657Y-63489227D01*
X252693327Y-63463487D01*
X252623225Y-63394958D01*
X252526792Y-63300688D01*
X252308730Y-63141966D01*
X252142948Y-63054744D01*
X252074079Y-63018510D01*
X252074073Y-63018507D01*
X252070039Y-63016385D01*
X252065734Y-63014865D01*
X252065730Y-63014863D01*
X251820033Y-62928098D01*
X251820032Y-62928098D01*
X251815720Y-62926575D01*
X251680006Y-62899826D01*
X251555572Y-62875300D01*
X251555566Y-62875299D01*
X251551100Y-62874419D01*
X251546547Y-62874192D01*
X251546544Y-62874192D01*
X251286292Y-62861236D01*
X251286286Y-62861236D01*
X251281723Y-62861009D01*
X251013231Y-62886625D01*
X251008797Y-62887710D01*
X251008791Y-62887711D01*
X250835035Y-62930229D01*
X250751250Y-62950731D01*
X250501267Y-63051985D01*
X250268518Y-63188265D01*
X250057881Y-63356716D01*
X249873766Y-63553809D01*
X249720032Y-63775416D01*
X249599899Y-64016894D01*
X249598478Y-64021228D01*
X249598477Y-64021231D01*
X249598415Y-64021422D01*
X249515882Y-64273186D01*
X249515102Y-64277677D01*
X249515102Y-64277678D01*
X249483525Y-64459547D01*
X249469743Y-64538921D01*
X249465500Y-64624149D01*
X249465500Y-65392512D01*
X248982500Y-65392512D01*
X248982500Y-64655488D01*
X248980114Y-64622592D01*
X248972823Y-64522116D01*
X248967953Y-64454996D01*
X248928831Y-64277799D01*
X248910791Y-64196088D01*
X248910790Y-64196084D01*
X248909806Y-64191628D01*
X248845321Y-64021422D01*
X248815868Y-63943682D01*
X248815867Y-63943679D01*
X248814250Y-63939412D01*
X248683286Y-63703632D01*
X248572045Y-63557871D01*
X248522429Y-63492859D01*
X248522428Y-63492858D01*
X248519657Y-63489227D01*
X248493327Y-63463487D01*
X248423225Y-63394958D01*
X248326792Y-63300688D01*
X248108730Y-63141966D01*
X247942948Y-63054744D01*
X247874079Y-63018510D01*
X247874073Y-63018507D01*
X247870039Y-63016385D01*
X247865734Y-63014865D01*
X247865730Y-63014863D01*
X247620033Y-62928098D01*
X247620032Y-62928098D01*
X247615720Y-62926575D01*
X247480006Y-62899826D01*
X247355572Y-62875300D01*
X247355566Y-62875299D01*
X247351100Y-62874419D01*
X247346547Y-62874192D01*
X247346544Y-62874192D01*
X247086292Y-62861236D01*
X247086286Y-62861236D01*
X247081723Y-62861009D01*
X246813231Y-62886625D01*
X246808797Y-62887710D01*
X246808791Y-62887711D01*
X246635035Y-62930229D01*
X246551250Y-62950731D01*
X246301267Y-63051985D01*
X246068518Y-63188265D01*
X245857881Y-63356716D01*
X245673766Y-63553809D01*
X245520032Y-63775416D01*
X245399899Y-64016894D01*
X245398478Y-64021228D01*
X245398477Y-64021231D01*
X245398415Y-64021422D01*
X245315882Y-64273186D01*
X245315102Y-64277677D01*
X245315102Y-64277678D01*
X245283525Y-64459547D01*
X245269743Y-64538921D01*
X245265500Y-64624149D01*
X245265500Y-65392512D01*
X244782000Y-65392512D01*
X244782000Y-65296115D01*
X244777525Y-65280876D01*
X244776135Y-65279671D01*
X244768452Y-65278000D01*
X243196115Y-65278000D01*
X243180876Y-65282475D01*
X243179671Y-65283865D01*
X243178000Y-65291548D01*
X243178000Y-67148174D01*
X242669939Y-67148174D01*
X242670000Y-67147985D01*
X242670000Y-65296115D01*
X242665525Y-65280876D01*
X242664135Y-65279671D01*
X242656452Y-65278000D01*
X241084115Y-65278000D01*
X241068876Y-65282475D01*
X241067671Y-65283865D01*
X241066000Y-65291548D01*
X241066000Y-65390206D01*
X240582500Y-65390206D01*
X240582500Y-64751885D01*
X241066000Y-64751885D01*
X241070475Y-64767124D01*
X241071865Y-64768329D01*
X241079548Y-64770000D01*
X242651885Y-64770000D01*
X242667124Y-64765525D01*
X242668329Y-64764135D01*
X242670000Y-64756452D01*
X242670000Y-64751885D01*
X243178000Y-64751885D01*
X243182475Y-64767124D01*
X243183865Y-64768329D01*
X243191548Y-64770000D01*
X244763885Y-64770000D01*
X244779124Y-64765525D01*
X244780329Y-64764135D01*
X244782000Y-64756452D01*
X244782000Y-64657794D01*
X244781835Y-64653223D01*
X244767787Y-64459620D01*
X244766473Y-64450611D01*
X244710311Y-64196231D01*
X244707708Y-64187501D01*
X244615414Y-63943893D01*
X244611579Y-63935632D01*
X244485085Y-63707899D01*
X244480095Y-63700274D01*
X244322054Y-63493191D01*
X244316014Y-63486364D01*
X244129736Y-63304265D01*
X244122774Y-63298382D01*
X243912157Y-63145078D01*
X243904427Y-63140267D01*
X243673878Y-63018969D01*
X243665528Y-63015322D01*
X243419901Y-62928581D01*
X243411106Y-62926175D01*
X243195775Y-62883733D01*
X243182863Y-62884912D01*
X243178000Y-62900015D01*
X243178000Y-64751885D01*
X242670000Y-64751885D01*
X242670000Y-62899826D01*
X242665749Y-62885349D01*
X242653488Y-62883286D01*
X242617867Y-62886685D01*
X242608875Y-62888205D01*
X242355842Y-62950122D01*
X242347173Y-62952922D01*
X242105718Y-63050722D01*
X242097545Y-63054744D01*
X241872747Y-63186368D01*
X241865235Y-63191531D01*
X241661787Y-63354231D01*
X241655104Y-63360420D01*
X241477267Y-63550794D01*
X241471557Y-63557871D01*
X241323066Y-63771918D01*
X241318429Y-63779759D01*
X241202396Y-64012997D01*
X241198940Y-64021422D01*
X241117788Y-64268974D01*
X241115588Y-64277799D01*
X241070897Y-64535189D01*
X241070050Y-64542807D01*
X241066078Y-64622592D01*
X241066000Y-64625733D01*
X241066000Y-64751885D01*
X240582500Y-64751885D01*
X240582500Y-64655488D01*
X240580114Y-64622592D01*
X240572823Y-64522116D01*
X240567953Y-64454996D01*
X240528831Y-64277799D01*
X240510791Y-64196088D01*
X240510790Y-64196084D01*
X240509806Y-64191628D01*
X240445321Y-64021422D01*
X240415868Y-63943682D01*
X240415867Y-63943679D01*
X240414250Y-63939412D01*
X240283286Y-63703632D01*
X240172045Y-63557871D01*
X240122429Y-63492859D01*
X240122428Y-63492858D01*
X240119657Y-63489227D01*
X240093327Y-63463487D01*
X240023225Y-63394958D01*
X239926792Y-63300688D01*
X239708730Y-63141966D01*
X239542948Y-63054744D01*
X239474079Y-63018510D01*
X239474073Y-63018507D01*
X239470039Y-63016385D01*
X239465734Y-63014865D01*
X239465730Y-63014863D01*
X239220033Y-62928098D01*
X239220032Y-62928098D01*
X239215720Y-62926575D01*
X239080006Y-62899826D01*
X238955572Y-62875300D01*
X238955566Y-62875299D01*
X238951100Y-62874419D01*
X238946547Y-62874192D01*
X238946544Y-62874192D01*
X238686292Y-62861236D01*
X238686286Y-62861236D01*
X238681723Y-62861009D01*
X238413231Y-62886625D01*
X238408797Y-62887710D01*
X238408791Y-62887711D01*
X238235035Y-62930229D01*
X238151250Y-62950731D01*
X237901267Y-63051985D01*
X237668518Y-63188265D01*
X237457881Y-63356716D01*
X237273766Y-63553809D01*
X237120032Y-63775416D01*
X236999899Y-64016894D01*
X236998478Y-64021228D01*
X236998477Y-64021231D01*
X236998415Y-64021422D01*
X236915882Y-64273186D01*
X236915102Y-64277677D01*
X236915102Y-64277678D01*
X236883525Y-64459547D01*
X236869743Y-64538921D01*
X236865500Y-64624149D01*
X236865500Y-65392512D01*
X236382000Y-65392512D01*
X236382000Y-65296115D01*
X236377525Y-65280876D01*
X236376135Y-65279671D01*
X236368452Y-65278000D01*
X234796115Y-65278000D01*
X234780876Y-65282475D01*
X234779671Y-65283865D01*
X234778000Y-65291548D01*
X234778000Y-67148174D01*
X234269939Y-67148174D01*
X234270000Y-67147985D01*
X234270000Y-65296115D01*
X234265525Y-65280876D01*
X234264135Y-65279671D01*
X234256452Y-65278000D01*
X232684115Y-65278000D01*
X232668876Y-65282475D01*
X232667671Y-65283865D01*
X232666000Y-65291548D01*
X232666000Y-65390206D01*
X232182500Y-65390206D01*
X232182500Y-64751885D01*
X232666000Y-64751885D01*
X232670475Y-64767124D01*
X232671865Y-64768329D01*
X232679548Y-64770000D01*
X234251885Y-64770000D01*
X234267124Y-64765525D01*
X234268329Y-64764135D01*
X234270000Y-64756452D01*
X234270000Y-64751885D01*
X234778000Y-64751885D01*
X234782475Y-64767124D01*
X234783865Y-64768329D01*
X234791548Y-64770000D01*
X236363885Y-64770000D01*
X236379124Y-64765525D01*
X236380329Y-64764135D01*
X236382000Y-64756452D01*
X236382000Y-64657794D01*
X236381835Y-64653223D01*
X236367787Y-64459620D01*
X236366473Y-64450611D01*
X236310311Y-64196231D01*
X236307708Y-64187501D01*
X236215414Y-63943893D01*
X236211579Y-63935632D01*
X236085085Y-63707899D01*
X236080095Y-63700274D01*
X235922054Y-63493191D01*
X235916014Y-63486364D01*
X235729736Y-63304265D01*
X235722774Y-63298382D01*
X235512157Y-63145078D01*
X235504427Y-63140267D01*
X235273878Y-63018969D01*
X235265528Y-63015322D01*
X235019901Y-62928581D01*
X235011106Y-62926175D01*
X234795775Y-62883733D01*
X234782863Y-62884912D01*
X234778000Y-62900015D01*
X234778000Y-64751885D01*
X234270000Y-64751885D01*
X234270000Y-62899826D01*
X234265749Y-62885349D01*
X234253488Y-62883286D01*
X234217867Y-62886685D01*
X234208875Y-62888205D01*
X233955842Y-62950122D01*
X233947173Y-62952922D01*
X233705718Y-63050722D01*
X233697545Y-63054744D01*
X233472747Y-63186368D01*
X233465235Y-63191531D01*
X233261787Y-63354231D01*
X233255104Y-63360420D01*
X233077267Y-63550794D01*
X233071557Y-63557871D01*
X232923066Y-63771918D01*
X232918429Y-63779759D01*
X232802396Y-64012997D01*
X232798940Y-64021422D01*
X232717788Y-64268974D01*
X232715588Y-64277799D01*
X232670897Y-64535189D01*
X232670050Y-64542807D01*
X232666078Y-64622592D01*
X232666000Y-64625733D01*
X232666000Y-64751885D01*
X232182500Y-64751885D01*
X232182500Y-64655488D01*
X232180114Y-64622592D01*
X232172823Y-64522116D01*
X232167953Y-64454996D01*
X232128831Y-64277799D01*
X232110791Y-64196088D01*
X232110790Y-64196084D01*
X232109806Y-64191628D01*
X232045321Y-64021422D01*
X232015868Y-63943682D01*
X232015867Y-63943679D01*
X232014250Y-63939412D01*
X231883286Y-63703632D01*
X231772045Y-63557871D01*
X231722429Y-63492859D01*
X231722428Y-63492858D01*
X231719657Y-63489227D01*
X231693327Y-63463487D01*
X231623225Y-63394958D01*
X231526792Y-63300688D01*
X231308730Y-63141966D01*
X231142948Y-63054744D01*
X231074079Y-63018510D01*
X231074073Y-63018507D01*
X231070039Y-63016385D01*
X231065734Y-63014865D01*
X231065730Y-63014863D01*
X230820033Y-62928098D01*
X230820032Y-62928098D01*
X230815720Y-62926575D01*
X230680006Y-62899826D01*
X230555572Y-62875300D01*
X230555566Y-62875299D01*
X230551100Y-62874419D01*
X230546547Y-62874192D01*
X230546544Y-62874192D01*
X230286292Y-62861236D01*
X230286286Y-62861236D01*
X230281723Y-62861009D01*
X230013231Y-62886625D01*
X230008797Y-62887710D01*
X230008791Y-62887711D01*
X229835035Y-62930229D01*
X229751250Y-62950731D01*
X229501267Y-63051985D01*
X229268518Y-63188265D01*
X229057881Y-63356716D01*
X228873766Y-63553809D01*
X228720032Y-63775416D01*
X228599899Y-64016894D01*
X228598478Y-64021228D01*
X228598477Y-64021231D01*
X228598415Y-64021422D01*
X228515882Y-64273186D01*
X228515102Y-64277677D01*
X228515102Y-64277678D01*
X228483525Y-64459547D01*
X228469743Y-64538921D01*
X228465500Y-64624149D01*
X228465500Y-65392512D01*
X227982500Y-65392512D01*
X227982500Y-64655488D01*
X227980114Y-64622592D01*
X227972823Y-64522116D01*
X227967953Y-64454996D01*
X227928831Y-64277799D01*
X227910791Y-64196088D01*
X227910790Y-64196084D01*
X227909806Y-64191628D01*
X227845321Y-64021422D01*
X227815868Y-63943682D01*
X227815867Y-63943679D01*
X227814250Y-63939412D01*
X227683286Y-63703632D01*
X227572045Y-63557871D01*
X227522429Y-63492859D01*
X227522428Y-63492858D01*
X227519657Y-63489227D01*
X227493327Y-63463487D01*
X227423225Y-63394958D01*
X227326792Y-63300688D01*
X227108730Y-63141966D01*
X226942948Y-63054744D01*
X226874079Y-63018510D01*
X226874073Y-63018507D01*
X226870039Y-63016385D01*
X226865734Y-63014865D01*
X226865730Y-63014863D01*
X226620033Y-62928098D01*
X226620032Y-62928098D01*
X226615720Y-62926575D01*
X226480006Y-62899826D01*
X226355572Y-62875300D01*
X226355566Y-62875299D01*
X226351100Y-62874419D01*
X226346547Y-62874192D01*
X226346544Y-62874192D01*
X226086292Y-62861236D01*
X226086286Y-62861236D01*
X226081723Y-62861009D01*
X225813231Y-62886625D01*
X225808797Y-62887710D01*
X225808791Y-62887711D01*
X225635035Y-62930229D01*
X225551250Y-62950731D01*
X225301267Y-63051985D01*
X225068518Y-63188265D01*
X224857881Y-63356716D01*
X224673766Y-63553809D01*
X224520032Y-63775416D01*
X224399899Y-64016894D01*
X224398478Y-64021228D01*
X224398477Y-64021231D01*
X224398415Y-64021422D01*
X224315882Y-64273186D01*
X224315102Y-64277677D01*
X224315102Y-64277678D01*
X224283525Y-64459547D01*
X224269743Y-64538921D01*
X224265500Y-64624149D01*
X224265500Y-65392512D01*
X223782500Y-65392512D01*
X223782500Y-64655488D01*
X223780114Y-64622592D01*
X223772823Y-64522116D01*
X223767953Y-64454996D01*
X223728831Y-64277799D01*
X223710791Y-64196088D01*
X223710790Y-64196084D01*
X223709806Y-64191628D01*
X223645321Y-64021422D01*
X223615868Y-63943682D01*
X223615867Y-63943679D01*
X223614250Y-63939412D01*
X223483286Y-63703632D01*
X223372045Y-63557871D01*
X223322429Y-63492859D01*
X223322428Y-63492858D01*
X223319657Y-63489227D01*
X223293327Y-63463487D01*
X223223225Y-63394958D01*
X223126792Y-63300688D01*
X222908730Y-63141966D01*
X222742948Y-63054744D01*
X222674079Y-63018510D01*
X222674073Y-63018507D01*
X222670039Y-63016385D01*
X222665734Y-63014865D01*
X222665730Y-63014863D01*
X222420033Y-62928098D01*
X222420032Y-62928098D01*
X222415720Y-62926575D01*
X222280006Y-62899826D01*
X222155572Y-62875300D01*
X222155566Y-62875299D01*
X222151100Y-62874419D01*
X222146547Y-62874192D01*
X222146544Y-62874192D01*
X221886292Y-62861236D01*
X221886286Y-62861236D01*
X221881723Y-62861009D01*
X221613231Y-62886625D01*
X221608797Y-62887710D01*
X221608791Y-62887711D01*
X221435035Y-62930229D01*
X221351250Y-62950731D01*
X221101267Y-63051985D01*
X220868518Y-63188265D01*
X220657881Y-63356716D01*
X220473766Y-63553809D01*
X220320032Y-63775416D01*
X220199899Y-64016894D01*
X220198478Y-64021228D01*
X220198477Y-64021231D01*
X220198415Y-64021422D01*
X220115882Y-64273186D01*
X220115102Y-64277677D01*
X220115102Y-64277678D01*
X220083525Y-64459547D01*
X220069743Y-64538921D01*
X220065500Y-64624149D01*
X220065500Y-65392512D01*
X219582500Y-65392512D01*
X219582500Y-64655488D01*
X219580114Y-64622592D01*
X219572823Y-64522116D01*
X219567953Y-64454996D01*
X219528831Y-64277799D01*
X219510791Y-64196088D01*
X219510790Y-64196084D01*
X219509806Y-64191628D01*
X219445321Y-64021422D01*
X219415868Y-63943682D01*
X219415867Y-63943679D01*
X219414250Y-63939412D01*
X219283286Y-63703632D01*
X219172045Y-63557871D01*
X219122429Y-63492859D01*
X219122428Y-63492858D01*
X219119657Y-63489227D01*
X219093327Y-63463487D01*
X219023225Y-63394958D01*
X218926792Y-63300688D01*
X218708730Y-63141966D01*
X218542948Y-63054744D01*
X218474079Y-63018510D01*
X218474073Y-63018507D01*
X218470039Y-63016385D01*
X218465734Y-63014865D01*
X218465730Y-63014863D01*
X218220033Y-62928098D01*
X218220032Y-62928098D01*
X218215720Y-62926575D01*
X218080006Y-62899826D01*
X217955572Y-62875300D01*
X217955566Y-62875299D01*
X217951100Y-62874419D01*
X217946547Y-62874192D01*
X217946544Y-62874192D01*
X217686292Y-62861236D01*
X217686286Y-62861236D01*
X217681723Y-62861009D01*
X217413231Y-62886625D01*
X217408797Y-62887710D01*
X217408791Y-62887711D01*
X217235035Y-62930229D01*
X217151250Y-62950731D01*
X216901267Y-63051985D01*
X216668518Y-63188265D01*
X216457881Y-63356716D01*
X216273766Y-63553809D01*
X216120032Y-63775416D01*
X215999899Y-64016894D01*
X215998478Y-64021228D01*
X215998477Y-64021231D01*
X215998415Y-64021422D01*
X215915882Y-64273186D01*
X215915102Y-64277677D01*
X215915102Y-64277678D01*
X215883525Y-64459547D01*
X215869743Y-64538921D01*
X215865500Y-64624149D01*
X215865500Y-65392512D01*
X215382500Y-65392512D01*
X215382500Y-64655488D01*
X215380114Y-64622592D01*
X215372823Y-64522116D01*
X215367953Y-64454996D01*
X215328831Y-64277799D01*
X215310791Y-64196088D01*
X215310790Y-64196084D01*
X215309806Y-64191628D01*
X215245321Y-64021422D01*
X215215868Y-63943682D01*
X215215867Y-63943679D01*
X215214250Y-63939412D01*
X215083286Y-63703632D01*
X214972045Y-63557871D01*
X214922429Y-63492859D01*
X214922428Y-63492858D01*
X214919657Y-63489227D01*
X214893327Y-63463487D01*
X214823225Y-63394958D01*
X214726792Y-63300688D01*
X214508730Y-63141966D01*
X214342948Y-63054744D01*
X214274079Y-63018510D01*
X214274073Y-63018507D01*
X214270039Y-63016385D01*
X214265734Y-63014865D01*
X214265730Y-63014863D01*
X214020033Y-62928098D01*
X214020032Y-62928098D01*
X214015720Y-62926575D01*
X213880006Y-62899826D01*
X213755572Y-62875300D01*
X213755566Y-62875299D01*
X213751100Y-62874419D01*
X213746547Y-62874192D01*
X213746544Y-62874192D01*
X213486292Y-62861236D01*
X213486286Y-62861236D01*
X213481723Y-62861009D01*
X213213231Y-62886625D01*
X213208797Y-62887710D01*
X213208791Y-62887711D01*
X213035035Y-62930229D01*
X212951250Y-62950731D01*
X212701267Y-63051985D01*
X212468518Y-63188265D01*
X212257881Y-63356716D01*
X212073766Y-63553809D01*
X211920032Y-63775416D01*
X211799899Y-64016894D01*
X211798478Y-64021228D01*
X211798477Y-64021231D01*
X211798415Y-64021422D01*
X211715882Y-64273186D01*
X211715102Y-64277677D01*
X211715102Y-64277678D01*
X211683525Y-64459547D01*
X211669743Y-64538921D01*
X211665500Y-64624149D01*
X211665500Y-65392512D01*
X211182500Y-65392512D01*
X211182500Y-64655488D01*
X211180114Y-64622592D01*
X211172823Y-64522116D01*
X211167953Y-64454996D01*
X211128831Y-64277799D01*
X211110791Y-64196088D01*
X211110790Y-64196084D01*
X211109806Y-64191628D01*
X211045321Y-64021422D01*
X211015868Y-63943682D01*
X211015867Y-63943679D01*
X211014250Y-63939412D01*
X210883286Y-63703632D01*
X210772045Y-63557871D01*
X210722429Y-63492859D01*
X210722428Y-63492858D01*
X210719657Y-63489227D01*
X210693327Y-63463487D01*
X210623225Y-63394958D01*
X210526792Y-63300688D01*
X210308730Y-63141966D01*
X210142948Y-63054744D01*
X210074079Y-63018510D01*
X210074073Y-63018507D01*
X210070039Y-63016385D01*
X210065734Y-63014865D01*
X210065730Y-63014863D01*
X209820033Y-62928098D01*
X209820032Y-62928098D01*
X209815720Y-62926575D01*
X209680006Y-62899826D01*
X209555572Y-62875300D01*
X209555566Y-62875299D01*
X209551100Y-62874419D01*
X209546547Y-62874192D01*
X209546544Y-62874192D01*
X209286292Y-62861236D01*
X209286286Y-62861236D01*
X209281723Y-62861009D01*
X209013231Y-62886625D01*
X209008797Y-62887710D01*
X209008791Y-62887711D01*
X208835035Y-62930229D01*
X208751250Y-62950731D01*
X208501267Y-63051985D01*
X208268518Y-63188265D01*
X208057881Y-63356716D01*
X207873766Y-63553809D01*
X207720032Y-63775416D01*
X207599899Y-64016894D01*
X207598478Y-64021228D01*
X207598477Y-64021231D01*
X207598415Y-64021422D01*
X207515882Y-64273186D01*
X207515102Y-64277677D01*
X207515102Y-64277678D01*
X207483525Y-64459547D01*
X207469743Y-64538921D01*
X207465500Y-64624149D01*
X207465500Y-65392512D01*
X205458000Y-65392512D01*
X205458000Y-59892512D01*
X207465500Y-59892512D01*
X207465664Y-59894777D01*
X207465665Y-59894792D01*
X207467888Y-59925422D01*
X207480047Y-60093004D01*
X207481031Y-60097459D01*
X207481031Y-60097462D01*
X207537178Y-60351769D01*
X207538194Y-60356372D01*
X207539812Y-60360642D01*
X207605944Y-60535194D01*
X207633750Y-60608588D01*
X207764714Y-60844368D01*
X207767486Y-60848000D01*
X207881608Y-60997535D01*
X207928343Y-61058773D01*
X208121208Y-61247312D01*
X208339270Y-61406034D01*
X208439031Y-61458521D01*
X208573921Y-61529490D01*
X208573927Y-61529493D01*
X208577961Y-61531615D01*
X208582266Y-61533135D01*
X208582270Y-61533137D01*
X208827967Y-61619902D01*
X208832280Y-61621425D01*
X208960032Y-61646605D01*
X209092428Y-61672700D01*
X209092434Y-61672701D01*
X209096900Y-61673581D01*
X209101453Y-61673808D01*
X209101456Y-61673808D01*
X209361708Y-61686764D01*
X209361714Y-61686764D01*
X209366277Y-61686991D01*
X209634769Y-61661375D01*
X209639203Y-61660290D01*
X209639209Y-61660289D01*
X209892312Y-61598355D01*
X209896750Y-61597269D01*
X210146733Y-61496015D01*
X210379482Y-61359735D01*
X210590119Y-61191284D01*
X210774234Y-60994191D01*
X210927968Y-60772584D01*
X211048101Y-60531106D01*
X211049523Y-60526769D01*
X211130698Y-60279147D01*
X211130699Y-60279141D01*
X211132118Y-60274814D01*
X211132919Y-60270201D01*
X211177601Y-60012860D01*
X211177602Y-60012852D01*
X211178257Y-60009079D01*
X211182500Y-59923851D01*
X211182500Y-59890206D01*
X211666000Y-59890206D01*
X211666165Y-59894777D01*
X211680213Y-60088380D01*
X211681527Y-60097389D01*
X211737689Y-60351769D01*
X211740292Y-60360499D01*
X211832586Y-60604107D01*
X211836421Y-60612368D01*
X211962915Y-60840101D01*
X211967905Y-60847726D01*
X212125946Y-61054809D01*
X212131986Y-61061636D01*
X212318264Y-61243735D01*
X212325226Y-61249618D01*
X212535843Y-61402922D01*
X212543573Y-61407733D01*
X212774122Y-61529031D01*
X212782472Y-61532678D01*
X213028099Y-61619419D01*
X213036894Y-61621825D01*
X213252225Y-61664267D01*
X213265137Y-61663088D01*
X213269939Y-61648174D01*
X213778000Y-61648174D01*
X213782251Y-61662651D01*
X213794512Y-61664714D01*
X213830133Y-61661315D01*
X213839125Y-61659795D01*
X214092158Y-61597878D01*
X214100827Y-61595078D01*
X214342282Y-61497278D01*
X214350455Y-61493256D01*
X214575253Y-61361632D01*
X214582765Y-61356469D01*
X214786213Y-61193769D01*
X214792896Y-61187580D01*
X214970733Y-60997206D01*
X214976443Y-60990129D01*
X215124934Y-60776082D01*
X215129571Y-60768241D01*
X215245604Y-60535003D01*
X215249060Y-60526578D01*
X215330212Y-60279026D01*
X215332412Y-60270201D01*
X215377103Y-60012811D01*
X215377950Y-60005193D01*
X215381922Y-59925408D01*
X215382000Y-59922267D01*
X215382000Y-59890206D01*
X215866000Y-59890206D01*
X215866165Y-59894777D01*
X215880213Y-60088380D01*
X215881527Y-60097389D01*
X215937689Y-60351769D01*
X215940292Y-60360499D01*
X216032586Y-60604107D01*
X216036421Y-60612368D01*
X216162915Y-60840101D01*
X216167905Y-60847726D01*
X216325946Y-61054809D01*
X216331986Y-61061636D01*
X216518264Y-61243735D01*
X216525226Y-61249618D01*
X216735843Y-61402922D01*
X216743573Y-61407733D01*
X216974122Y-61529031D01*
X216982472Y-61532678D01*
X217228099Y-61619419D01*
X217236894Y-61621825D01*
X217452225Y-61664267D01*
X217465137Y-61663088D01*
X217469939Y-61648174D01*
X217978000Y-61648174D01*
X217982251Y-61662651D01*
X217994512Y-61664714D01*
X218030133Y-61661315D01*
X218039125Y-61659795D01*
X218292158Y-61597878D01*
X218300827Y-61595078D01*
X218542282Y-61497278D01*
X218550455Y-61493256D01*
X218775253Y-61361632D01*
X218782765Y-61356469D01*
X218986213Y-61193769D01*
X218992896Y-61187580D01*
X219170733Y-60997206D01*
X219176443Y-60990129D01*
X219324934Y-60776082D01*
X219329571Y-60768241D01*
X219445604Y-60535003D01*
X219449060Y-60526578D01*
X219530212Y-60279026D01*
X219532412Y-60270201D01*
X219577103Y-60012811D01*
X219577950Y-60005193D01*
X219581922Y-59925408D01*
X219582000Y-59922267D01*
X219582000Y-59890206D01*
X220066000Y-59890206D01*
X220066165Y-59894777D01*
X220080213Y-60088380D01*
X220081527Y-60097389D01*
X220137689Y-60351769D01*
X220140292Y-60360499D01*
X220232586Y-60604107D01*
X220236421Y-60612368D01*
X220362915Y-60840101D01*
X220367905Y-60847726D01*
X220525946Y-61054809D01*
X220531986Y-61061636D01*
X220718264Y-61243735D01*
X220725226Y-61249618D01*
X220935843Y-61402922D01*
X220943573Y-61407733D01*
X221174122Y-61529031D01*
X221182472Y-61532678D01*
X221428099Y-61619419D01*
X221436894Y-61621825D01*
X221652225Y-61664267D01*
X221665137Y-61663088D01*
X221669939Y-61648174D01*
X222178000Y-61648174D01*
X222182251Y-61662651D01*
X222194512Y-61664714D01*
X222230133Y-61661315D01*
X222239125Y-61659795D01*
X222492158Y-61597878D01*
X222500827Y-61595078D01*
X222742282Y-61497278D01*
X222750455Y-61493256D01*
X222975253Y-61361632D01*
X222982765Y-61356469D01*
X223186213Y-61193769D01*
X223192896Y-61187580D01*
X223370733Y-60997206D01*
X223376443Y-60990129D01*
X223524934Y-60776082D01*
X223529571Y-60768241D01*
X223645604Y-60535003D01*
X223649060Y-60526578D01*
X223730212Y-60279026D01*
X223732412Y-60270201D01*
X223777103Y-60012811D01*
X223777950Y-60005193D01*
X223781922Y-59925408D01*
X223782000Y-59922267D01*
X223782000Y-59892512D01*
X224265500Y-59892512D01*
X224265664Y-59894777D01*
X224265665Y-59894792D01*
X224267888Y-59925422D01*
X224280047Y-60093004D01*
X224281031Y-60097459D01*
X224281031Y-60097462D01*
X224337178Y-60351769D01*
X224338194Y-60356372D01*
X224339812Y-60360642D01*
X224405944Y-60535194D01*
X224433750Y-60608588D01*
X224564714Y-60844368D01*
X224567486Y-60848000D01*
X224681608Y-60997535D01*
X224728343Y-61058773D01*
X224921208Y-61247312D01*
X225139270Y-61406034D01*
X225239031Y-61458521D01*
X225373921Y-61529490D01*
X225373927Y-61529493D01*
X225377961Y-61531615D01*
X225382266Y-61533135D01*
X225382270Y-61533137D01*
X225627967Y-61619902D01*
X225632280Y-61621425D01*
X225760032Y-61646605D01*
X225892428Y-61672700D01*
X225892434Y-61672701D01*
X225896900Y-61673581D01*
X225901453Y-61673808D01*
X225901456Y-61673808D01*
X226161708Y-61686764D01*
X226161714Y-61686764D01*
X226166277Y-61686991D01*
X226434769Y-61661375D01*
X226439203Y-61660290D01*
X226439209Y-61660289D01*
X226692312Y-61598355D01*
X226696750Y-61597269D01*
X226946733Y-61496015D01*
X227179482Y-61359735D01*
X227390119Y-61191284D01*
X227574234Y-60994191D01*
X227727968Y-60772584D01*
X227848101Y-60531106D01*
X227849523Y-60526769D01*
X227930698Y-60279147D01*
X227930699Y-60279141D01*
X227932118Y-60274814D01*
X227932919Y-60270201D01*
X227977601Y-60012860D01*
X227977602Y-60012852D01*
X227978257Y-60009079D01*
X227982500Y-59923851D01*
X227982500Y-59892512D01*
X228465500Y-59892512D01*
X228465664Y-59894777D01*
X228465665Y-59894792D01*
X228467888Y-59925422D01*
X228480047Y-60093004D01*
X228481031Y-60097459D01*
X228481031Y-60097462D01*
X228537178Y-60351769D01*
X228538194Y-60356372D01*
X228539812Y-60360642D01*
X228605944Y-60535194D01*
X228633750Y-60608588D01*
X228764714Y-60844368D01*
X228767486Y-60848000D01*
X228881608Y-60997535D01*
X228928343Y-61058773D01*
X229121208Y-61247312D01*
X229339270Y-61406034D01*
X229439031Y-61458521D01*
X229573921Y-61529490D01*
X229573927Y-61529493D01*
X229577961Y-61531615D01*
X229582266Y-61533135D01*
X229582270Y-61533137D01*
X229827967Y-61619902D01*
X229832280Y-61621425D01*
X229960032Y-61646605D01*
X230092428Y-61672700D01*
X230092434Y-61672701D01*
X230096900Y-61673581D01*
X230101453Y-61673808D01*
X230101456Y-61673808D01*
X230361708Y-61686764D01*
X230361714Y-61686764D01*
X230366277Y-61686991D01*
X230634769Y-61661375D01*
X230639203Y-61660290D01*
X230639209Y-61660289D01*
X230892312Y-61598355D01*
X230896750Y-61597269D01*
X231146733Y-61496015D01*
X231379482Y-61359735D01*
X231590119Y-61191284D01*
X231774234Y-60994191D01*
X231927968Y-60772584D01*
X232048101Y-60531106D01*
X232049523Y-60526769D01*
X232130698Y-60279147D01*
X232130699Y-60279141D01*
X232132118Y-60274814D01*
X232132919Y-60270201D01*
X232177601Y-60012860D01*
X232177602Y-60012852D01*
X232178257Y-60009079D01*
X232182500Y-59923851D01*
X232182500Y-59892512D01*
X232665500Y-59892512D01*
X232665664Y-59894777D01*
X232665665Y-59894792D01*
X232667888Y-59925422D01*
X232680047Y-60093004D01*
X232681031Y-60097459D01*
X232681031Y-60097462D01*
X232737178Y-60351769D01*
X232738194Y-60356372D01*
X232739812Y-60360642D01*
X232805944Y-60535194D01*
X232833750Y-60608588D01*
X232964714Y-60844368D01*
X232967486Y-60848000D01*
X233081608Y-60997535D01*
X233128343Y-61058773D01*
X233321208Y-61247312D01*
X233539270Y-61406034D01*
X233639031Y-61458521D01*
X233773921Y-61529490D01*
X233773927Y-61529493D01*
X233777961Y-61531615D01*
X233782266Y-61533135D01*
X233782270Y-61533137D01*
X234027967Y-61619902D01*
X234032280Y-61621425D01*
X234160032Y-61646605D01*
X234292428Y-61672700D01*
X234292434Y-61672701D01*
X234296900Y-61673581D01*
X234301453Y-61673808D01*
X234301456Y-61673808D01*
X234561708Y-61686764D01*
X234561714Y-61686764D01*
X234566277Y-61686991D01*
X234834769Y-61661375D01*
X234839203Y-61660290D01*
X234839209Y-61660289D01*
X235092312Y-61598355D01*
X235096750Y-61597269D01*
X235346733Y-61496015D01*
X235579482Y-61359735D01*
X235790119Y-61191284D01*
X235974234Y-60994191D01*
X236127968Y-60772584D01*
X236248101Y-60531106D01*
X236249523Y-60526769D01*
X236330698Y-60279147D01*
X236330699Y-60279141D01*
X236332118Y-60274814D01*
X236332919Y-60270201D01*
X236377601Y-60012860D01*
X236377602Y-60012852D01*
X236378257Y-60009079D01*
X236382500Y-59923851D01*
X236382500Y-59892512D01*
X236865500Y-59892512D01*
X236865664Y-59894777D01*
X236865665Y-59894792D01*
X236867888Y-59925422D01*
X236880047Y-60093004D01*
X236881031Y-60097459D01*
X236881031Y-60097462D01*
X236937178Y-60351769D01*
X236938194Y-60356372D01*
X236939812Y-60360642D01*
X237005944Y-60535194D01*
X237033750Y-60608588D01*
X237164714Y-60844368D01*
X237167486Y-60848000D01*
X237281608Y-60997535D01*
X237328343Y-61058773D01*
X237521208Y-61247312D01*
X237739270Y-61406034D01*
X237839031Y-61458521D01*
X237973921Y-61529490D01*
X237973927Y-61529493D01*
X237977961Y-61531615D01*
X237982266Y-61533135D01*
X237982270Y-61533137D01*
X238227967Y-61619902D01*
X238232280Y-61621425D01*
X238360032Y-61646605D01*
X238492428Y-61672700D01*
X238492434Y-61672701D01*
X238496900Y-61673581D01*
X238501453Y-61673808D01*
X238501456Y-61673808D01*
X238761708Y-61686764D01*
X238761714Y-61686764D01*
X238766277Y-61686991D01*
X239034769Y-61661375D01*
X239039203Y-61660290D01*
X239039209Y-61660289D01*
X239292312Y-61598355D01*
X239296750Y-61597269D01*
X239546733Y-61496015D01*
X239779482Y-61359735D01*
X239990119Y-61191284D01*
X240174234Y-60994191D01*
X240327968Y-60772584D01*
X240448101Y-60531106D01*
X240449523Y-60526769D01*
X240530698Y-60279147D01*
X240530699Y-60279141D01*
X240532118Y-60274814D01*
X240532919Y-60270201D01*
X240577601Y-60012860D01*
X240577602Y-60012852D01*
X240578257Y-60009079D01*
X240582500Y-59923851D01*
X240582500Y-59155488D01*
X240580114Y-59122592D01*
X240572823Y-59022116D01*
X240567953Y-58954996D01*
X240528831Y-58777799D01*
X240510791Y-58696088D01*
X240510790Y-58696084D01*
X240509806Y-58691628D01*
X240445321Y-58521422D01*
X240415868Y-58443682D01*
X240415867Y-58443679D01*
X240414250Y-58439412D01*
X240283286Y-58203632D01*
X240172045Y-58057871D01*
X240122429Y-57992859D01*
X240122428Y-57992858D01*
X240119657Y-57989227D01*
X239926792Y-57800688D01*
X239708730Y-57641966D01*
X239542948Y-57554744D01*
X239474079Y-57518510D01*
X239474073Y-57518507D01*
X239470039Y-57516385D01*
X239465734Y-57514865D01*
X239465730Y-57514863D01*
X239220033Y-57428098D01*
X239220032Y-57428098D01*
X239215720Y-57426575D01*
X239073557Y-57398555D01*
X238955572Y-57375300D01*
X238955566Y-57375299D01*
X238951100Y-57374419D01*
X238946547Y-57374192D01*
X238946544Y-57374192D01*
X238686292Y-57361236D01*
X238686286Y-57361236D01*
X238681723Y-57361009D01*
X238413231Y-57386625D01*
X238408797Y-57387710D01*
X238408791Y-57387711D01*
X238155688Y-57449645D01*
X238151250Y-57450731D01*
X237901267Y-57551985D01*
X237668518Y-57688265D01*
X237457881Y-57856716D01*
X237273766Y-58053809D01*
X237120032Y-58275416D01*
X236999899Y-58516894D01*
X236998478Y-58521228D01*
X236998477Y-58521231D01*
X236998415Y-58521422D01*
X236915882Y-58773186D01*
X236915102Y-58777677D01*
X236915102Y-58777678D01*
X236883525Y-58959547D01*
X236869743Y-59038921D01*
X236865500Y-59124149D01*
X236865500Y-59892512D01*
X236382500Y-59892512D01*
X236382500Y-59155488D01*
X236380114Y-59122592D01*
X236372823Y-59022116D01*
X236367953Y-58954996D01*
X236328831Y-58777799D01*
X236310791Y-58696088D01*
X236310790Y-58696084D01*
X236309806Y-58691628D01*
X236245321Y-58521422D01*
X236215868Y-58443682D01*
X236215867Y-58443679D01*
X236214250Y-58439412D01*
X236083286Y-58203632D01*
X235972045Y-58057871D01*
X235922429Y-57992859D01*
X235922428Y-57992858D01*
X235919657Y-57989227D01*
X235726792Y-57800688D01*
X235508730Y-57641966D01*
X235342948Y-57554744D01*
X235274079Y-57518510D01*
X235274073Y-57518507D01*
X235270039Y-57516385D01*
X235265734Y-57514865D01*
X235265730Y-57514863D01*
X235020033Y-57428098D01*
X235020032Y-57428098D01*
X235015720Y-57426575D01*
X234873557Y-57398555D01*
X234755572Y-57375300D01*
X234755566Y-57375299D01*
X234751100Y-57374419D01*
X234746547Y-57374192D01*
X234746544Y-57374192D01*
X234486292Y-57361236D01*
X234486286Y-57361236D01*
X234481723Y-57361009D01*
X234213231Y-57386625D01*
X234208797Y-57387710D01*
X234208791Y-57387711D01*
X233955688Y-57449645D01*
X233951250Y-57450731D01*
X233701267Y-57551985D01*
X233468518Y-57688265D01*
X233257881Y-57856716D01*
X233073766Y-58053809D01*
X232920032Y-58275416D01*
X232799899Y-58516894D01*
X232798478Y-58521228D01*
X232798477Y-58521231D01*
X232798415Y-58521422D01*
X232715882Y-58773186D01*
X232715102Y-58777677D01*
X232715102Y-58777678D01*
X232683525Y-58959547D01*
X232669743Y-59038921D01*
X232665500Y-59124149D01*
X232665500Y-59892512D01*
X232182500Y-59892512D01*
X232182500Y-59155488D01*
X232180114Y-59122592D01*
X232172823Y-59022116D01*
X232167953Y-58954996D01*
X232128831Y-58777799D01*
X232110791Y-58696088D01*
X232110790Y-58696084D01*
X232109806Y-58691628D01*
X232045321Y-58521422D01*
X232015868Y-58443682D01*
X232015867Y-58443679D01*
X232014250Y-58439412D01*
X231883286Y-58203632D01*
X231772045Y-58057871D01*
X231722429Y-57992859D01*
X231722428Y-57992858D01*
X231719657Y-57989227D01*
X231526792Y-57800688D01*
X231308730Y-57641966D01*
X231142948Y-57554744D01*
X231074079Y-57518510D01*
X231074073Y-57518507D01*
X231070039Y-57516385D01*
X231065734Y-57514865D01*
X231065730Y-57514863D01*
X230820033Y-57428098D01*
X230820032Y-57428098D01*
X230815720Y-57426575D01*
X230673557Y-57398555D01*
X230555572Y-57375300D01*
X230555566Y-57375299D01*
X230551100Y-57374419D01*
X230546547Y-57374192D01*
X230546544Y-57374192D01*
X230286292Y-57361236D01*
X230286286Y-57361236D01*
X230281723Y-57361009D01*
X230013231Y-57386625D01*
X230008797Y-57387710D01*
X230008791Y-57387711D01*
X229755688Y-57449645D01*
X229751250Y-57450731D01*
X229501267Y-57551985D01*
X229268518Y-57688265D01*
X229057881Y-57856716D01*
X228873766Y-58053809D01*
X228720032Y-58275416D01*
X228599899Y-58516894D01*
X228598478Y-58521228D01*
X228598477Y-58521231D01*
X228598415Y-58521422D01*
X228515882Y-58773186D01*
X228515102Y-58777677D01*
X228515102Y-58777678D01*
X228483525Y-58959547D01*
X228469743Y-59038921D01*
X228465500Y-59124149D01*
X228465500Y-59892512D01*
X227982500Y-59892512D01*
X227982500Y-59155488D01*
X227980114Y-59122592D01*
X227972823Y-59022116D01*
X227967953Y-58954996D01*
X227928831Y-58777799D01*
X227910791Y-58696088D01*
X227910790Y-58696084D01*
X227909806Y-58691628D01*
X227845321Y-58521422D01*
X227815868Y-58443682D01*
X227815867Y-58443679D01*
X227814250Y-58439412D01*
X227683286Y-58203632D01*
X227572045Y-58057871D01*
X227522429Y-57992859D01*
X227522428Y-57992858D01*
X227519657Y-57989227D01*
X227326792Y-57800688D01*
X227108730Y-57641966D01*
X226942948Y-57554744D01*
X226874079Y-57518510D01*
X226874073Y-57518507D01*
X226870039Y-57516385D01*
X226865734Y-57514865D01*
X226865730Y-57514863D01*
X226620033Y-57428098D01*
X226620032Y-57428098D01*
X226615720Y-57426575D01*
X226473557Y-57398555D01*
X226355572Y-57375300D01*
X226355566Y-57375299D01*
X226351100Y-57374419D01*
X226346547Y-57374192D01*
X226346544Y-57374192D01*
X226086292Y-57361236D01*
X226086286Y-57361236D01*
X226081723Y-57361009D01*
X225813231Y-57386625D01*
X225808797Y-57387710D01*
X225808791Y-57387711D01*
X225555688Y-57449645D01*
X225551250Y-57450731D01*
X225301267Y-57551985D01*
X225068518Y-57688265D01*
X224857881Y-57856716D01*
X224673766Y-58053809D01*
X224520032Y-58275416D01*
X224399899Y-58516894D01*
X224398478Y-58521228D01*
X224398477Y-58521231D01*
X224398415Y-58521422D01*
X224315882Y-58773186D01*
X224315102Y-58777677D01*
X224315102Y-58777678D01*
X224283525Y-58959547D01*
X224269743Y-59038921D01*
X224265500Y-59124149D01*
X224265500Y-59892512D01*
X223782000Y-59892512D01*
X223782000Y-59796115D01*
X223777525Y-59780876D01*
X223776135Y-59779671D01*
X223768452Y-59778000D01*
X222196115Y-59778000D01*
X222180876Y-59782475D01*
X222179671Y-59783865D01*
X222178000Y-59791548D01*
X222178000Y-61648174D01*
X221669939Y-61648174D01*
X221670000Y-61647985D01*
X221670000Y-59796115D01*
X221665525Y-59780876D01*
X221664135Y-59779671D01*
X221656452Y-59778000D01*
X220084115Y-59778000D01*
X220068876Y-59782475D01*
X220067671Y-59783865D01*
X220066000Y-59791548D01*
X220066000Y-59890206D01*
X219582000Y-59890206D01*
X219582000Y-59796115D01*
X219577525Y-59780876D01*
X219576135Y-59779671D01*
X219568452Y-59778000D01*
X217996115Y-59778000D01*
X217980876Y-59782475D01*
X217979671Y-59783865D01*
X217978000Y-59791548D01*
X217978000Y-61648174D01*
X217469939Y-61648174D01*
X217470000Y-61647985D01*
X217470000Y-59796115D01*
X217465525Y-59780876D01*
X217464135Y-59779671D01*
X217456452Y-59778000D01*
X215884115Y-59778000D01*
X215868876Y-59782475D01*
X215867671Y-59783865D01*
X215866000Y-59791548D01*
X215866000Y-59890206D01*
X215382000Y-59890206D01*
X215382000Y-59796115D01*
X215377525Y-59780876D01*
X215376135Y-59779671D01*
X215368452Y-59778000D01*
X213796115Y-59778000D01*
X213780876Y-59782475D01*
X213779671Y-59783865D01*
X213778000Y-59791548D01*
X213778000Y-61648174D01*
X213269939Y-61648174D01*
X213270000Y-61647985D01*
X213270000Y-59796115D01*
X213265525Y-59780876D01*
X213264135Y-59779671D01*
X213256452Y-59778000D01*
X211684115Y-59778000D01*
X211668876Y-59782475D01*
X211667671Y-59783865D01*
X211666000Y-59791548D01*
X211666000Y-59890206D01*
X211182500Y-59890206D01*
X211182500Y-59251885D01*
X211666000Y-59251885D01*
X211670475Y-59267124D01*
X211671865Y-59268329D01*
X211679548Y-59270000D01*
X213251885Y-59270000D01*
X213267124Y-59265525D01*
X213268329Y-59264135D01*
X213270000Y-59256452D01*
X213270000Y-59251885D01*
X213778000Y-59251885D01*
X213782475Y-59267124D01*
X213783865Y-59268329D01*
X213791548Y-59270000D01*
X215363885Y-59270000D01*
X215379124Y-59265525D01*
X215380329Y-59264135D01*
X215382000Y-59256452D01*
X215382000Y-59251885D01*
X215866000Y-59251885D01*
X215870475Y-59267124D01*
X215871865Y-59268329D01*
X215879548Y-59270000D01*
X217451885Y-59270000D01*
X217467124Y-59265525D01*
X217468329Y-59264135D01*
X217470000Y-59256452D01*
X217470000Y-59251885D01*
X217978000Y-59251885D01*
X217982475Y-59267124D01*
X217983865Y-59268329D01*
X217991548Y-59270000D01*
X219563885Y-59270000D01*
X219579124Y-59265525D01*
X219580329Y-59264135D01*
X219582000Y-59256452D01*
X219582000Y-59251885D01*
X220066000Y-59251885D01*
X220070475Y-59267124D01*
X220071865Y-59268329D01*
X220079548Y-59270000D01*
X221651885Y-59270000D01*
X221667124Y-59265525D01*
X221668329Y-59264135D01*
X221670000Y-59256452D01*
X221670000Y-59251885D01*
X222178000Y-59251885D01*
X222182475Y-59267124D01*
X222183865Y-59268329D01*
X222191548Y-59270000D01*
X223763885Y-59270000D01*
X223779124Y-59265525D01*
X223780329Y-59264135D01*
X223782000Y-59256452D01*
X223782000Y-59157794D01*
X223781835Y-59153223D01*
X223767787Y-58959620D01*
X223766473Y-58950611D01*
X223710311Y-58696231D01*
X223707708Y-58687501D01*
X223615414Y-58443893D01*
X223611579Y-58435632D01*
X223485085Y-58207899D01*
X223480095Y-58200274D01*
X223322054Y-57993191D01*
X223316014Y-57986364D01*
X223129736Y-57804265D01*
X223122774Y-57798382D01*
X222912157Y-57645078D01*
X222904427Y-57640267D01*
X222673878Y-57518969D01*
X222665528Y-57515322D01*
X222419901Y-57428581D01*
X222411106Y-57426175D01*
X222195775Y-57383733D01*
X222182863Y-57384912D01*
X222178000Y-57400015D01*
X222178000Y-59251885D01*
X221670000Y-59251885D01*
X221670000Y-57399826D01*
X221665749Y-57385349D01*
X221653488Y-57383286D01*
X221617867Y-57386685D01*
X221608875Y-57388205D01*
X221355842Y-57450122D01*
X221347173Y-57452922D01*
X221105718Y-57550722D01*
X221097545Y-57554744D01*
X220872747Y-57686368D01*
X220865235Y-57691531D01*
X220661787Y-57854231D01*
X220655104Y-57860420D01*
X220477267Y-58050794D01*
X220471557Y-58057871D01*
X220323066Y-58271918D01*
X220318429Y-58279759D01*
X220202396Y-58512997D01*
X220198940Y-58521422D01*
X220117788Y-58768974D01*
X220115588Y-58777799D01*
X220070897Y-59035189D01*
X220070050Y-59042807D01*
X220066078Y-59122592D01*
X220066000Y-59125733D01*
X220066000Y-59251885D01*
X219582000Y-59251885D01*
X219582000Y-59157794D01*
X219581835Y-59153223D01*
X219567787Y-58959620D01*
X219566473Y-58950611D01*
X219510311Y-58696231D01*
X219507708Y-58687501D01*
X219415414Y-58443893D01*
X219411579Y-58435632D01*
X219285085Y-58207899D01*
X219280095Y-58200274D01*
X219122054Y-57993191D01*
X219116014Y-57986364D01*
X218929736Y-57804265D01*
X218922774Y-57798382D01*
X218712157Y-57645078D01*
X218704427Y-57640267D01*
X218473878Y-57518969D01*
X218465528Y-57515322D01*
X218219901Y-57428581D01*
X218211106Y-57426175D01*
X217995775Y-57383733D01*
X217982863Y-57384912D01*
X217978000Y-57400015D01*
X217978000Y-59251885D01*
X217470000Y-59251885D01*
X217470000Y-57399826D01*
X217465749Y-57385349D01*
X217453488Y-57383286D01*
X217417867Y-57386685D01*
X217408875Y-57388205D01*
X217155842Y-57450122D01*
X217147173Y-57452922D01*
X216905718Y-57550722D01*
X216897545Y-57554744D01*
X216672747Y-57686368D01*
X216665235Y-57691531D01*
X216461787Y-57854231D01*
X216455104Y-57860420D01*
X216277267Y-58050794D01*
X216271557Y-58057871D01*
X216123066Y-58271918D01*
X216118429Y-58279759D01*
X216002396Y-58512997D01*
X215998940Y-58521422D01*
X215917788Y-58768974D01*
X215915588Y-58777799D01*
X215870897Y-59035189D01*
X215870050Y-59042807D01*
X215866078Y-59122592D01*
X215866000Y-59125733D01*
X215866000Y-59251885D01*
X215382000Y-59251885D01*
X215382000Y-59157794D01*
X215381835Y-59153223D01*
X215367787Y-58959620D01*
X215366473Y-58950611D01*
X215310311Y-58696231D01*
X215307708Y-58687501D01*
X215215414Y-58443893D01*
X215211579Y-58435632D01*
X215085085Y-58207899D01*
X215080095Y-58200274D01*
X214922054Y-57993191D01*
X214916014Y-57986364D01*
X214729736Y-57804265D01*
X214722774Y-57798382D01*
X214512157Y-57645078D01*
X214504427Y-57640267D01*
X214273878Y-57518969D01*
X214265528Y-57515322D01*
X214019901Y-57428581D01*
X214011106Y-57426175D01*
X213795775Y-57383733D01*
X213782863Y-57384912D01*
X213778000Y-57400015D01*
X213778000Y-59251885D01*
X213270000Y-59251885D01*
X213270000Y-57399826D01*
X213265749Y-57385349D01*
X213253488Y-57383286D01*
X213217867Y-57386685D01*
X213208875Y-57388205D01*
X212955842Y-57450122D01*
X212947173Y-57452922D01*
X212705718Y-57550722D01*
X212697545Y-57554744D01*
X212472747Y-57686368D01*
X212465235Y-57691531D01*
X212261787Y-57854231D01*
X212255104Y-57860420D01*
X212077267Y-58050794D01*
X212071557Y-58057871D01*
X211923066Y-58271918D01*
X211918429Y-58279759D01*
X211802396Y-58512997D01*
X211798940Y-58521422D01*
X211717788Y-58768974D01*
X211715588Y-58777799D01*
X211670897Y-59035189D01*
X211670050Y-59042807D01*
X211666078Y-59122592D01*
X211666000Y-59125733D01*
X211666000Y-59251885D01*
X211182500Y-59251885D01*
X211182500Y-59155488D01*
X211180114Y-59122592D01*
X211172823Y-59022116D01*
X211167953Y-58954996D01*
X211128831Y-58777799D01*
X211110791Y-58696088D01*
X211110790Y-58696084D01*
X211109806Y-58691628D01*
X211045321Y-58521422D01*
X211015868Y-58443682D01*
X211015867Y-58443679D01*
X211014250Y-58439412D01*
X210883286Y-58203632D01*
X210772045Y-58057871D01*
X210722429Y-57992859D01*
X210722428Y-57992858D01*
X210719657Y-57989227D01*
X210526792Y-57800688D01*
X210308730Y-57641966D01*
X210142948Y-57554744D01*
X210074079Y-57518510D01*
X210074073Y-57518507D01*
X210070039Y-57516385D01*
X210065734Y-57514865D01*
X210065730Y-57514863D01*
X209820033Y-57428098D01*
X209820032Y-57428098D01*
X209815720Y-57426575D01*
X209673557Y-57398555D01*
X209555572Y-57375300D01*
X209555566Y-57375299D01*
X209551100Y-57374419D01*
X209546547Y-57374192D01*
X209546544Y-57374192D01*
X209286292Y-57361236D01*
X209286286Y-57361236D01*
X209281723Y-57361009D01*
X209013231Y-57386625D01*
X209008797Y-57387710D01*
X209008791Y-57387711D01*
X208755688Y-57449645D01*
X208751250Y-57450731D01*
X208501267Y-57551985D01*
X208268518Y-57688265D01*
X208057881Y-57856716D01*
X207873766Y-58053809D01*
X207720032Y-58275416D01*
X207599899Y-58516894D01*
X207598478Y-58521228D01*
X207598477Y-58521231D01*
X207598415Y-58521422D01*
X207515882Y-58773186D01*
X207515102Y-58777677D01*
X207515102Y-58777678D01*
X207483525Y-58959547D01*
X207469743Y-59038921D01*
X207465500Y-59124149D01*
X207465500Y-59892512D01*
X205458000Y-59892512D01*
X205458000Y-48659000D01*
X205478002Y-48590879D01*
X205531658Y-48544386D01*
X205584000Y-48533000D01*
X207113589Y-48533000D01*
X207181710Y-48553002D01*
G37*
G04 #@! TD.AperFunction*
M02*
