G04 #@! TF.GenerationSoftware,KiCad,Pcbnew,(6.0.0-0)*
G04 #@! TF.CreationDate,2022-02-20T16:41:42-06:00*
G04 #@! TF.ProjectId,mactxlc,6d616374-786c-4632-9e6b-696361645f70,rev?*
G04 #@! TF.SameCoordinates,Original*
G04 #@! TF.FileFunction,Soldermask,Top*
G04 #@! TF.FilePolarity,Negative*
%FSLAX46Y46*%
G04 Gerber Fmt 4.6, Leading zero omitted, Abs format (unit mm)*
G04 Created by KiCad (PCBNEW (6.0.0-0)) date 2022-02-20 16:41:42*
%MOMM*%
%LPD*%
G01*
G04 APERTURE LIST*
G04 Aperture macros list*
%AMRoundRect*
0 Rectangle with rounded corners*
0 $1 Rounding radius*
0 $2 $3 $4 $5 $6 $7 $8 $9 X,Y pos of 4 corners*
0 Add a 4 corners polygon primitive as box body*
4,1,4,$2,$3,$4,$5,$6,$7,$8,$9,$2,$3,0*
0 Add four circle primitives for the rounded corners*
1,1,$1+$1,$2,$3*
1,1,$1+$1,$4,$5*
1,1,$1+$1,$6,$7*
1,1,$1+$1,$8,$9*
0 Add four rect primitives between the rounded corners*
20,1,$1+$1,$2,$3,$4,$5,0*
20,1,$1+$1,$4,$5,$6,$7,0*
20,1,$1+$1,$6,$7,$8,$9,0*
20,1,$1+$1,$8,$9,$2,$3,0*%
G04 Aperture macros list end*
%ADD10RoundRect,0.301001X0.949999X0.949999X-0.949999X0.949999X-0.949999X-0.949999X0.949999X-0.949999X0*%
%ADD11C,2.502000*%
%ADD12RoundRect,0.301000X0.550000X-1.075000X0.550000X1.075000X-0.550000X1.075000X-0.550000X-1.075000X0*%
%ADD13RoundRect,0.201000X0.675000X0.150000X-0.675000X0.150000X-0.675000X-0.150000X0.675000X-0.150000X0*%
%ADD14RoundRect,0.301000X0.450000X-0.262500X0.450000X0.262500X-0.450000X0.262500X-0.450000X-0.262500X0*%
%ADD15RoundRect,0.302100X1.098900X1.398900X-1.098900X1.398900X-1.098900X-1.398900X1.098900X-1.398900X0*%
%ADD16O,2.802000X3.402000*%
%ADD17RoundRect,0.051000X0.850000X0.850000X-0.850000X0.850000X-0.850000X-0.850000X0.850000X-0.850000X0*%
%ADD18O,1.802000X1.802000*%
G04 APERTURE END LIST*
D10*
X257025000Y-51950000D03*
D11*
X253065000Y-51950000D03*
X249105000Y-51950000D03*
X245145000Y-51950000D03*
X241185000Y-51950000D03*
X237225000Y-51950000D03*
X233265000Y-51950000D03*
D12*
X224680000Y-50225000D03*
X224680000Y-53575000D03*
D13*
X219165000Y-53805000D03*
X219165000Y-52535000D03*
X219165000Y-51265000D03*
X219165000Y-49995000D03*
X213915000Y-49995000D03*
X213915000Y-51265000D03*
X213915000Y-52535000D03*
X213915000Y-53805000D03*
D14*
X211820000Y-52812500D03*
X211820000Y-50987500D03*
X221260000Y-52812500D03*
X221260000Y-50987500D03*
D12*
X208400000Y-53575000D03*
X208400000Y-50225000D03*
D15*
X255524000Y-65024000D03*
D16*
X251324000Y-65024000D03*
X247124000Y-65024000D03*
X242924000Y-65024000D03*
X238724000Y-65024000D03*
X234524000Y-65024000D03*
X230324000Y-65024000D03*
X226124000Y-65024000D03*
X221924000Y-65024000D03*
X217724000Y-65024000D03*
X213524000Y-65024000D03*
X209324000Y-65024000D03*
X255524000Y-59524000D03*
X251324000Y-59524000D03*
X247124000Y-59524000D03*
X242924000Y-59524000D03*
X238724000Y-59524000D03*
X234524000Y-59524000D03*
X230324000Y-59524000D03*
X226124000Y-59524000D03*
X221924000Y-59524000D03*
X217724000Y-59524000D03*
X213524000Y-59524000D03*
X209324000Y-59524000D03*
D17*
X228950000Y-53175000D03*
D18*
X228950000Y-50635000D03*
M02*
