G04 #@! TF.GenerationSoftware,KiCad,Pcbnew,(6.0.0-0)*
G04 #@! TF.CreationDate,2022-02-20T21:50:20-06:00*
G04 #@! TF.ProjectId,mactxlc,6d616374-786c-4632-9e6b-696361645f70,rev?*
G04 #@! TF.SameCoordinates,Original*
G04 #@! TF.FileFunction,Copper,L2,Bot*
G04 #@! TF.FilePolarity,Positive*
%FSLAX46Y46*%
G04 Gerber Fmt 4.6, Leading zero omitted, Abs format (unit mm)*
G04 Created by KiCad (PCBNEW (6.0.0-0)) date 2022-02-20 21:50:20*
%MOMM*%
%LPD*%
G01*
G04 APERTURE LIST*
G04 Aperture macros list*
%AMRoundRect*
0 Rectangle with rounded corners*
0 $1 Rounding radius*
0 $2 $3 $4 $5 $6 $7 $8 $9 X,Y pos of 4 corners*
0 Add a 4 corners polygon primitive as box body*
4,1,4,$2,$3,$4,$5,$6,$7,$8,$9,$2,$3,0*
0 Add four circle primitives for the rounded corners*
1,1,$1+$1,$2,$3*
1,1,$1+$1,$4,$5*
1,1,$1+$1,$6,$7*
1,1,$1+$1,$8,$9*
0 Add four rect primitives between the rounded corners*
20,1,$1+$1,$2,$3,$4,$5,0*
20,1,$1+$1,$4,$5,$6,$7,0*
20,1,$1+$1,$6,$7,$8,$9,0*
20,1,$1+$1,$8,$9,$2,$3,0*%
G04 Aperture macros list end*
G04 #@! TA.AperFunction,ComponentPad*
%ADD10RoundRect,0.251100X1.098900X1.398900X-1.098900X1.398900X-1.098900X-1.398900X1.098900X-1.398900X0*%
G04 #@! TD*
G04 #@! TA.AperFunction,ComponentPad*
%ADD11O,2.700000X3.300000*%
G04 #@! TD*
G04 #@! TA.AperFunction,ComponentPad*
%ADD12RoundRect,0.250000X1.330000X1.800000X-1.330000X1.800000X-1.330000X-1.800000X1.330000X-1.800000X0*%
G04 #@! TD*
G04 #@! TA.AperFunction,ComponentPad*
%ADD13O,3.160000X4.100000*%
G04 #@! TD*
G04 #@! TA.AperFunction,ComponentPad*
%ADD14R,1.700000X1.700000*%
G04 #@! TD*
G04 #@! TA.AperFunction,ComponentPad*
%ADD15O,1.700000X1.700000*%
G04 #@! TD*
G04 #@! TA.AperFunction,ViaPad*
%ADD16C,0.800000*%
G04 #@! TD*
G04 #@! TA.AperFunction,Conductor*
%ADD17C,0.250000*%
G04 #@! TD*
G04 #@! TA.AperFunction,Conductor*
%ADD18C,0.500000*%
G04 #@! TD*
G04 #@! TA.AperFunction,Conductor*
%ADD19C,2.000000*%
G04 #@! TD*
G04 #@! TA.AperFunction,Conductor*
%ADD20C,0.750000*%
G04 #@! TD*
G04 APERTURE END LIST*
D10*
X255524000Y-65024000D03*
D11*
X251324000Y-65024000D03*
X247124000Y-65024000D03*
X242924000Y-65024000D03*
X238724000Y-65024000D03*
X234524000Y-65024000D03*
X230324000Y-65024000D03*
X226124000Y-65024000D03*
X221924000Y-65024000D03*
X217724000Y-65024000D03*
X213524000Y-65024000D03*
X209324000Y-65024000D03*
X255524000Y-59524000D03*
X251324000Y-59524000D03*
X247124000Y-59524000D03*
X242924000Y-59524000D03*
X238724000Y-59524000D03*
X234524000Y-59524000D03*
X230324000Y-59524000D03*
X226124000Y-59524000D03*
X221924000Y-59524000D03*
X217724000Y-59524000D03*
X213524000Y-59524000D03*
X209324000Y-59524000D03*
D12*
X257048000Y-50038000D03*
D13*
X253088000Y-50038000D03*
X249128000Y-50038000D03*
X245168000Y-50038000D03*
X241208000Y-50038000D03*
X237248000Y-50038000D03*
X233288000Y-50038000D03*
D14*
X226055000Y-46228000D03*
D15*
X228595000Y-46228000D03*
D16*
X215860000Y-49030000D03*
X217270000Y-51310000D03*
X231394000Y-54610000D03*
X210312000Y-53086000D03*
D17*
X241300000Y-46482000D02*
X228595000Y-46482000D01*
X242924000Y-59524000D02*
X243263480Y-59184520D01*
X243263480Y-48445480D02*
X241300000Y-46482000D01*
X243263480Y-59184520D02*
X243263480Y-48445480D01*
D18*
X224282000Y-50038000D02*
X233288000Y-50038000D01*
X215868000Y-49022000D02*
X223266000Y-49022000D01*
X215860000Y-49030000D02*
X215868000Y-49022000D01*
X223266000Y-49022000D02*
X224282000Y-50038000D01*
D19*
X230324000Y-59524000D02*
X230324000Y-57624000D01*
X234524000Y-59524000D02*
X234524000Y-57624000D01*
X238724000Y-59524000D02*
X238724000Y-61424000D01*
X238724000Y-61424000D02*
X238724000Y-65024000D01*
X247124000Y-59524000D02*
X247124000Y-57624000D01*
D17*
X234524000Y-57624000D02*
X234442000Y-57542000D01*
D19*
X238724000Y-59524000D02*
X238724000Y-57567000D01*
X213524000Y-65024000D02*
X217724000Y-65024000D01*
D20*
X219648520Y-63099480D02*
X217724000Y-65024000D01*
X238160000Y-53086000D02*
X221996000Y-53086000D01*
X221996000Y-53086000D02*
X219648520Y-55433480D01*
X219648520Y-55433480D02*
X219648520Y-63099480D01*
X241208000Y-50038000D02*
X238160000Y-53086000D01*
G04 #@! TA.AperFunction,Conductor*
G36*
X224639121Y-45232002D02*
G01*
X224685614Y-45285658D01*
X224697000Y-45338000D01*
X224697000Y-45955885D01*
X224701475Y-45971124D01*
X224702865Y-45972329D01*
X224710548Y-45974000D01*
X226183000Y-45974000D01*
X226251121Y-45994002D01*
X226297614Y-46047658D01*
X226309000Y-46100000D01*
X226309000Y-47567884D01*
X226313475Y-47583123D01*
X226314865Y-47584328D01*
X226322548Y-47585999D01*
X226949669Y-47585999D01*
X226956490Y-47585629D01*
X227007352Y-47580105D01*
X227022604Y-47576479D01*
X227143054Y-47531324D01*
X227158649Y-47522786D01*
X227260724Y-47446285D01*
X227273285Y-47433724D01*
X227349786Y-47331649D01*
X227358324Y-47316054D01*
X227399225Y-47206952D01*
X227441867Y-47150188D01*
X227508428Y-47125488D01*
X227577777Y-47140696D01*
X227612444Y-47168684D01*
X227637865Y-47198031D01*
X227637869Y-47198035D01*
X227641250Y-47201938D01*
X227813126Y-47344632D01*
X228006000Y-47457338D01*
X228214692Y-47537030D01*
X228219760Y-47538061D01*
X228219763Y-47538062D01*
X228327017Y-47559883D01*
X228433597Y-47581567D01*
X228438772Y-47581757D01*
X228438774Y-47581757D01*
X228651673Y-47589564D01*
X228651677Y-47589564D01*
X228656837Y-47589753D01*
X228661957Y-47589097D01*
X228661959Y-47589097D01*
X228873288Y-47562025D01*
X228873289Y-47562025D01*
X228878416Y-47561368D01*
X228915694Y-47550184D01*
X229087429Y-47498661D01*
X229087434Y-47498659D01*
X229092384Y-47497174D01*
X229292994Y-47398896D01*
X229474860Y-47269173D01*
X229592194Y-47152249D01*
X229654565Y-47118333D01*
X229681133Y-47115500D01*
X240985405Y-47115500D01*
X241053526Y-47135502D01*
X241074500Y-47152405D01*
X241188927Y-47266832D01*
X241222953Y-47329144D01*
X241217888Y-47399959D01*
X241175341Y-47456795D01*
X241104230Y-47481850D01*
X240993557Y-47485715D01*
X240993551Y-47485716D01*
X240989159Y-47485869D01*
X240701512Y-47536589D01*
X240697341Y-47537944D01*
X240697334Y-47537946D01*
X240539909Y-47589097D01*
X240423724Y-47626848D01*
X240419771Y-47628776D01*
X240419766Y-47628778D01*
X240178266Y-47746565D01*
X240161200Y-47754889D01*
X240157561Y-47757343D01*
X240157555Y-47757347D01*
X239922697Y-47915761D01*
X239922690Y-47915766D01*
X239919051Y-47918221D01*
X239915782Y-47921165D01*
X239915780Y-47921166D01*
X239728175Y-48090086D01*
X239701990Y-48113663D01*
X239699161Y-48117035D01*
X239517070Y-48334042D01*
X239517066Y-48334047D01*
X239514242Y-48337413D01*
X239359461Y-48585114D01*
X239357676Y-48589124D01*
X239357673Y-48589129D01*
X239342081Y-48624150D01*
X239296102Y-48678246D01*
X239228175Y-48698896D01*
X239159866Y-48679544D01*
X239115723Y-48632056D01*
X239039205Y-48488148D01*
X239023473Y-48458561D01*
X239007604Y-48436719D01*
X238854380Y-48225823D01*
X238854377Y-48225820D01*
X238851791Y-48222260D01*
X238791507Y-48159834D01*
X238651946Y-48015314D01*
X238651942Y-48015311D01*
X238648892Y-48012152D01*
X238418726Y-47832327D01*
X238165774Y-47686285D01*
X237894958Y-47576868D01*
X237858926Y-47567884D01*
X237738851Y-47537946D01*
X237611550Y-47506206D01*
X237607182Y-47505747D01*
X237607177Y-47505746D01*
X237325435Y-47476134D01*
X237325432Y-47476134D01*
X237321066Y-47475675D01*
X237316678Y-47475828D01*
X237316672Y-47475828D01*
X237033557Y-47485715D01*
X237033551Y-47485716D01*
X237029159Y-47485869D01*
X236741512Y-47536589D01*
X236737341Y-47537944D01*
X236737334Y-47537946D01*
X236579909Y-47589097D01*
X236463724Y-47626848D01*
X236459771Y-47628776D01*
X236459766Y-47628778D01*
X236218266Y-47746565D01*
X236201200Y-47754889D01*
X236197561Y-47757343D01*
X236197555Y-47757347D01*
X235962697Y-47915761D01*
X235962690Y-47915766D01*
X235959051Y-47918221D01*
X235955782Y-47921165D01*
X235955780Y-47921166D01*
X235768175Y-48090086D01*
X235741990Y-48113663D01*
X235739161Y-48117035D01*
X235557070Y-48334042D01*
X235557066Y-48334047D01*
X235554242Y-48337413D01*
X235399461Y-48585114D01*
X235397676Y-48589124D01*
X235397673Y-48589129D01*
X235382081Y-48624150D01*
X235336102Y-48678246D01*
X235268175Y-48698896D01*
X235199866Y-48679544D01*
X235155723Y-48632056D01*
X235079205Y-48488148D01*
X235063473Y-48458561D01*
X235047604Y-48436719D01*
X234894380Y-48225823D01*
X234894377Y-48225820D01*
X234891791Y-48222260D01*
X234831507Y-48159834D01*
X234691946Y-48015314D01*
X234691942Y-48015311D01*
X234688892Y-48012152D01*
X234458726Y-47832327D01*
X234205774Y-47686285D01*
X233934958Y-47576868D01*
X233898926Y-47567884D01*
X233778851Y-47537946D01*
X233651550Y-47506206D01*
X233647182Y-47505747D01*
X233647177Y-47505746D01*
X233365435Y-47476134D01*
X233365432Y-47476134D01*
X233361066Y-47475675D01*
X233356678Y-47475828D01*
X233356672Y-47475828D01*
X233073557Y-47485715D01*
X233073551Y-47485716D01*
X233069159Y-47485869D01*
X232781512Y-47536589D01*
X232777341Y-47537944D01*
X232777334Y-47537946D01*
X232619909Y-47589097D01*
X232503724Y-47626848D01*
X232499771Y-47628776D01*
X232499766Y-47628778D01*
X232258266Y-47746565D01*
X232241200Y-47754889D01*
X232237561Y-47757343D01*
X232237555Y-47757347D01*
X232002697Y-47915761D01*
X232002690Y-47915766D01*
X231999051Y-47918221D01*
X231995782Y-47921165D01*
X231995780Y-47921166D01*
X231808175Y-48090086D01*
X231781990Y-48113663D01*
X231779161Y-48117035D01*
X231597070Y-48334042D01*
X231597066Y-48334047D01*
X231594242Y-48337413D01*
X231439461Y-48585114D01*
X231320660Y-48851947D01*
X231240150Y-49132716D01*
X231239539Y-49137065D01*
X231234765Y-49171034D01*
X231205478Y-49235709D01*
X231145874Y-49274282D01*
X231109991Y-49279500D01*
X224648371Y-49279500D01*
X224580250Y-49259498D01*
X224559276Y-49242595D01*
X223849770Y-48533089D01*
X223837384Y-48518677D01*
X223828851Y-48507082D01*
X223828846Y-48507077D01*
X223824508Y-48501182D01*
X223818930Y-48496443D01*
X223818927Y-48496440D01*
X223784232Y-48466965D01*
X223776716Y-48460035D01*
X223771021Y-48454340D01*
X223764880Y-48449482D01*
X223748749Y-48436719D01*
X223745345Y-48433928D01*
X223695297Y-48391409D01*
X223695295Y-48391408D01*
X223689715Y-48386667D01*
X223683199Y-48383339D01*
X223678150Y-48379972D01*
X223673021Y-48376805D01*
X223667284Y-48372266D01*
X223601125Y-48341345D01*
X223597225Y-48339439D01*
X223532192Y-48306231D01*
X223525084Y-48304492D01*
X223519441Y-48302393D01*
X223513678Y-48300476D01*
X223507050Y-48297378D01*
X223435583Y-48282513D01*
X223431299Y-48281543D01*
X223419035Y-48278542D01*
X223360390Y-48264192D01*
X223354788Y-48263844D01*
X223354785Y-48263844D01*
X223349236Y-48263500D01*
X223349238Y-48263464D01*
X223345245Y-48263225D01*
X223341053Y-48262851D01*
X223333885Y-48261360D01*
X223267675Y-48263151D01*
X223256479Y-48263454D01*
X223253072Y-48263500D01*
X216391576Y-48263500D01*
X216329402Y-48243309D01*
X216327811Y-48246064D01*
X216322093Y-48242763D01*
X216316752Y-48238882D01*
X216310724Y-48236198D01*
X216310722Y-48236197D01*
X216148319Y-48163891D01*
X216148318Y-48163891D01*
X216142288Y-48161206D01*
X216048887Y-48141353D01*
X215961944Y-48122872D01*
X215961939Y-48122872D01*
X215955487Y-48121500D01*
X215764513Y-48121500D01*
X215758061Y-48122872D01*
X215758056Y-48122872D01*
X215671112Y-48141353D01*
X215577712Y-48161206D01*
X215571682Y-48163891D01*
X215571681Y-48163891D01*
X215409278Y-48236197D01*
X215409276Y-48236198D01*
X215403248Y-48238882D01*
X215248747Y-48351134D01*
X215244326Y-48356044D01*
X215244325Y-48356045D01*
X215153483Y-48456936D01*
X215120960Y-48493056D01*
X215025473Y-48658444D01*
X214966458Y-48840072D01*
X214946496Y-49030000D01*
X214966458Y-49219928D01*
X215025473Y-49401556D01*
X215120960Y-49566944D01*
X215248747Y-49708866D01*
X215327227Y-49765885D01*
X215374873Y-49800502D01*
X215403248Y-49821118D01*
X215409276Y-49823802D01*
X215409278Y-49823803D01*
X215571681Y-49896109D01*
X215577712Y-49898794D01*
X215671113Y-49918647D01*
X215758056Y-49937128D01*
X215758061Y-49937128D01*
X215764513Y-49938500D01*
X215955487Y-49938500D01*
X215961939Y-49937128D01*
X215961944Y-49937128D01*
X216048888Y-49918647D01*
X216142288Y-49898794D01*
X216148319Y-49896109D01*
X216310722Y-49823803D01*
X216310724Y-49823802D01*
X216316752Y-49821118D01*
X216339538Y-49804563D01*
X216413598Y-49780500D01*
X222899629Y-49780500D01*
X222967750Y-49800502D01*
X222988724Y-49817405D01*
X223698230Y-50526911D01*
X223710616Y-50541323D01*
X223719149Y-50552918D01*
X223719154Y-50552923D01*
X223723492Y-50558818D01*
X223729070Y-50563557D01*
X223729073Y-50563560D01*
X223763768Y-50593035D01*
X223771284Y-50599965D01*
X223776979Y-50605660D01*
X223779861Y-50607940D01*
X223799251Y-50623281D01*
X223802655Y-50626072D01*
X223835578Y-50654042D01*
X223858285Y-50673333D01*
X223864801Y-50676661D01*
X223869850Y-50680028D01*
X223874979Y-50683195D01*
X223880716Y-50687734D01*
X223946875Y-50718655D01*
X223950769Y-50720558D01*
X224015808Y-50753769D01*
X224022916Y-50755508D01*
X224028559Y-50757607D01*
X224034322Y-50759524D01*
X224040950Y-50762622D01*
X224048112Y-50764112D01*
X224048113Y-50764112D01*
X224112412Y-50777486D01*
X224116696Y-50778456D01*
X224187610Y-50795808D01*
X224193212Y-50796156D01*
X224193215Y-50796156D01*
X224198764Y-50796500D01*
X224198762Y-50796536D01*
X224202755Y-50796775D01*
X224206947Y-50797149D01*
X224214115Y-50798640D01*
X224291520Y-50796546D01*
X224294928Y-50796500D01*
X231112131Y-50796500D01*
X231180252Y-50816502D01*
X231226745Y-50870158D01*
X231235378Y-50896303D01*
X231275503Y-51085074D01*
X231277006Y-51089203D01*
X231277007Y-51089207D01*
X231326087Y-51224053D01*
X231375401Y-51359544D01*
X231512527Y-51617439D01*
X231684209Y-51853740D01*
X231687265Y-51856904D01*
X231687267Y-51856907D01*
X231814802Y-51988973D01*
X231847734Y-52051870D01*
X231841434Y-52122586D01*
X231797902Y-52178671D01*
X231724165Y-52202500D01*
X222075457Y-52202500D01*
X222055745Y-52200949D01*
X222049008Y-52199882D01*
X222049009Y-52199882D01*
X222042493Y-52198850D01*
X222035906Y-52199195D01*
X222035902Y-52199195D01*
X221976150Y-52202327D01*
X221969555Y-52202500D01*
X221949694Y-52202500D01*
X221929931Y-52204577D01*
X221923372Y-52205093D01*
X221907573Y-52205921D01*
X221863623Y-52208224D01*
X221863619Y-52208225D01*
X221857029Y-52208570D01*
X221844071Y-52212042D01*
X221824628Y-52215645D01*
X221811298Y-52217046D01*
X221748106Y-52237578D01*
X221741804Y-52239444D01*
X221736128Y-52240965D01*
X221677637Y-52256638D01*
X221671758Y-52259634D01*
X221671749Y-52259637D01*
X221665683Y-52262728D01*
X221647421Y-52270292D01*
X221640957Y-52272392D01*
X221640949Y-52272395D01*
X221634669Y-52274436D01*
X221628950Y-52277738D01*
X221628945Y-52277740D01*
X221577133Y-52307654D01*
X221571363Y-52310787D01*
X221512161Y-52340953D01*
X221507029Y-52345109D01*
X221501741Y-52349391D01*
X221485448Y-52360589D01*
X221473831Y-52367296D01*
X221468925Y-52371713D01*
X221468920Y-52371717D01*
X221424462Y-52411747D01*
X221419446Y-52416031D01*
X221406591Y-52426441D01*
X221404014Y-52428528D01*
X221389969Y-52442573D01*
X221385184Y-52447114D01*
X221335815Y-52491566D01*
X221327925Y-52502426D01*
X221315088Y-52517454D01*
X219079974Y-54752568D01*
X219064946Y-54765405D01*
X219054086Y-54773295D01*
X219049665Y-54778205D01*
X219049664Y-54778206D01*
X219009634Y-54822664D01*
X219005093Y-54827449D01*
X218991048Y-54841494D01*
X218988964Y-54844068D01*
X218988961Y-54844071D01*
X218978551Y-54856926D01*
X218974267Y-54861942D01*
X218934237Y-54906400D01*
X218934233Y-54906405D01*
X218929816Y-54911311D01*
X218923311Y-54922577D01*
X218923109Y-54922928D01*
X218911911Y-54939221D01*
X218903473Y-54949641D01*
X218873307Y-55008843D01*
X218870174Y-55014613D01*
X218840260Y-55066425D01*
X218840258Y-55066430D01*
X218836956Y-55072149D01*
X218834915Y-55078429D01*
X218834912Y-55078437D01*
X218832812Y-55084901D01*
X218825248Y-55103163D01*
X218822157Y-55109229D01*
X218822154Y-55109238D01*
X218819158Y-55115117D01*
X218817449Y-55121495D01*
X218801964Y-55179284D01*
X218800098Y-55185586D01*
X218779566Y-55248778D01*
X218778876Y-55255346D01*
X218778165Y-55262108D01*
X218774562Y-55281551D01*
X218771090Y-55294509D01*
X218770745Y-55301099D01*
X218770744Y-55301103D01*
X218767613Y-55360847D01*
X218767097Y-55367411D01*
X218765020Y-55387174D01*
X218765020Y-55407035D01*
X218764847Y-55413630D01*
X218761370Y-55479973D01*
X218762402Y-55486487D01*
X218763469Y-55493224D01*
X218765020Y-55512936D01*
X218765020Y-57462915D01*
X218745018Y-57531036D01*
X218691362Y-57577529D01*
X218621088Y-57587633D01*
X218580353Y-57574423D01*
X218474090Y-57518515D01*
X218474075Y-57518509D01*
X218470039Y-57516385D01*
X218465734Y-57514865D01*
X218465730Y-57514863D01*
X218220033Y-57428098D01*
X218220032Y-57428098D01*
X218215720Y-57426575D01*
X218072035Y-57398255D01*
X217955572Y-57375300D01*
X217955566Y-57375299D01*
X217951100Y-57374419D01*
X217946547Y-57374192D01*
X217946544Y-57374192D01*
X217686292Y-57361236D01*
X217686286Y-57361236D01*
X217681723Y-57361009D01*
X217413231Y-57386625D01*
X217408797Y-57387710D01*
X217408791Y-57387711D01*
X217155688Y-57449645D01*
X217151250Y-57450731D01*
X216901267Y-57551985D01*
X216668518Y-57688265D01*
X216457881Y-57856716D01*
X216273766Y-58053809D01*
X216120032Y-58275416D01*
X215999899Y-58516894D01*
X215998478Y-58521228D01*
X215998477Y-58521231D01*
X215998415Y-58521422D01*
X215915882Y-58773186D01*
X215915102Y-58777677D01*
X215915102Y-58777678D01*
X215883525Y-58959547D01*
X215869743Y-59038921D01*
X215865500Y-59124149D01*
X215865500Y-59892512D01*
X215865664Y-59894777D01*
X215865665Y-59894792D01*
X215867888Y-59925422D01*
X215880047Y-60093004D01*
X215881031Y-60097459D01*
X215881031Y-60097462D01*
X215937178Y-60351769D01*
X215938194Y-60356372D01*
X215939812Y-60360642D01*
X216005944Y-60535194D01*
X216033750Y-60608588D01*
X216164714Y-60844368D01*
X216167486Y-60848000D01*
X216281608Y-60997535D01*
X216328343Y-61058773D01*
X216521208Y-61247312D01*
X216739270Y-61406034D01*
X216839031Y-61458521D01*
X216973921Y-61529490D01*
X216973927Y-61529493D01*
X216977961Y-61531615D01*
X216982266Y-61533135D01*
X216982270Y-61533137D01*
X217227967Y-61619902D01*
X217232280Y-61621425D01*
X217360032Y-61646605D01*
X217492428Y-61672700D01*
X217492434Y-61672701D01*
X217496900Y-61673581D01*
X217501453Y-61673808D01*
X217501456Y-61673808D01*
X217761708Y-61686764D01*
X217761714Y-61686764D01*
X217766277Y-61686991D01*
X218034769Y-61661375D01*
X218039203Y-61660290D01*
X218039209Y-61660289D01*
X218292312Y-61598355D01*
X218296750Y-61597269D01*
X218546733Y-61496015D01*
X218575356Y-61479255D01*
X218644246Y-61462096D01*
X218711478Y-61484907D01*
X218755706Y-61540444D01*
X218765020Y-61587988D01*
X218765020Y-62681332D01*
X218745018Y-62749453D01*
X218728115Y-62770427D01*
X218535155Y-62963387D01*
X218472843Y-62997413D01*
X218404105Y-62993101D01*
X218271319Y-62946209D01*
X218220033Y-62928098D01*
X218220032Y-62928098D01*
X218215720Y-62926575D01*
X218080006Y-62899826D01*
X217955572Y-62875300D01*
X217955566Y-62875299D01*
X217951100Y-62874419D01*
X217946547Y-62874192D01*
X217946544Y-62874192D01*
X217686292Y-62861236D01*
X217686286Y-62861236D01*
X217681723Y-62861009D01*
X217413231Y-62886625D01*
X217408797Y-62887710D01*
X217408791Y-62887711D01*
X217235035Y-62930229D01*
X217151250Y-62950731D01*
X216901267Y-63051985D01*
X216668518Y-63188265D01*
X216548580Y-63284182D01*
X216465664Y-63350492D01*
X216457881Y-63356716D01*
X216454764Y-63360053D01*
X216346906Y-63475513D01*
X216285788Y-63511638D01*
X216254831Y-63515500D01*
X214997888Y-63515500D01*
X214929767Y-63495498D01*
X214909809Y-63479600D01*
X214906999Y-63476853D01*
X214726792Y-63300688D01*
X214508730Y-63141966D01*
X214342948Y-63054744D01*
X214274079Y-63018510D01*
X214274073Y-63018507D01*
X214270039Y-63016385D01*
X214265734Y-63014865D01*
X214265730Y-63014863D01*
X214020033Y-62928098D01*
X214020032Y-62928098D01*
X214015720Y-62926575D01*
X213880006Y-62899826D01*
X213755572Y-62875300D01*
X213755566Y-62875299D01*
X213751100Y-62874419D01*
X213746547Y-62874192D01*
X213746544Y-62874192D01*
X213486292Y-62861236D01*
X213486286Y-62861236D01*
X213481723Y-62861009D01*
X213213231Y-62886625D01*
X213208797Y-62887710D01*
X213208791Y-62887711D01*
X213035035Y-62930229D01*
X212951250Y-62950731D01*
X212701267Y-63051985D01*
X212468518Y-63188265D01*
X212348580Y-63284182D01*
X212265664Y-63350492D01*
X212257881Y-63356716D01*
X212073766Y-63553809D01*
X211920032Y-63775416D01*
X211799899Y-64016894D01*
X211798478Y-64021228D01*
X211798477Y-64021231D01*
X211742432Y-64192197D01*
X211715882Y-64273186D01*
X211715102Y-64277677D01*
X211715102Y-64277678D01*
X211683525Y-64459547D01*
X211669743Y-64538921D01*
X211665500Y-64624149D01*
X211665500Y-65392512D01*
X211665664Y-65394777D01*
X211665665Y-65394792D01*
X211667888Y-65425422D01*
X211680047Y-65593004D01*
X211681031Y-65597459D01*
X211681031Y-65597462D01*
X211737178Y-65851769D01*
X211738194Y-65856372D01*
X211739812Y-65860642D01*
X211805944Y-66035194D01*
X211833750Y-66108588D01*
X211964714Y-66344368D01*
X211967486Y-66348000D01*
X212081608Y-66497535D01*
X212128343Y-66558773D01*
X212131609Y-66561966D01*
X212131611Y-66561968D01*
X212156021Y-66585830D01*
X212321208Y-66747312D01*
X212539270Y-66906034D01*
X212639031Y-66958521D01*
X212773921Y-67029490D01*
X212773927Y-67029493D01*
X212777961Y-67031615D01*
X212782266Y-67033135D01*
X212782270Y-67033137D01*
X213027967Y-67119902D01*
X213032280Y-67121425D01*
X213160032Y-67146605D01*
X213292428Y-67172700D01*
X213292434Y-67172701D01*
X213296900Y-67173581D01*
X213301453Y-67173808D01*
X213301456Y-67173808D01*
X213561708Y-67186764D01*
X213561714Y-67186764D01*
X213566277Y-67186991D01*
X213834769Y-67161375D01*
X213839203Y-67160290D01*
X213839209Y-67160289D01*
X214092312Y-67098355D01*
X214096750Y-67097269D01*
X214346733Y-66996015D01*
X214579482Y-66859735D01*
X214790119Y-66691284D01*
X214874862Y-66600568D01*
X214901094Y-66572487D01*
X214962212Y-66536362D01*
X214993169Y-66532500D01*
X216250112Y-66532500D01*
X216318233Y-66552502D01*
X216338190Y-66568400D01*
X216521208Y-66747312D01*
X216739270Y-66906034D01*
X216839031Y-66958521D01*
X216973921Y-67029490D01*
X216973927Y-67029493D01*
X216977961Y-67031615D01*
X216982266Y-67033135D01*
X216982270Y-67033137D01*
X217227967Y-67119902D01*
X217232280Y-67121425D01*
X217360032Y-67146605D01*
X217492428Y-67172700D01*
X217492434Y-67172701D01*
X217496900Y-67173581D01*
X217501453Y-67173808D01*
X217501456Y-67173808D01*
X217761708Y-67186764D01*
X217761714Y-67186764D01*
X217766277Y-67186991D01*
X218034769Y-67161375D01*
X218039203Y-67160290D01*
X218039209Y-67160289D01*
X218292312Y-67098355D01*
X218296750Y-67097269D01*
X218546733Y-66996015D01*
X218779482Y-66859735D01*
X218990119Y-66691284D01*
X219174234Y-66494191D01*
X219327968Y-66272584D01*
X219448101Y-66031106D01*
X219449523Y-66026769D01*
X219530698Y-65779147D01*
X219530699Y-65779141D01*
X219532118Y-65774814D01*
X219532919Y-65770201D01*
X219577601Y-65512860D01*
X219577602Y-65512852D01*
X219578257Y-65509079D01*
X219582500Y-65423851D01*
X219582500Y-64655488D01*
X219570398Y-64488697D01*
X219585418Y-64419309D01*
X219606973Y-64390485D01*
X219933605Y-64063853D01*
X219995917Y-64029827D01*
X220066732Y-64034892D01*
X220123568Y-64077439D01*
X220148379Y-64143959D01*
X220142431Y-64192197D01*
X220141109Y-64196231D01*
X220115882Y-64273186D01*
X220115102Y-64277677D01*
X220115102Y-64277678D01*
X220083525Y-64459547D01*
X220069743Y-64538921D01*
X220065500Y-64624149D01*
X220065500Y-65392512D01*
X220065664Y-65394777D01*
X220065665Y-65394792D01*
X220067888Y-65425422D01*
X220080047Y-65593004D01*
X220081031Y-65597459D01*
X220081031Y-65597462D01*
X220137178Y-65851769D01*
X220138194Y-65856372D01*
X220139812Y-65860642D01*
X220205944Y-66035194D01*
X220233750Y-66108588D01*
X220364714Y-66344368D01*
X220367486Y-66348000D01*
X220481608Y-66497535D01*
X220528343Y-66558773D01*
X220531609Y-66561966D01*
X220531611Y-66561968D01*
X220556021Y-66585830D01*
X220721208Y-66747312D01*
X220939270Y-66906034D01*
X221039031Y-66958521D01*
X221173921Y-67029490D01*
X221173927Y-67029493D01*
X221177961Y-67031615D01*
X221182266Y-67033135D01*
X221182270Y-67033137D01*
X221427967Y-67119902D01*
X221432280Y-67121425D01*
X221560032Y-67146605D01*
X221692428Y-67172700D01*
X221692434Y-67172701D01*
X221696900Y-67173581D01*
X221701453Y-67173808D01*
X221701456Y-67173808D01*
X221961708Y-67186764D01*
X221961714Y-67186764D01*
X221966277Y-67186991D01*
X222234769Y-67161375D01*
X222239203Y-67160290D01*
X222239209Y-67160289D01*
X222492312Y-67098355D01*
X222496750Y-67097269D01*
X222746733Y-66996015D01*
X222979482Y-66859735D01*
X223190119Y-66691284D01*
X223374234Y-66494191D01*
X223527968Y-66272584D01*
X223648101Y-66031106D01*
X223649523Y-66026769D01*
X223730698Y-65779147D01*
X223730699Y-65779141D01*
X223732118Y-65774814D01*
X223732919Y-65770201D01*
X223777601Y-65512860D01*
X223777602Y-65512852D01*
X223778257Y-65509079D01*
X223782500Y-65423851D01*
X223782500Y-65392512D01*
X224265500Y-65392512D01*
X224265664Y-65394777D01*
X224265665Y-65394792D01*
X224267888Y-65425422D01*
X224280047Y-65593004D01*
X224281031Y-65597459D01*
X224281031Y-65597462D01*
X224337178Y-65851769D01*
X224338194Y-65856372D01*
X224339812Y-65860642D01*
X224405944Y-66035194D01*
X224433750Y-66108588D01*
X224564714Y-66344368D01*
X224567486Y-66348000D01*
X224681608Y-66497535D01*
X224728343Y-66558773D01*
X224731609Y-66561966D01*
X224731611Y-66561968D01*
X224756021Y-66585830D01*
X224921208Y-66747312D01*
X225139270Y-66906034D01*
X225239031Y-66958521D01*
X225373921Y-67029490D01*
X225373927Y-67029493D01*
X225377961Y-67031615D01*
X225382266Y-67033135D01*
X225382270Y-67033137D01*
X225627967Y-67119902D01*
X225632280Y-67121425D01*
X225760032Y-67146605D01*
X225892428Y-67172700D01*
X225892434Y-67172701D01*
X225896900Y-67173581D01*
X225901453Y-67173808D01*
X225901456Y-67173808D01*
X226161708Y-67186764D01*
X226161714Y-67186764D01*
X226166277Y-67186991D01*
X226434769Y-67161375D01*
X226439203Y-67160290D01*
X226439209Y-67160289D01*
X226692312Y-67098355D01*
X226696750Y-67097269D01*
X226946733Y-66996015D01*
X227179482Y-66859735D01*
X227390119Y-66691284D01*
X227574234Y-66494191D01*
X227727968Y-66272584D01*
X227848101Y-66031106D01*
X227849523Y-66026769D01*
X227930698Y-65779147D01*
X227930699Y-65779141D01*
X227932118Y-65774814D01*
X227932919Y-65770201D01*
X227977601Y-65512860D01*
X227977602Y-65512852D01*
X227978257Y-65509079D01*
X227982500Y-65423851D01*
X227982500Y-65390206D01*
X228466000Y-65390206D01*
X228466165Y-65394777D01*
X228480213Y-65588380D01*
X228481527Y-65597389D01*
X228537689Y-65851769D01*
X228540292Y-65860499D01*
X228632586Y-66104107D01*
X228636421Y-66112368D01*
X228762915Y-66340101D01*
X228767905Y-66347726D01*
X228925946Y-66554809D01*
X228931986Y-66561636D01*
X229118264Y-66743735D01*
X229125226Y-66749618D01*
X229335843Y-66902922D01*
X229343573Y-66907733D01*
X229574122Y-67029031D01*
X229582472Y-67032678D01*
X229828099Y-67119419D01*
X229836894Y-67121825D01*
X230052225Y-67164267D01*
X230065137Y-67163088D01*
X230069939Y-67148174D01*
X230578000Y-67148174D01*
X230582251Y-67162651D01*
X230594512Y-67164714D01*
X230630133Y-67161315D01*
X230639125Y-67159795D01*
X230892158Y-67097878D01*
X230900827Y-67095078D01*
X231142282Y-66997278D01*
X231150455Y-66993256D01*
X231375253Y-66861632D01*
X231382765Y-66856469D01*
X231586213Y-66693769D01*
X231592896Y-66687580D01*
X231770733Y-66497206D01*
X231776443Y-66490129D01*
X231924934Y-66276082D01*
X231929571Y-66268241D01*
X232045604Y-66035003D01*
X232049060Y-66026578D01*
X232130212Y-65779026D01*
X232132412Y-65770201D01*
X232177103Y-65512811D01*
X232177950Y-65505193D01*
X232181922Y-65425408D01*
X232182000Y-65422267D01*
X232182000Y-65392512D01*
X232665500Y-65392512D01*
X232665664Y-65394777D01*
X232665665Y-65394792D01*
X232667888Y-65425422D01*
X232680047Y-65593004D01*
X232681031Y-65597459D01*
X232681031Y-65597462D01*
X232737178Y-65851769D01*
X232738194Y-65856372D01*
X232739812Y-65860642D01*
X232805944Y-66035194D01*
X232833750Y-66108588D01*
X232964714Y-66344368D01*
X232967486Y-66348000D01*
X233081608Y-66497535D01*
X233128343Y-66558773D01*
X233131609Y-66561966D01*
X233131611Y-66561968D01*
X233156021Y-66585830D01*
X233321208Y-66747312D01*
X233539270Y-66906034D01*
X233639031Y-66958521D01*
X233773921Y-67029490D01*
X233773927Y-67029493D01*
X233777961Y-67031615D01*
X233782266Y-67033135D01*
X233782270Y-67033137D01*
X234027967Y-67119902D01*
X234032280Y-67121425D01*
X234160032Y-67146605D01*
X234292428Y-67172700D01*
X234292434Y-67172701D01*
X234296900Y-67173581D01*
X234301453Y-67173808D01*
X234301456Y-67173808D01*
X234561708Y-67186764D01*
X234561714Y-67186764D01*
X234566277Y-67186991D01*
X234834769Y-67161375D01*
X234839203Y-67160290D01*
X234839209Y-67160289D01*
X235092312Y-67098355D01*
X235096750Y-67097269D01*
X235346733Y-66996015D01*
X235579482Y-66859735D01*
X235790119Y-66691284D01*
X235974234Y-66494191D01*
X236127968Y-66272584D01*
X236248101Y-66031106D01*
X236249523Y-66026769D01*
X236330698Y-65779147D01*
X236330699Y-65779141D01*
X236332118Y-65774814D01*
X236332919Y-65770201D01*
X236377601Y-65512860D01*
X236377602Y-65512852D01*
X236378257Y-65509079D01*
X236382500Y-65423851D01*
X236382500Y-65390206D01*
X236866000Y-65390206D01*
X236866165Y-65394777D01*
X236880213Y-65588380D01*
X236881527Y-65597389D01*
X236937689Y-65851769D01*
X236940292Y-65860499D01*
X237032586Y-66104107D01*
X237036421Y-66112368D01*
X237162915Y-66340101D01*
X237167905Y-66347726D01*
X237325946Y-66554809D01*
X237331986Y-66561636D01*
X237518264Y-66743735D01*
X237525226Y-66749618D01*
X237735843Y-66902922D01*
X237743573Y-66907733D01*
X237974122Y-67029031D01*
X237982472Y-67032678D01*
X238228099Y-67119419D01*
X238236894Y-67121825D01*
X238452225Y-67164267D01*
X238465137Y-67163088D01*
X238469939Y-67148174D01*
X238978000Y-67148174D01*
X238982251Y-67162651D01*
X238994512Y-67164714D01*
X239030133Y-67161315D01*
X239039125Y-67159795D01*
X239292158Y-67097878D01*
X239300827Y-67095078D01*
X239542282Y-66997278D01*
X239550455Y-66993256D01*
X239775253Y-66861632D01*
X239782765Y-66856469D01*
X239986213Y-66693769D01*
X239992896Y-66687580D01*
X240170733Y-66497206D01*
X240176443Y-66490129D01*
X240324934Y-66276082D01*
X240329571Y-66268241D01*
X240445604Y-66035003D01*
X240449060Y-66026578D01*
X240530212Y-65779026D01*
X240532412Y-65770201D01*
X240577103Y-65512811D01*
X240577950Y-65505193D01*
X240581922Y-65425408D01*
X240582000Y-65422267D01*
X240582000Y-65392512D01*
X241065500Y-65392512D01*
X241065664Y-65394777D01*
X241065665Y-65394792D01*
X241067888Y-65425422D01*
X241080047Y-65593004D01*
X241081031Y-65597459D01*
X241081031Y-65597462D01*
X241137178Y-65851769D01*
X241138194Y-65856372D01*
X241139812Y-65860642D01*
X241205944Y-66035194D01*
X241233750Y-66108588D01*
X241364714Y-66344368D01*
X241367486Y-66348000D01*
X241481608Y-66497535D01*
X241528343Y-66558773D01*
X241531609Y-66561966D01*
X241531611Y-66561968D01*
X241556021Y-66585830D01*
X241721208Y-66747312D01*
X241939270Y-66906034D01*
X242039031Y-66958521D01*
X242173921Y-67029490D01*
X242173927Y-67029493D01*
X242177961Y-67031615D01*
X242182266Y-67033135D01*
X242182270Y-67033137D01*
X242427967Y-67119902D01*
X242432280Y-67121425D01*
X242560032Y-67146605D01*
X242692428Y-67172700D01*
X242692434Y-67172701D01*
X242696900Y-67173581D01*
X242701453Y-67173808D01*
X242701456Y-67173808D01*
X242961708Y-67186764D01*
X242961714Y-67186764D01*
X242966277Y-67186991D01*
X243234769Y-67161375D01*
X243239203Y-67160290D01*
X243239209Y-67160289D01*
X243492312Y-67098355D01*
X243496750Y-67097269D01*
X243746733Y-66996015D01*
X243979482Y-66859735D01*
X244190119Y-66691284D01*
X244374234Y-66494191D01*
X244527968Y-66272584D01*
X244648101Y-66031106D01*
X244649523Y-66026769D01*
X244730698Y-65779147D01*
X244730699Y-65779141D01*
X244732118Y-65774814D01*
X244732919Y-65770201D01*
X244777601Y-65512860D01*
X244777602Y-65512852D01*
X244778257Y-65509079D01*
X244782500Y-65423851D01*
X244782500Y-65390206D01*
X245266000Y-65390206D01*
X245266165Y-65394777D01*
X245280213Y-65588380D01*
X245281527Y-65597389D01*
X245337689Y-65851769D01*
X245340292Y-65860499D01*
X245432586Y-66104107D01*
X245436421Y-66112368D01*
X245562915Y-66340101D01*
X245567905Y-66347726D01*
X245725946Y-66554809D01*
X245731986Y-66561636D01*
X245918264Y-66743735D01*
X245925226Y-66749618D01*
X246135843Y-66902922D01*
X246143573Y-66907733D01*
X246374122Y-67029031D01*
X246382472Y-67032678D01*
X246628099Y-67119419D01*
X246636894Y-67121825D01*
X246852225Y-67164267D01*
X246865137Y-67163088D01*
X246869939Y-67148174D01*
X247378000Y-67148174D01*
X247382251Y-67162651D01*
X247394512Y-67164714D01*
X247430133Y-67161315D01*
X247439125Y-67159795D01*
X247692158Y-67097878D01*
X247700827Y-67095078D01*
X247942282Y-66997278D01*
X247950455Y-66993256D01*
X248175253Y-66861632D01*
X248182765Y-66856469D01*
X248386213Y-66693769D01*
X248392896Y-66687580D01*
X248570733Y-66497206D01*
X248576443Y-66490129D01*
X248724934Y-66276082D01*
X248729571Y-66268241D01*
X248845604Y-66035003D01*
X248849060Y-66026578D01*
X248930212Y-65779026D01*
X248932412Y-65770201D01*
X248977103Y-65512811D01*
X248977950Y-65505193D01*
X248981922Y-65425408D01*
X248982000Y-65422267D01*
X248982000Y-65392512D01*
X249465500Y-65392512D01*
X249465664Y-65394777D01*
X249465665Y-65394792D01*
X249467888Y-65425422D01*
X249480047Y-65593004D01*
X249481031Y-65597459D01*
X249481031Y-65597462D01*
X249537178Y-65851769D01*
X249538194Y-65856372D01*
X249539812Y-65860642D01*
X249605944Y-66035194D01*
X249633750Y-66108588D01*
X249764714Y-66344368D01*
X249767486Y-66348000D01*
X249881608Y-66497535D01*
X249928343Y-66558773D01*
X249931609Y-66561966D01*
X249931611Y-66561968D01*
X249956021Y-66585830D01*
X250121208Y-66747312D01*
X250339270Y-66906034D01*
X250439031Y-66958521D01*
X250573921Y-67029490D01*
X250573927Y-67029493D01*
X250577961Y-67031615D01*
X250582266Y-67033135D01*
X250582270Y-67033137D01*
X250827967Y-67119902D01*
X250832280Y-67121425D01*
X250960032Y-67146605D01*
X251092428Y-67172700D01*
X251092434Y-67172701D01*
X251096900Y-67173581D01*
X251101453Y-67173808D01*
X251101456Y-67173808D01*
X251361708Y-67186764D01*
X251361714Y-67186764D01*
X251366277Y-67186991D01*
X251634769Y-67161375D01*
X251639203Y-67160290D01*
X251639209Y-67160289D01*
X251892312Y-67098355D01*
X251896750Y-67097269D01*
X252146733Y-66996015D01*
X252379482Y-66859735D01*
X252590119Y-66691284D01*
X252774234Y-66494191D01*
X252927968Y-66272584D01*
X253048101Y-66031106D01*
X253049523Y-66026769D01*
X253130698Y-65779147D01*
X253130699Y-65779141D01*
X253132118Y-65774814D01*
X253132919Y-65770201D01*
X253177601Y-65512860D01*
X253177602Y-65512852D01*
X253178257Y-65509079D01*
X253182500Y-65423851D01*
X253182500Y-64655488D01*
X253180114Y-64622592D01*
X253170398Y-64488698D01*
X253167953Y-64454996D01*
X253128831Y-64277799D01*
X253110791Y-64196088D01*
X253110790Y-64196084D01*
X253109806Y-64191628D01*
X253045321Y-64021422D01*
X253015868Y-63943682D01*
X253015867Y-63943679D01*
X253014250Y-63939412D01*
X252883286Y-63703632D01*
X252784836Y-63574631D01*
X253665500Y-63574631D01*
X253665501Y-66473368D01*
X253676491Y-66579293D01*
X253732547Y-66747315D01*
X253825754Y-66897936D01*
X253830936Y-66903109D01*
X253945930Y-67017903D01*
X253945935Y-67017907D01*
X253951111Y-67023074D01*
X253957341Y-67026914D01*
X253957342Y-67026915D01*
X254094722Y-67111597D01*
X254101894Y-67116018D01*
X254270014Y-67171781D01*
X254276851Y-67172481D01*
X254276853Y-67172482D01*
X254319922Y-67176895D01*
X254374631Y-67182500D01*
X255515136Y-67182500D01*
X256673368Y-67182499D01*
X256676612Y-67182162D01*
X256676620Y-67182162D01*
X256722904Y-67177359D01*
X256779293Y-67171509D01*
X256947315Y-67115453D01*
X257097936Y-67022246D01*
X257122411Y-66997728D01*
X257217903Y-66902070D01*
X257217907Y-66902065D01*
X257223074Y-66896889D01*
X257316018Y-66746106D01*
X257371781Y-66577986D01*
X257382500Y-66473369D01*
X257382499Y-63574632D01*
X257371509Y-63468707D01*
X257315453Y-63300685D01*
X257222246Y-63150064D01*
X257131603Y-63059579D01*
X257102070Y-63030097D01*
X257102065Y-63030093D01*
X257096889Y-63024926D01*
X257087225Y-63018969D01*
X256952336Y-62935822D01*
X256952334Y-62935821D01*
X256946106Y-62931982D01*
X256777986Y-62876219D01*
X256771149Y-62875519D01*
X256771147Y-62875518D01*
X256728078Y-62871105D01*
X256673369Y-62865500D01*
X255532864Y-62865500D01*
X254374632Y-62865501D01*
X254371388Y-62865838D01*
X254371380Y-62865838D01*
X254325096Y-62870641D01*
X254268707Y-62876491D01*
X254100685Y-62932547D01*
X253950064Y-63025754D01*
X253944891Y-63030936D01*
X253830097Y-63145930D01*
X253830093Y-63145935D01*
X253824926Y-63151111D01*
X253821086Y-63157341D01*
X253821085Y-63157342D01*
X253757199Y-63260985D01*
X253731982Y-63301894D01*
X253676219Y-63470014D01*
X253665500Y-63574631D01*
X252784836Y-63574631D01*
X252772045Y-63557871D01*
X252722429Y-63492859D01*
X252722428Y-63492858D01*
X252719657Y-63489227D01*
X252705629Y-63475513D01*
X252623225Y-63394958D01*
X252526792Y-63300688D01*
X252308730Y-63141966D01*
X252142948Y-63054744D01*
X252074079Y-63018510D01*
X252074073Y-63018507D01*
X252070039Y-63016385D01*
X252065734Y-63014865D01*
X252065730Y-63014863D01*
X251820033Y-62928098D01*
X251820032Y-62928098D01*
X251815720Y-62926575D01*
X251680006Y-62899826D01*
X251555572Y-62875300D01*
X251555566Y-62875299D01*
X251551100Y-62874419D01*
X251546547Y-62874192D01*
X251546544Y-62874192D01*
X251286292Y-62861236D01*
X251286286Y-62861236D01*
X251281723Y-62861009D01*
X251013231Y-62886625D01*
X251008797Y-62887710D01*
X251008791Y-62887711D01*
X250835035Y-62930229D01*
X250751250Y-62950731D01*
X250501267Y-63051985D01*
X250268518Y-63188265D01*
X250148580Y-63284182D01*
X250065664Y-63350492D01*
X250057881Y-63356716D01*
X249873766Y-63553809D01*
X249720032Y-63775416D01*
X249599899Y-64016894D01*
X249598478Y-64021228D01*
X249598477Y-64021231D01*
X249542432Y-64192197D01*
X249515882Y-64273186D01*
X249515102Y-64277677D01*
X249515102Y-64277678D01*
X249483525Y-64459547D01*
X249469743Y-64538921D01*
X249465500Y-64624149D01*
X249465500Y-65392512D01*
X248982000Y-65392512D01*
X248982000Y-65296115D01*
X248977525Y-65280876D01*
X248976135Y-65279671D01*
X248968452Y-65278000D01*
X247396115Y-65278000D01*
X247380876Y-65282475D01*
X247379671Y-65283865D01*
X247378000Y-65291548D01*
X247378000Y-67148174D01*
X246869939Y-67148174D01*
X246870000Y-67147985D01*
X246870000Y-65296115D01*
X246865525Y-65280876D01*
X246864135Y-65279671D01*
X246856452Y-65278000D01*
X245284115Y-65278000D01*
X245268876Y-65282475D01*
X245267671Y-65283865D01*
X245266000Y-65291548D01*
X245266000Y-65390206D01*
X244782500Y-65390206D01*
X244782500Y-64751885D01*
X245266000Y-64751885D01*
X245270475Y-64767124D01*
X245271865Y-64768329D01*
X245279548Y-64770000D01*
X246851885Y-64770000D01*
X246867124Y-64765525D01*
X246868329Y-64764135D01*
X246870000Y-64756452D01*
X246870000Y-64751885D01*
X247378000Y-64751885D01*
X247382475Y-64767124D01*
X247383865Y-64768329D01*
X247391548Y-64770000D01*
X248963885Y-64770000D01*
X248979124Y-64765525D01*
X248980329Y-64764135D01*
X248982000Y-64756452D01*
X248982000Y-64657794D01*
X248981835Y-64653223D01*
X248967787Y-64459620D01*
X248966473Y-64450611D01*
X248910311Y-64196231D01*
X248907708Y-64187501D01*
X248815414Y-63943893D01*
X248811579Y-63935632D01*
X248685085Y-63707899D01*
X248680095Y-63700274D01*
X248522054Y-63493191D01*
X248516014Y-63486364D01*
X248329736Y-63304265D01*
X248322774Y-63298382D01*
X248112157Y-63145078D01*
X248104427Y-63140267D01*
X247873878Y-63018969D01*
X247865528Y-63015322D01*
X247619901Y-62928581D01*
X247611106Y-62926175D01*
X247395775Y-62883733D01*
X247382863Y-62884912D01*
X247378000Y-62900015D01*
X247378000Y-64751885D01*
X246870000Y-64751885D01*
X246870000Y-62899826D01*
X246865749Y-62885349D01*
X246853488Y-62883286D01*
X246817867Y-62886685D01*
X246808875Y-62888205D01*
X246555842Y-62950122D01*
X246547173Y-62952922D01*
X246305718Y-63050722D01*
X246297545Y-63054744D01*
X246072747Y-63186368D01*
X246065235Y-63191531D01*
X245861787Y-63354231D01*
X245855104Y-63360420D01*
X245677267Y-63550794D01*
X245671557Y-63557871D01*
X245523066Y-63771918D01*
X245518429Y-63779759D01*
X245402396Y-64012997D01*
X245398940Y-64021422D01*
X245317788Y-64268974D01*
X245315588Y-64277799D01*
X245270897Y-64535189D01*
X245270050Y-64542807D01*
X245266078Y-64622592D01*
X245266000Y-64625733D01*
X245266000Y-64751885D01*
X244782500Y-64751885D01*
X244782500Y-64655488D01*
X244780114Y-64622592D01*
X244770398Y-64488698D01*
X244767953Y-64454996D01*
X244728831Y-64277799D01*
X244710791Y-64196088D01*
X244710790Y-64196084D01*
X244709806Y-64191628D01*
X244645321Y-64021422D01*
X244615868Y-63943682D01*
X244615867Y-63943679D01*
X244614250Y-63939412D01*
X244483286Y-63703632D01*
X244372045Y-63557871D01*
X244322429Y-63492859D01*
X244322428Y-63492858D01*
X244319657Y-63489227D01*
X244305629Y-63475513D01*
X244223225Y-63394958D01*
X244126792Y-63300688D01*
X243908730Y-63141966D01*
X243742948Y-63054744D01*
X243674079Y-63018510D01*
X243674073Y-63018507D01*
X243670039Y-63016385D01*
X243665734Y-63014865D01*
X243665730Y-63014863D01*
X243420033Y-62928098D01*
X243420032Y-62928098D01*
X243415720Y-62926575D01*
X243280006Y-62899826D01*
X243155572Y-62875300D01*
X243155566Y-62875299D01*
X243151100Y-62874419D01*
X243146547Y-62874192D01*
X243146544Y-62874192D01*
X242886292Y-62861236D01*
X242886286Y-62861236D01*
X242881723Y-62861009D01*
X242613231Y-62886625D01*
X242608797Y-62887710D01*
X242608791Y-62887711D01*
X242435035Y-62930229D01*
X242351250Y-62950731D01*
X242101267Y-63051985D01*
X241868518Y-63188265D01*
X241748580Y-63284182D01*
X241665664Y-63350492D01*
X241657881Y-63356716D01*
X241473766Y-63553809D01*
X241320032Y-63775416D01*
X241199899Y-64016894D01*
X241198478Y-64021228D01*
X241198477Y-64021231D01*
X241142432Y-64192197D01*
X241115882Y-64273186D01*
X241115102Y-64277677D01*
X241115102Y-64277678D01*
X241083525Y-64459547D01*
X241069743Y-64538921D01*
X241065500Y-64624149D01*
X241065500Y-65392512D01*
X240582000Y-65392512D01*
X240582000Y-65296115D01*
X240577525Y-65280876D01*
X240576135Y-65279671D01*
X240568452Y-65278000D01*
X238996115Y-65278000D01*
X238980876Y-65282475D01*
X238979671Y-65283865D01*
X238978000Y-65291548D01*
X238978000Y-67148174D01*
X238469939Y-67148174D01*
X238470000Y-67147985D01*
X238470000Y-65296115D01*
X238465525Y-65280876D01*
X238464135Y-65279671D01*
X238456452Y-65278000D01*
X236884115Y-65278000D01*
X236868876Y-65282475D01*
X236867671Y-65283865D01*
X236866000Y-65291548D01*
X236866000Y-65390206D01*
X236382500Y-65390206D01*
X236382500Y-64751885D01*
X236866000Y-64751885D01*
X236870475Y-64767124D01*
X236871865Y-64768329D01*
X236879548Y-64770000D01*
X238451885Y-64770000D01*
X238467124Y-64765525D01*
X238468329Y-64764135D01*
X238470000Y-64756452D01*
X238470000Y-64751885D01*
X238978000Y-64751885D01*
X238982475Y-64767124D01*
X238983865Y-64768329D01*
X238991548Y-64770000D01*
X240563885Y-64770000D01*
X240579124Y-64765525D01*
X240580329Y-64764135D01*
X240582000Y-64756452D01*
X240582000Y-64657794D01*
X240581835Y-64653223D01*
X240567787Y-64459620D01*
X240566473Y-64450611D01*
X240510311Y-64196231D01*
X240507708Y-64187501D01*
X240415414Y-63943893D01*
X240411579Y-63935632D01*
X240285085Y-63707899D01*
X240280095Y-63700274D01*
X240122054Y-63493191D01*
X240116014Y-63486364D01*
X239929736Y-63304265D01*
X239922774Y-63298382D01*
X239712157Y-63145078D01*
X239704427Y-63140267D01*
X239473878Y-63018969D01*
X239465528Y-63015322D01*
X239219901Y-62928581D01*
X239211106Y-62926175D01*
X238995775Y-62883733D01*
X238982863Y-62884912D01*
X238978000Y-62900015D01*
X238978000Y-64751885D01*
X238470000Y-64751885D01*
X238470000Y-62899826D01*
X238465749Y-62885349D01*
X238453488Y-62883286D01*
X238417867Y-62886685D01*
X238408875Y-62888205D01*
X238155842Y-62950122D01*
X238147173Y-62952922D01*
X237905718Y-63050722D01*
X237897545Y-63054744D01*
X237672747Y-63186368D01*
X237665235Y-63191531D01*
X237461787Y-63354231D01*
X237455104Y-63360420D01*
X237277267Y-63550794D01*
X237271557Y-63557871D01*
X237123066Y-63771918D01*
X237118429Y-63779759D01*
X237002396Y-64012997D01*
X236998940Y-64021422D01*
X236917788Y-64268974D01*
X236915588Y-64277799D01*
X236870897Y-64535189D01*
X236870050Y-64542807D01*
X236866078Y-64622592D01*
X236866000Y-64625733D01*
X236866000Y-64751885D01*
X236382500Y-64751885D01*
X236382500Y-64655488D01*
X236380114Y-64622592D01*
X236370398Y-64488698D01*
X236367953Y-64454996D01*
X236328831Y-64277799D01*
X236310791Y-64196088D01*
X236310790Y-64196084D01*
X236309806Y-64191628D01*
X236245321Y-64021422D01*
X236215868Y-63943682D01*
X236215867Y-63943679D01*
X236214250Y-63939412D01*
X236083286Y-63703632D01*
X235972045Y-63557871D01*
X235922429Y-63492859D01*
X235922428Y-63492858D01*
X235919657Y-63489227D01*
X235905629Y-63475513D01*
X235823225Y-63394958D01*
X235726792Y-63300688D01*
X235508730Y-63141966D01*
X235342948Y-63054744D01*
X235274079Y-63018510D01*
X235274073Y-63018507D01*
X235270039Y-63016385D01*
X235265734Y-63014865D01*
X235265730Y-63014863D01*
X235020033Y-62928098D01*
X235020032Y-62928098D01*
X235015720Y-62926575D01*
X234880006Y-62899826D01*
X234755572Y-62875300D01*
X234755566Y-62875299D01*
X234751100Y-62874419D01*
X234746547Y-62874192D01*
X234746544Y-62874192D01*
X234486292Y-62861236D01*
X234486286Y-62861236D01*
X234481723Y-62861009D01*
X234213231Y-62886625D01*
X234208797Y-62887710D01*
X234208791Y-62887711D01*
X234035035Y-62930229D01*
X233951250Y-62950731D01*
X233701267Y-63051985D01*
X233468518Y-63188265D01*
X233348580Y-63284182D01*
X233265664Y-63350492D01*
X233257881Y-63356716D01*
X233073766Y-63553809D01*
X232920032Y-63775416D01*
X232799899Y-64016894D01*
X232798478Y-64021228D01*
X232798477Y-64021231D01*
X232742432Y-64192197D01*
X232715882Y-64273186D01*
X232715102Y-64277677D01*
X232715102Y-64277678D01*
X232683525Y-64459547D01*
X232669743Y-64538921D01*
X232665500Y-64624149D01*
X232665500Y-65392512D01*
X232182000Y-65392512D01*
X232182000Y-65296115D01*
X232177525Y-65280876D01*
X232176135Y-65279671D01*
X232168452Y-65278000D01*
X230596115Y-65278000D01*
X230580876Y-65282475D01*
X230579671Y-65283865D01*
X230578000Y-65291548D01*
X230578000Y-67148174D01*
X230069939Y-67148174D01*
X230070000Y-67147985D01*
X230070000Y-65296115D01*
X230065525Y-65280876D01*
X230064135Y-65279671D01*
X230056452Y-65278000D01*
X228484115Y-65278000D01*
X228468876Y-65282475D01*
X228467671Y-65283865D01*
X228466000Y-65291548D01*
X228466000Y-65390206D01*
X227982500Y-65390206D01*
X227982500Y-64751885D01*
X228466000Y-64751885D01*
X228470475Y-64767124D01*
X228471865Y-64768329D01*
X228479548Y-64770000D01*
X230051885Y-64770000D01*
X230067124Y-64765525D01*
X230068329Y-64764135D01*
X230070000Y-64756452D01*
X230070000Y-64751885D01*
X230578000Y-64751885D01*
X230582475Y-64767124D01*
X230583865Y-64768329D01*
X230591548Y-64770000D01*
X232163885Y-64770000D01*
X232179124Y-64765525D01*
X232180329Y-64764135D01*
X232182000Y-64756452D01*
X232182000Y-64657794D01*
X232181835Y-64653223D01*
X232167787Y-64459620D01*
X232166473Y-64450611D01*
X232110311Y-64196231D01*
X232107708Y-64187501D01*
X232015414Y-63943893D01*
X232011579Y-63935632D01*
X231885085Y-63707899D01*
X231880095Y-63700274D01*
X231722054Y-63493191D01*
X231716014Y-63486364D01*
X231529736Y-63304265D01*
X231522774Y-63298382D01*
X231312157Y-63145078D01*
X231304427Y-63140267D01*
X231073878Y-63018969D01*
X231065528Y-63015322D01*
X230819901Y-62928581D01*
X230811106Y-62926175D01*
X230595775Y-62883733D01*
X230582863Y-62884912D01*
X230578000Y-62900015D01*
X230578000Y-64751885D01*
X230070000Y-64751885D01*
X230070000Y-62899826D01*
X230065749Y-62885349D01*
X230053488Y-62883286D01*
X230017867Y-62886685D01*
X230008875Y-62888205D01*
X229755842Y-62950122D01*
X229747173Y-62952922D01*
X229505718Y-63050722D01*
X229497545Y-63054744D01*
X229272747Y-63186368D01*
X229265235Y-63191531D01*
X229061787Y-63354231D01*
X229055104Y-63360420D01*
X228877267Y-63550794D01*
X228871557Y-63557871D01*
X228723066Y-63771918D01*
X228718429Y-63779759D01*
X228602396Y-64012997D01*
X228598940Y-64021422D01*
X228517788Y-64268974D01*
X228515588Y-64277799D01*
X228470897Y-64535189D01*
X228470050Y-64542807D01*
X228466078Y-64622592D01*
X228466000Y-64625733D01*
X228466000Y-64751885D01*
X227982500Y-64751885D01*
X227982500Y-64655488D01*
X227980114Y-64622592D01*
X227970398Y-64488698D01*
X227967953Y-64454996D01*
X227928831Y-64277799D01*
X227910791Y-64196088D01*
X227910790Y-64196084D01*
X227909806Y-64191628D01*
X227845321Y-64021422D01*
X227815868Y-63943682D01*
X227815867Y-63943679D01*
X227814250Y-63939412D01*
X227683286Y-63703632D01*
X227572045Y-63557871D01*
X227522429Y-63492859D01*
X227522428Y-63492858D01*
X227519657Y-63489227D01*
X227505629Y-63475513D01*
X227423225Y-63394958D01*
X227326792Y-63300688D01*
X227108730Y-63141966D01*
X226942948Y-63054744D01*
X226874079Y-63018510D01*
X226874073Y-63018507D01*
X226870039Y-63016385D01*
X226865734Y-63014865D01*
X226865730Y-63014863D01*
X226620033Y-62928098D01*
X226620032Y-62928098D01*
X226615720Y-62926575D01*
X226480006Y-62899826D01*
X226355572Y-62875300D01*
X226355566Y-62875299D01*
X226351100Y-62874419D01*
X226346547Y-62874192D01*
X226346544Y-62874192D01*
X226086292Y-62861236D01*
X226086286Y-62861236D01*
X226081723Y-62861009D01*
X225813231Y-62886625D01*
X225808797Y-62887710D01*
X225808791Y-62887711D01*
X225635035Y-62930229D01*
X225551250Y-62950731D01*
X225301267Y-63051985D01*
X225068518Y-63188265D01*
X224948580Y-63284182D01*
X224865664Y-63350492D01*
X224857881Y-63356716D01*
X224673766Y-63553809D01*
X224520032Y-63775416D01*
X224399899Y-64016894D01*
X224398478Y-64021228D01*
X224398477Y-64021231D01*
X224342432Y-64192197D01*
X224315882Y-64273186D01*
X224315102Y-64277677D01*
X224315102Y-64277678D01*
X224283525Y-64459547D01*
X224269743Y-64538921D01*
X224265500Y-64624149D01*
X224265500Y-65392512D01*
X223782500Y-65392512D01*
X223782500Y-64655488D01*
X223780114Y-64622592D01*
X223770398Y-64488698D01*
X223767953Y-64454996D01*
X223728831Y-64277799D01*
X223710791Y-64196088D01*
X223710790Y-64196084D01*
X223709806Y-64191628D01*
X223645321Y-64021422D01*
X223615868Y-63943682D01*
X223615867Y-63943679D01*
X223614250Y-63939412D01*
X223483286Y-63703632D01*
X223372045Y-63557871D01*
X223322429Y-63492859D01*
X223322428Y-63492858D01*
X223319657Y-63489227D01*
X223305629Y-63475513D01*
X223223225Y-63394958D01*
X223126792Y-63300688D01*
X222908730Y-63141966D01*
X222742948Y-63054744D01*
X222674079Y-63018510D01*
X222674073Y-63018507D01*
X222670039Y-63016385D01*
X222665734Y-63014865D01*
X222665730Y-63014863D01*
X222420033Y-62928098D01*
X222420032Y-62928098D01*
X222415720Y-62926575D01*
X222280006Y-62899826D01*
X222155572Y-62875300D01*
X222155566Y-62875299D01*
X222151100Y-62874419D01*
X222146547Y-62874192D01*
X222146544Y-62874192D01*
X221886292Y-62861236D01*
X221886286Y-62861236D01*
X221881723Y-62861009D01*
X221613231Y-62886625D01*
X221608797Y-62887710D01*
X221608791Y-62887711D01*
X221435035Y-62930229D01*
X221351250Y-62950731D01*
X221101267Y-63051985D01*
X220868518Y-63188265D01*
X220864213Y-63191708D01*
X220732922Y-63296704D01*
X220667229Y-63323628D01*
X220597408Y-63310762D01*
X220545626Y-63262191D01*
X220528400Y-63191708D01*
X220529426Y-63172127D01*
X220529943Y-63165551D01*
X220531676Y-63149059D01*
X220532020Y-63145786D01*
X220532020Y-63125912D01*
X220532193Y-63119318D01*
X220535324Y-63059579D01*
X220535324Y-63059575D01*
X220535669Y-63052987D01*
X220533571Y-63039740D01*
X220532020Y-63020030D01*
X220532020Y-61357163D01*
X220552022Y-61289042D01*
X220605678Y-61242549D01*
X220675952Y-61232445D01*
X220732170Y-61255291D01*
X220939270Y-61406034D01*
X221039031Y-61458521D01*
X221173921Y-61529490D01*
X221173927Y-61529493D01*
X221177961Y-61531615D01*
X221182266Y-61533135D01*
X221182270Y-61533137D01*
X221427967Y-61619902D01*
X221432280Y-61621425D01*
X221560032Y-61646605D01*
X221692428Y-61672700D01*
X221692434Y-61672701D01*
X221696900Y-61673581D01*
X221701453Y-61673808D01*
X221701456Y-61673808D01*
X221961708Y-61686764D01*
X221961714Y-61686764D01*
X221966277Y-61686991D01*
X222234769Y-61661375D01*
X222239203Y-61660290D01*
X222239209Y-61660289D01*
X222492312Y-61598355D01*
X222496750Y-61597269D01*
X222746733Y-61496015D01*
X222979482Y-61359735D01*
X223190119Y-61191284D01*
X223374234Y-60994191D01*
X223527968Y-60772584D01*
X223648101Y-60531106D01*
X223649523Y-60526769D01*
X223730698Y-60279147D01*
X223730699Y-60279141D01*
X223732118Y-60274814D01*
X223732919Y-60270201D01*
X223777601Y-60012860D01*
X223777602Y-60012852D01*
X223778257Y-60009079D01*
X223782500Y-59923851D01*
X223782500Y-59892512D01*
X224265500Y-59892512D01*
X224265664Y-59894777D01*
X224265665Y-59894792D01*
X224267888Y-59925422D01*
X224280047Y-60093004D01*
X224281031Y-60097459D01*
X224281031Y-60097462D01*
X224337178Y-60351769D01*
X224338194Y-60356372D01*
X224339812Y-60360642D01*
X224405944Y-60535194D01*
X224433750Y-60608588D01*
X224564714Y-60844368D01*
X224567486Y-60848000D01*
X224681608Y-60997535D01*
X224728343Y-61058773D01*
X224921208Y-61247312D01*
X225139270Y-61406034D01*
X225239031Y-61458521D01*
X225373921Y-61529490D01*
X225373927Y-61529493D01*
X225377961Y-61531615D01*
X225382266Y-61533135D01*
X225382270Y-61533137D01*
X225627967Y-61619902D01*
X225632280Y-61621425D01*
X225760032Y-61646605D01*
X225892428Y-61672700D01*
X225892434Y-61672701D01*
X225896900Y-61673581D01*
X225901453Y-61673808D01*
X225901456Y-61673808D01*
X226161708Y-61686764D01*
X226161714Y-61686764D01*
X226166277Y-61686991D01*
X226434769Y-61661375D01*
X226439203Y-61660290D01*
X226439209Y-61660289D01*
X226692312Y-61598355D01*
X226696750Y-61597269D01*
X226946733Y-61496015D01*
X227179482Y-61359735D01*
X227390119Y-61191284D01*
X227574234Y-60994191D01*
X227727968Y-60772584D01*
X227848101Y-60531106D01*
X227849523Y-60526769D01*
X227930698Y-60279147D01*
X227930699Y-60279141D01*
X227932118Y-60274814D01*
X227932919Y-60270201D01*
X227977601Y-60012860D01*
X227977602Y-60012852D01*
X227978257Y-60009079D01*
X227982500Y-59923851D01*
X227982500Y-59890206D01*
X228466000Y-59890206D01*
X228466165Y-59894777D01*
X228480213Y-60088380D01*
X228481527Y-60097389D01*
X228537689Y-60351769D01*
X228540292Y-60360499D01*
X228632586Y-60604107D01*
X228636421Y-60612368D01*
X228762915Y-60840101D01*
X228767905Y-60847726D01*
X228925946Y-61054809D01*
X228931986Y-61061636D01*
X229118264Y-61243735D01*
X229125226Y-61249618D01*
X229335843Y-61402922D01*
X229343573Y-61407733D01*
X229574122Y-61529031D01*
X229582472Y-61532678D01*
X229828099Y-61619419D01*
X229836894Y-61621825D01*
X230052225Y-61664267D01*
X230065137Y-61663088D01*
X230069939Y-61648174D01*
X230578000Y-61648174D01*
X230582251Y-61662651D01*
X230594512Y-61664714D01*
X230630133Y-61661315D01*
X230639125Y-61659795D01*
X230892158Y-61597878D01*
X230900827Y-61595078D01*
X231142282Y-61497278D01*
X231150455Y-61493256D01*
X231375253Y-61361632D01*
X231382765Y-61356469D01*
X231586213Y-61193769D01*
X231592896Y-61187580D01*
X231770733Y-60997206D01*
X231776443Y-60990129D01*
X231924934Y-60776082D01*
X231929571Y-60768241D01*
X232045604Y-60535003D01*
X232049060Y-60526578D01*
X232130212Y-60279026D01*
X232132412Y-60270201D01*
X232177103Y-60012811D01*
X232177950Y-60005193D01*
X232181922Y-59925408D01*
X232182000Y-59922267D01*
X232182000Y-59890206D01*
X232666000Y-59890206D01*
X232666165Y-59894777D01*
X232680213Y-60088380D01*
X232681527Y-60097389D01*
X232737689Y-60351769D01*
X232740292Y-60360499D01*
X232832586Y-60604107D01*
X232836421Y-60612368D01*
X232962915Y-60840101D01*
X232967905Y-60847726D01*
X233125946Y-61054809D01*
X233131986Y-61061636D01*
X233318264Y-61243735D01*
X233325226Y-61249618D01*
X233535843Y-61402922D01*
X233543573Y-61407733D01*
X233774122Y-61529031D01*
X233782472Y-61532678D01*
X234028099Y-61619419D01*
X234036894Y-61621825D01*
X234252225Y-61664267D01*
X234265137Y-61663088D01*
X234269939Y-61648174D01*
X234778000Y-61648174D01*
X234782251Y-61662651D01*
X234794512Y-61664714D01*
X234830133Y-61661315D01*
X234839125Y-61659795D01*
X235092158Y-61597878D01*
X235100827Y-61595078D01*
X235342282Y-61497278D01*
X235350455Y-61493256D01*
X235575253Y-61361632D01*
X235582765Y-61356469D01*
X235786213Y-61193769D01*
X235792896Y-61187580D01*
X235970733Y-60997206D01*
X235976443Y-60990129D01*
X236124934Y-60776082D01*
X236129571Y-60768241D01*
X236245604Y-60535003D01*
X236249060Y-60526578D01*
X236330212Y-60279026D01*
X236332412Y-60270201D01*
X236377103Y-60012811D01*
X236377950Y-60005193D01*
X236381922Y-59925408D01*
X236382000Y-59922267D01*
X236382000Y-59890206D01*
X236866000Y-59890206D01*
X236866165Y-59894777D01*
X236880213Y-60088380D01*
X236881527Y-60097389D01*
X236937689Y-60351769D01*
X236940292Y-60360499D01*
X237032586Y-60604107D01*
X237036421Y-60612368D01*
X237162915Y-60840101D01*
X237167905Y-60847726D01*
X237325946Y-61054809D01*
X237331986Y-61061636D01*
X237518264Y-61243735D01*
X237525226Y-61249618D01*
X237735843Y-61402922D01*
X237743573Y-61407733D01*
X237974122Y-61529031D01*
X237982472Y-61532678D01*
X238228099Y-61619419D01*
X238236894Y-61621825D01*
X238452225Y-61664267D01*
X238465137Y-61663088D01*
X238469939Y-61648174D01*
X238978000Y-61648174D01*
X238982251Y-61662651D01*
X238994512Y-61664714D01*
X239030133Y-61661315D01*
X239039125Y-61659795D01*
X239292158Y-61597878D01*
X239300827Y-61595078D01*
X239542282Y-61497278D01*
X239550455Y-61493256D01*
X239775253Y-61361632D01*
X239782765Y-61356469D01*
X239986213Y-61193769D01*
X239992896Y-61187580D01*
X240170733Y-60997206D01*
X240176443Y-60990129D01*
X240324934Y-60776082D01*
X240329571Y-60768241D01*
X240445604Y-60535003D01*
X240449060Y-60526578D01*
X240530212Y-60279026D01*
X240532412Y-60270201D01*
X240577103Y-60012811D01*
X240577950Y-60005193D01*
X240581922Y-59925408D01*
X240582000Y-59922267D01*
X240582000Y-59796115D01*
X240577525Y-59780876D01*
X240576135Y-59779671D01*
X240568452Y-59778000D01*
X238996115Y-59778000D01*
X238980876Y-59782475D01*
X238979671Y-59783865D01*
X238978000Y-59791548D01*
X238978000Y-61648174D01*
X238469939Y-61648174D01*
X238470000Y-61647985D01*
X238470000Y-59796115D01*
X238465525Y-59780876D01*
X238464135Y-59779671D01*
X238456452Y-59778000D01*
X236884115Y-59778000D01*
X236868876Y-59782475D01*
X236867671Y-59783865D01*
X236866000Y-59791548D01*
X236866000Y-59890206D01*
X236382000Y-59890206D01*
X236382000Y-59796115D01*
X236377525Y-59780876D01*
X236376135Y-59779671D01*
X236368452Y-59778000D01*
X234796115Y-59778000D01*
X234780876Y-59782475D01*
X234779671Y-59783865D01*
X234778000Y-59791548D01*
X234778000Y-61648174D01*
X234269939Y-61648174D01*
X234270000Y-61647985D01*
X234270000Y-59796115D01*
X234265525Y-59780876D01*
X234264135Y-59779671D01*
X234256452Y-59778000D01*
X232684115Y-59778000D01*
X232668876Y-59782475D01*
X232667671Y-59783865D01*
X232666000Y-59791548D01*
X232666000Y-59890206D01*
X232182000Y-59890206D01*
X232182000Y-59796115D01*
X232177525Y-59780876D01*
X232176135Y-59779671D01*
X232168452Y-59778000D01*
X230596115Y-59778000D01*
X230580876Y-59782475D01*
X230579671Y-59783865D01*
X230578000Y-59791548D01*
X230578000Y-61648174D01*
X230069939Y-61648174D01*
X230070000Y-61647985D01*
X230070000Y-59796115D01*
X230065525Y-59780876D01*
X230064135Y-59779671D01*
X230056452Y-59778000D01*
X228484115Y-59778000D01*
X228468876Y-59782475D01*
X228467671Y-59783865D01*
X228466000Y-59791548D01*
X228466000Y-59890206D01*
X227982500Y-59890206D01*
X227982500Y-59251885D01*
X228466000Y-59251885D01*
X228470475Y-59267124D01*
X228471865Y-59268329D01*
X228479548Y-59270000D01*
X230051885Y-59270000D01*
X230067124Y-59265525D01*
X230068329Y-59264135D01*
X230070000Y-59256452D01*
X230070000Y-59251885D01*
X230578000Y-59251885D01*
X230582475Y-59267124D01*
X230583865Y-59268329D01*
X230591548Y-59270000D01*
X232163885Y-59270000D01*
X232179124Y-59265525D01*
X232180329Y-59264135D01*
X232182000Y-59256452D01*
X232182000Y-59251885D01*
X232666000Y-59251885D01*
X232670475Y-59267124D01*
X232671865Y-59268329D01*
X232679548Y-59270000D01*
X234251885Y-59270000D01*
X234267124Y-59265525D01*
X234268329Y-59264135D01*
X234270000Y-59256452D01*
X234270000Y-59251885D01*
X234778000Y-59251885D01*
X234782475Y-59267124D01*
X234783865Y-59268329D01*
X234791548Y-59270000D01*
X236363885Y-59270000D01*
X236379124Y-59265525D01*
X236380329Y-59264135D01*
X236382000Y-59256452D01*
X236382000Y-59251885D01*
X236866000Y-59251885D01*
X236870475Y-59267124D01*
X236871865Y-59268329D01*
X236879548Y-59270000D01*
X238451885Y-59270000D01*
X238467124Y-59265525D01*
X238468329Y-59264135D01*
X238470000Y-59256452D01*
X238470000Y-59251885D01*
X238978000Y-59251885D01*
X238982475Y-59267124D01*
X238983865Y-59268329D01*
X238991548Y-59270000D01*
X240563885Y-59270000D01*
X240579124Y-59265525D01*
X240580329Y-59264135D01*
X240582000Y-59256452D01*
X240582000Y-59157794D01*
X240581835Y-59153223D01*
X240567787Y-58959620D01*
X240566473Y-58950611D01*
X240510311Y-58696231D01*
X240507708Y-58687501D01*
X240415414Y-58443893D01*
X240411579Y-58435632D01*
X240285085Y-58207899D01*
X240280095Y-58200274D01*
X240122054Y-57993191D01*
X240116014Y-57986364D01*
X239929736Y-57804265D01*
X239922774Y-57798382D01*
X239712157Y-57645078D01*
X239704427Y-57640267D01*
X239473878Y-57518969D01*
X239465528Y-57515322D01*
X239219901Y-57428581D01*
X239211106Y-57426175D01*
X238995775Y-57383733D01*
X238982863Y-57384912D01*
X238978000Y-57400015D01*
X238978000Y-59251885D01*
X238470000Y-59251885D01*
X238470000Y-57399826D01*
X238465749Y-57385349D01*
X238453488Y-57383286D01*
X238417867Y-57386685D01*
X238408875Y-57388205D01*
X238155842Y-57450122D01*
X238147173Y-57452922D01*
X237905718Y-57550722D01*
X237897545Y-57554744D01*
X237672747Y-57686368D01*
X237665235Y-57691531D01*
X237461787Y-57854231D01*
X237455104Y-57860420D01*
X237277267Y-58050794D01*
X237271557Y-58057871D01*
X237123066Y-58271918D01*
X237118429Y-58279759D01*
X237002396Y-58512997D01*
X236998940Y-58521422D01*
X236917788Y-58768974D01*
X236915588Y-58777799D01*
X236870897Y-59035189D01*
X236870050Y-59042807D01*
X236866078Y-59122592D01*
X236866000Y-59125733D01*
X236866000Y-59251885D01*
X236382000Y-59251885D01*
X236382000Y-59157794D01*
X236381835Y-59153223D01*
X236367787Y-58959620D01*
X236366473Y-58950611D01*
X236310311Y-58696231D01*
X236307708Y-58687501D01*
X236215414Y-58443893D01*
X236211579Y-58435632D01*
X236085085Y-58207899D01*
X236080095Y-58200274D01*
X235922054Y-57993191D01*
X235916014Y-57986364D01*
X235729736Y-57804265D01*
X235722774Y-57798382D01*
X235512157Y-57645078D01*
X235504427Y-57640267D01*
X235273878Y-57518969D01*
X235265528Y-57515322D01*
X235019901Y-57428581D01*
X235011106Y-57426175D01*
X234795775Y-57383733D01*
X234782863Y-57384912D01*
X234778000Y-57400015D01*
X234778000Y-59251885D01*
X234270000Y-59251885D01*
X234270000Y-57399826D01*
X234265749Y-57385349D01*
X234253488Y-57383286D01*
X234217867Y-57386685D01*
X234208875Y-57388205D01*
X233955842Y-57450122D01*
X233947173Y-57452922D01*
X233705718Y-57550722D01*
X233697545Y-57554744D01*
X233472747Y-57686368D01*
X233465235Y-57691531D01*
X233261787Y-57854231D01*
X233255104Y-57860420D01*
X233077267Y-58050794D01*
X233071557Y-58057871D01*
X232923066Y-58271918D01*
X232918429Y-58279759D01*
X232802396Y-58512997D01*
X232798940Y-58521422D01*
X232717788Y-58768974D01*
X232715588Y-58777799D01*
X232670897Y-59035189D01*
X232670050Y-59042807D01*
X232666078Y-59122592D01*
X232666000Y-59125733D01*
X232666000Y-59251885D01*
X232182000Y-59251885D01*
X232182000Y-59157794D01*
X232181835Y-59153223D01*
X232167787Y-58959620D01*
X232166473Y-58950611D01*
X232110311Y-58696231D01*
X232107708Y-58687501D01*
X232015414Y-58443893D01*
X232011579Y-58435632D01*
X231885085Y-58207899D01*
X231880095Y-58200274D01*
X231722054Y-57993191D01*
X231716014Y-57986364D01*
X231529736Y-57804265D01*
X231522774Y-57798382D01*
X231312157Y-57645078D01*
X231304427Y-57640267D01*
X231073878Y-57518969D01*
X231065528Y-57515322D01*
X230819901Y-57428581D01*
X230811106Y-57426175D01*
X230595775Y-57383733D01*
X230582863Y-57384912D01*
X230578000Y-57400015D01*
X230578000Y-59251885D01*
X230070000Y-59251885D01*
X230070000Y-57399826D01*
X230065749Y-57385349D01*
X230053488Y-57383286D01*
X230017867Y-57386685D01*
X230008875Y-57388205D01*
X229755842Y-57450122D01*
X229747173Y-57452922D01*
X229505718Y-57550722D01*
X229497545Y-57554744D01*
X229272747Y-57686368D01*
X229265235Y-57691531D01*
X229061787Y-57854231D01*
X229055104Y-57860420D01*
X228877267Y-58050794D01*
X228871557Y-58057871D01*
X228723066Y-58271918D01*
X228718429Y-58279759D01*
X228602396Y-58512997D01*
X228598940Y-58521422D01*
X228517788Y-58768974D01*
X228515588Y-58777799D01*
X228470897Y-59035189D01*
X228470050Y-59042807D01*
X228466078Y-59122592D01*
X228466000Y-59125733D01*
X228466000Y-59251885D01*
X227982500Y-59251885D01*
X227982500Y-59155488D01*
X227980114Y-59122592D01*
X227972823Y-59022116D01*
X227967953Y-58954996D01*
X227928831Y-58777799D01*
X227910791Y-58696088D01*
X227910790Y-58696084D01*
X227909806Y-58691628D01*
X227845321Y-58521422D01*
X227815868Y-58443682D01*
X227815867Y-58443679D01*
X227814250Y-58439412D01*
X227683286Y-58203632D01*
X227572045Y-58057871D01*
X227522429Y-57992859D01*
X227522428Y-57992858D01*
X227519657Y-57989227D01*
X227326792Y-57800688D01*
X227108730Y-57641966D01*
X226986255Y-57577529D01*
X226874079Y-57518510D01*
X226874073Y-57518507D01*
X226870039Y-57516385D01*
X226865734Y-57514865D01*
X226865730Y-57514863D01*
X226620033Y-57428098D01*
X226620032Y-57428098D01*
X226615720Y-57426575D01*
X226472035Y-57398255D01*
X226355572Y-57375300D01*
X226355566Y-57375299D01*
X226351100Y-57374419D01*
X226346547Y-57374192D01*
X226346544Y-57374192D01*
X226086292Y-57361236D01*
X226086286Y-57361236D01*
X226081723Y-57361009D01*
X225813231Y-57386625D01*
X225808797Y-57387710D01*
X225808791Y-57387711D01*
X225555688Y-57449645D01*
X225551250Y-57450731D01*
X225301267Y-57551985D01*
X225068518Y-57688265D01*
X224857881Y-57856716D01*
X224673766Y-58053809D01*
X224520032Y-58275416D01*
X224399899Y-58516894D01*
X224398478Y-58521228D01*
X224398477Y-58521231D01*
X224398415Y-58521422D01*
X224315882Y-58773186D01*
X224315102Y-58777677D01*
X224315102Y-58777678D01*
X224283525Y-58959547D01*
X224269743Y-59038921D01*
X224265500Y-59124149D01*
X224265500Y-59892512D01*
X223782500Y-59892512D01*
X223782500Y-59155488D01*
X223780114Y-59122592D01*
X223772823Y-59022116D01*
X223767953Y-58954996D01*
X223728831Y-58777799D01*
X223710791Y-58696088D01*
X223710790Y-58696084D01*
X223709806Y-58691628D01*
X223645321Y-58521422D01*
X223615868Y-58443682D01*
X223615867Y-58443679D01*
X223614250Y-58439412D01*
X223483286Y-58203632D01*
X223372045Y-58057871D01*
X223322429Y-57992859D01*
X223322428Y-57992858D01*
X223319657Y-57989227D01*
X223126792Y-57800688D01*
X222908730Y-57641966D01*
X222786255Y-57577529D01*
X222674079Y-57518510D01*
X222674073Y-57518507D01*
X222670039Y-57516385D01*
X222665734Y-57514865D01*
X222665730Y-57514863D01*
X222420033Y-57428098D01*
X222420032Y-57428098D01*
X222415720Y-57426575D01*
X222272035Y-57398255D01*
X222155572Y-57375300D01*
X222155566Y-57375299D01*
X222151100Y-57374419D01*
X222146547Y-57374192D01*
X222146544Y-57374192D01*
X221886292Y-57361236D01*
X221886286Y-57361236D01*
X221881723Y-57361009D01*
X221613231Y-57386625D01*
X221608797Y-57387710D01*
X221608791Y-57387711D01*
X221355688Y-57449645D01*
X221351250Y-57450731D01*
X221101267Y-57551985D01*
X220868518Y-57688265D01*
X220864956Y-57691113D01*
X220864951Y-57691117D01*
X220736715Y-57793671D01*
X220671022Y-57820595D01*
X220601201Y-57807729D01*
X220549419Y-57759158D01*
X220532020Y-57695268D01*
X220532020Y-55851628D01*
X220552022Y-55783507D01*
X220568925Y-55762533D01*
X222325053Y-54006405D01*
X222387365Y-53972379D01*
X222414148Y-53969500D01*
X238080543Y-53969500D01*
X238100255Y-53971051D01*
X238113507Y-53973150D01*
X238120094Y-53972805D01*
X238120098Y-53972805D01*
X238179850Y-53969673D01*
X238186445Y-53969500D01*
X238206306Y-53969500D01*
X238226069Y-53967423D01*
X238232628Y-53966907D01*
X238248427Y-53966079D01*
X238292377Y-53963776D01*
X238292381Y-53963775D01*
X238298971Y-53963430D01*
X238311929Y-53959958D01*
X238331372Y-53956355D01*
X238331795Y-53956311D01*
X238344702Y-53954954D01*
X238407894Y-53934422D01*
X238414196Y-53932556D01*
X238471985Y-53917071D01*
X238478363Y-53915362D01*
X238484242Y-53912366D01*
X238484251Y-53912363D01*
X238490317Y-53909272D01*
X238508579Y-53901708D01*
X238515043Y-53899608D01*
X238515051Y-53899605D01*
X238521331Y-53897564D01*
X238527050Y-53894262D01*
X238527055Y-53894260D01*
X238578867Y-53864346D01*
X238584637Y-53861213D01*
X238643839Y-53831047D01*
X238654259Y-53822609D01*
X238670552Y-53811411D01*
X238670903Y-53811209D01*
X238682169Y-53804704D01*
X238687075Y-53800287D01*
X238687080Y-53800283D01*
X238731538Y-53760253D01*
X238736554Y-53755969D01*
X238749409Y-53745559D01*
X238749412Y-53745556D01*
X238751986Y-53743472D01*
X238766031Y-53729427D01*
X238770816Y-53724886D01*
X238815274Y-53684856D01*
X238815275Y-53684855D01*
X238820185Y-53680434D01*
X238828075Y-53669574D01*
X238840912Y-53654546D01*
X240104903Y-52390555D01*
X240167215Y-52356529D01*
X240238030Y-52361594D01*
X240256996Y-52370530D01*
X240290226Y-52389715D01*
X240561042Y-52499132D01*
X240565315Y-52500198D01*
X240565317Y-52500198D01*
X240634527Y-52517454D01*
X240844450Y-52569794D01*
X240848818Y-52570253D01*
X240848823Y-52570254D01*
X241130565Y-52599866D01*
X241130568Y-52599866D01*
X241134934Y-52600325D01*
X241139322Y-52600172D01*
X241139328Y-52600172D01*
X241422443Y-52590285D01*
X241422449Y-52590284D01*
X241426841Y-52590131D01*
X241714488Y-52539411D01*
X241718659Y-52538056D01*
X241718666Y-52538054D01*
X241988087Y-52450513D01*
X241988086Y-52450513D01*
X241992276Y-52449152D01*
X241996229Y-52447224D01*
X241996234Y-52447222D01*
X242250849Y-52323038D01*
X242254800Y-52321111D01*
X242433523Y-52200560D01*
X242501181Y-52179051D01*
X242569729Y-52197535D01*
X242617403Y-52250145D01*
X242629980Y-52305020D01*
X242629980Y-57283641D01*
X242609978Y-57351762D01*
X242556322Y-57398255D01*
X242533928Y-57406030D01*
X242441770Y-57428581D01*
X242351250Y-57450731D01*
X242101267Y-57551985D01*
X241868518Y-57688265D01*
X241657881Y-57856716D01*
X241473766Y-58053809D01*
X241320032Y-58275416D01*
X241199899Y-58516894D01*
X241198478Y-58521228D01*
X241198477Y-58521231D01*
X241198415Y-58521422D01*
X241115882Y-58773186D01*
X241115102Y-58777677D01*
X241115102Y-58777678D01*
X241083525Y-58959547D01*
X241069743Y-59038921D01*
X241065500Y-59124149D01*
X241065500Y-59892512D01*
X241065664Y-59894777D01*
X241065665Y-59894792D01*
X241067888Y-59925422D01*
X241080047Y-60093004D01*
X241081031Y-60097459D01*
X241081031Y-60097462D01*
X241137178Y-60351769D01*
X241138194Y-60356372D01*
X241139812Y-60360642D01*
X241205944Y-60535194D01*
X241233750Y-60608588D01*
X241364714Y-60844368D01*
X241367486Y-60848000D01*
X241481608Y-60997535D01*
X241528343Y-61058773D01*
X241721208Y-61247312D01*
X241939270Y-61406034D01*
X242039031Y-61458521D01*
X242173921Y-61529490D01*
X242173927Y-61529493D01*
X242177961Y-61531615D01*
X242182266Y-61533135D01*
X242182270Y-61533137D01*
X242427967Y-61619902D01*
X242432280Y-61621425D01*
X242560032Y-61646605D01*
X242692428Y-61672700D01*
X242692434Y-61672701D01*
X242696900Y-61673581D01*
X242701453Y-61673808D01*
X242701456Y-61673808D01*
X242961708Y-61686764D01*
X242961714Y-61686764D01*
X242966277Y-61686991D01*
X243234769Y-61661375D01*
X243239203Y-61660290D01*
X243239209Y-61660289D01*
X243492312Y-61598355D01*
X243496750Y-61597269D01*
X243746733Y-61496015D01*
X243979482Y-61359735D01*
X244190119Y-61191284D01*
X244374234Y-60994191D01*
X244527968Y-60772584D01*
X244648101Y-60531106D01*
X244649523Y-60526769D01*
X244730698Y-60279147D01*
X244730699Y-60279141D01*
X244732118Y-60274814D01*
X244732919Y-60270201D01*
X244777601Y-60012860D01*
X244777602Y-60012852D01*
X244778257Y-60009079D01*
X244782500Y-59923851D01*
X244782500Y-59890206D01*
X245266000Y-59890206D01*
X245266165Y-59894777D01*
X245280213Y-60088380D01*
X245281527Y-60097389D01*
X245337689Y-60351769D01*
X245340292Y-60360499D01*
X245432586Y-60604107D01*
X245436421Y-60612368D01*
X245562915Y-60840101D01*
X245567905Y-60847726D01*
X245725946Y-61054809D01*
X245731986Y-61061636D01*
X245918264Y-61243735D01*
X245925226Y-61249618D01*
X246135843Y-61402922D01*
X246143573Y-61407733D01*
X246374122Y-61529031D01*
X246382472Y-61532678D01*
X246628099Y-61619419D01*
X246636894Y-61621825D01*
X246852225Y-61664267D01*
X246865137Y-61663088D01*
X246869939Y-61648174D01*
X247378000Y-61648174D01*
X247382251Y-61662651D01*
X247394512Y-61664714D01*
X247430133Y-61661315D01*
X247439125Y-61659795D01*
X247692158Y-61597878D01*
X247700827Y-61595078D01*
X247942282Y-61497278D01*
X247950455Y-61493256D01*
X248175253Y-61361632D01*
X248182765Y-61356469D01*
X248386213Y-61193769D01*
X248392896Y-61187580D01*
X248570733Y-60997206D01*
X248576443Y-60990129D01*
X248724934Y-60776082D01*
X248729571Y-60768241D01*
X248845604Y-60535003D01*
X248849060Y-60526578D01*
X248930212Y-60279026D01*
X248932412Y-60270201D01*
X248977103Y-60012811D01*
X248977950Y-60005193D01*
X248981922Y-59925408D01*
X248982000Y-59922267D01*
X248982000Y-59892512D01*
X249465500Y-59892512D01*
X249465664Y-59894777D01*
X249465665Y-59894792D01*
X249467888Y-59925422D01*
X249480047Y-60093004D01*
X249481031Y-60097459D01*
X249481031Y-60097462D01*
X249537178Y-60351769D01*
X249538194Y-60356372D01*
X249539812Y-60360642D01*
X249605944Y-60535194D01*
X249633750Y-60608588D01*
X249764714Y-60844368D01*
X249767486Y-60848000D01*
X249881608Y-60997535D01*
X249928343Y-61058773D01*
X250121208Y-61247312D01*
X250339270Y-61406034D01*
X250439031Y-61458521D01*
X250573921Y-61529490D01*
X250573927Y-61529493D01*
X250577961Y-61531615D01*
X250582266Y-61533135D01*
X250582270Y-61533137D01*
X250827967Y-61619902D01*
X250832280Y-61621425D01*
X250960032Y-61646605D01*
X251092428Y-61672700D01*
X251092434Y-61672701D01*
X251096900Y-61673581D01*
X251101453Y-61673808D01*
X251101456Y-61673808D01*
X251361708Y-61686764D01*
X251361714Y-61686764D01*
X251366277Y-61686991D01*
X251634769Y-61661375D01*
X251639203Y-61660290D01*
X251639209Y-61660289D01*
X251892312Y-61598355D01*
X251896750Y-61597269D01*
X252146733Y-61496015D01*
X252379482Y-61359735D01*
X252590119Y-61191284D01*
X252774234Y-60994191D01*
X252927968Y-60772584D01*
X253048101Y-60531106D01*
X253049523Y-60526769D01*
X253130698Y-60279147D01*
X253130699Y-60279141D01*
X253132118Y-60274814D01*
X253132919Y-60270201D01*
X253177601Y-60012860D01*
X253177602Y-60012852D01*
X253178257Y-60009079D01*
X253182500Y-59923851D01*
X253182500Y-59892512D01*
X253665500Y-59892512D01*
X253665664Y-59894777D01*
X253665665Y-59894792D01*
X253667888Y-59925422D01*
X253680047Y-60093004D01*
X253681031Y-60097459D01*
X253681031Y-60097462D01*
X253737178Y-60351769D01*
X253738194Y-60356372D01*
X253739812Y-60360642D01*
X253805944Y-60535194D01*
X253833750Y-60608588D01*
X253964714Y-60844368D01*
X253967486Y-60848000D01*
X254081608Y-60997535D01*
X254128343Y-61058773D01*
X254321208Y-61247312D01*
X254539270Y-61406034D01*
X254639031Y-61458521D01*
X254773921Y-61529490D01*
X254773927Y-61529493D01*
X254777961Y-61531615D01*
X254782266Y-61533135D01*
X254782270Y-61533137D01*
X255027967Y-61619902D01*
X255032280Y-61621425D01*
X255160032Y-61646605D01*
X255292428Y-61672700D01*
X255292434Y-61672701D01*
X255296900Y-61673581D01*
X255301453Y-61673808D01*
X255301456Y-61673808D01*
X255561708Y-61686764D01*
X255561714Y-61686764D01*
X255566277Y-61686991D01*
X255834769Y-61661375D01*
X255839203Y-61660290D01*
X255839209Y-61660289D01*
X256092312Y-61598355D01*
X256096750Y-61597269D01*
X256346733Y-61496015D01*
X256579482Y-61359735D01*
X256790119Y-61191284D01*
X256974234Y-60994191D01*
X257127968Y-60772584D01*
X257248101Y-60531106D01*
X257249523Y-60526769D01*
X257330698Y-60279147D01*
X257330699Y-60279141D01*
X257332118Y-60274814D01*
X257332919Y-60270201D01*
X257377601Y-60012860D01*
X257377602Y-60012852D01*
X257378257Y-60009079D01*
X257382500Y-59923851D01*
X257382500Y-59155488D01*
X257380114Y-59122592D01*
X257372823Y-59022116D01*
X257367953Y-58954996D01*
X257328831Y-58777799D01*
X257310791Y-58696088D01*
X257310790Y-58696084D01*
X257309806Y-58691628D01*
X257245321Y-58521422D01*
X257215868Y-58443682D01*
X257215867Y-58443679D01*
X257214250Y-58439412D01*
X257083286Y-58203632D01*
X256972045Y-58057871D01*
X256922429Y-57992859D01*
X256922428Y-57992858D01*
X256919657Y-57989227D01*
X256726792Y-57800688D01*
X256508730Y-57641966D01*
X256386255Y-57577529D01*
X256274079Y-57518510D01*
X256274073Y-57518507D01*
X256270039Y-57516385D01*
X256265734Y-57514865D01*
X256265730Y-57514863D01*
X256020033Y-57428098D01*
X256020032Y-57428098D01*
X256015720Y-57426575D01*
X255872035Y-57398255D01*
X255755572Y-57375300D01*
X255755566Y-57375299D01*
X255751100Y-57374419D01*
X255746547Y-57374192D01*
X255746544Y-57374192D01*
X255486292Y-57361236D01*
X255486286Y-57361236D01*
X255481723Y-57361009D01*
X255213231Y-57386625D01*
X255208797Y-57387710D01*
X255208791Y-57387711D01*
X254955688Y-57449645D01*
X254951250Y-57450731D01*
X254701267Y-57551985D01*
X254468518Y-57688265D01*
X254257881Y-57856716D01*
X254073766Y-58053809D01*
X253920032Y-58275416D01*
X253799899Y-58516894D01*
X253798478Y-58521228D01*
X253798477Y-58521231D01*
X253798415Y-58521422D01*
X253715882Y-58773186D01*
X253715102Y-58777677D01*
X253715102Y-58777678D01*
X253683525Y-58959547D01*
X253669743Y-59038921D01*
X253665500Y-59124149D01*
X253665500Y-59892512D01*
X253182500Y-59892512D01*
X253182500Y-59155488D01*
X253180114Y-59122592D01*
X253172823Y-59022116D01*
X253167953Y-58954996D01*
X253128831Y-58777799D01*
X253110791Y-58696088D01*
X253110790Y-58696084D01*
X253109806Y-58691628D01*
X253045321Y-58521422D01*
X253015868Y-58443682D01*
X253015867Y-58443679D01*
X253014250Y-58439412D01*
X252883286Y-58203632D01*
X252772045Y-58057871D01*
X252722429Y-57992859D01*
X252722428Y-57992858D01*
X252719657Y-57989227D01*
X252526792Y-57800688D01*
X252308730Y-57641966D01*
X252186255Y-57577529D01*
X252074079Y-57518510D01*
X252074073Y-57518507D01*
X252070039Y-57516385D01*
X252065734Y-57514865D01*
X252065730Y-57514863D01*
X251820033Y-57428098D01*
X251820032Y-57428098D01*
X251815720Y-57426575D01*
X251672035Y-57398255D01*
X251555572Y-57375300D01*
X251555566Y-57375299D01*
X251551100Y-57374419D01*
X251546547Y-57374192D01*
X251546544Y-57374192D01*
X251286292Y-57361236D01*
X251286286Y-57361236D01*
X251281723Y-57361009D01*
X251013231Y-57386625D01*
X251008797Y-57387710D01*
X251008791Y-57387711D01*
X250755688Y-57449645D01*
X250751250Y-57450731D01*
X250501267Y-57551985D01*
X250268518Y-57688265D01*
X250057881Y-57856716D01*
X249873766Y-58053809D01*
X249720032Y-58275416D01*
X249599899Y-58516894D01*
X249598478Y-58521228D01*
X249598477Y-58521231D01*
X249598415Y-58521422D01*
X249515882Y-58773186D01*
X249515102Y-58777677D01*
X249515102Y-58777678D01*
X249483525Y-58959547D01*
X249469743Y-59038921D01*
X249465500Y-59124149D01*
X249465500Y-59892512D01*
X248982000Y-59892512D01*
X248982000Y-59796115D01*
X248977525Y-59780876D01*
X248976135Y-59779671D01*
X248968452Y-59778000D01*
X247396115Y-59778000D01*
X247380876Y-59782475D01*
X247379671Y-59783865D01*
X247378000Y-59791548D01*
X247378000Y-61648174D01*
X246869939Y-61648174D01*
X246870000Y-61647985D01*
X246870000Y-59796115D01*
X246865525Y-59780876D01*
X246864135Y-59779671D01*
X246856452Y-59778000D01*
X245284115Y-59778000D01*
X245268876Y-59782475D01*
X245267671Y-59783865D01*
X245266000Y-59791548D01*
X245266000Y-59890206D01*
X244782500Y-59890206D01*
X244782500Y-59251885D01*
X245266000Y-59251885D01*
X245270475Y-59267124D01*
X245271865Y-59268329D01*
X245279548Y-59270000D01*
X246851885Y-59270000D01*
X246867124Y-59265525D01*
X246868329Y-59264135D01*
X246870000Y-59256452D01*
X246870000Y-59251885D01*
X247378000Y-59251885D01*
X247382475Y-59267124D01*
X247383865Y-59268329D01*
X247391548Y-59270000D01*
X248963885Y-59270000D01*
X248979124Y-59265525D01*
X248980329Y-59264135D01*
X248982000Y-59256452D01*
X248982000Y-59157794D01*
X248981835Y-59153223D01*
X248967787Y-58959620D01*
X248966473Y-58950611D01*
X248910311Y-58696231D01*
X248907708Y-58687501D01*
X248815414Y-58443893D01*
X248811579Y-58435632D01*
X248685085Y-58207899D01*
X248680095Y-58200274D01*
X248522054Y-57993191D01*
X248516014Y-57986364D01*
X248329736Y-57804265D01*
X248322774Y-57798382D01*
X248112157Y-57645078D01*
X248104427Y-57640267D01*
X247873878Y-57518969D01*
X247865528Y-57515322D01*
X247619901Y-57428581D01*
X247611106Y-57426175D01*
X247395775Y-57383733D01*
X247382863Y-57384912D01*
X247378000Y-57400015D01*
X247378000Y-59251885D01*
X246870000Y-59251885D01*
X246870000Y-57399826D01*
X246865749Y-57385349D01*
X246853488Y-57383286D01*
X246817867Y-57386685D01*
X246808875Y-57388205D01*
X246555842Y-57450122D01*
X246547173Y-57452922D01*
X246305718Y-57550722D01*
X246297545Y-57554744D01*
X246072747Y-57686368D01*
X246065235Y-57691531D01*
X245861787Y-57854231D01*
X245855104Y-57860420D01*
X245677267Y-58050794D01*
X245671557Y-58057871D01*
X245523066Y-58271918D01*
X245518429Y-58279759D01*
X245402396Y-58512997D01*
X245398940Y-58521422D01*
X245317788Y-58768974D01*
X245315588Y-58777799D01*
X245270897Y-59035189D01*
X245270050Y-59042807D01*
X245266078Y-59122592D01*
X245266000Y-59125733D01*
X245266000Y-59251885D01*
X244782500Y-59251885D01*
X244782500Y-59155488D01*
X244780114Y-59122592D01*
X244772823Y-59022116D01*
X244767953Y-58954996D01*
X244728831Y-58777799D01*
X244710791Y-58696088D01*
X244710790Y-58696084D01*
X244709806Y-58691628D01*
X244645321Y-58521422D01*
X244615868Y-58443682D01*
X244615867Y-58443679D01*
X244614250Y-58439412D01*
X244483286Y-58203632D01*
X244372045Y-58057871D01*
X244322429Y-57992859D01*
X244322428Y-57992858D01*
X244319657Y-57989227D01*
X244126792Y-57800688D01*
X243948830Y-57671154D01*
X243905525Y-57614893D01*
X243896980Y-57569282D01*
X243896980Y-52404006D01*
X243916982Y-52335885D01*
X243970638Y-52289392D01*
X244040912Y-52279288D01*
X244085978Y-52294886D01*
X244250226Y-52389715D01*
X244521042Y-52499132D01*
X244525315Y-52500198D01*
X244525317Y-52500198D01*
X244594527Y-52517454D01*
X244804450Y-52569794D01*
X244808818Y-52570253D01*
X244808823Y-52570254D01*
X245090565Y-52599866D01*
X245090568Y-52599866D01*
X245094934Y-52600325D01*
X245099322Y-52600172D01*
X245099328Y-52600172D01*
X245382443Y-52590285D01*
X245382449Y-52590284D01*
X245386841Y-52590131D01*
X245674488Y-52539411D01*
X245678659Y-52538056D01*
X245678666Y-52538054D01*
X245948087Y-52450513D01*
X245948086Y-52450513D01*
X245952276Y-52449152D01*
X245956229Y-52447224D01*
X245956234Y-52447222D01*
X246210849Y-52323038D01*
X246214800Y-52321111D01*
X246218439Y-52318657D01*
X246218445Y-52318653D01*
X246453303Y-52160239D01*
X246453310Y-52160234D01*
X246456949Y-52157779D01*
X246460276Y-52154784D01*
X246670736Y-51965285D01*
X246670737Y-51965284D01*
X246674010Y-51962337D01*
X246762746Y-51856585D01*
X246858930Y-51741958D01*
X246858934Y-51741953D01*
X246861758Y-51738587D01*
X247016539Y-51490886D01*
X247018328Y-51486869D01*
X247033919Y-51451850D01*
X247079898Y-51397754D01*
X247147825Y-51377104D01*
X247216134Y-51396456D01*
X247260277Y-51443944D01*
X247264481Y-51451850D01*
X247352527Y-51617439D01*
X247524209Y-51853740D01*
X247527265Y-51856904D01*
X247527267Y-51856907D01*
X247715541Y-52051870D01*
X247727108Y-52063848D01*
X247957274Y-52243673D01*
X248210226Y-52389715D01*
X248481042Y-52499132D01*
X248485315Y-52500198D01*
X248485317Y-52500198D01*
X248554527Y-52517454D01*
X248764450Y-52569794D01*
X248768818Y-52570253D01*
X248768823Y-52570254D01*
X249050565Y-52599866D01*
X249050568Y-52599866D01*
X249054934Y-52600325D01*
X249059322Y-52600172D01*
X249059328Y-52600172D01*
X249342443Y-52590285D01*
X249342449Y-52590284D01*
X249346841Y-52590131D01*
X249634488Y-52539411D01*
X249638659Y-52538056D01*
X249638666Y-52538054D01*
X249908087Y-52450513D01*
X249908086Y-52450513D01*
X249912276Y-52449152D01*
X249916229Y-52447224D01*
X249916234Y-52447222D01*
X250170849Y-52323038D01*
X250174800Y-52321111D01*
X250178439Y-52318657D01*
X250178445Y-52318653D01*
X250413303Y-52160239D01*
X250413310Y-52160234D01*
X250416949Y-52157779D01*
X250420276Y-52154784D01*
X250630736Y-51965285D01*
X250630737Y-51965284D01*
X250634010Y-51962337D01*
X250722746Y-51856585D01*
X250818930Y-51741958D01*
X250818934Y-51741953D01*
X250821758Y-51738587D01*
X250976539Y-51490886D01*
X250978327Y-51486871D01*
X250978328Y-51486869D01*
X250994179Y-51451268D01*
X251040159Y-51397173D01*
X251108086Y-51376524D01*
X251176394Y-51395877D01*
X251220536Y-51443365D01*
X251310881Y-51613281D01*
X251315540Y-51620737D01*
X251482004Y-51849855D01*
X251487651Y-51856585D01*
X251684389Y-52060314D01*
X251690911Y-52066185D01*
X251914088Y-52240550D01*
X251921361Y-52245456D01*
X252166626Y-52387060D01*
X252174536Y-52390918D01*
X252437116Y-52497006D01*
X252445468Y-52499720D01*
X252720266Y-52568235D01*
X252728910Y-52569760D01*
X252815985Y-52578912D01*
X252830636Y-52576232D01*
X252833619Y-52565309D01*
X253342000Y-52565309D01*
X253345779Y-52578178D01*
X253360845Y-52580101D01*
X253590043Y-52539687D01*
X253598544Y-52537567D01*
X253867900Y-52450049D01*
X253876047Y-52446758D01*
X254130597Y-52322604D01*
X254138194Y-52318219D01*
X254372989Y-52159847D01*
X254379912Y-52154439D01*
X254590376Y-51964936D01*
X254596477Y-51958618D01*
X254737480Y-51790578D01*
X254796589Y-51751252D01*
X254867577Y-51750126D01*
X254927905Y-51787557D01*
X254958418Y-51851662D01*
X254960001Y-51871570D01*
X254960001Y-51885095D01*
X254960338Y-51891614D01*
X254970257Y-51987206D01*
X254973149Y-52000600D01*
X255024588Y-52154784D01*
X255030761Y-52167962D01*
X255116063Y-52305807D01*
X255125099Y-52317208D01*
X255239829Y-52431739D01*
X255251240Y-52440751D01*
X255389243Y-52525816D01*
X255402424Y-52531963D01*
X255556710Y-52583138D01*
X255570086Y-52586005D01*
X255664438Y-52595672D01*
X255670854Y-52596000D01*
X256775885Y-52596000D01*
X256791124Y-52591525D01*
X256792329Y-52590135D01*
X256794000Y-52582452D01*
X256794000Y-50310115D01*
X256789525Y-50294876D01*
X256788135Y-50293671D01*
X256780452Y-50292000D01*
X253360115Y-50292000D01*
X253344876Y-50296475D01*
X253343671Y-50297865D01*
X253342000Y-50305548D01*
X253342000Y-52565309D01*
X252833619Y-52565309D01*
X252834000Y-52563913D01*
X252834000Y-49765885D01*
X253342000Y-49765885D01*
X253346475Y-49781124D01*
X253347865Y-49782329D01*
X253355548Y-49784000D01*
X256775885Y-49784000D01*
X256791124Y-49779525D01*
X256792329Y-49778135D01*
X256794000Y-49770452D01*
X256794000Y-47498116D01*
X256789525Y-47482877D01*
X256788135Y-47481672D01*
X256780452Y-47480001D01*
X255670905Y-47480001D01*
X255664386Y-47480338D01*
X255568794Y-47490257D01*
X255555400Y-47493149D01*
X255401216Y-47544588D01*
X255388038Y-47550761D01*
X255250193Y-47636063D01*
X255238792Y-47645099D01*
X255124261Y-47759829D01*
X255115249Y-47771240D01*
X255030184Y-47909243D01*
X255024037Y-47922424D01*
X254972862Y-48076710D01*
X254969995Y-48090086D01*
X254960328Y-48184438D01*
X254960000Y-48190855D01*
X254960000Y-48204481D01*
X254939998Y-48272602D01*
X254886342Y-48319095D01*
X254816068Y-48329199D01*
X254751488Y-48299705D01*
X254732064Y-48278542D01*
X254693996Y-48226145D01*
X254688349Y-48219415D01*
X254491611Y-48015686D01*
X254485089Y-48009815D01*
X254261912Y-47835450D01*
X254254639Y-47830544D01*
X254009374Y-47688940D01*
X254001464Y-47685082D01*
X253738884Y-47578994D01*
X253730532Y-47576280D01*
X253455734Y-47507765D01*
X253447090Y-47506240D01*
X253360015Y-47497088D01*
X253345364Y-47499768D01*
X253342000Y-47512087D01*
X253342000Y-49765885D01*
X252834000Y-49765885D01*
X252834000Y-47510691D01*
X252830221Y-47497822D01*
X252815155Y-47495899D01*
X252585957Y-47536313D01*
X252577456Y-47538433D01*
X252308100Y-47625951D01*
X252299953Y-47629242D01*
X252045403Y-47753396D01*
X252037806Y-47757781D01*
X251803011Y-47916153D01*
X251796088Y-47921561D01*
X251585624Y-48111064D01*
X251579517Y-48117389D01*
X251397478Y-48334333D01*
X251392316Y-48341438D01*
X251242230Y-48581626D01*
X251238114Y-48589367D01*
X251222377Y-48624712D01*
X251176397Y-48678807D01*
X251108470Y-48699456D01*
X251040162Y-48680103D01*
X250996020Y-48632616D01*
X250995722Y-48632056D01*
X250903473Y-48458561D01*
X250887604Y-48436719D01*
X250734380Y-48225823D01*
X250734377Y-48225820D01*
X250731791Y-48222260D01*
X250671507Y-48159834D01*
X250531946Y-48015314D01*
X250531942Y-48015311D01*
X250528892Y-48012152D01*
X250298726Y-47832327D01*
X250045774Y-47686285D01*
X249774958Y-47576868D01*
X249738926Y-47567884D01*
X249618851Y-47537946D01*
X249491550Y-47506206D01*
X249487182Y-47505747D01*
X249487177Y-47505746D01*
X249205435Y-47476134D01*
X249205432Y-47476134D01*
X249201066Y-47475675D01*
X249196678Y-47475828D01*
X249196672Y-47475828D01*
X248913557Y-47485715D01*
X248913551Y-47485716D01*
X248909159Y-47485869D01*
X248621512Y-47536589D01*
X248617341Y-47537944D01*
X248617334Y-47537946D01*
X248459909Y-47589097D01*
X248343724Y-47626848D01*
X248339771Y-47628776D01*
X248339766Y-47628778D01*
X248098266Y-47746565D01*
X248081200Y-47754889D01*
X248077561Y-47757343D01*
X248077555Y-47757347D01*
X247842697Y-47915761D01*
X247842690Y-47915766D01*
X247839051Y-47918221D01*
X247835782Y-47921165D01*
X247835780Y-47921166D01*
X247648175Y-48090086D01*
X247621990Y-48113663D01*
X247619161Y-48117035D01*
X247437070Y-48334042D01*
X247437066Y-48334047D01*
X247434242Y-48337413D01*
X247279461Y-48585114D01*
X247277676Y-48589124D01*
X247277673Y-48589129D01*
X247262081Y-48624150D01*
X247216102Y-48678246D01*
X247148175Y-48698896D01*
X247079866Y-48679544D01*
X247035723Y-48632056D01*
X246959205Y-48488148D01*
X246943473Y-48458561D01*
X246927604Y-48436719D01*
X246774380Y-48225823D01*
X246774377Y-48225820D01*
X246771791Y-48222260D01*
X246711507Y-48159834D01*
X246571946Y-48015314D01*
X246571942Y-48015311D01*
X246568892Y-48012152D01*
X246338726Y-47832327D01*
X246085774Y-47686285D01*
X245814958Y-47576868D01*
X245778926Y-47567884D01*
X245658851Y-47537946D01*
X245531550Y-47506206D01*
X245527182Y-47505747D01*
X245527177Y-47505746D01*
X245245435Y-47476134D01*
X245245432Y-47476134D01*
X245241066Y-47475675D01*
X245236678Y-47475828D01*
X245236672Y-47475828D01*
X244953557Y-47485715D01*
X244953551Y-47485716D01*
X244949159Y-47485869D01*
X244661512Y-47536589D01*
X244657341Y-47537944D01*
X244657334Y-47537946D01*
X244499909Y-47589097D01*
X244383724Y-47626848D01*
X244379771Y-47628776D01*
X244379766Y-47628778D01*
X244138266Y-47746565D01*
X244121200Y-47754889D01*
X244117561Y-47757343D01*
X244117555Y-47757347D01*
X243882703Y-47915757D01*
X243882698Y-47915761D01*
X243879051Y-47918221D01*
X243875778Y-47921168D01*
X243837975Y-47955206D01*
X243773967Y-47985923D01*
X243703513Y-47977159D01*
X243664569Y-47950665D01*
X241803652Y-46089747D01*
X241796112Y-46081461D01*
X241792000Y-46074982D01*
X241742348Y-46028356D01*
X241739507Y-46025602D01*
X241719770Y-46005865D01*
X241716573Y-46003385D01*
X241707551Y-45995680D01*
X241682685Y-45972329D01*
X241675321Y-45965414D01*
X241668375Y-45961595D01*
X241668372Y-45961593D01*
X241657566Y-45955652D01*
X241641047Y-45944801D01*
X241640583Y-45944441D01*
X241625041Y-45932386D01*
X241617772Y-45929241D01*
X241617768Y-45929238D01*
X241584463Y-45914826D01*
X241573813Y-45909609D01*
X241535060Y-45888305D01*
X241515437Y-45883267D01*
X241496734Y-45876863D01*
X241485420Y-45871967D01*
X241485419Y-45871967D01*
X241478145Y-45868819D01*
X241470322Y-45867580D01*
X241470312Y-45867577D01*
X241434476Y-45861901D01*
X241422856Y-45859495D01*
X241387711Y-45850472D01*
X241387710Y-45850472D01*
X241380030Y-45848500D01*
X241359776Y-45848500D01*
X241340065Y-45846949D01*
X241327886Y-45845020D01*
X241320057Y-45843780D01*
X241312165Y-45844526D01*
X241276039Y-45847941D01*
X241264181Y-45848500D01*
X229994041Y-45848500D01*
X229925920Y-45828498D01*
X229878492Y-45772743D01*
X229798419Y-45588590D01*
X229796354Y-45583840D01*
X229681589Y-45406440D01*
X229661382Y-45338380D01*
X229681178Y-45270199D01*
X229734694Y-45223545D01*
X229787381Y-45212000D01*
X259103800Y-45212000D01*
X259171921Y-45232002D01*
X259218414Y-45285658D01*
X259229800Y-45338000D01*
X259229800Y-47730907D01*
X259209798Y-47799028D01*
X259156142Y-47845521D01*
X259085868Y-47855625D01*
X259021288Y-47826131D01*
X258996656Y-47797211D01*
X258979934Y-47770190D01*
X258970901Y-47758792D01*
X258856171Y-47644261D01*
X258844760Y-47635249D01*
X258706757Y-47550184D01*
X258693576Y-47544037D01*
X258539290Y-47492862D01*
X258525914Y-47489995D01*
X258431562Y-47480328D01*
X258425145Y-47480000D01*
X257320115Y-47480000D01*
X257304876Y-47484475D01*
X257303671Y-47485865D01*
X257302000Y-47493548D01*
X257302000Y-52577884D01*
X257306475Y-52593123D01*
X257307865Y-52594328D01*
X257315548Y-52595999D01*
X258425095Y-52595999D01*
X258431614Y-52595662D01*
X258527206Y-52585743D01*
X258540600Y-52582851D01*
X258694784Y-52531412D01*
X258707962Y-52525239D01*
X258845807Y-52439937D01*
X258857208Y-52430901D01*
X258971739Y-52316171D01*
X258980751Y-52304760D01*
X258996540Y-52279145D01*
X259049312Y-52231652D01*
X259119383Y-52220228D01*
X259184507Y-52248502D01*
X259224007Y-52307496D01*
X259229800Y-52345261D01*
X259229800Y-69136000D01*
X259209798Y-69204121D01*
X259156142Y-69250614D01*
X259103800Y-69262000D01*
X205584000Y-69262000D01*
X205515879Y-69241998D01*
X205469386Y-69188342D01*
X205458000Y-69136000D01*
X205458000Y-65392512D01*
X207465500Y-65392512D01*
X207465664Y-65394777D01*
X207465665Y-65394792D01*
X207467888Y-65425422D01*
X207480047Y-65593004D01*
X207481031Y-65597459D01*
X207481031Y-65597462D01*
X207537178Y-65851769D01*
X207538194Y-65856372D01*
X207539812Y-65860642D01*
X207605944Y-66035194D01*
X207633750Y-66108588D01*
X207764714Y-66344368D01*
X207767486Y-66348000D01*
X207881608Y-66497535D01*
X207928343Y-66558773D01*
X207931609Y-66561966D01*
X207931611Y-66561968D01*
X207956021Y-66585830D01*
X208121208Y-66747312D01*
X208339270Y-66906034D01*
X208439031Y-66958521D01*
X208573921Y-67029490D01*
X208573927Y-67029493D01*
X208577961Y-67031615D01*
X208582266Y-67033135D01*
X208582270Y-67033137D01*
X208827967Y-67119902D01*
X208832280Y-67121425D01*
X208960032Y-67146605D01*
X209092428Y-67172700D01*
X209092434Y-67172701D01*
X209096900Y-67173581D01*
X209101453Y-67173808D01*
X209101456Y-67173808D01*
X209361708Y-67186764D01*
X209361714Y-67186764D01*
X209366277Y-67186991D01*
X209634769Y-67161375D01*
X209639203Y-67160290D01*
X209639209Y-67160289D01*
X209892312Y-67098355D01*
X209896750Y-67097269D01*
X210146733Y-66996015D01*
X210379482Y-66859735D01*
X210590119Y-66691284D01*
X210774234Y-66494191D01*
X210927968Y-66272584D01*
X211048101Y-66031106D01*
X211049523Y-66026769D01*
X211130698Y-65779147D01*
X211130699Y-65779141D01*
X211132118Y-65774814D01*
X211132919Y-65770201D01*
X211177601Y-65512860D01*
X211177602Y-65512852D01*
X211178257Y-65509079D01*
X211182500Y-65423851D01*
X211182500Y-64655488D01*
X211180114Y-64622592D01*
X211170398Y-64488698D01*
X211167953Y-64454996D01*
X211128831Y-64277799D01*
X211110791Y-64196088D01*
X211110790Y-64196084D01*
X211109806Y-64191628D01*
X211045321Y-64021422D01*
X211015868Y-63943682D01*
X211015867Y-63943679D01*
X211014250Y-63939412D01*
X210883286Y-63703632D01*
X210772045Y-63557871D01*
X210722429Y-63492859D01*
X210722428Y-63492858D01*
X210719657Y-63489227D01*
X210705629Y-63475513D01*
X210623225Y-63394958D01*
X210526792Y-63300688D01*
X210308730Y-63141966D01*
X210142948Y-63054744D01*
X210074079Y-63018510D01*
X210074073Y-63018507D01*
X210070039Y-63016385D01*
X210065734Y-63014865D01*
X210065730Y-63014863D01*
X209820033Y-62928098D01*
X209820032Y-62928098D01*
X209815720Y-62926575D01*
X209680006Y-62899826D01*
X209555572Y-62875300D01*
X209555566Y-62875299D01*
X209551100Y-62874419D01*
X209546547Y-62874192D01*
X209546544Y-62874192D01*
X209286292Y-62861236D01*
X209286286Y-62861236D01*
X209281723Y-62861009D01*
X209013231Y-62886625D01*
X209008797Y-62887710D01*
X209008791Y-62887711D01*
X208835035Y-62930229D01*
X208751250Y-62950731D01*
X208501267Y-63051985D01*
X208268518Y-63188265D01*
X208148580Y-63284182D01*
X208065664Y-63350492D01*
X208057881Y-63356716D01*
X207873766Y-63553809D01*
X207720032Y-63775416D01*
X207599899Y-64016894D01*
X207598478Y-64021228D01*
X207598477Y-64021231D01*
X207542432Y-64192197D01*
X207515882Y-64273186D01*
X207515102Y-64277677D01*
X207515102Y-64277678D01*
X207483525Y-64459547D01*
X207469743Y-64538921D01*
X207465500Y-64624149D01*
X207465500Y-65392512D01*
X205458000Y-65392512D01*
X205458000Y-59890206D01*
X207466000Y-59890206D01*
X207466165Y-59894777D01*
X207480213Y-60088380D01*
X207481527Y-60097389D01*
X207537689Y-60351769D01*
X207540292Y-60360499D01*
X207632586Y-60604107D01*
X207636421Y-60612368D01*
X207762915Y-60840101D01*
X207767905Y-60847726D01*
X207925946Y-61054809D01*
X207931986Y-61061636D01*
X208118264Y-61243735D01*
X208125226Y-61249618D01*
X208335843Y-61402922D01*
X208343573Y-61407733D01*
X208574122Y-61529031D01*
X208582472Y-61532678D01*
X208828099Y-61619419D01*
X208836894Y-61621825D01*
X209052225Y-61664267D01*
X209065137Y-61663088D01*
X209069939Y-61648174D01*
X209578000Y-61648174D01*
X209582251Y-61662651D01*
X209594512Y-61664714D01*
X209630133Y-61661315D01*
X209639125Y-61659795D01*
X209892158Y-61597878D01*
X209900827Y-61595078D01*
X210142282Y-61497278D01*
X210150455Y-61493256D01*
X210375253Y-61361632D01*
X210382765Y-61356469D01*
X210586213Y-61193769D01*
X210592896Y-61187580D01*
X210770733Y-60997206D01*
X210776443Y-60990129D01*
X210924934Y-60776082D01*
X210929571Y-60768241D01*
X211045604Y-60535003D01*
X211049060Y-60526578D01*
X211130212Y-60279026D01*
X211132412Y-60270201D01*
X211177103Y-60012811D01*
X211177950Y-60005193D01*
X211181922Y-59925408D01*
X211182000Y-59922267D01*
X211182000Y-59892512D01*
X211665500Y-59892512D01*
X211665664Y-59894777D01*
X211665665Y-59894792D01*
X211667888Y-59925422D01*
X211680047Y-60093004D01*
X211681031Y-60097459D01*
X211681031Y-60097462D01*
X211737178Y-60351769D01*
X211738194Y-60356372D01*
X211739812Y-60360642D01*
X211805944Y-60535194D01*
X211833750Y-60608588D01*
X211964714Y-60844368D01*
X211967486Y-60848000D01*
X212081608Y-60997535D01*
X212128343Y-61058773D01*
X212321208Y-61247312D01*
X212539270Y-61406034D01*
X212639031Y-61458521D01*
X212773921Y-61529490D01*
X212773927Y-61529493D01*
X212777961Y-61531615D01*
X212782266Y-61533135D01*
X212782270Y-61533137D01*
X213027967Y-61619902D01*
X213032280Y-61621425D01*
X213160032Y-61646605D01*
X213292428Y-61672700D01*
X213292434Y-61672701D01*
X213296900Y-61673581D01*
X213301453Y-61673808D01*
X213301456Y-61673808D01*
X213561708Y-61686764D01*
X213561714Y-61686764D01*
X213566277Y-61686991D01*
X213834769Y-61661375D01*
X213839203Y-61660290D01*
X213839209Y-61660289D01*
X214092312Y-61598355D01*
X214096750Y-61597269D01*
X214346733Y-61496015D01*
X214579482Y-61359735D01*
X214790119Y-61191284D01*
X214974234Y-60994191D01*
X215127968Y-60772584D01*
X215248101Y-60531106D01*
X215249523Y-60526769D01*
X215330698Y-60279147D01*
X215330699Y-60279141D01*
X215332118Y-60274814D01*
X215332919Y-60270201D01*
X215377601Y-60012860D01*
X215377602Y-60012852D01*
X215378257Y-60009079D01*
X215382500Y-59923851D01*
X215382500Y-59155488D01*
X215380114Y-59122592D01*
X215372823Y-59022116D01*
X215367953Y-58954996D01*
X215328831Y-58777799D01*
X215310791Y-58696088D01*
X215310790Y-58696084D01*
X215309806Y-58691628D01*
X215245321Y-58521422D01*
X215215868Y-58443682D01*
X215215867Y-58443679D01*
X215214250Y-58439412D01*
X215083286Y-58203632D01*
X214972045Y-58057871D01*
X214922429Y-57992859D01*
X214922428Y-57992858D01*
X214919657Y-57989227D01*
X214726792Y-57800688D01*
X214508730Y-57641966D01*
X214386255Y-57577529D01*
X214274079Y-57518510D01*
X214274073Y-57518507D01*
X214270039Y-57516385D01*
X214265734Y-57514865D01*
X214265730Y-57514863D01*
X214020033Y-57428098D01*
X214020032Y-57428098D01*
X214015720Y-57426575D01*
X213872035Y-57398255D01*
X213755572Y-57375300D01*
X213755566Y-57375299D01*
X213751100Y-57374419D01*
X213746547Y-57374192D01*
X213746544Y-57374192D01*
X213486292Y-57361236D01*
X213486286Y-57361236D01*
X213481723Y-57361009D01*
X213213231Y-57386625D01*
X213208797Y-57387710D01*
X213208791Y-57387711D01*
X212955688Y-57449645D01*
X212951250Y-57450731D01*
X212701267Y-57551985D01*
X212468518Y-57688265D01*
X212257881Y-57856716D01*
X212073766Y-58053809D01*
X211920032Y-58275416D01*
X211799899Y-58516894D01*
X211798478Y-58521228D01*
X211798477Y-58521231D01*
X211798415Y-58521422D01*
X211715882Y-58773186D01*
X211715102Y-58777677D01*
X211715102Y-58777678D01*
X211683525Y-58959547D01*
X211669743Y-59038921D01*
X211665500Y-59124149D01*
X211665500Y-59892512D01*
X211182000Y-59892512D01*
X211182000Y-59796115D01*
X211177525Y-59780876D01*
X211176135Y-59779671D01*
X211168452Y-59778000D01*
X209596115Y-59778000D01*
X209580876Y-59782475D01*
X209579671Y-59783865D01*
X209578000Y-59791548D01*
X209578000Y-61648174D01*
X209069939Y-61648174D01*
X209070000Y-61647985D01*
X209070000Y-59796115D01*
X209065525Y-59780876D01*
X209064135Y-59779671D01*
X209056452Y-59778000D01*
X207484115Y-59778000D01*
X207468876Y-59782475D01*
X207467671Y-59783865D01*
X207466000Y-59791548D01*
X207466000Y-59890206D01*
X205458000Y-59890206D01*
X205458000Y-59251885D01*
X207466000Y-59251885D01*
X207470475Y-59267124D01*
X207471865Y-59268329D01*
X207479548Y-59270000D01*
X209051885Y-59270000D01*
X209067124Y-59265525D01*
X209068329Y-59264135D01*
X209070000Y-59256452D01*
X209070000Y-59251885D01*
X209578000Y-59251885D01*
X209582475Y-59267124D01*
X209583865Y-59268329D01*
X209591548Y-59270000D01*
X211163885Y-59270000D01*
X211179124Y-59265525D01*
X211180329Y-59264135D01*
X211182000Y-59256452D01*
X211182000Y-59157794D01*
X211181835Y-59153223D01*
X211167787Y-58959620D01*
X211166473Y-58950611D01*
X211110311Y-58696231D01*
X211107708Y-58687501D01*
X211015414Y-58443893D01*
X211011579Y-58435632D01*
X210885085Y-58207899D01*
X210880095Y-58200274D01*
X210722054Y-57993191D01*
X210716014Y-57986364D01*
X210529736Y-57804265D01*
X210522774Y-57798382D01*
X210312157Y-57645078D01*
X210304427Y-57640267D01*
X210073878Y-57518969D01*
X210065528Y-57515322D01*
X209819901Y-57428581D01*
X209811106Y-57426175D01*
X209595775Y-57383733D01*
X209582863Y-57384912D01*
X209578000Y-57400015D01*
X209578000Y-59251885D01*
X209070000Y-59251885D01*
X209070000Y-57399826D01*
X209065749Y-57385349D01*
X209053488Y-57383286D01*
X209017867Y-57386685D01*
X209008875Y-57388205D01*
X208755842Y-57450122D01*
X208747173Y-57452922D01*
X208505718Y-57550722D01*
X208497545Y-57554744D01*
X208272747Y-57686368D01*
X208265235Y-57691531D01*
X208061787Y-57854231D01*
X208055104Y-57860420D01*
X207877267Y-58050794D01*
X207871557Y-58057871D01*
X207723066Y-58271918D01*
X207718429Y-58279759D01*
X207602396Y-58512997D01*
X207598940Y-58521422D01*
X207517788Y-58768974D01*
X207515588Y-58777799D01*
X207470897Y-59035189D01*
X207470050Y-59042807D01*
X207466078Y-59122592D01*
X207466000Y-59125733D01*
X207466000Y-59251885D01*
X205458000Y-59251885D01*
X205458000Y-47122669D01*
X224697001Y-47122669D01*
X224697371Y-47129490D01*
X224702895Y-47180352D01*
X224706521Y-47195604D01*
X224751676Y-47316054D01*
X224760214Y-47331649D01*
X224836715Y-47433724D01*
X224849276Y-47446285D01*
X224951351Y-47522786D01*
X224966946Y-47531324D01*
X225087394Y-47576478D01*
X225102649Y-47580105D01*
X225153514Y-47585631D01*
X225160328Y-47586000D01*
X225782885Y-47586000D01*
X225798124Y-47581525D01*
X225799329Y-47580135D01*
X225801000Y-47572452D01*
X225801000Y-46500115D01*
X225796525Y-46484876D01*
X225795135Y-46483671D01*
X225787452Y-46482000D01*
X224715116Y-46482000D01*
X224699877Y-46486475D01*
X224698672Y-46487865D01*
X224697001Y-46495548D01*
X224697001Y-47122669D01*
X205458000Y-47122669D01*
X205458000Y-45338000D01*
X205478002Y-45269879D01*
X205531658Y-45223386D01*
X205584000Y-45212000D01*
X224571000Y-45212000D01*
X224639121Y-45232002D01*
G37*
G04 #@! TD.AperFunction*
M02*
