G04 #@! TF.GenerationSoftware,KiCad,Pcbnew,(6.0.0-0)*
G04 #@! TF.CreationDate,2022-02-20T16:40:43-06:00*
G04 #@! TF.ProjectId,mactxlc,6d616374-786c-4632-9e6b-696361645f70,rev?*
G04 #@! TF.SameCoordinates,Original*
G04 #@! TF.FileFunction,Copper,L2,Bot*
G04 #@! TF.FilePolarity,Positive*
%FSLAX46Y46*%
G04 Gerber Fmt 4.6, Leading zero omitted, Abs format (unit mm)*
G04 Created by KiCad (PCBNEW (6.0.0-0)) date 2022-02-20 16:40:43*
%MOMM*%
%LPD*%
G01*
G04 APERTURE LIST*
G04 Aperture macros list*
%AMRoundRect*
0 Rectangle with rounded corners*
0 $1 Rounding radius*
0 $2 $3 $4 $5 $6 $7 $8 $9 X,Y pos of 4 corners*
0 Add a 4 corners polygon primitive as box body*
4,1,4,$2,$3,$4,$5,$6,$7,$8,$9,$2,$3,0*
0 Add four circle primitives for the rounded corners*
1,1,$1+$1,$2,$3*
1,1,$1+$1,$4,$5*
1,1,$1+$1,$6,$7*
1,1,$1+$1,$8,$9*
0 Add four rect primitives between the rounded corners*
20,1,$1+$1,$2,$3,$4,$5,0*
20,1,$1+$1,$4,$5,$6,$7,0*
20,1,$1+$1,$6,$7,$8,$9,0*
20,1,$1+$1,$8,$9,$2,$3,0*%
G04 Aperture macros list end*
G04 #@! TA.AperFunction,ComponentPad*
%ADD10RoundRect,0.250001X0.949999X0.949999X-0.949999X0.949999X-0.949999X-0.949999X0.949999X-0.949999X0*%
G04 #@! TD*
G04 #@! TA.AperFunction,ComponentPad*
%ADD11C,2.400000*%
G04 #@! TD*
G04 #@! TA.AperFunction,ComponentPad*
%ADD12RoundRect,0.251100X1.098900X1.398900X-1.098900X1.398900X-1.098900X-1.398900X1.098900X-1.398900X0*%
G04 #@! TD*
G04 #@! TA.AperFunction,ComponentPad*
%ADD13O,2.700000X3.300000*%
G04 #@! TD*
G04 #@! TA.AperFunction,ComponentPad*
%ADD14R,1.700000X1.700000*%
G04 #@! TD*
G04 #@! TA.AperFunction,ComponentPad*
%ADD15O,1.700000X1.700000*%
G04 #@! TD*
G04 #@! TA.AperFunction,ViaPad*
%ADD16C,0.800000*%
G04 #@! TD*
G04 #@! TA.AperFunction,Conductor*
%ADD17C,0.750000*%
G04 #@! TD*
G04 #@! TA.AperFunction,Conductor*
%ADD18C,0.500000*%
G04 #@! TD*
G04 #@! TA.AperFunction,Conductor*
%ADD19C,2.000000*%
G04 #@! TD*
G04 #@! TA.AperFunction,Conductor*
%ADD20C,0.250000*%
G04 #@! TD*
G04 APERTURE END LIST*
D10*
X257025000Y-51950000D03*
D11*
X253065000Y-51950000D03*
X249105000Y-51950000D03*
X245145000Y-51950000D03*
X241185000Y-51950000D03*
X237225000Y-51950000D03*
X233265000Y-51950000D03*
D12*
X255524000Y-65024000D03*
D13*
X251324000Y-65024000D03*
X247124000Y-65024000D03*
X242924000Y-65024000D03*
X238724000Y-65024000D03*
X234524000Y-65024000D03*
X230324000Y-65024000D03*
X226124000Y-65024000D03*
X221924000Y-65024000D03*
X217724000Y-65024000D03*
X213524000Y-65024000D03*
X209324000Y-65024000D03*
X255524000Y-59524000D03*
X251324000Y-59524000D03*
X247124000Y-59524000D03*
X242924000Y-59524000D03*
X238724000Y-59524000D03*
X234524000Y-59524000D03*
X230324000Y-59524000D03*
X226124000Y-59524000D03*
X221924000Y-59524000D03*
X217724000Y-59524000D03*
X213524000Y-59524000D03*
X209324000Y-59524000D03*
D14*
X228950000Y-53175000D03*
D15*
X228950000Y-50635000D03*
D16*
X215860000Y-49030000D03*
X210312000Y-53086000D03*
X217270000Y-51310000D03*
D17*
X240710000Y-67870000D02*
X240000000Y-68580000D01*
X221280000Y-68580000D02*
X217724000Y-65024000D01*
X240710000Y-52425000D02*
X240710000Y-67870000D01*
X240000000Y-68580000D02*
X221280000Y-68580000D01*
D18*
X215860000Y-49030000D02*
X232160000Y-49030000D01*
X232160000Y-49030000D02*
X233265000Y-50135000D01*
X233265000Y-50135000D02*
X233265000Y-51950000D01*
D19*
X247124000Y-61424000D02*
X247124000Y-65024000D01*
X230324000Y-59524000D02*
X230324000Y-57624000D01*
X234524000Y-59524000D02*
X234524000Y-57624000D01*
X230324000Y-59524000D02*
X230324000Y-61424000D01*
X238724000Y-59524000D02*
X238724000Y-61424000D01*
X238724000Y-61424000D02*
X238724000Y-65024000D01*
X247124000Y-59524000D02*
X247124000Y-57624000D01*
X247124000Y-59524000D02*
X247124000Y-61424000D01*
D20*
X234524000Y-57624000D02*
X234442000Y-57542000D01*
D19*
X238724000Y-59524000D02*
X238724000Y-57567000D01*
X230324000Y-61424000D02*
X230324000Y-65024000D01*
X213524000Y-65024000D02*
X217724000Y-65024000D01*
G04 #@! TA.AperFunction,Conductor*
G36*
X214960929Y-48553002D02*
G01*
X215007422Y-48606658D01*
X215017526Y-48676932D01*
X215012641Y-48697936D01*
X214966458Y-48840072D01*
X214946496Y-49030000D01*
X214966458Y-49219928D01*
X215025473Y-49401556D01*
X215120960Y-49566944D01*
X215248747Y-49708866D01*
X215347843Y-49780864D01*
X215397904Y-49817235D01*
X215403248Y-49821118D01*
X215409276Y-49823802D01*
X215409278Y-49823803D01*
X215550200Y-49886545D01*
X215577712Y-49898794D01*
X215671113Y-49918647D01*
X215758056Y-49937128D01*
X215758061Y-49937128D01*
X215764513Y-49938500D01*
X215955487Y-49938500D01*
X215961939Y-49937128D01*
X215961944Y-49937128D01*
X216048888Y-49918647D01*
X216142288Y-49898794D01*
X216169800Y-49886545D01*
X216310722Y-49823803D01*
X216310724Y-49823802D01*
X216316752Y-49821118D01*
X216322091Y-49817239D01*
X216322098Y-49817235D01*
X216328528Y-49812563D01*
X216402587Y-49788500D01*
X227647730Y-49788500D01*
X227715851Y-49808502D01*
X227762344Y-49862158D01*
X227772448Y-49932432D01*
X227762018Y-49967550D01*
X227701110Y-50098767D01*
X227670688Y-50164305D01*
X227610989Y-50379570D01*
X227587251Y-50601695D01*
X227587548Y-50606848D01*
X227587548Y-50606851D01*
X227598465Y-50796185D01*
X227600110Y-50824715D01*
X227601247Y-50829761D01*
X227601248Y-50829767D01*
X227606277Y-50852081D01*
X227649222Y-51042639D01*
X227733266Y-51249616D01*
X227735965Y-51254020D01*
X227832101Y-51410900D01*
X227849987Y-51440088D01*
X227996250Y-51608938D01*
X228000225Y-51612238D01*
X228000231Y-51612244D01*
X228005425Y-51616556D01*
X228045059Y-51675460D01*
X228046555Y-51746441D01*
X228009439Y-51806962D01*
X227969168Y-51831480D01*
X227861946Y-51871676D01*
X227846351Y-51880214D01*
X227744276Y-51956715D01*
X227731715Y-51969276D01*
X227655214Y-52071351D01*
X227646676Y-52086946D01*
X227601522Y-52207394D01*
X227597895Y-52222649D01*
X227592369Y-52273514D01*
X227592000Y-52280328D01*
X227592000Y-52902885D01*
X227596475Y-52918124D01*
X227597865Y-52919329D01*
X227605548Y-52921000D01*
X230289884Y-52921000D01*
X230305123Y-52916525D01*
X230306328Y-52915135D01*
X230307999Y-52907452D01*
X230307999Y-52280331D01*
X230307629Y-52273510D01*
X230302105Y-52222648D01*
X230298479Y-52207396D01*
X230253324Y-52086946D01*
X230244786Y-52071351D01*
X230168285Y-51969276D01*
X230155724Y-51956715D01*
X230053649Y-51880214D01*
X230038054Y-51871676D01*
X229927813Y-51830348D01*
X229871049Y-51787706D01*
X229846349Y-51721145D01*
X229861557Y-51651796D01*
X229883104Y-51623115D01*
X229984430Y-51522144D01*
X229984440Y-51522132D01*
X229988096Y-51518489D01*
X230047594Y-51435689D01*
X230115435Y-51341277D01*
X230118453Y-51337077D01*
X230180068Y-51212409D01*
X230215136Y-51141453D01*
X230215137Y-51141451D01*
X230217430Y-51136811D01*
X230272642Y-50955087D01*
X230280865Y-50928023D01*
X230280865Y-50928021D01*
X230282370Y-50923069D01*
X230311529Y-50701590D01*
X230311611Y-50698240D01*
X230313074Y-50638365D01*
X230313074Y-50638361D01*
X230313156Y-50635000D01*
X230294852Y-50412361D01*
X230240431Y-50195702D01*
X230151354Y-49990840D01*
X230146244Y-49982940D01*
X230126036Y-49914883D01*
X230145831Y-49846702D01*
X230199345Y-49800046D01*
X230252035Y-49788500D01*
X231793629Y-49788500D01*
X231861750Y-49808502D01*
X231882724Y-49825405D01*
X232369820Y-50312501D01*
X232403846Y-50374813D01*
X232398781Y-50445628D01*
X232356234Y-50502464D01*
X232349810Y-50506968D01*
X232225928Y-50588189D01*
X232225923Y-50588193D01*
X232222015Y-50590755D01*
X232032562Y-50759848D01*
X231870183Y-50955087D01*
X231738447Y-51172182D01*
X231736638Y-51176496D01*
X231736637Y-51176498D01*
X231667540Y-51341277D01*
X231640246Y-51406365D01*
X231639095Y-51410897D01*
X231639094Y-51410900D01*
X231612836Y-51514292D01*
X231577738Y-51652490D01*
X231552296Y-51905151D01*
X231552520Y-51909817D01*
X231552520Y-51909822D01*
X231555376Y-51969276D01*
X231564480Y-52158798D01*
X231614021Y-52407857D01*
X231615600Y-52412255D01*
X231615602Y-52412262D01*
X231660022Y-52535980D01*
X231699831Y-52646858D01*
X231702048Y-52650984D01*
X231817666Y-52866160D01*
X231820025Y-52870551D01*
X231822820Y-52874294D01*
X231822822Y-52874297D01*
X231969171Y-53070282D01*
X231969176Y-53070288D01*
X231971963Y-53074020D01*
X231975272Y-53077300D01*
X231975277Y-53077306D01*
X232115977Y-53216783D01*
X232152307Y-53252797D01*
X232156069Y-53255555D01*
X232156072Y-53255558D01*
X232309161Y-53367807D01*
X232357094Y-53402953D01*
X232361229Y-53405129D01*
X232361233Y-53405131D01*
X232441032Y-53447115D01*
X232581827Y-53521191D01*
X232714803Y-53567628D01*
X232815764Y-53602885D01*
X232821568Y-53604912D01*
X233071050Y-53652278D01*
X233191532Y-53657011D01*
X233320125Y-53662064D01*
X233320130Y-53662064D01*
X233324793Y-53662247D01*
X233417127Y-53652135D01*
X233572569Y-53635112D01*
X233572575Y-53635111D01*
X233577222Y-53634602D01*
X233686680Y-53605784D01*
X233818273Y-53571138D01*
X233822793Y-53569948D01*
X233979200Y-53502751D01*
X234051807Y-53471557D01*
X234051810Y-53471555D01*
X234056110Y-53469708D01*
X234060090Y-53467245D01*
X234060094Y-53467243D01*
X234268064Y-53338547D01*
X234268066Y-53338545D01*
X234272047Y-53336082D01*
X234370428Y-53252797D01*
X234462289Y-53175031D01*
X234462291Y-53175029D01*
X234465862Y-53172006D01*
X234633295Y-52981084D01*
X234647686Y-52958712D01*
X234768141Y-52771442D01*
X234770669Y-52767512D01*
X234874967Y-52535980D01*
X234876288Y-52531298D01*
X234909859Y-52412262D01*
X234943896Y-52291575D01*
X234961390Y-52154064D01*
X234975545Y-52042798D01*
X234975545Y-52042792D01*
X234975943Y-52039667D01*
X234976027Y-52036483D01*
X234977810Y-51968368D01*
X234978291Y-51950000D01*
X234974958Y-51905151D01*
X235512296Y-51905151D01*
X235512520Y-51909817D01*
X235512520Y-51909822D01*
X235515376Y-51969276D01*
X235524480Y-52158798D01*
X235574021Y-52407857D01*
X235575600Y-52412255D01*
X235575602Y-52412262D01*
X235620022Y-52535980D01*
X235659831Y-52646858D01*
X235662048Y-52650984D01*
X235777666Y-52866160D01*
X235780025Y-52870551D01*
X235782820Y-52874294D01*
X235782822Y-52874297D01*
X235929171Y-53070282D01*
X235929176Y-53070288D01*
X235931963Y-53074020D01*
X235935272Y-53077300D01*
X235935277Y-53077306D01*
X236075977Y-53216783D01*
X236112307Y-53252797D01*
X236116069Y-53255555D01*
X236116072Y-53255558D01*
X236269161Y-53367807D01*
X236317094Y-53402953D01*
X236321229Y-53405129D01*
X236321233Y-53405131D01*
X236401032Y-53447115D01*
X236541827Y-53521191D01*
X236674803Y-53567628D01*
X236775764Y-53602885D01*
X236781568Y-53604912D01*
X237031050Y-53652278D01*
X237151532Y-53657011D01*
X237280125Y-53662064D01*
X237280130Y-53662064D01*
X237284793Y-53662247D01*
X237377127Y-53652135D01*
X237532569Y-53635112D01*
X237532575Y-53635111D01*
X237537222Y-53634602D01*
X237646680Y-53605784D01*
X237778273Y-53571138D01*
X237782793Y-53569948D01*
X237939200Y-53502751D01*
X238011807Y-53471557D01*
X238011810Y-53471555D01*
X238016110Y-53469708D01*
X238020090Y-53467245D01*
X238020094Y-53467243D01*
X238228064Y-53338547D01*
X238228066Y-53338545D01*
X238232047Y-53336082D01*
X238330428Y-53252797D01*
X238422289Y-53175031D01*
X238422291Y-53175029D01*
X238425862Y-53172006D01*
X238593295Y-52981084D01*
X238607686Y-52958712D01*
X238728141Y-52771442D01*
X238730669Y-52767512D01*
X238834967Y-52535980D01*
X238836288Y-52531298D01*
X238869859Y-52412262D01*
X238903896Y-52291575D01*
X238921390Y-52154064D01*
X238935545Y-52042798D01*
X238935545Y-52042792D01*
X238935943Y-52039667D01*
X238936027Y-52036483D01*
X238937810Y-51968368D01*
X238938291Y-51950000D01*
X238931925Y-51864338D01*
X238919818Y-51701411D01*
X238919817Y-51701407D01*
X238919472Y-51696759D01*
X238917974Y-51690135D01*
X238864459Y-51453639D01*
X238863428Y-51449082D01*
X238861448Y-51443990D01*
X238773084Y-51216762D01*
X238773083Y-51216760D01*
X238771391Y-51212409D01*
X238750866Y-51176498D01*
X238647702Y-50995997D01*
X238647700Y-50995995D01*
X238645383Y-50991940D01*
X238488171Y-50792517D01*
X238371981Y-50683217D01*
X238306610Y-50621722D01*
X238306608Y-50621720D01*
X238303209Y-50618523D01*
X238254443Y-50584693D01*
X238098393Y-50476437D01*
X238098390Y-50476435D01*
X238094561Y-50473779D01*
X238090384Y-50471719D01*
X238090377Y-50471715D01*
X237870996Y-50363528D01*
X237870992Y-50363527D01*
X237866810Y-50361464D01*
X237624960Y-50284047D01*
X237620355Y-50283297D01*
X237378935Y-50243980D01*
X237378934Y-50243980D01*
X237374323Y-50243229D01*
X237247364Y-50241567D01*
X237125083Y-50239966D01*
X237125080Y-50239966D01*
X237120406Y-50239905D01*
X236868787Y-50274149D01*
X236864301Y-50275457D01*
X236864299Y-50275457D01*
X236837401Y-50283297D01*
X236624993Y-50345208D01*
X236620740Y-50347168D01*
X236620739Y-50347169D01*
X236592818Y-50360041D01*
X236394380Y-50451522D01*
X236390471Y-50454085D01*
X236185928Y-50588189D01*
X236185923Y-50588193D01*
X236182015Y-50590755D01*
X235992562Y-50759848D01*
X235830183Y-50955087D01*
X235698447Y-51172182D01*
X235696638Y-51176496D01*
X235696637Y-51176498D01*
X235627540Y-51341277D01*
X235600246Y-51406365D01*
X235599095Y-51410897D01*
X235599094Y-51410900D01*
X235572836Y-51514292D01*
X235537738Y-51652490D01*
X235512296Y-51905151D01*
X234974958Y-51905151D01*
X234971925Y-51864338D01*
X234959818Y-51701411D01*
X234959817Y-51701407D01*
X234959472Y-51696759D01*
X234957974Y-51690135D01*
X234904459Y-51453639D01*
X234903428Y-51449082D01*
X234901448Y-51443990D01*
X234813084Y-51216762D01*
X234813083Y-51216760D01*
X234811391Y-51212409D01*
X234790866Y-51176498D01*
X234687702Y-50995997D01*
X234687700Y-50995995D01*
X234685383Y-50991940D01*
X234528171Y-50792517D01*
X234411981Y-50683217D01*
X234346610Y-50621722D01*
X234346608Y-50621720D01*
X234343209Y-50618523D01*
X234294443Y-50584693D01*
X234138393Y-50476437D01*
X234138390Y-50476435D01*
X234134561Y-50473779D01*
X234130376Y-50471715D01*
X234130371Y-50471712D01*
X234093770Y-50453662D01*
X234041522Y-50405593D01*
X234023500Y-50340657D01*
X234023500Y-50202070D01*
X234024933Y-50183120D01*
X234027099Y-50168885D01*
X234027099Y-50168881D01*
X234028199Y-50161651D01*
X234023915Y-50108982D01*
X234023500Y-50098767D01*
X234023500Y-50090707D01*
X234020211Y-50062493D01*
X234019778Y-50058118D01*
X234014454Y-49992661D01*
X234014453Y-49992658D01*
X234013860Y-49985363D01*
X234011604Y-49978399D01*
X234010413Y-49972440D01*
X234009029Y-49966585D01*
X234008182Y-49959319D01*
X233983265Y-49890673D01*
X233981848Y-49886545D01*
X233961607Y-49824064D01*
X233961606Y-49824062D01*
X233959351Y-49817101D01*
X233955555Y-49810846D01*
X233953049Y-49805372D01*
X233950330Y-49799942D01*
X233947833Y-49793063D01*
X233907814Y-49732024D01*
X233905467Y-49728305D01*
X233867595Y-49665893D01*
X233860197Y-49657516D01*
X233860224Y-49657492D01*
X233857571Y-49654500D01*
X233854868Y-49651267D01*
X233850856Y-49645148D01*
X233794617Y-49591872D01*
X233792175Y-49589494D01*
X232950776Y-48748095D01*
X232916750Y-48685783D01*
X232921815Y-48614968D01*
X232964362Y-48558132D01*
X233030882Y-48533321D01*
X233039871Y-48533000D01*
X259103800Y-48533000D01*
X259171921Y-48553002D01*
X259218414Y-48606658D01*
X259229800Y-48659000D01*
X259229800Y-69136000D01*
X259209798Y-69204121D01*
X259156142Y-69250614D01*
X259103800Y-69262000D01*
X240871647Y-69262000D01*
X240803526Y-69241998D01*
X240757033Y-69188342D01*
X240746929Y-69118068D01*
X240776423Y-69053488D01*
X240782552Y-69046905D01*
X241278542Y-68550915D01*
X241293577Y-68538074D01*
X241299084Y-68534073D01*
X241299090Y-68534068D01*
X241304434Y-68530185D01*
X241348895Y-68480806D01*
X241353436Y-68476021D01*
X241367472Y-68461985D01*
X241379969Y-68446553D01*
X241384253Y-68441538D01*
X241424283Y-68397080D01*
X241424287Y-68397075D01*
X241428704Y-68392169D01*
X241435412Y-68380551D01*
X241446607Y-68364263D01*
X241450890Y-68358974D01*
X241450891Y-68358973D01*
X241455048Y-68353839D01*
X241485214Y-68294634D01*
X241488337Y-68288881D01*
X241521564Y-68231331D01*
X241523606Y-68225047D01*
X241523608Y-68225042D01*
X241525708Y-68218579D01*
X241533272Y-68200317D01*
X241536363Y-68194251D01*
X241536366Y-68194242D01*
X241539362Y-68188363D01*
X241556556Y-68124196D01*
X241558422Y-68117894D01*
X241578954Y-68054702D01*
X241580355Y-68041372D01*
X241583958Y-68021929D01*
X241587430Y-68008971D01*
X241590907Y-67942628D01*
X241591424Y-67936059D01*
X241593156Y-67919577D01*
X241593500Y-67916306D01*
X241593500Y-67896445D01*
X241593673Y-67889850D01*
X241596805Y-67830098D01*
X241596805Y-67830094D01*
X241597150Y-67823507D01*
X241595051Y-67810253D01*
X241593500Y-67790544D01*
X241593500Y-66901913D01*
X241613502Y-66833792D01*
X241667158Y-66787299D01*
X241737432Y-66777195D01*
X241793651Y-66800041D01*
X241939270Y-66906034D01*
X241976305Y-66925519D01*
X242173921Y-67029490D01*
X242173927Y-67029493D01*
X242177961Y-67031615D01*
X242182266Y-67033135D01*
X242182270Y-67033137D01*
X242427967Y-67119902D01*
X242432280Y-67121425D01*
X242560032Y-67146605D01*
X242692428Y-67172700D01*
X242692434Y-67172701D01*
X242696900Y-67173581D01*
X242701453Y-67173808D01*
X242701456Y-67173808D01*
X242961708Y-67186764D01*
X242961714Y-67186764D01*
X242966277Y-67186991D01*
X243234769Y-67161375D01*
X243239203Y-67160290D01*
X243239209Y-67160289D01*
X243492312Y-67098355D01*
X243496750Y-67097269D01*
X243746733Y-66996015D01*
X243979482Y-66859735D01*
X244190119Y-66691284D01*
X244374234Y-66494191D01*
X244527968Y-66272584D01*
X244648101Y-66031106D01*
X244649523Y-66026769D01*
X244730698Y-65779147D01*
X244730699Y-65779141D01*
X244732118Y-65774814D01*
X244760546Y-65611087D01*
X244777601Y-65512860D01*
X244777602Y-65512852D01*
X244778257Y-65509079D01*
X244782500Y-65423851D01*
X244782500Y-65390206D01*
X245266000Y-65390206D01*
X245266165Y-65394777D01*
X245280213Y-65588380D01*
X245281527Y-65597389D01*
X245337689Y-65851769D01*
X245340292Y-65860499D01*
X245432586Y-66104107D01*
X245436421Y-66112368D01*
X245562915Y-66340101D01*
X245567905Y-66347726D01*
X245725946Y-66554809D01*
X245731986Y-66561636D01*
X245918264Y-66743735D01*
X245925226Y-66749618D01*
X246135843Y-66902922D01*
X246143573Y-66907733D01*
X246374122Y-67029031D01*
X246382472Y-67032678D01*
X246628099Y-67119419D01*
X246636894Y-67121825D01*
X246852225Y-67164267D01*
X246865137Y-67163088D01*
X246869939Y-67148174D01*
X247378000Y-67148174D01*
X247382251Y-67162651D01*
X247394512Y-67164714D01*
X247430133Y-67161315D01*
X247439125Y-67159795D01*
X247692158Y-67097878D01*
X247700827Y-67095078D01*
X247942282Y-66997278D01*
X247950455Y-66993256D01*
X248175253Y-66861632D01*
X248182765Y-66856469D01*
X248386213Y-66693769D01*
X248392896Y-66687580D01*
X248570733Y-66497206D01*
X248576443Y-66490129D01*
X248724934Y-66276082D01*
X248729571Y-66268241D01*
X248845604Y-66035003D01*
X248849060Y-66026578D01*
X248930212Y-65779026D01*
X248932412Y-65770201D01*
X248977103Y-65512811D01*
X248977950Y-65505193D01*
X248981922Y-65425408D01*
X248982000Y-65422267D01*
X248982000Y-65392512D01*
X249465500Y-65392512D01*
X249465664Y-65394777D01*
X249465665Y-65394792D01*
X249467888Y-65425422D01*
X249480047Y-65593004D01*
X249481031Y-65597459D01*
X249481031Y-65597462D01*
X249537178Y-65851769D01*
X249538194Y-65856372D01*
X249584385Y-65978291D01*
X249605944Y-66035194D01*
X249633750Y-66108588D01*
X249764714Y-66344368D01*
X249767486Y-66348000D01*
X249881608Y-66497535D01*
X249928343Y-66558773D01*
X249931609Y-66561966D01*
X249931611Y-66561968D01*
X249956021Y-66585830D01*
X250121208Y-66747312D01*
X250339270Y-66906034D01*
X250376305Y-66925519D01*
X250573921Y-67029490D01*
X250573927Y-67029493D01*
X250577961Y-67031615D01*
X250582266Y-67033135D01*
X250582270Y-67033137D01*
X250827967Y-67119902D01*
X250832280Y-67121425D01*
X250960032Y-67146605D01*
X251092428Y-67172700D01*
X251092434Y-67172701D01*
X251096900Y-67173581D01*
X251101453Y-67173808D01*
X251101456Y-67173808D01*
X251361708Y-67186764D01*
X251361714Y-67186764D01*
X251366277Y-67186991D01*
X251634769Y-67161375D01*
X251639203Y-67160290D01*
X251639209Y-67160289D01*
X251892312Y-67098355D01*
X251896750Y-67097269D01*
X252146733Y-66996015D01*
X252379482Y-66859735D01*
X252590119Y-66691284D01*
X252774234Y-66494191D01*
X252927968Y-66272584D01*
X253048101Y-66031106D01*
X253049523Y-66026769D01*
X253130698Y-65779147D01*
X253130699Y-65779141D01*
X253132118Y-65774814D01*
X253160546Y-65611087D01*
X253177601Y-65512860D01*
X253177602Y-65512852D01*
X253178257Y-65509079D01*
X253182500Y-65423851D01*
X253182500Y-64655488D01*
X253180114Y-64622592D01*
X253172823Y-64522116D01*
X253167953Y-64454996D01*
X253128831Y-64277799D01*
X253110791Y-64196088D01*
X253110790Y-64196084D01*
X253109806Y-64191628D01*
X253045321Y-64021422D01*
X253015868Y-63943682D01*
X253015867Y-63943679D01*
X253014250Y-63939412D01*
X252883286Y-63703632D01*
X252784836Y-63574631D01*
X253665500Y-63574631D01*
X253665501Y-66473368D01*
X253676491Y-66579293D01*
X253732547Y-66747315D01*
X253825754Y-66897936D01*
X253830936Y-66903109D01*
X253945930Y-67017903D01*
X253945935Y-67017907D01*
X253951111Y-67023074D01*
X253957341Y-67026914D01*
X253957342Y-67026915D01*
X254094722Y-67111597D01*
X254101894Y-67116018D01*
X254270014Y-67171781D01*
X254276851Y-67172481D01*
X254276853Y-67172482D01*
X254319922Y-67176895D01*
X254374631Y-67182500D01*
X255515136Y-67182500D01*
X256673368Y-67182499D01*
X256676612Y-67182162D01*
X256676620Y-67182162D01*
X256722904Y-67177359D01*
X256779293Y-67171509D01*
X256947315Y-67115453D01*
X257097936Y-67022246D01*
X257122411Y-66997728D01*
X257217903Y-66902070D01*
X257217907Y-66902065D01*
X257223074Y-66896889D01*
X257290626Y-66787299D01*
X257312178Y-66752336D01*
X257312179Y-66752334D01*
X257316018Y-66746106D01*
X257371781Y-66577986D01*
X257382500Y-66473369D01*
X257382499Y-63574632D01*
X257371509Y-63468707D01*
X257315453Y-63300685D01*
X257222246Y-63150064D01*
X257212008Y-63139844D01*
X257102070Y-63030097D01*
X257102065Y-63030093D01*
X257096889Y-63024926D01*
X257087225Y-63018969D01*
X256952336Y-62935822D01*
X256952334Y-62935821D01*
X256946106Y-62931982D01*
X256777986Y-62876219D01*
X256771149Y-62875519D01*
X256771147Y-62875518D01*
X256728078Y-62871105D01*
X256673369Y-62865500D01*
X255532864Y-62865500D01*
X254374632Y-62865501D01*
X254371388Y-62865838D01*
X254371380Y-62865838D01*
X254325096Y-62870641D01*
X254268707Y-62876491D01*
X254100685Y-62932547D01*
X253950064Y-63025754D01*
X253944891Y-63030936D01*
X253830097Y-63145930D01*
X253830093Y-63145935D01*
X253824926Y-63151111D01*
X253821086Y-63157341D01*
X253821085Y-63157342D01*
X253750762Y-63271428D01*
X253731982Y-63301894D01*
X253676219Y-63470014D01*
X253665500Y-63574631D01*
X252784836Y-63574631D01*
X252772045Y-63557871D01*
X252722429Y-63492859D01*
X252722428Y-63492858D01*
X252719657Y-63489227D01*
X252705629Y-63475513D01*
X252623225Y-63394958D01*
X252526792Y-63300688D01*
X252308730Y-63141966D01*
X252142948Y-63054744D01*
X252074079Y-63018510D01*
X252074073Y-63018507D01*
X252070039Y-63016385D01*
X252065734Y-63014865D01*
X252065730Y-63014863D01*
X251820033Y-62928098D01*
X251820032Y-62928098D01*
X251815720Y-62926575D01*
X251680006Y-62899826D01*
X251555572Y-62875300D01*
X251555566Y-62875299D01*
X251551100Y-62874419D01*
X251546547Y-62874192D01*
X251546544Y-62874192D01*
X251286292Y-62861236D01*
X251286286Y-62861236D01*
X251281723Y-62861009D01*
X251013231Y-62886625D01*
X251008797Y-62887710D01*
X251008791Y-62887711D01*
X250835035Y-62930229D01*
X250751250Y-62950731D01*
X250501267Y-63051985D01*
X250268518Y-63188265D01*
X250057881Y-63356716D01*
X249873766Y-63553809D01*
X249720032Y-63775416D01*
X249599899Y-64016894D01*
X249598478Y-64021228D01*
X249598477Y-64021231D01*
X249598415Y-64021422D01*
X249515882Y-64273186D01*
X249515102Y-64277677D01*
X249515102Y-64277678D01*
X249483525Y-64459547D01*
X249469743Y-64538921D01*
X249465500Y-64624149D01*
X249465500Y-65392512D01*
X248982000Y-65392512D01*
X248982000Y-65296115D01*
X248977525Y-65280876D01*
X248976135Y-65279671D01*
X248968452Y-65278000D01*
X247396115Y-65278000D01*
X247380876Y-65282475D01*
X247379671Y-65283865D01*
X247378000Y-65291548D01*
X247378000Y-67148174D01*
X246869939Y-67148174D01*
X246870000Y-67147985D01*
X246870000Y-65296115D01*
X246865525Y-65280876D01*
X246864135Y-65279671D01*
X246856452Y-65278000D01*
X245284115Y-65278000D01*
X245268876Y-65282475D01*
X245267671Y-65283865D01*
X245266000Y-65291548D01*
X245266000Y-65390206D01*
X244782500Y-65390206D01*
X244782500Y-64751885D01*
X245266000Y-64751885D01*
X245270475Y-64767124D01*
X245271865Y-64768329D01*
X245279548Y-64770000D01*
X246851885Y-64770000D01*
X246867124Y-64765525D01*
X246868329Y-64764135D01*
X246870000Y-64756452D01*
X246870000Y-64751885D01*
X247378000Y-64751885D01*
X247382475Y-64767124D01*
X247383865Y-64768329D01*
X247391548Y-64770000D01*
X248963885Y-64770000D01*
X248979124Y-64765525D01*
X248980329Y-64764135D01*
X248982000Y-64756452D01*
X248982000Y-64657794D01*
X248981835Y-64653223D01*
X248967787Y-64459620D01*
X248966473Y-64450611D01*
X248910311Y-64196231D01*
X248907708Y-64187501D01*
X248815414Y-63943893D01*
X248811579Y-63935632D01*
X248685085Y-63707899D01*
X248680095Y-63700274D01*
X248522054Y-63493191D01*
X248516014Y-63486364D01*
X248329736Y-63304265D01*
X248322774Y-63298382D01*
X248112157Y-63145078D01*
X248104427Y-63140267D01*
X247873878Y-63018969D01*
X247865528Y-63015322D01*
X247619901Y-62928581D01*
X247611106Y-62926175D01*
X247395775Y-62883733D01*
X247382863Y-62884912D01*
X247378000Y-62900015D01*
X247378000Y-64751885D01*
X246870000Y-64751885D01*
X246870000Y-62899826D01*
X246865749Y-62885349D01*
X246853488Y-62883286D01*
X246817867Y-62886685D01*
X246808875Y-62888205D01*
X246555842Y-62950122D01*
X246547173Y-62952922D01*
X246305718Y-63050722D01*
X246297545Y-63054744D01*
X246072747Y-63186368D01*
X246065235Y-63191531D01*
X245861787Y-63354231D01*
X245855104Y-63360420D01*
X245677267Y-63550794D01*
X245671557Y-63557871D01*
X245523066Y-63771918D01*
X245518429Y-63779759D01*
X245402396Y-64012997D01*
X245398940Y-64021422D01*
X245317788Y-64268974D01*
X245315588Y-64277799D01*
X245270897Y-64535189D01*
X245270050Y-64542807D01*
X245266078Y-64622592D01*
X245266000Y-64625733D01*
X245266000Y-64751885D01*
X244782500Y-64751885D01*
X244782500Y-64655488D01*
X244780114Y-64622592D01*
X244772823Y-64522116D01*
X244767953Y-64454996D01*
X244728831Y-64277799D01*
X244710791Y-64196088D01*
X244710790Y-64196084D01*
X244709806Y-64191628D01*
X244645321Y-64021422D01*
X244615868Y-63943682D01*
X244615867Y-63943679D01*
X244614250Y-63939412D01*
X244483286Y-63703632D01*
X244372045Y-63557871D01*
X244322429Y-63492859D01*
X244322428Y-63492858D01*
X244319657Y-63489227D01*
X244305629Y-63475513D01*
X244223225Y-63394958D01*
X244126792Y-63300688D01*
X243908730Y-63141966D01*
X243742948Y-63054744D01*
X243674079Y-63018510D01*
X243674073Y-63018507D01*
X243670039Y-63016385D01*
X243665734Y-63014865D01*
X243665730Y-63014863D01*
X243420033Y-62928098D01*
X243420032Y-62928098D01*
X243415720Y-62926575D01*
X243280006Y-62899826D01*
X243155572Y-62875300D01*
X243155566Y-62875299D01*
X243151100Y-62874419D01*
X243146547Y-62874192D01*
X243146544Y-62874192D01*
X242886292Y-62861236D01*
X242886286Y-62861236D01*
X242881723Y-62861009D01*
X242613231Y-62886625D01*
X242608797Y-62887710D01*
X242608791Y-62887711D01*
X242435035Y-62930229D01*
X242351250Y-62950731D01*
X242101267Y-63051985D01*
X241868518Y-63188265D01*
X241864956Y-63191113D01*
X241864951Y-63191117D01*
X241798195Y-63244504D01*
X241732502Y-63271428D01*
X241662681Y-63258562D01*
X241610899Y-63209991D01*
X241593500Y-63146101D01*
X241593500Y-61401913D01*
X241613502Y-61333792D01*
X241667158Y-61287299D01*
X241737432Y-61277195D01*
X241793651Y-61300041D01*
X241939270Y-61406034D01*
X241976305Y-61425519D01*
X242173921Y-61529490D01*
X242173927Y-61529493D01*
X242177961Y-61531615D01*
X242182266Y-61533135D01*
X242182270Y-61533137D01*
X242427967Y-61619902D01*
X242432280Y-61621425D01*
X242560032Y-61646605D01*
X242692428Y-61672700D01*
X242692434Y-61672701D01*
X242696900Y-61673581D01*
X242701453Y-61673808D01*
X242701456Y-61673808D01*
X242961708Y-61686764D01*
X242961714Y-61686764D01*
X242966277Y-61686991D01*
X243234769Y-61661375D01*
X243239203Y-61660290D01*
X243239209Y-61660289D01*
X243492312Y-61598355D01*
X243496750Y-61597269D01*
X243746733Y-61496015D01*
X243979482Y-61359735D01*
X244190119Y-61191284D01*
X244374234Y-60994191D01*
X244527968Y-60772584D01*
X244648101Y-60531106D01*
X244649523Y-60526769D01*
X244730698Y-60279147D01*
X244730699Y-60279141D01*
X244732118Y-60274814D01*
X244732919Y-60270201D01*
X244777601Y-60012860D01*
X244777602Y-60012852D01*
X244778257Y-60009079D01*
X244782500Y-59923851D01*
X244782500Y-59890206D01*
X245266000Y-59890206D01*
X245266165Y-59894777D01*
X245280213Y-60088380D01*
X245281527Y-60097389D01*
X245337689Y-60351769D01*
X245340292Y-60360499D01*
X245432586Y-60604107D01*
X245436421Y-60612368D01*
X245562915Y-60840101D01*
X245567905Y-60847726D01*
X245725946Y-61054809D01*
X245731986Y-61061636D01*
X245918264Y-61243735D01*
X245925226Y-61249618D01*
X246135843Y-61402922D01*
X246143573Y-61407733D01*
X246374122Y-61529031D01*
X246382472Y-61532678D01*
X246628099Y-61619419D01*
X246636894Y-61621825D01*
X246852225Y-61664267D01*
X246865137Y-61663088D01*
X246869939Y-61648174D01*
X247378000Y-61648174D01*
X247382251Y-61662651D01*
X247394512Y-61664714D01*
X247430133Y-61661315D01*
X247439125Y-61659795D01*
X247692158Y-61597878D01*
X247700827Y-61595078D01*
X247942282Y-61497278D01*
X247950455Y-61493256D01*
X248175253Y-61361632D01*
X248182765Y-61356469D01*
X248386213Y-61193769D01*
X248392896Y-61187580D01*
X248570733Y-60997206D01*
X248576443Y-60990129D01*
X248724934Y-60776082D01*
X248729571Y-60768241D01*
X248845604Y-60535003D01*
X248849060Y-60526578D01*
X248930212Y-60279026D01*
X248932412Y-60270201D01*
X248977103Y-60012811D01*
X248977950Y-60005193D01*
X248981922Y-59925408D01*
X248982000Y-59922267D01*
X248982000Y-59892512D01*
X249465500Y-59892512D01*
X249465664Y-59894777D01*
X249465665Y-59894792D01*
X249467888Y-59925422D01*
X249480047Y-60093004D01*
X249481031Y-60097459D01*
X249481031Y-60097462D01*
X249537178Y-60351769D01*
X249538194Y-60356372D01*
X249539812Y-60360642D01*
X249605944Y-60535194D01*
X249633750Y-60608588D01*
X249764714Y-60844368D01*
X249767486Y-60848000D01*
X249881608Y-60997535D01*
X249928343Y-61058773D01*
X250121208Y-61247312D01*
X250339270Y-61406034D01*
X250376305Y-61425519D01*
X250573921Y-61529490D01*
X250573927Y-61529493D01*
X250577961Y-61531615D01*
X250582266Y-61533135D01*
X250582270Y-61533137D01*
X250827967Y-61619902D01*
X250832280Y-61621425D01*
X250960032Y-61646605D01*
X251092428Y-61672700D01*
X251092434Y-61672701D01*
X251096900Y-61673581D01*
X251101453Y-61673808D01*
X251101456Y-61673808D01*
X251361708Y-61686764D01*
X251361714Y-61686764D01*
X251366277Y-61686991D01*
X251634769Y-61661375D01*
X251639203Y-61660290D01*
X251639209Y-61660289D01*
X251892312Y-61598355D01*
X251896750Y-61597269D01*
X252146733Y-61496015D01*
X252379482Y-61359735D01*
X252590119Y-61191284D01*
X252774234Y-60994191D01*
X252927968Y-60772584D01*
X253048101Y-60531106D01*
X253049523Y-60526769D01*
X253130698Y-60279147D01*
X253130699Y-60279141D01*
X253132118Y-60274814D01*
X253132919Y-60270201D01*
X253177601Y-60012860D01*
X253177602Y-60012852D01*
X253178257Y-60009079D01*
X253182500Y-59923851D01*
X253182500Y-59892512D01*
X253665500Y-59892512D01*
X253665664Y-59894777D01*
X253665665Y-59894792D01*
X253667888Y-59925422D01*
X253680047Y-60093004D01*
X253681031Y-60097459D01*
X253681031Y-60097462D01*
X253737178Y-60351769D01*
X253738194Y-60356372D01*
X253739812Y-60360642D01*
X253805944Y-60535194D01*
X253833750Y-60608588D01*
X253964714Y-60844368D01*
X253967486Y-60848000D01*
X254081608Y-60997535D01*
X254128343Y-61058773D01*
X254321208Y-61247312D01*
X254539270Y-61406034D01*
X254576305Y-61425519D01*
X254773921Y-61529490D01*
X254773927Y-61529493D01*
X254777961Y-61531615D01*
X254782266Y-61533135D01*
X254782270Y-61533137D01*
X255027967Y-61619902D01*
X255032280Y-61621425D01*
X255160032Y-61646605D01*
X255292428Y-61672700D01*
X255292434Y-61672701D01*
X255296900Y-61673581D01*
X255301453Y-61673808D01*
X255301456Y-61673808D01*
X255561708Y-61686764D01*
X255561714Y-61686764D01*
X255566277Y-61686991D01*
X255834769Y-61661375D01*
X255839203Y-61660290D01*
X255839209Y-61660289D01*
X256092312Y-61598355D01*
X256096750Y-61597269D01*
X256346733Y-61496015D01*
X256579482Y-61359735D01*
X256790119Y-61191284D01*
X256974234Y-60994191D01*
X257127968Y-60772584D01*
X257248101Y-60531106D01*
X257249523Y-60526769D01*
X257330698Y-60279147D01*
X257330699Y-60279141D01*
X257332118Y-60274814D01*
X257332919Y-60270201D01*
X257377601Y-60012860D01*
X257377602Y-60012852D01*
X257378257Y-60009079D01*
X257382500Y-59923851D01*
X257382500Y-59155488D01*
X257380114Y-59122592D01*
X257372823Y-59022116D01*
X257367953Y-58954996D01*
X257328831Y-58777799D01*
X257310791Y-58696088D01*
X257310790Y-58696084D01*
X257309806Y-58691628D01*
X257245321Y-58521422D01*
X257215868Y-58443682D01*
X257215867Y-58443679D01*
X257214250Y-58439412D01*
X257083286Y-58203632D01*
X256972045Y-58057871D01*
X256922429Y-57992859D01*
X256922428Y-57992858D01*
X256919657Y-57989227D01*
X256726792Y-57800688D01*
X256508730Y-57641966D01*
X256342948Y-57554744D01*
X256274079Y-57518510D01*
X256274073Y-57518507D01*
X256270039Y-57516385D01*
X256265734Y-57514865D01*
X256265730Y-57514863D01*
X256020033Y-57428098D01*
X256020032Y-57428098D01*
X256015720Y-57426575D01*
X255880006Y-57399826D01*
X255755572Y-57375300D01*
X255755566Y-57375299D01*
X255751100Y-57374419D01*
X255746547Y-57374192D01*
X255746544Y-57374192D01*
X255486292Y-57361236D01*
X255486286Y-57361236D01*
X255481723Y-57361009D01*
X255213231Y-57386625D01*
X255208797Y-57387710D01*
X255208791Y-57387711D01*
X254955688Y-57449645D01*
X254951250Y-57450731D01*
X254701267Y-57551985D01*
X254468518Y-57688265D01*
X254257881Y-57856716D01*
X254073766Y-58053809D01*
X253920032Y-58275416D01*
X253799899Y-58516894D01*
X253798478Y-58521228D01*
X253798477Y-58521231D01*
X253798415Y-58521422D01*
X253715882Y-58773186D01*
X253715102Y-58777677D01*
X253715102Y-58777678D01*
X253683525Y-58959547D01*
X253669743Y-59038921D01*
X253665500Y-59124149D01*
X253665500Y-59892512D01*
X253182500Y-59892512D01*
X253182500Y-59155488D01*
X253180114Y-59122592D01*
X253172823Y-59022116D01*
X253167953Y-58954996D01*
X253128831Y-58777799D01*
X253110791Y-58696088D01*
X253110790Y-58696084D01*
X253109806Y-58691628D01*
X253045321Y-58521422D01*
X253015868Y-58443682D01*
X253015867Y-58443679D01*
X253014250Y-58439412D01*
X252883286Y-58203632D01*
X252772045Y-58057871D01*
X252722429Y-57992859D01*
X252722428Y-57992858D01*
X252719657Y-57989227D01*
X252526792Y-57800688D01*
X252308730Y-57641966D01*
X252142948Y-57554744D01*
X252074079Y-57518510D01*
X252074073Y-57518507D01*
X252070039Y-57516385D01*
X252065734Y-57514865D01*
X252065730Y-57514863D01*
X251820033Y-57428098D01*
X251820032Y-57428098D01*
X251815720Y-57426575D01*
X251680006Y-57399826D01*
X251555572Y-57375300D01*
X251555566Y-57375299D01*
X251551100Y-57374419D01*
X251546547Y-57374192D01*
X251546544Y-57374192D01*
X251286292Y-57361236D01*
X251286286Y-57361236D01*
X251281723Y-57361009D01*
X251013231Y-57386625D01*
X251008797Y-57387710D01*
X251008791Y-57387711D01*
X250755688Y-57449645D01*
X250751250Y-57450731D01*
X250501267Y-57551985D01*
X250268518Y-57688265D01*
X250057881Y-57856716D01*
X249873766Y-58053809D01*
X249720032Y-58275416D01*
X249599899Y-58516894D01*
X249598478Y-58521228D01*
X249598477Y-58521231D01*
X249598415Y-58521422D01*
X249515882Y-58773186D01*
X249515102Y-58777677D01*
X249515102Y-58777678D01*
X249483525Y-58959547D01*
X249469743Y-59038921D01*
X249465500Y-59124149D01*
X249465500Y-59892512D01*
X248982000Y-59892512D01*
X248982000Y-59796115D01*
X248977525Y-59780876D01*
X248976135Y-59779671D01*
X248968452Y-59778000D01*
X247396115Y-59778000D01*
X247380876Y-59782475D01*
X247379671Y-59783865D01*
X247378000Y-59791548D01*
X247378000Y-61648174D01*
X246869939Y-61648174D01*
X246870000Y-61647985D01*
X246870000Y-59796115D01*
X246865525Y-59780876D01*
X246864135Y-59779671D01*
X246856452Y-59778000D01*
X245284115Y-59778000D01*
X245268876Y-59782475D01*
X245267671Y-59783865D01*
X245266000Y-59791548D01*
X245266000Y-59890206D01*
X244782500Y-59890206D01*
X244782500Y-59251885D01*
X245266000Y-59251885D01*
X245270475Y-59267124D01*
X245271865Y-59268329D01*
X245279548Y-59270000D01*
X246851885Y-59270000D01*
X246867124Y-59265525D01*
X246868329Y-59264135D01*
X246870000Y-59256452D01*
X246870000Y-59251885D01*
X247378000Y-59251885D01*
X247382475Y-59267124D01*
X247383865Y-59268329D01*
X247391548Y-59270000D01*
X248963885Y-59270000D01*
X248979124Y-59265525D01*
X248980329Y-59264135D01*
X248982000Y-59256452D01*
X248982000Y-59157794D01*
X248981835Y-59153223D01*
X248967787Y-58959620D01*
X248966473Y-58950611D01*
X248910311Y-58696231D01*
X248907708Y-58687501D01*
X248815414Y-58443893D01*
X248811579Y-58435632D01*
X248685085Y-58207899D01*
X248680095Y-58200274D01*
X248522054Y-57993191D01*
X248516014Y-57986364D01*
X248329736Y-57804265D01*
X248322774Y-57798382D01*
X248112157Y-57645078D01*
X248104427Y-57640267D01*
X247873878Y-57518969D01*
X247865528Y-57515322D01*
X247619901Y-57428581D01*
X247611106Y-57426175D01*
X247395775Y-57383733D01*
X247382863Y-57384912D01*
X247378000Y-57400015D01*
X247378000Y-59251885D01*
X246870000Y-59251885D01*
X246870000Y-57399826D01*
X246865749Y-57385349D01*
X246853488Y-57383286D01*
X246817867Y-57386685D01*
X246808875Y-57388205D01*
X246555842Y-57450122D01*
X246547173Y-57452922D01*
X246305718Y-57550722D01*
X246297545Y-57554744D01*
X246072747Y-57686368D01*
X246065235Y-57691531D01*
X245861787Y-57854231D01*
X245855104Y-57860420D01*
X245677267Y-58050794D01*
X245671557Y-58057871D01*
X245523066Y-58271918D01*
X245518429Y-58279759D01*
X245402396Y-58512997D01*
X245398940Y-58521422D01*
X245317788Y-58768974D01*
X245315588Y-58777799D01*
X245270897Y-59035189D01*
X245270050Y-59042807D01*
X245266078Y-59122592D01*
X245266000Y-59125733D01*
X245266000Y-59251885D01*
X244782500Y-59251885D01*
X244782500Y-59155488D01*
X244780114Y-59122592D01*
X244772823Y-59022116D01*
X244767953Y-58954996D01*
X244728831Y-58777799D01*
X244710791Y-58696088D01*
X244710790Y-58696084D01*
X244709806Y-58691628D01*
X244645321Y-58521422D01*
X244615868Y-58443682D01*
X244615867Y-58443679D01*
X244614250Y-58439412D01*
X244483286Y-58203632D01*
X244372045Y-58057871D01*
X244322429Y-57992859D01*
X244322428Y-57992858D01*
X244319657Y-57989227D01*
X244126792Y-57800688D01*
X243908730Y-57641966D01*
X243742948Y-57554744D01*
X243674079Y-57518510D01*
X243674073Y-57518507D01*
X243670039Y-57516385D01*
X243665734Y-57514865D01*
X243665730Y-57514863D01*
X243420033Y-57428098D01*
X243420032Y-57428098D01*
X243415720Y-57426575D01*
X243280006Y-57399826D01*
X243155572Y-57375300D01*
X243155566Y-57375299D01*
X243151100Y-57374419D01*
X243146547Y-57374192D01*
X243146544Y-57374192D01*
X242886292Y-57361236D01*
X242886286Y-57361236D01*
X242881723Y-57361009D01*
X242613231Y-57386625D01*
X242608797Y-57387710D01*
X242608791Y-57387711D01*
X242355688Y-57449645D01*
X242351250Y-57450731D01*
X242101267Y-57551985D01*
X241868518Y-57688265D01*
X241864956Y-57691113D01*
X241864951Y-57691117D01*
X241798195Y-57744504D01*
X241732502Y-57771428D01*
X241662681Y-57758562D01*
X241610899Y-57709991D01*
X241593500Y-57646101D01*
X241593500Y-53706375D01*
X241613502Y-53638254D01*
X241667158Y-53591761D01*
X241687419Y-53584527D01*
X241694525Y-53582656D01*
X241742793Y-53569948D01*
X241899200Y-53502751D01*
X241971807Y-53471557D01*
X241971810Y-53471555D01*
X241976110Y-53469708D01*
X241980090Y-53467245D01*
X241980094Y-53467243D01*
X242188064Y-53338547D01*
X242188066Y-53338545D01*
X242192047Y-53336082D01*
X242290428Y-53252797D01*
X242382289Y-53175031D01*
X242382291Y-53175029D01*
X242385862Y-53172006D01*
X242553295Y-52981084D01*
X242567686Y-52958712D01*
X242688141Y-52771442D01*
X242690669Y-52767512D01*
X242794967Y-52535980D01*
X242796288Y-52531298D01*
X242829859Y-52412262D01*
X242863896Y-52291575D01*
X242881390Y-52154064D01*
X242895545Y-52042798D01*
X242895545Y-52042792D01*
X242895943Y-52039667D01*
X242896027Y-52036483D01*
X242897810Y-51968368D01*
X242898291Y-51950000D01*
X242894958Y-51905151D01*
X243432296Y-51905151D01*
X243432520Y-51909817D01*
X243432520Y-51909822D01*
X243435376Y-51969276D01*
X243444480Y-52158798D01*
X243494021Y-52407857D01*
X243495600Y-52412255D01*
X243495602Y-52412262D01*
X243540022Y-52535980D01*
X243579831Y-52646858D01*
X243582048Y-52650984D01*
X243697666Y-52866160D01*
X243700025Y-52870551D01*
X243702820Y-52874294D01*
X243702822Y-52874297D01*
X243849171Y-53070282D01*
X243849176Y-53070288D01*
X243851963Y-53074020D01*
X243855272Y-53077300D01*
X243855277Y-53077306D01*
X243995977Y-53216783D01*
X244032307Y-53252797D01*
X244036069Y-53255555D01*
X244036072Y-53255558D01*
X244189161Y-53367807D01*
X244237094Y-53402953D01*
X244241229Y-53405129D01*
X244241233Y-53405131D01*
X244321032Y-53447115D01*
X244461827Y-53521191D01*
X244594803Y-53567628D01*
X244695764Y-53602885D01*
X244701568Y-53604912D01*
X244951050Y-53652278D01*
X245071532Y-53657011D01*
X245200125Y-53662064D01*
X245200130Y-53662064D01*
X245204793Y-53662247D01*
X245297127Y-53652135D01*
X245452569Y-53635112D01*
X245452575Y-53635111D01*
X245457222Y-53634602D01*
X245566680Y-53605784D01*
X245698273Y-53571138D01*
X245702793Y-53569948D01*
X245859200Y-53502751D01*
X245931807Y-53471557D01*
X245931810Y-53471555D01*
X245936110Y-53469708D01*
X245940090Y-53467245D01*
X245940094Y-53467243D01*
X246148064Y-53338547D01*
X246148066Y-53338545D01*
X246152047Y-53336082D01*
X246250428Y-53252797D01*
X246342289Y-53175031D01*
X246342291Y-53175029D01*
X246345862Y-53172006D01*
X246513295Y-52981084D01*
X246527686Y-52958712D01*
X246648141Y-52771442D01*
X246650669Y-52767512D01*
X246754967Y-52535980D01*
X246756288Y-52531298D01*
X246789859Y-52412262D01*
X246823896Y-52291575D01*
X246841390Y-52154064D01*
X246855545Y-52042798D01*
X246855545Y-52042792D01*
X246855943Y-52039667D01*
X246856027Y-52036483D01*
X246857810Y-51968368D01*
X246858291Y-51950000D01*
X246854958Y-51905151D01*
X247392296Y-51905151D01*
X247392520Y-51909817D01*
X247392520Y-51909822D01*
X247395376Y-51969276D01*
X247404480Y-52158798D01*
X247454021Y-52407857D01*
X247455600Y-52412255D01*
X247455602Y-52412262D01*
X247500022Y-52535980D01*
X247539831Y-52646858D01*
X247542048Y-52650984D01*
X247657666Y-52866160D01*
X247660025Y-52870551D01*
X247662820Y-52874294D01*
X247662822Y-52874297D01*
X247809171Y-53070282D01*
X247809176Y-53070288D01*
X247811963Y-53074020D01*
X247815272Y-53077300D01*
X247815277Y-53077306D01*
X247955977Y-53216783D01*
X247992307Y-53252797D01*
X247996069Y-53255555D01*
X247996072Y-53255558D01*
X248149161Y-53367807D01*
X248197094Y-53402953D01*
X248201229Y-53405129D01*
X248201233Y-53405131D01*
X248281032Y-53447115D01*
X248421827Y-53521191D01*
X248554803Y-53567628D01*
X248655764Y-53602885D01*
X248661568Y-53604912D01*
X248911050Y-53652278D01*
X249031532Y-53657011D01*
X249160125Y-53662064D01*
X249160130Y-53662064D01*
X249164793Y-53662247D01*
X249257127Y-53652135D01*
X249412569Y-53635112D01*
X249412575Y-53635111D01*
X249417222Y-53634602D01*
X249526680Y-53605784D01*
X249658273Y-53571138D01*
X249662793Y-53569948D01*
X249819200Y-53502751D01*
X249891807Y-53471557D01*
X249891810Y-53471555D01*
X249896110Y-53469708D01*
X249900090Y-53467245D01*
X249900094Y-53467243D01*
X250108064Y-53338547D01*
X250108066Y-53338545D01*
X250112047Y-53336082D01*
X250127076Y-53323359D01*
X252056386Y-53323359D01*
X252065099Y-53334879D01*
X252153586Y-53399760D01*
X252161505Y-53404708D01*
X252377877Y-53518547D01*
X252386451Y-53522275D01*
X252617282Y-53602885D01*
X252626291Y-53605299D01*
X252866518Y-53650908D01*
X252875775Y-53651962D01*
X253120107Y-53661563D01*
X253129420Y-53661237D01*
X253372478Y-53634618D01*
X253381655Y-53632917D01*
X253618107Y-53570665D01*
X253626926Y-53567628D01*
X253851584Y-53471107D01*
X253859856Y-53466800D01*
X254067777Y-53338135D01*
X254069620Y-53336796D01*
X254077038Y-53325541D01*
X254070974Y-53315184D01*
X253077812Y-52322022D01*
X253063868Y-52314408D01*
X253062035Y-52314539D01*
X253055420Y-52318790D01*
X252063044Y-53311166D01*
X252056386Y-53323359D01*
X250127076Y-53323359D01*
X250210428Y-53252797D01*
X250302289Y-53175031D01*
X250302291Y-53175029D01*
X250305862Y-53172006D01*
X250473295Y-52981084D01*
X250487686Y-52958712D01*
X250608141Y-52771442D01*
X250610669Y-52767512D01*
X250714967Y-52535980D01*
X250716288Y-52531298D01*
X250749859Y-52412262D01*
X250783896Y-52291575D01*
X250801390Y-52154064D01*
X250815545Y-52042798D01*
X250815545Y-52042792D01*
X250815943Y-52039667D01*
X250816027Y-52036483D01*
X250817810Y-51968368D01*
X250818291Y-51950000D01*
X250815306Y-51909835D01*
X251353022Y-51909835D01*
X251364754Y-52154064D01*
X251365891Y-52163324D01*
X251413593Y-52403143D01*
X251416082Y-52412118D01*
X251498708Y-52642250D01*
X251502505Y-52650778D01*
X251618234Y-52866160D01*
X251623245Y-52874027D01*
X251680173Y-52950263D01*
X251691431Y-52958712D01*
X251703850Y-52951940D01*
X252692978Y-51962812D01*
X252699356Y-51951132D01*
X253429408Y-51951132D01*
X253429539Y-51952965D01*
X253433790Y-51959580D01*
X254428732Y-52954522D01*
X254441112Y-52961282D01*
X254449453Y-52955038D01*
X254454561Y-52947096D01*
X255317000Y-52947096D01*
X255317337Y-52953611D01*
X255327256Y-53049203D01*
X255330150Y-53062602D01*
X255381588Y-53216783D01*
X255387762Y-53229962D01*
X255473063Y-53367807D01*
X255482099Y-53379208D01*
X255596830Y-53493739D01*
X255608241Y-53502751D01*
X255746245Y-53587818D01*
X255759423Y-53593962D01*
X255913716Y-53645139D01*
X255927081Y-53648005D01*
X256021439Y-53657672D01*
X256027855Y-53658000D01*
X256752885Y-53658000D01*
X256768124Y-53653525D01*
X256769329Y-53652135D01*
X256771000Y-53644452D01*
X256771000Y-53639885D01*
X257279000Y-53639885D01*
X257283475Y-53655124D01*
X257284865Y-53656329D01*
X257292548Y-53658000D01*
X258022096Y-53658000D01*
X258028611Y-53657663D01*
X258124203Y-53647744D01*
X258137602Y-53644850D01*
X258291783Y-53593412D01*
X258304962Y-53587238D01*
X258442807Y-53501937D01*
X258454208Y-53492901D01*
X258568739Y-53378170D01*
X258577751Y-53366759D01*
X258662818Y-53228755D01*
X258668962Y-53215577D01*
X258720139Y-53061284D01*
X258723005Y-53047919D01*
X258732672Y-52953561D01*
X258733000Y-52947145D01*
X258733000Y-52222115D01*
X258728525Y-52206876D01*
X258727135Y-52205671D01*
X258719452Y-52204000D01*
X257297115Y-52204000D01*
X257281876Y-52208475D01*
X257280671Y-52209865D01*
X257279000Y-52217548D01*
X257279000Y-53639885D01*
X256771000Y-53639885D01*
X256771000Y-52222115D01*
X256766525Y-52206876D01*
X256765135Y-52205671D01*
X256757452Y-52204000D01*
X255335115Y-52204000D01*
X255319876Y-52208475D01*
X255318671Y-52209865D01*
X255317000Y-52217548D01*
X255317000Y-52947096D01*
X254454561Y-52947096D01*
X254567700Y-52771202D01*
X254572147Y-52763011D01*
X254672572Y-52540076D01*
X254675767Y-52531298D01*
X254742135Y-52295973D01*
X254743993Y-52286844D01*
X254775044Y-52042770D01*
X254775525Y-52036483D01*
X254777706Y-51953160D01*
X254777555Y-51946851D01*
X254759321Y-51701486D01*
X254757944Y-51692280D01*
X254754687Y-51677885D01*
X255317000Y-51677885D01*
X255321475Y-51693124D01*
X255322865Y-51694329D01*
X255330548Y-51696000D01*
X256752885Y-51696000D01*
X256768124Y-51691525D01*
X256769329Y-51690135D01*
X256771000Y-51682452D01*
X256771000Y-51677885D01*
X257279000Y-51677885D01*
X257283475Y-51693124D01*
X257284865Y-51694329D01*
X257292548Y-51696000D01*
X258714885Y-51696000D01*
X258730124Y-51691525D01*
X258731329Y-51690135D01*
X258733000Y-51682452D01*
X258733000Y-50952904D01*
X258732663Y-50946389D01*
X258722744Y-50850797D01*
X258719850Y-50837398D01*
X258668412Y-50683217D01*
X258662238Y-50670038D01*
X258576937Y-50532193D01*
X258567901Y-50520792D01*
X258453170Y-50406261D01*
X258441759Y-50397249D01*
X258303755Y-50312182D01*
X258290577Y-50306038D01*
X258136284Y-50254861D01*
X258122919Y-50251995D01*
X258028561Y-50242328D01*
X258022144Y-50242000D01*
X257297115Y-50242000D01*
X257281876Y-50246475D01*
X257280671Y-50247865D01*
X257279000Y-50255548D01*
X257279000Y-51677885D01*
X256771000Y-51677885D01*
X256771000Y-50260115D01*
X256766525Y-50244876D01*
X256765135Y-50243671D01*
X256757452Y-50242000D01*
X256027904Y-50242000D01*
X256021389Y-50242337D01*
X255925797Y-50252256D01*
X255912398Y-50255150D01*
X255758217Y-50306588D01*
X255745038Y-50312762D01*
X255607193Y-50398063D01*
X255595792Y-50407099D01*
X255481261Y-50521830D01*
X255472249Y-50533241D01*
X255387182Y-50671245D01*
X255381038Y-50684423D01*
X255329861Y-50838716D01*
X255326995Y-50852081D01*
X255317328Y-50946439D01*
X255317000Y-50952856D01*
X255317000Y-51677885D01*
X254754687Y-51677885D01*
X254703979Y-51453786D01*
X254701255Y-51444875D01*
X254612633Y-51216983D01*
X254608619Y-51208567D01*
X254487284Y-50996276D01*
X254482074Y-50988553D01*
X254450787Y-50948865D01*
X254438863Y-50940395D01*
X254427328Y-50946882D01*
X253437022Y-51937188D01*
X253429408Y-51951132D01*
X252699356Y-51951132D01*
X252700592Y-51948868D01*
X252700461Y-51947035D01*
X252696210Y-51940420D01*
X251701828Y-50946038D01*
X251688520Y-50938771D01*
X251678481Y-50945893D01*
X251673581Y-50951784D01*
X251668168Y-50959373D01*
X251541322Y-51168409D01*
X251537084Y-51176726D01*
X251442529Y-51402214D01*
X251439572Y-51411052D01*
X251379384Y-51648042D01*
X251377763Y-51657232D01*
X251353267Y-51900510D01*
X251353022Y-51909835D01*
X250815306Y-51909835D01*
X250811925Y-51864338D01*
X250799818Y-51701411D01*
X250799817Y-51701407D01*
X250799472Y-51696759D01*
X250797974Y-51690135D01*
X250744459Y-51453639D01*
X250743428Y-51449082D01*
X250741448Y-51443990D01*
X250653084Y-51216762D01*
X250653083Y-51216760D01*
X250651391Y-51212409D01*
X250630866Y-51176498D01*
X250527702Y-50995997D01*
X250527700Y-50995995D01*
X250525383Y-50991940D01*
X250368171Y-50792517D01*
X250251981Y-50683217D01*
X250186610Y-50621722D01*
X250186608Y-50621720D01*
X250183209Y-50618523D01*
X250134443Y-50584693D01*
X250120351Y-50574917D01*
X252054330Y-50574917D01*
X252058903Y-50584693D01*
X253052188Y-51577978D01*
X253066132Y-51585592D01*
X253067965Y-51585461D01*
X253074580Y-51581210D01*
X254067488Y-50588302D01*
X254073872Y-50576612D01*
X254064460Y-50564502D01*
X253938144Y-50476873D01*
X253930116Y-50472145D01*
X253710810Y-50363995D01*
X253702177Y-50360507D01*
X253469288Y-50285958D01*
X253460238Y-50283785D01*
X253218891Y-50244480D01*
X253209602Y-50243668D01*
X252965114Y-50240467D01*
X252955803Y-50241037D01*
X252713522Y-50274010D01*
X252704403Y-50275948D01*
X252469668Y-50344367D01*
X252460915Y-50347639D01*
X252238869Y-50450004D01*
X252230714Y-50454524D01*
X252063468Y-50564175D01*
X252054330Y-50574917D01*
X250120351Y-50574917D01*
X249978393Y-50476437D01*
X249978390Y-50476435D01*
X249974561Y-50473779D01*
X249970384Y-50471719D01*
X249970377Y-50471715D01*
X249750996Y-50363528D01*
X249750992Y-50363527D01*
X249746810Y-50361464D01*
X249504960Y-50284047D01*
X249500355Y-50283297D01*
X249258935Y-50243980D01*
X249258934Y-50243980D01*
X249254323Y-50243229D01*
X249127364Y-50241567D01*
X249005083Y-50239966D01*
X249005080Y-50239966D01*
X249000406Y-50239905D01*
X248748787Y-50274149D01*
X248744301Y-50275457D01*
X248744299Y-50275457D01*
X248717401Y-50283297D01*
X248504993Y-50345208D01*
X248500740Y-50347168D01*
X248500739Y-50347169D01*
X248472818Y-50360041D01*
X248274380Y-50451522D01*
X248270471Y-50454085D01*
X248065928Y-50588189D01*
X248065923Y-50588193D01*
X248062015Y-50590755D01*
X247872562Y-50759848D01*
X247710183Y-50955087D01*
X247578447Y-51172182D01*
X247576638Y-51176496D01*
X247576637Y-51176498D01*
X247507540Y-51341277D01*
X247480246Y-51406365D01*
X247479095Y-51410897D01*
X247479094Y-51410900D01*
X247452836Y-51514292D01*
X247417738Y-51652490D01*
X247392296Y-51905151D01*
X246854958Y-51905151D01*
X246851925Y-51864338D01*
X246839818Y-51701411D01*
X246839817Y-51701407D01*
X246839472Y-51696759D01*
X246837974Y-51690135D01*
X246784459Y-51453639D01*
X246783428Y-51449082D01*
X246781448Y-51443990D01*
X246693084Y-51216762D01*
X246693083Y-51216760D01*
X246691391Y-51212409D01*
X246670866Y-51176498D01*
X246567702Y-50995997D01*
X246567700Y-50995995D01*
X246565383Y-50991940D01*
X246408171Y-50792517D01*
X246291981Y-50683217D01*
X246226610Y-50621722D01*
X246226608Y-50621720D01*
X246223209Y-50618523D01*
X246174443Y-50584693D01*
X246018393Y-50476437D01*
X246018390Y-50476435D01*
X246014561Y-50473779D01*
X246010384Y-50471719D01*
X246010377Y-50471715D01*
X245790996Y-50363528D01*
X245790992Y-50363527D01*
X245786810Y-50361464D01*
X245544960Y-50284047D01*
X245540355Y-50283297D01*
X245298935Y-50243980D01*
X245298934Y-50243980D01*
X245294323Y-50243229D01*
X245167364Y-50241567D01*
X245045083Y-50239966D01*
X245045080Y-50239966D01*
X245040406Y-50239905D01*
X244788787Y-50274149D01*
X244784301Y-50275457D01*
X244784299Y-50275457D01*
X244757401Y-50283297D01*
X244544993Y-50345208D01*
X244540740Y-50347168D01*
X244540739Y-50347169D01*
X244512818Y-50360041D01*
X244314380Y-50451522D01*
X244310471Y-50454085D01*
X244105928Y-50588189D01*
X244105923Y-50588193D01*
X244102015Y-50590755D01*
X243912562Y-50759848D01*
X243750183Y-50955087D01*
X243618447Y-51172182D01*
X243616638Y-51176496D01*
X243616637Y-51176498D01*
X243547540Y-51341277D01*
X243520246Y-51406365D01*
X243519095Y-51410897D01*
X243519094Y-51410900D01*
X243492836Y-51514292D01*
X243457738Y-51652490D01*
X243432296Y-51905151D01*
X242894958Y-51905151D01*
X242891925Y-51864338D01*
X242879818Y-51701411D01*
X242879817Y-51701407D01*
X242879472Y-51696759D01*
X242877974Y-51690135D01*
X242824459Y-51453639D01*
X242823428Y-51449082D01*
X242821448Y-51443990D01*
X242733084Y-51216762D01*
X242733083Y-51216760D01*
X242731391Y-51212409D01*
X242710866Y-51176498D01*
X242607702Y-50995997D01*
X242607700Y-50995995D01*
X242605383Y-50991940D01*
X242448171Y-50792517D01*
X242331981Y-50683217D01*
X242266610Y-50621722D01*
X242266608Y-50621720D01*
X242263209Y-50618523D01*
X242214443Y-50584693D01*
X242058393Y-50476437D01*
X242058390Y-50476435D01*
X242054561Y-50473779D01*
X242050384Y-50471719D01*
X242050377Y-50471715D01*
X241830996Y-50363528D01*
X241830992Y-50363527D01*
X241826810Y-50361464D01*
X241584960Y-50284047D01*
X241580355Y-50283297D01*
X241338935Y-50243980D01*
X241338934Y-50243980D01*
X241334323Y-50243229D01*
X241207364Y-50241567D01*
X241085083Y-50239966D01*
X241085080Y-50239966D01*
X241080406Y-50239905D01*
X240828787Y-50274149D01*
X240824301Y-50275457D01*
X240824299Y-50275457D01*
X240797401Y-50283297D01*
X240584993Y-50345208D01*
X240580740Y-50347168D01*
X240580739Y-50347169D01*
X240552818Y-50360041D01*
X240354380Y-50451522D01*
X240350471Y-50454085D01*
X240145928Y-50588189D01*
X240145923Y-50588193D01*
X240142015Y-50590755D01*
X239952562Y-50759848D01*
X239790183Y-50955087D01*
X239658447Y-51172182D01*
X239656638Y-51176496D01*
X239656637Y-51176498D01*
X239587540Y-51341277D01*
X239560246Y-51406365D01*
X239559095Y-51410897D01*
X239559094Y-51410900D01*
X239532836Y-51514292D01*
X239497738Y-51652490D01*
X239472296Y-51905151D01*
X239472520Y-51909817D01*
X239472520Y-51909822D01*
X239475376Y-51969276D01*
X239484480Y-52158798D01*
X239534021Y-52407857D01*
X239535600Y-52412255D01*
X239535602Y-52412262D01*
X239580022Y-52535980D01*
X239619831Y-52646858D01*
X239622048Y-52650984D01*
X239737666Y-52866160D01*
X239740025Y-52870551D01*
X239742820Y-52874295D01*
X239742822Y-52874297D01*
X239801458Y-52952820D01*
X239826190Y-53019370D01*
X239826500Y-53028209D01*
X239826500Y-57495825D01*
X239806498Y-57563946D01*
X239752842Y-57610439D01*
X239682568Y-57620543D01*
X239641833Y-57607334D01*
X239473878Y-57518970D01*
X239465528Y-57515322D01*
X239219901Y-57428581D01*
X239211106Y-57426175D01*
X238995775Y-57383733D01*
X238982863Y-57384912D01*
X238978000Y-57400015D01*
X238978000Y-61648174D01*
X238982251Y-61662651D01*
X238994512Y-61664714D01*
X239030133Y-61661315D01*
X239039125Y-61659795D01*
X239292158Y-61597878D01*
X239300827Y-61595078D01*
X239542282Y-61497278D01*
X239550455Y-61493256D01*
X239636835Y-61442679D01*
X239705727Y-61425519D01*
X239772959Y-61448330D01*
X239817186Y-61503868D01*
X239826500Y-61551411D01*
X239826500Y-62995825D01*
X239806498Y-63063946D01*
X239752842Y-63110439D01*
X239682568Y-63120543D01*
X239641833Y-63107334D01*
X239473878Y-63018970D01*
X239465528Y-63015322D01*
X239219901Y-62928581D01*
X239211106Y-62926175D01*
X238995775Y-62883733D01*
X238982863Y-62884912D01*
X238978000Y-62900015D01*
X238978000Y-67148174D01*
X238982251Y-67162651D01*
X238994512Y-67164714D01*
X239030133Y-67161315D01*
X239039125Y-67159795D01*
X239292158Y-67097878D01*
X239300827Y-67095078D01*
X239542282Y-66997278D01*
X239550455Y-66993256D01*
X239636835Y-66942679D01*
X239705727Y-66925519D01*
X239772959Y-66948330D01*
X239817186Y-67003868D01*
X239826500Y-67051411D01*
X239826500Y-67451852D01*
X239806498Y-67519973D01*
X239789595Y-67540948D01*
X239670946Y-67659596D01*
X239608634Y-67693621D01*
X239581851Y-67696500D01*
X221698148Y-67696500D01*
X221630027Y-67676498D01*
X221609053Y-67659595D01*
X221266535Y-67317077D01*
X221232509Y-67254765D01*
X221237574Y-67183950D01*
X221280121Y-67127114D01*
X221346641Y-67102303D01*
X221397585Y-67109173D01*
X221432280Y-67121425D01*
X221560032Y-67146605D01*
X221692428Y-67172700D01*
X221692434Y-67172701D01*
X221696900Y-67173581D01*
X221701453Y-67173808D01*
X221701456Y-67173808D01*
X221961708Y-67186764D01*
X221961714Y-67186764D01*
X221966277Y-67186991D01*
X222234769Y-67161375D01*
X222239203Y-67160290D01*
X222239209Y-67160289D01*
X222492312Y-67098355D01*
X222496750Y-67097269D01*
X222746733Y-66996015D01*
X222979482Y-66859735D01*
X223190119Y-66691284D01*
X223374234Y-66494191D01*
X223527968Y-66272584D01*
X223648101Y-66031106D01*
X223649523Y-66026769D01*
X223730698Y-65779147D01*
X223730699Y-65779141D01*
X223732118Y-65774814D01*
X223760546Y-65611087D01*
X223777601Y-65512860D01*
X223777602Y-65512852D01*
X223778257Y-65509079D01*
X223782500Y-65423851D01*
X223782500Y-65392512D01*
X224265500Y-65392512D01*
X224265664Y-65394777D01*
X224265665Y-65394792D01*
X224267888Y-65425422D01*
X224280047Y-65593004D01*
X224281031Y-65597459D01*
X224281031Y-65597462D01*
X224337178Y-65851769D01*
X224338194Y-65856372D01*
X224384385Y-65978291D01*
X224405944Y-66035194D01*
X224433750Y-66108588D01*
X224564714Y-66344368D01*
X224567486Y-66348000D01*
X224681608Y-66497535D01*
X224728343Y-66558773D01*
X224731609Y-66561966D01*
X224731611Y-66561968D01*
X224756021Y-66585830D01*
X224921208Y-66747312D01*
X225139270Y-66906034D01*
X225176305Y-66925519D01*
X225373921Y-67029490D01*
X225373927Y-67029493D01*
X225377961Y-67031615D01*
X225382266Y-67033135D01*
X225382270Y-67033137D01*
X225627967Y-67119902D01*
X225632280Y-67121425D01*
X225760032Y-67146605D01*
X225892428Y-67172700D01*
X225892434Y-67172701D01*
X225896900Y-67173581D01*
X225901453Y-67173808D01*
X225901456Y-67173808D01*
X226161708Y-67186764D01*
X226161714Y-67186764D01*
X226166277Y-67186991D01*
X226434769Y-67161375D01*
X226439203Y-67160290D01*
X226439209Y-67160289D01*
X226692312Y-67098355D01*
X226696750Y-67097269D01*
X226946733Y-66996015D01*
X227179482Y-66859735D01*
X227390119Y-66691284D01*
X227574234Y-66494191D01*
X227727968Y-66272584D01*
X227848101Y-66031106D01*
X227849523Y-66026769D01*
X227930698Y-65779147D01*
X227930699Y-65779141D01*
X227932118Y-65774814D01*
X227960546Y-65611087D01*
X227977601Y-65512860D01*
X227977602Y-65512852D01*
X227978257Y-65509079D01*
X227982500Y-65423851D01*
X227982500Y-65390206D01*
X228466000Y-65390206D01*
X228466165Y-65394777D01*
X228480213Y-65588380D01*
X228481527Y-65597389D01*
X228537689Y-65851769D01*
X228540292Y-65860499D01*
X228632586Y-66104107D01*
X228636421Y-66112368D01*
X228762915Y-66340101D01*
X228767905Y-66347726D01*
X228925946Y-66554809D01*
X228931986Y-66561636D01*
X229118264Y-66743735D01*
X229125226Y-66749618D01*
X229335843Y-66902922D01*
X229343573Y-66907733D01*
X229574122Y-67029031D01*
X229582472Y-67032678D01*
X229828099Y-67119419D01*
X229836894Y-67121825D01*
X230052225Y-67164267D01*
X230065137Y-67163088D01*
X230069939Y-67148174D01*
X230578000Y-67148174D01*
X230582251Y-67162651D01*
X230594512Y-67164714D01*
X230630133Y-67161315D01*
X230639125Y-67159795D01*
X230892158Y-67097878D01*
X230900827Y-67095078D01*
X231142282Y-66997278D01*
X231150455Y-66993256D01*
X231375253Y-66861632D01*
X231382765Y-66856469D01*
X231586213Y-66693769D01*
X231592896Y-66687580D01*
X231770733Y-66497206D01*
X231776443Y-66490129D01*
X231924934Y-66276082D01*
X231929571Y-66268241D01*
X232045604Y-66035003D01*
X232049060Y-66026578D01*
X232130212Y-65779026D01*
X232132412Y-65770201D01*
X232177103Y-65512811D01*
X232177950Y-65505193D01*
X232181922Y-65425408D01*
X232182000Y-65422267D01*
X232182000Y-65392512D01*
X232665500Y-65392512D01*
X232665664Y-65394777D01*
X232665665Y-65394792D01*
X232667888Y-65425422D01*
X232680047Y-65593004D01*
X232681031Y-65597459D01*
X232681031Y-65597462D01*
X232737178Y-65851769D01*
X232738194Y-65856372D01*
X232784385Y-65978291D01*
X232805944Y-66035194D01*
X232833750Y-66108588D01*
X232964714Y-66344368D01*
X232967486Y-66348000D01*
X233081608Y-66497535D01*
X233128343Y-66558773D01*
X233131609Y-66561966D01*
X233131611Y-66561968D01*
X233156021Y-66585830D01*
X233321208Y-66747312D01*
X233539270Y-66906034D01*
X233576305Y-66925519D01*
X233773921Y-67029490D01*
X233773927Y-67029493D01*
X233777961Y-67031615D01*
X233782266Y-67033135D01*
X233782270Y-67033137D01*
X234027967Y-67119902D01*
X234032280Y-67121425D01*
X234160032Y-67146605D01*
X234292428Y-67172700D01*
X234292434Y-67172701D01*
X234296900Y-67173581D01*
X234301453Y-67173808D01*
X234301456Y-67173808D01*
X234561708Y-67186764D01*
X234561714Y-67186764D01*
X234566277Y-67186991D01*
X234834769Y-67161375D01*
X234839203Y-67160290D01*
X234839209Y-67160289D01*
X235092312Y-67098355D01*
X235096750Y-67097269D01*
X235346733Y-66996015D01*
X235579482Y-66859735D01*
X235790119Y-66691284D01*
X235974234Y-66494191D01*
X236127968Y-66272584D01*
X236248101Y-66031106D01*
X236249523Y-66026769D01*
X236330698Y-65779147D01*
X236330699Y-65779141D01*
X236332118Y-65774814D01*
X236360546Y-65611087D01*
X236377601Y-65512860D01*
X236377602Y-65512852D01*
X236378257Y-65509079D01*
X236382500Y-65423851D01*
X236382500Y-65390206D01*
X236866000Y-65390206D01*
X236866165Y-65394777D01*
X236880213Y-65588380D01*
X236881527Y-65597389D01*
X236937689Y-65851769D01*
X236940292Y-65860499D01*
X237032586Y-66104107D01*
X237036421Y-66112368D01*
X237162915Y-66340101D01*
X237167905Y-66347726D01*
X237325946Y-66554809D01*
X237331986Y-66561636D01*
X237518264Y-66743735D01*
X237525226Y-66749618D01*
X237735843Y-66902922D01*
X237743573Y-66907733D01*
X237974122Y-67029031D01*
X237982472Y-67032678D01*
X238228099Y-67119419D01*
X238236894Y-67121825D01*
X238452225Y-67164267D01*
X238465137Y-67163088D01*
X238470000Y-67147985D01*
X238470000Y-65296115D01*
X238465525Y-65280876D01*
X238464135Y-65279671D01*
X238456452Y-65278000D01*
X236884115Y-65278000D01*
X236868876Y-65282475D01*
X236867671Y-65283865D01*
X236866000Y-65291548D01*
X236866000Y-65390206D01*
X236382500Y-65390206D01*
X236382500Y-64751885D01*
X236866000Y-64751885D01*
X236870475Y-64767124D01*
X236871865Y-64768329D01*
X236879548Y-64770000D01*
X238451885Y-64770000D01*
X238467124Y-64765525D01*
X238468329Y-64764135D01*
X238470000Y-64756452D01*
X238470000Y-62899826D01*
X238465749Y-62885349D01*
X238453488Y-62883286D01*
X238417867Y-62886685D01*
X238408875Y-62888205D01*
X238155842Y-62950122D01*
X238147173Y-62952922D01*
X237905718Y-63050722D01*
X237897545Y-63054744D01*
X237672747Y-63186368D01*
X237665235Y-63191531D01*
X237461787Y-63354231D01*
X237455104Y-63360420D01*
X237277267Y-63550794D01*
X237271557Y-63557871D01*
X237123066Y-63771918D01*
X237118429Y-63779759D01*
X237002396Y-64012997D01*
X236998940Y-64021422D01*
X236917788Y-64268974D01*
X236915588Y-64277799D01*
X236870897Y-64535189D01*
X236870050Y-64542807D01*
X236866078Y-64622592D01*
X236866000Y-64625733D01*
X236866000Y-64751885D01*
X236382500Y-64751885D01*
X236382500Y-64655488D01*
X236380114Y-64622592D01*
X236372823Y-64522116D01*
X236367953Y-64454996D01*
X236328831Y-64277799D01*
X236310791Y-64196088D01*
X236310790Y-64196084D01*
X236309806Y-64191628D01*
X236245321Y-64021422D01*
X236215868Y-63943682D01*
X236215867Y-63943679D01*
X236214250Y-63939412D01*
X236083286Y-63703632D01*
X235972045Y-63557871D01*
X235922429Y-63492859D01*
X235922428Y-63492858D01*
X235919657Y-63489227D01*
X235905629Y-63475513D01*
X235823225Y-63394958D01*
X235726792Y-63300688D01*
X235508730Y-63141966D01*
X235342948Y-63054744D01*
X235274079Y-63018510D01*
X235274073Y-63018507D01*
X235270039Y-63016385D01*
X235265734Y-63014865D01*
X235265730Y-63014863D01*
X235020033Y-62928098D01*
X235020032Y-62928098D01*
X235015720Y-62926575D01*
X234880006Y-62899826D01*
X234755572Y-62875300D01*
X234755566Y-62875299D01*
X234751100Y-62874419D01*
X234746547Y-62874192D01*
X234746544Y-62874192D01*
X234486292Y-62861236D01*
X234486286Y-62861236D01*
X234481723Y-62861009D01*
X234213231Y-62886625D01*
X234208797Y-62887710D01*
X234208791Y-62887711D01*
X234035035Y-62930229D01*
X233951250Y-62950731D01*
X233701267Y-63051985D01*
X233468518Y-63188265D01*
X233257881Y-63356716D01*
X233073766Y-63553809D01*
X232920032Y-63775416D01*
X232799899Y-64016894D01*
X232798478Y-64021228D01*
X232798477Y-64021231D01*
X232798415Y-64021422D01*
X232715882Y-64273186D01*
X232715102Y-64277677D01*
X232715102Y-64277678D01*
X232683525Y-64459547D01*
X232669743Y-64538921D01*
X232665500Y-64624149D01*
X232665500Y-65392512D01*
X232182000Y-65392512D01*
X232182000Y-65296115D01*
X232177525Y-65280876D01*
X232176135Y-65279671D01*
X232168452Y-65278000D01*
X230596115Y-65278000D01*
X230580876Y-65282475D01*
X230579671Y-65283865D01*
X230578000Y-65291548D01*
X230578000Y-67148174D01*
X230069939Y-67148174D01*
X230070000Y-67147985D01*
X230070000Y-65296115D01*
X230065525Y-65280876D01*
X230064135Y-65279671D01*
X230056452Y-65278000D01*
X228484115Y-65278000D01*
X228468876Y-65282475D01*
X228467671Y-65283865D01*
X228466000Y-65291548D01*
X228466000Y-65390206D01*
X227982500Y-65390206D01*
X227982500Y-64751885D01*
X228466000Y-64751885D01*
X228470475Y-64767124D01*
X228471865Y-64768329D01*
X228479548Y-64770000D01*
X230051885Y-64770000D01*
X230067124Y-64765525D01*
X230068329Y-64764135D01*
X230070000Y-64756452D01*
X230070000Y-64751885D01*
X230578000Y-64751885D01*
X230582475Y-64767124D01*
X230583865Y-64768329D01*
X230591548Y-64770000D01*
X232163885Y-64770000D01*
X232179124Y-64765525D01*
X232180329Y-64764135D01*
X232182000Y-64756452D01*
X232182000Y-64657794D01*
X232181835Y-64653223D01*
X232167787Y-64459620D01*
X232166473Y-64450611D01*
X232110311Y-64196231D01*
X232107708Y-64187501D01*
X232015414Y-63943893D01*
X232011579Y-63935632D01*
X231885085Y-63707899D01*
X231880095Y-63700274D01*
X231722054Y-63493191D01*
X231716014Y-63486364D01*
X231529736Y-63304265D01*
X231522774Y-63298382D01*
X231312157Y-63145078D01*
X231304427Y-63140267D01*
X231073878Y-63018969D01*
X231065528Y-63015322D01*
X230819901Y-62928581D01*
X230811106Y-62926175D01*
X230595775Y-62883733D01*
X230582863Y-62884912D01*
X230578000Y-62900015D01*
X230578000Y-64751885D01*
X230070000Y-64751885D01*
X230070000Y-62899826D01*
X230065749Y-62885349D01*
X230053488Y-62883286D01*
X230017867Y-62886685D01*
X230008875Y-62888205D01*
X229755842Y-62950122D01*
X229747173Y-62952922D01*
X229505718Y-63050722D01*
X229497545Y-63054744D01*
X229272747Y-63186368D01*
X229265235Y-63191531D01*
X229061787Y-63354231D01*
X229055104Y-63360420D01*
X228877267Y-63550794D01*
X228871557Y-63557871D01*
X228723066Y-63771918D01*
X228718429Y-63779759D01*
X228602396Y-64012997D01*
X228598940Y-64021422D01*
X228517788Y-64268974D01*
X228515588Y-64277799D01*
X228470897Y-64535189D01*
X228470050Y-64542807D01*
X228466078Y-64622592D01*
X228466000Y-64625733D01*
X228466000Y-64751885D01*
X227982500Y-64751885D01*
X227982500Y-64655488D01*
X227980114Y-64622592D01*
X227972823Y-64522116D01*
X227967953Y-64454996D01*
X227928831Y-64277799D01*
X227910791Y-64196088D01*
X227910790Y-64196084D01*
X227909806Y-64191628D01*
X227845321Y-64021422D01*
X227815868Y-63943682D01*
X227815867Y-63943679D01*
X227814250Y-63939412D01*
X227683286Y-63703632D01*
X227572045Y-63557871D01*
X227522429Y-63492859D01*
X227522428Y-63492858D01*
X227519657Y-63489227D01*
X227505629Y-63475513D01*
X227423225Y-63394958D01*
X227326792Y-63300688D01*
X227108730Y-63141966D01*
X226942948Y-63054744D01*
X226874079Y-63018510D01*
X226874073Y-63018507D01*
X226870039Y-63016385D01*
X226865734Y-63014865D01*
X226865730Y-63014863D01*
X226620033Y-62928098D01*
X226620032Y-62928098D01*
X226615720Y-62926575D01*
X226480006Y-62899826D01*
X226355572Y-62875300D01*
X226355566Y-62875299D01*
X226351100Y-62874419D01*
X226346547Y-62874192D01*
X226346544Y-62874192D01*
X226086292Y-62861236D01*
X226086286Y-62861236D01*
X226081723Y-62861009D01*
X225813231Y-62886625D01*
X225808797Y-62887710D01*
X225808791Y-62887711D01*
X225635035Y-62930229D01*
X225551250Y-62950731D01*
X225301267Y-63051985D01*
X225068518Y-63188265D01*
X224857881Y-63356716D01*
X224673766Y-63553809D01*
X224520032Y-63775416D01*
X224399899Y-64016894D01*
X224398478Y-64021228D01*
X224398477Y-64021231D01*
X224398415Y-64021422D01*
X224315882Y-64273186D01*
X224315102Y-64277677D01*
X224315102Y-64277678D01*
X224283525Y-64459547D01*
X224269743Y-64538921D01*
X224265500Y-64624149D01*
X224265500Y-65392512D01*
X223782500Y-65392512D01*
X223782500Y-64655488D01*
X223780114Y-64622592D01*
X223772823Y-64522116D01*
X223767953Y-64454996D01*
X223728831Y-64277799D01*
X223710791Y-64196088D01*
X223710790Y-64196084D01*
X223709806Y-64191628D01*
X223645321Y-64021422D01*
X223615868Y-63943682D01*
X223615867Y-63943679D01*
X223614250Y-63939412D01*
X223483286Y-63703632D01*
X223372045Y-63557871D01*
X223322429Y-63492859D01*
X223322428Y-63492858D01*
X223319657Y-63489227D01*
X223305629Y-63475513D01*
X223223225Y-63394958D01*
X223126792Y-63300688D01*
X222908730Y-63141966D01*
X222742948Y-63054744D01*
X222674079Y-63018510D01*
X222674073Y-63018507D01*
X222670039Y-63016385D01*
X222665734Y-63014865D01*
X222665730Y-63014863D01*
X222420033Y-62928098D01*
X222420032Y-62928098D01*
X222415720Y-62926575D01*
X222280006Y-62899826D01*
X222155572Y-62875300D01*
X222155566Y-62875299D01*
X222151100Y-62874419D01*
X222146547Y-62874192D01*
X222146544Y-62874192D01*
X221886292Y-62861236D01*
X221886286Y-62861236D01*
X221881723Y-62861009D01*
X221613231Y-62886625D01*
X221608797Y-62887710D01*
X221608791Y-62887711D01*
X221435035Y-62930229D01*
X221351250Y-62950731D01*
X221101267Y-63051985D01*
X220868518Y-63188265D01*
X220657881Y-63356716D01*
X220473766Y-63553809D01*
X220320032Y-63775416D01*
X220199899Y-64016894D01*
X220198478Y-64021228D01*
X220198477Y-64021231D01*
X220198415Y-64021422D01*
X220115882Y-64273186D01*
X220115102Y-64277677D01*
X220115102Y-64277678D01*
X220083525Y-64459547D01*
X220069743Y-64538921D01*
X220065500Y-64624149D01*
X220065500Y-65392512D01*
X220065664Y-65394777D01*
X220065665Y-65394792D01*
X220067888Y-65425422D01*
X220080047Y-65593004D01*
X220081031Y-65597459D01*
X220081031Y-65597462D01*
X220137178Y-65851769D01*
X220137597Y-65853667D01*
X220138194Y-65856372D01*
X220137608Y-65856501D01*
X220137884Y-65924202D01*
X220099744Y-65984084D01*
X220035284Y-66013839D01*
X219964969Y-66004022D01*
X219927749Y-65978291D01*
X219606778Y-65657320D01*
X219572752Y-65595008D01*
X219571730Y-65546670D01*
X219577601Y-65512859D01*
X219577602Y-65512854D01*
X219578257Y-65509079D01*
X219582500Y-65423851D01*
X219582500Y-64655488D01*
X219580114Y-64622592D01*
X219572823Y-64522116D01*
X219567953Y-64454996D01*
X219528831Y-64277799D01*
X219510791Y-64196088D01*
X219510790Y-64196084D01*
X219509806Y-64191628D01*
X219445321Y-64021422D01*
X219415868Y-63943682D01*
X219415867Y-63943679D01*
X219414250Y-63939412D01*
X219283286Y-63703632D01*
X219172045Y-63557871D01*
X219122429Y-63492859D01*
X219122428Y-63492858D01*
X219119657Y-63489227D01*
X219105629Y-63475513D01*
X219023225Y-63394958D01*
X218926792Y-63300688D01*
X218708730Y-63141966D01*
X218542948Y-63054744D01*
X218474079Y-63018510D01*
X218474073Y-63018507D01*
X218470039Y-63016385D01*
X218465734Y-63014865D01*
X218465730Y-63014863D01*
X218220033Y-62928098D01*
X218220032Y-62928098D01*
X218215720Y-62926575D01*
X218080006Y-62899826D01*
X217955572Y-62875300D01*
X217955566Y-62875299D01*
X217951100Y-62874419D01*
X217946547Y-62874192D01*
X217946544Y-62874192D01*
X217686292Y-62861236D01*
X217686286Y-62861236D01*
X217681723Y-62861009D01*
X217413231Y-62886625D01*
X217408797Y-62887710D01*
X217408791Y-62887711D01*
X217235035Y-62930229D01*
X217151250Y-62950731D01*
X216901267Y-63051985D01*
X216668518Y-63188265D01*
X216457881Y-63356716D01*
X216454764Y-63360053D01*
X216346906Y-63475513D01*
X216285788Y-63511638D01*
X216254831Y-63515500D01*
X214997888Y-63515500D01*
X214929767Y-63495498D01*
X214909809Y-63479600D01*
X214906999Y-63476853D01*
X214726792Y-63300688D01*
X214508730Y-63141966D01*
X214342948Y-63054744D01*
X214274079Y-63018510D01*
X214274073Y-63018507D01*
X214270039Y-63016385D01*
X214265734Y-63014865D01*
X214265730Y-63014863D01*
X214020033Y-62928098D01*
X214020032Y-62928098D01*
X214015720Y-62926575D01*
X213880006Y-62899826D01*
X213755572Y-62875300D01*
X213755566Y-62875299D01*
X213751100Y-62874419D01*
X213746547Y-62874192D01*
X213746544Y-62874192D01*
X213486292Y-62861236D01*
X213486286Y-62861236D01*
X213481723Y-62861009D01*
X213213231Y-62886625D01*
X213208797Y-62887710D01*
X213208791Y-62887711D01*
X213035035Y-62930229D01*
X212951250Y-62950731D01*
X212701267Y-63051985D01*
X212468518Y-63188265D01*
X212257881Y-63356716D01*
X212073766Y-63553809D01*
X211920032Y-63775416D01*
X211799899Y-64016894D01*
X211798478Y-64021228D01*
X211798477Y-64021231D01*
X211798415Y-64021422D01*
X211715882Y-64273186D01*
X211715102Y-64277677D01*
X211715102Y-64277678D01*
X211683525Y-64459547D01*
X211669743Y-64538921D01*
X211665500Y-64624149D01*
X211665500Y-65392512D01*
X211665664Y-65394777D01*
X211665665Y-65394792D01*
X211667888Y-65425422D01*
X211680047Y-65593004D01*
X211681031Y-65597459D01*
X211681031Y-65597462D01*
X211737178Y-65851769D01*
X211738194Y-65856372D01*
X211784385Y-65978291D01*
X211805944Y-66035194D01*
X211833750Y-66108588D01*
X211964714Y-66344368D01*
X211967486Y-66348000D01*
X212081608Y-66497535D01*
X212128343Y-66558773D01*
X212131609Y-66561966D01*
X212131611Y-66561968D01*
X212156021Y-66585830D01*
X212321208Y-66747312D01*
X212539270Y-66906034D01*
X212576305Y-66925519D01*
X212773921Y-67029490D01*
X212773927Y-67029493D01*
X212777961Y-67031615D01*
X212782266Y-67033135D01*
X212782270Y-67033137D01*
X213027967Y-67119902D01*
X213032280Y-67121425D01*
X213160032Y-67146605D01*
X213292428Y-67172700D01*
X213292434Y-67172701D01*
X213296900Y-67173581D01*
X213301453Y-67173808D01*
X213301456Y-67173808D01*
X213561708Y-67186764D01*
X213561714Y-67186764D01*
X213566277Y-67186991D01*
X213834769Y-67161375D01*
X213839203Y-67160290D01*
X213839209Y-67160289D01*
X214092312Y-67098355D01*
X214096750Y-67097269D01*
X214346733Y-66996015D01*
X214579482Y-66859735D01*
X214790119Y-66691284D01*
X214874862Y-66600568D01*
X214901094Y-66572487D01*
X214962212Y-66536362D01*
X214993169Y-66532500D01*
X216250112Y-66532500D01*
X216318233Y-66552502D01*
X216338190Y-66568400D01*
X216521208Y-66747312D01*
X216739270Y-66906034D01*
X216776305Y-66925519D01*
X216973921Y-67029490D01*
X216973927Y-67029493D01*
X216977961Y-67031615D01*
X216982266Y-67033135D01*
X216982270Y-67033137D01*
X217227967Y-67119902D01*
X217232280Y-67121425D01*
X217360032Y-67146605D01*
X217492428Y-67172700D01*
X217492434Y-67172701D01*
X217496900Y-67173581D01*
X217501453Y-67173808D01*
X217501456Y-67173808D01*
X217761708Y-67186764D01*
X217761714Y-67186764D01*
X217766277Y-67186991D01*
X218034769Y-67161375D01*
X218039203Y-67160290D01*
X218039209Y-67160289D01*
X218292316Y-67098354D01*
X218296750Y-67097269D01*
X218300976Y-67095557D01*
X218300980Y-67095556D01*
X218398066Y-67056232D01*
X218468713Y-67049198D01*
X218534463Y-67083921D01*
X220497447Y-69046905D01*
X220531473Y-69109217D01*
X220526408Y-69180032D01*
X220483861Y-69236868D01*
X220417341Y-69261679D01*
X220408352Y-69262000D01*
X205584000Y-69262000D01*
X205515879Y-69241998D01*
X205469386Y-69188342D01*
X205458000Y-69136000D01*
X205458000Y-65392512D01*
X207465500Y-65392512D01*
X207465664Y-65394777D01*
X207465665Y-65394792D01*
X207467888Y-65425422D01*
X207480047Y-65593004D01*
X207481031Y-65597459D01*
X207481031Y-65597462D01*
X207537178Y-65851769D01*
X207538194Y-65856372D01*
X207584385Y-65978291D01*
X207605944Y-66035194D01*
X207633750Y-66108588D01*
X207764714Y-66344368D01*
X207767486Y-66348000D01*
X207881608Y-66497535D01*
X207928343Y-66558773D01*
X207931609Y-66561966D01*
X207931611Y-66561968D01*
X207956021Y-66585830D01*
X208121208Y-66747312D01*
X208339270Y-66906034D01*
X208376305Y-66925519D01*
X208573921Y-67029490D01*
X208573927Y-67029493D01*
X208577961Y-67031615D01*
X208582266Y-67033135D01*
X208582270Y-67033137D01*
X208827967Y-67119902D01*
X208832280Y-67121425D01*
X208960032Y-67146605D01*
X209092428Y-67172700D01*
X209092434Y-67172701D01*
X209096900Y-67173581D01*
X209101453Y-67173808D01*
X209101456Y-67173808D01*
X209361708Y-67186764D01*
X209361714Y-67186764D01*
X209366277Y-67186991D01*
X209634769Y-67161375D01*
X209639203Y-67160290D01*
X209639209Y-67160289D01*
X209892312Y-67098355D01*
X209896750Y-67097269D01*
X210146733Y-66996015D01*
X210379482Y-66859735D01*
X210590119Y-66691284D01*
X210774234Y-66494191D01*
X210927968Y-66272584D01*
X211048101Y-66031106D01*
X211049523Y-66026769D01*
X211130698Y-65779147D01*
X211130699Y-65779141D01*
X211132118Y-65774814D01*
X211160546Y-65611087D01*
X211177601Y-65512860D01*
X211177602Y-65512852D01*
X211178257Y-65509079D01*
X211182500Y-65423851D01*
X211182500Y-64655488D01*
X211180114Y-64622592D01*
X211172823Y-64522116D01*
X211167953Y-64454996D01*
X211128831Y-64277799D01*
X211110791Y-64196088D01*
X211110790Y-64196084D01*
X211109806Y-64191628D01*
X211045321Y-64021422D01*
X211015868Y-63943682D01*
X211015867Y-63943679D01*
X211014250Y-63939412D01*
X210883286Y-63703632D01*
X210772045Y-63557871D01*
X210722429Y-63492859D01*
X210722428Y-63492858D01*
X210719657Y-63489227D01*
X210705629Y-63475513D01*
X210623225Y-63394958D01*
X210526792Y-63300688D01*
X210308730Y-63141966D01*
X210142948Y-63054744D01*
X210074079Y-63018510D01*
X210074073Y-63018507D01*
X210070039Y-63016385D01*
X210065734Y-63014865D01*
X210065730Y-63014863D01*
X209820033Y-62928098D01*
X209820032Y-62928098D01*
X209815720Y-62926575D01*
X209680006Y-62899826D01*
X209555572Y-62875300D01*
X209555566Y-62875299D01*
X209551100Y-62874419D01*
X209546547Y-62874192D01*
X209546544Y-62874192D01*
X209286292Y-62861236D01*
X209286286Y-62861236D01*
X209281723Y-62861009D01*
X209013231Y-62886625D01*
X209008797Y-62887710D01*
X209008791Y-62887711D01*
X208835035Y-62930229D01*
X208751250Y-62950731D01*
X208501267Y-63051985D01*
X208268518Y-63188265D01*
X208057881Y-63356716D01*
X207873766Y-63553809D01*
X207720032Y-63775416D01*
X207599899Y-64016894D01*
X207598478Y-64021228D01*
X207598477Y-64021231D01*
X207598415Y-64021422D01*
X207515882Y-64273186D01*
X207515102Y-64277677D01*
X207515102Y-64277678D01*
X207483525Y-64459547D01*
X207469743Y-64538921D01*
X207465500Y-64624149D01*
X207465500Y-65392512D01*
X205458000Y-65392512D01*
X205458000Y-59890206D01*
X207466000Y-59890206D01*
X207466165Y-59894777D01*
X207480213Y-60088380D01*
X207481527Y-60097389D01*
X207537689Y-60351769D01*
X207540292Y-60360499D01*
X207632586Y-60604107D01*
X207636421Y-60612368D01*
X207762915Y-60840101D01*
X207767905Y-60847726D01*
X207925946Y-61054809D01*
X207931986Y-61061636D01*
X208118264Y-61243735D01*
X208125226Y-61249618D01*
X208335843Y-61402922D01*
X208343573Y-61407733D01*
X208574122Y-61529031D01*
X208582472Y-61532678D01*
X208828099Y-61619419D01*
X208836894Y-61621825D01*
X209052225Y-61664267D01*
X209065137Y-61663088D01*
X209069939Y-61648174D01*
X209578000Y-61648174D01*
X209582251Y-61662651D01*
X209594512Y-61664714D01*
X209630133Y-61661315D01*
X209639125Y-61659795D01*
X209892158Y-61597878D01*
X209900827Y-61595078D01*
X210142282Y-61497278D01*
X210150455Y-61493256D01*
X210375253Y-61361632D01*
X210382765Y-61356469D01*
X210586213Y-61193769D01*
X210592896Y-61187580D01*
X210770733Y-60997206D01*
X210776443Y-60990129D01*
X210924934Y-60776082D01*
X210929571Y-60768241D01*
X211045604Y-60535003D01*
X211049060Y-60526578D01*
X211130212Y-60279026D01*
X211132412Y-60270201D01*
X211177103Y-60012811D01*
X211177950Y-60005193D01*
X211181922Y-59925408D01*
X211182000Y-59922267D01*
X211182000Y-59892512D01*
X211665500Y-59892512D01*
X211665664Y-59894777D01*
X211665665Y-59894792D01*
X211667888Y-59925422D01*
X211680047Y-60093004D01*
X211681031Y-60097459D01*
X211681031Y-60097462D01*
X211737178Y-60351769D01*
X211738194Y-60356372D01*
X211739812Y-60360642D01*
X211805944Y-60535194D01*
X211833750Y-60608588D01*
X211964714Y-60844368D01*
X211967486Y-60848000D01*
X212081608Y-60997535D01*
X212128343Y-61058773D01*
X212321208Y-61247312D01*
X212539270Y-61406034D01*
X212576305Y-61425519D01*
X212773921Y-61529490D01*
X212773927Y-61529493D01*
X212777961Y-61531615D01*
X212782266Y-61533135D01*
X212782270Y-61533137D01*
X213027967Y-61619902D01*
X213032280Y-61621425D01*
X213160032Y-61646605D01*
X213292428Y-61672700D01*
X213292434Y-61672701D01*
X213296900Y-61673581D01*
X213301453Y-61673808D01*
X213301456Y-61673808D01*
X213561708Y-61686764D01*
X213561714Y-61686764D01*
X213566277Y-61686991D01*
X213834769Y-61661375D01*
X213839203Y-61660290D01*
X213839209Y-61660289D01*
X214092312Y-61598355D01*
X214096750Y-61597269D01*
X214346733Y-61496015D01*
X214579482Y-61359735D01*
X214790119Y-61191284D01*
X214974234Y-60994191D01*
X215127968Y-60772584D01*
X215248101Y-60531106D01*
X215249523Y-60526769D01*
X215330698Y-60279147D01*
X215330699Y-60279141D01*
X215332118Y-60274814D01*
X215332919Y-60270201D01*
X215377601Y-60012860D01*
X215377602Y-60012852D01*
X215378257Y-60009079D01*
X215382500Y-59923851D01*
X215382500Y-59892512D01*
X215865500Y-59892512D01*
X215865664Y-59894777D01*
X215865665Y-59894792D01*
X215867888Y-59925422D01*
X215880047Y-60093004D01*
X215881031Y-60097459D01*
X215881031Y-60097462D01*
X215937178Y-60351769D01*
X215938194Y-60356372D01*
X215939812Y-60360642D01*
X216005944Y-60535194D01*
X216033750Y-60608588D01*
X216164714Y-60844368D01*
X216167486Y-60848000D01*
X216281608Y-60997535D01*
X216328343Y-61058773D01*
X216521208Y-61247312D01*
X216739270Y-61406034D01*
X216776305Y-61425519D01*
X216973921Y-61529490D01*
X216973927Y-61529493D01*
X216977961Y-61531615D01*
X216982266Y-61533135D01*
X216982270Y-61533137D01*
X217227967Y-61619902D01*
X217232280Y-61621425D01*
X217360032Y-61646605D01*
X217492428Y-61672700D01*
X217492434Y-61672701D01*
X217496900Y-61673581D01*
X217501453Y-61673808D01*
X217501456Y-61673808D01*
X217761708Y-61686764D01*
X217761714Y-61686764D01*
X217766277Y-61686991D01*
X218034769Y-61661375D01*
X218039203Y-61660290D01*
X218039209Y-61660289D01*
X218292312Y-61598355D01*
X218296750Y-61597269D01*
X218546733Y-61496015D01*
X218779482Y-61359735D01*
X218990119Y-61191284D01*
X219174234Y-60994191D01*
X219327968Y-60772584D01*
X219448101Y-60531106D01*
X219449523Y-60526769D01*
X219530698Y-60279147D01*
X219530699Y-60279141D01*
X219532118Y-60274814D01*
X219532919Y-60270201D01*
X219577601Y-60012860D01*
X219577602Y-60012852D01*
X219578257Y-60009079D01*
X219582500Y-59923851D01*
X219582500Y-59892512D01*
X220065500Y-59892512D01*
X220065664Y-59894777D01*
X220065665Y-59894792D01*
X220067888Y-59925422D01*
X220080047Y-60093004D01*
X220081031Y-60097459D01*
X220081031Y-60097462D01*
X220137178Y-60351769D01*
X220138194Y-60356372D01*
X220139812Y-60360642D01*
X220205944Y-60535194D01*
X220233750Y-60608588D01*
X220364714Y-60844368D01*
X220367486Y-60848000D01*
X220481608Y-60997535D01*
X220528343Y-61058773D01*
X220721208Y-61247312D01*
X220939270Y-61406034D01*
X220976305Y-61425519D01*
X221173921Y-61529490D01*
X221173927Y-61529493D01*
X221177961Y-61531615D01*
X221182266Y-61533135D01*
X221182270Y-61533137D01*
X221427967Y-61619902D01*
X221432280Y-61621425D01*
X221560032Y-61646605D01*
X221692428Y-61672700D01*
X221692434Y-61672701D01*
X221696900Y-61673581D01*
X221701453Y-61673808D01*
X221701456Y-61673808D01*
X221961708Y-61686764D01*
X221961714Y-61686764D01*
X221966277Y-61686991D01*
X222234769Y-61661375D01*
X222239203Y-61660290D01*
X222239209Y-61660289D01*
X222492312Y-61598355D01*
X222496750Y-61597269D01*
X222746733Y-61496015D01*
X222979482Y-61359735D01*
X223190119Y-61191284D01*
X223374234Y-60994191D01*
X223527968Y-60772584D01*
X223648101Y-60531106D01*
X223649523Y-60526769D01*
X223730698Y-60279147D01*
X223730699Y-60279141D01*
X223732118Y-60274814D01*
X223732919Y-60270201D01*
X223777601Y-60012860D01*
X223777602Y-60012852D01*
X223778257Y-60009079D01*
X223782500Y-59923851D01*
X223782500Y-59892512D01*
X224265500Y-59892512D01*
X224265664Y-59894777D01*
X224265665Y-59894792D01*
X224267888Y-59925422D01*
X224280047Y-60093004D01*
X224281031Y-60097459D01*
X224281031Y-60097462D01*
X224337178Y-60351769D01*
X224338194Y-60356372D01*
X224339812Y-60360642D01*
X224405944Y-60535194D01*
X224433750Y-60608588D01*
X224564714Y-60844368D01*
X224567486Y-60848000D01*
X224681608Y-60997535D01*
X224728343Y-61058773D01*
X224921208Y-61247312D01*
X225139270Y-61406034D01*
X225176305Y-61425519D01*
X225373921Y-61529490D01*
X225373927Y-61529493D01*
X225377961Y-61531615D01*
X225382266Y-61533135D01*
X225382270Y-61533137D01*
X225627967Y-61619902D01*
X225632280Y-61621425D01*
X225760032Y-61646605D01*
X225892428Y-61672700D01*
X225892434Y-61672701D01*
X225896900Y-61673581D01*
X225901453Y-61673808D01*
X225901456Y-61673808D01*
X226161708Y-61686764D01*
X226161714Y-61686764D01*
X226166277Y-61686991D01*
X226434769Y-61661375D01*
X226439203Y-61660290D01*
X226439209Y-61660289D01*
X226692312Y-61598355D01*
X226696750Y-61597269D01*
X226946733Y-61496015D01*
X227179482Y-61359735D01*
X227390119Y-61191284D01*
X227574234Y-60994191D01*
X227727968Y-60772584D01*
X227848101Y-60531106D01*
X227849523Y-60526769D01*
X227930698Y-60279147D01*
X227930699Y-60279141D01*
X227932118Y-60274814D01*
X227932919Y-60270201D01*
X227977601Y-60012860D01*
X227977602Y-60012852D01*
X227978257Y-60009079D01*
X227982500Y-59923851D01*
X227982500Y-59890206D01*
X228466000Y-59890206D01*
X228466165Y-59894777D01*
X228480213Y-60088380D01*
X228481527Y-60097389D01*
X228537689Y-60351769D01*
X228540292Y-60360499D01*
X228632586Y-60604107D01*
X228636421Y-60612368D01*
X228762915Y-60840101D01*
X228767905Y-60847726D01*
X228925946Y-61054809D01*
X228931986Y-61061636D01*
X229118264Y-61243735D01*
X229125226Y-61249618D01*
X229335843Y-61402922D01*
X229343573Y-61407733D01*
X229574122Y-61529031D01*
X229582472Y-61532678D01*
X229828099Y-61619419D01*
X229836894Y-61621825D01*
X230052225Y-61664267D01*
X230065137Y-61663088D01*
X230069939Y-61648174D01*
X230578000Y-61648174D01*
X230582251Y-61662651D01*
X230594512Y-61664714D01*
X230630133Y-61661315D01*
X230639125Y-61659795D01*
X230892158Y-61597878D01*
X230900827Y-61595078D01*
X231142282Y-61497278D01*
X231150455Y-61493256D01*
X231375253Y-61361632D01*
X231382765Y-61356469D01*
X231586213Y-61193769D01*
X231592896Y-61187580D01*
X231770733Y-60997206D01*
X231776443Y-60990129D01*
X231924934Y-60776082D01*
X231929571Y-60768241D01*
X232045604Y-60535003D01*
X232049060Y-60526578D01*
X232130212Y-60279026D01*
X232132412Y-60270201D01*
X232177103Y-60012811D01*
X232177950Y-60005193D01*
X232181922Y-59925408D01*
X232182000Y-59922267D01*
X232182000Y-59890206D01*
X232666000Y-59890206D01*
X232666165Y-59894777D01*
X232680213Y-60088380D01*
X232681527Y-60097389D01*
X232737689Y-60351769D01*
X232740292Y-60360499D01*
X232832586Y-60604107D01*
X232836421Y-60612368D01*
X232962915Y-60840101D01*
X232967905Y-60847726D01*
X233125946Y-61054809D01*
X233131986Y-61061636D01*
X233318264Y-61243735D01*
X233325226Y-61249618D01*
X233535843Y-61402922D01*
X233543573Y-61407733D01*
X233774122Y-61529031D01*
X233782472Y-61532678D01*
X234028099Y-61619419D01*
X234036894Y-61621825D01*
X234252225Y-61664267D01*
X234265137Y-61663088D01*
X234269939Y-61648174D01*
X234778000Y-61648174D01*
X234782251Y-61662651D01*
X234794512Y-61664714D01*
X234830133Y-61661315D01*
X234839125Y-61659795D01*
X235092158Y-61597878D01*
X235100827Y-61595078D01*
X235342282Y-61497278D01*
X235350455Y-61493256D01*
X235575253Y-61361632D01*
X235582765Y-61356469D01*
X235786213Y-61193769D01*
X235792896Y-61187580D01*
X235970733Y-60997206D01*
X235976443Y-60990129D01*
X236124934Y-60776082D01*
X236129571Y-60768241D01*
X236245604Y-60535003D01*
X236249060Y-60526578D01*
X236330212Y-60279026D01*
X236332412Y-60270201D01*
X236377103Y-60012811D01*
X236377950Y-60005193D01*
X236381922Y-59925408D01*
X236382000Y-59922267D01*
X236382000Y-59890206D01*
X236866000Y-59890206D01*
X236866165Y-59894777D01*
X236880213Y-60088380D01*
X236881527Y-60097389D01*
X236937689Y-60351769D01*
X236940292Y-60360499D01*
X237032586Y-60604107D01*
X237036421Y-60612368D01*
X237162915Y-60840101D01*
X237167905Y-60847726D01*
X237325946Y-61054809D01*
X237331986Y-61061636D01*
X237518264Y-61243735D01*
X237525226Y-61249618D01*
X237735843Y-61402922D01*
X237743573Y-61407733D01*
X237974122Y-61529031D01*
X237982472Y-61532678D01*
X238228099Y-61619419D01*
X238236894Y-61621825D01*
X238452225Y-61664267D01*
X238465137Y-61663088D01*
X238470000Y-61647985D01*
X238470000Y-59796115D01*
X238465525Y-59780876D01*
X238464135Y-59779671D01*
X238456452Y-59778000D01*
X236884115Y-59778000D01*
X236868876Y-59782475D01*
X236867671Y-59783865D01*
X236866000Y-59791548D01*
X236866000Y-59890206D01*
X236382000Y-59890206D01*
X236382000Y-59796115D01*
X236377525Y-59780876D01*
X236376135Y-59779671D01*
X236368452Y-59778000D01*
X234796115Y-59778000D01*
X234780876Y-59782475D01*
X234779671Y-59783865D01*
X234778000Y-59791548D01*
X234778000Y-61648174D01*
X234269939Y-61648174D01*
X234270000Y-61647985D01*
X234270000Y-59796115D01*
X234265525Y-59780876D01*
X234264135Y-59779671D01*
X234256452Y-59778000D01*
X232684115Y-59778000D01*
X232668876Y-59782475D01*
X232667671Y-59783865D01*
X232666000Y-59791548D01*
X232666000Y-59890206D01*
X232182000Y-59890206D01*
X232182000Y-59796115D01*
X232177525Y-59780876D01*
X232176135Y-59779671D01*
X232168452Y-59778000D01*
X230596115Y-59778000D01*
X230580876Y-59782475D01*
X230579671Y-59783865D01*
X230578000Y-59791548D01*
X230578000Y-61648174D01*
X230069939Y-61648174D01*
X230070000Y-61647985D01*
X230070000Y-59796115D01*
X230065525Y-59780876D01*
X230064135Y-59779671D01*
X230056452Y-59778000D01*
X228484115Y-59778000D01*
X228468876Y-59782475D01*
X228467671Y-59783865D01*
X228466000Y-59791548D01*
X228466000Y-59890206D01*
X227982500Y-59890206D01*
X227982500Y-59251885D01*
X228466000Y-59251885D01*
X228470475Y-59267124D01*
X228471865Y-59268329D01*
X228479548Y-59270000D01*
X230051885Y-59270000D01*
X230067124Y-59265525D01*
X230068329Y-59264135D01*
X230070000Y-59256452D01*
X230070000Y-59251885D01*
X230578000Y-59251885D01*
X230582475Y-59267124D01*
X230583865Y-59268329D01*
X230591548Y-59270000D01*
X232163885Y-59270000D01*
X232179124Y-59265525D01*
X232180329Y-59264135D01*
X232182000Y-59256452D01*
X232182000Y-59251885D01*
X232666000Y-59251885D01*
X232670475Y-59267124D01*
X232671865Y-59268329D01*
X232679548Y-59270000D01*
X234251885Y-59270000D01*
X234267124Y-59265525D01*
X234268329Y-59264135D01*
X234270000Y-59256452D01*
X234270000Y-59251885D01*
X234778000Y-59251885D01*
X234782475Y-59267124D01*
X234783865Y-59268329D01*
X234791548Y-59270000D01*
X236363885Y-59270000D01*
X236379124Y-59265525D01*
X236380329Y-59264135D01*
X236382000Y-59256452D01*
X236382000Y-59251885D01*
X236866000Y-59251885D01*
X236870475Y-59267124D01*
X236871865Y-59268329D01*
X236879548Y-59270000D01*
X238451885Y-59270000D01*
X238467124Y-59265525D01*
X238468329Y-59264135D01*
X238470000Y-59256452D01*
X238470000Y-57399826D01*
X238465749Y-57385349D01*
X238453488Y-57383286D01*
X238417867Y-57386685D01*
X238408875Y-57388205D01*
X238155842Y-57450122D01*
X238147173Y-57452922D01*
X237905718Y-57550722D01*
X237897545Y-57554744D01*
X237672747Y-57686368D01*
X237665235Y-57691531D01*
X237461787Y-57854231D01*
X237455104Y-57860420D01*
X237277267Y-58050794D01*
X237271557Y-58057871D01*
X237123066Y-58271918D01*
X237118429Y-58279759D01*
X237002396Y-58512997D01*
X236998940Y-58521422D01*
X236917788Y-58768974D01*
X236915588Y-58777799D01*
X236870897Y-59035189D01*
X236870050Y-59042807D01*
X236866078Y-59122592D01*
X236866000Y-59125733D01*
X236866000Y-59251885D01*
X236382000Y-59251885D01*
X236382000Y-59157794D01*
X236381835Y-59153223D01*
X236367787Y-58959620D01*
X236366473Y-58950611D01*
X236310311Y-58696231D01*
X236307708Y-58687501D01*
X236215414Y-58443893D01*
X236211579Y-58435632D01*
X236085085Y-58207899D01*
X236080095Y-58200274D01*
X235922054Y-57993191D01*
X235916014Y-57986364D01*
X235729736Y-57804265D01*
X235722774Y-57798382D01*
X235512157Y-57645078D01*
X235504427Y-57640267D01*
X235273878Y-57518969D01*
X235265528Y-57515322D01*
X235019901Y-57428581D01*
X235011106Y-57426175D01*
X234795775Y-57383733D01*
X234782863Y-57384912D01*
X234778000Y-57400015D01*
X234778000Y-59251885D01*
X234270000Y-59251885D01*
X234270000Y-57399826D01*
X234265749Y-57385349D01*
X234253488Y-57383286D01*
X234217867Y-57386685D01*
X234208875Y-57388205D01*
X233955842Y-57450122D01*
X233947173Y-57452922D01*
X233705718Y-57550722D01*
X233697545Y-57554744D01*
X233472747Y-57686368D01*
X233465235Y-57691531D01*
X233261787Y-57854231D01*
X233255104Y-57860420D01*
X233077267Y-58050794D01*
X233071557Y-58057871D01*
X232923066Y-58271918D01*
X232918429Y-58279759D01*
X232802396Y-58512997D01*
X232798940Y-58521422D01*
X232717788Y-58768974D01*
X232715588Y-58777799D01*
X232670897Y-59035189D01*
X232670050Y-59042807D01*
X232666078Y-59122592D01*
X232666000Y-59125733D01*
X232666000Y-59251885D01*
X232182000Y-59251885D01*
X232182000Y-59157794D01*
X232181835Y-59153223D01*
X232167787Y-58959620D01*
X232166473Y-58950611D01*
X232110311Y-58696231D01*
X232107708Y-58687501D01*
X232015414Y-58443893D01*
X232011579Y-58435632D01*
X231885085Y-58207899D01*
X231880095Y-58200274D01*
X231722054Y-57993191D01*
X231716014Y-57986364D01*
X231529736Y-57804265D01*
X231522774Y-57798382D01*
X231312157Y-57645078D01*
X231304427Y-57640267D01*
X231073878Y-57518969D01*
X231065528Y-57515322D01*
X230819901Y-57428581D01*
X230811106Y-57426175D01*
X230595775Y-57383733D01*
X230582863Y-57384912D01*
X230578000Y-57400015D01*
X230578000Y-59251885D01*
X230070000Y-59251885D01*
X230070000Y-57399826D01*
X230065749Y-57385349D01*
X230053488Y-57383286D01*
X230017867Y-57386685D01*
X230008875Y-57388205D01*
X229755842Y-57450122D01*
X229747173Y-57452922D01*
X229505718Y-57550722D01*
X229497545Y-57554744D01*
X229272747Y-57686368D01*
X229265235Y-57691531D01*
X229061787Y-57854231D01*
X229055104Y-57860420D01*
X228877267Y-58050794D01*
X228871557Y-58057871D01*
X228723066Y-58271918D01*
X228718429Y-58279759D01*
X228602396Y-58512997D01*
X228598940Y-58521422D01*
X228517788Y-58768974D01*
X228515588Y-58777799D01*
X228470897Y-59035189D01*
X228470050Y-59042807D01*
X228466078Y-59122592D01*
X228466000Y-59125733D01*
X228466000Y-59251885D01*
X227982500Y-59251885D01*
X227982500Y-59155488D01*
X227980114Y-59122592D01*
X227972823Y-59022116D01*
X227967953Y-58954996D01*
X227928831Y-58777799D01*
X227910791Y-58696088D01*
X227910790Y-58696084D01*
X227909806Y-58691628D01*
X227845321Y-58521422D01*
X227815868Y-58443682D01*
X227815867Y-58443679D01*
X227814250Y-58439412D01*
X227683286Y-58203632D01*
X227572045Y-58057871D01*
X227522429Y-57992859D01*
X227522428Y-57992858D01*
X227519657Y-57989227D01*
X227326792Y-57800688D01*
X227108730Y-57641966D01*
X226942948Y-57554744D01*
X226874079Y-57518510D01*
X226874073Y-57518507D01*
X226870039Y-57516385D01*
X226865734Y-57514865D01*
X226865730Y-57514863D01*
X226620033Y-57428098D01*
X226620032Y-57428098D01*
X226615720Y-57426575D01*
X226480006Y-57399826D01*
X226355572Y-57375300D01*
X226355566Y-57375299D01*
X226351100Y-57374419D01*
X226346547Y-57374192D01*
X226346544Y-57374192D01*
X226086292Y-57361236D01*
X226086286Y-57361236D01*
X226081723Y-57361009D01*
X225813231Y-57386625D01*
X225808797Y-57387710D01*
X225808791Y-57387711D01*
X225555688Y-57449645D01*
X225551250Y-57450731D01*
X225301267Y-57551985D01*
X225068518Y-57688265D01*
X224857881Y-57856716D01*
X224673766Y-58053809D01*
X224520032Y-58275416D01*
X224399899Y-58516894D01*
X224398478Y-58521228D01*
X224398477Y-58521231D01*
X224398415Y-58521422D01*
X224315882Y-58773186D01*
X224315102Y-58777677D01*
X224315102Y-58777678D01*
X224283525Y-58959547D01*
X224269743Y-59038921D01*
X224265500Y-59124149D01*
X224265500Y-59892512D01*
X223782500Y-59892512D01*
X223782500Y-59155488D01*
X223780114Y-59122592D01*
X223772823Y-59022116D01*
X223767953Y-58954996D01*
X223728831Y-58777799D01*
X223710791Y-58696088D01*
X223710790Y-58696084D01*
X223709806Y-58691628D01*
X223645321Y-58521422D01*
X223615868Y-58443682D01*
X223615867Y-58443679D01*
X223614250Y-58439412D01*
X223483286Y-58203632D01*
X223372045Y-58057871D01*
X223322429Y-57992859D01*
X223322428Y-57992858D01*
X223319657Y-57989227D01*
X223126792Y-57800688D01*
X222908730Y-57641966D01*
X222742948Y-57554744D01*
X222674079Y-57518510D01*
X222674073Y-57518507D01*
X222670039Y-57516385D01*
X222665734Y-57514865D01*
X222665730Y-57514863D01*
X222420033Y-57428098D01*
X222420032Y-57428098D01*
X222415720Y-57426575D01*
X222280006Y-57399826D01*
X222155572Y-57375300D01*
X222155566Y-57375299D01*
X222151100Y-57374419D01*
X222146547Y-57374192D01*
X222146544Y-57374192D01*
X221886292Y-57361236D01*
X221886286Y-57361236D01*
X221881723Y-57361009D01*
X221613231Y-57386625D01*
X221608797Y-57387710D01*
X221608791Y-57387711D01*
X221355688Y-57449645D01*
X221351250Y-57450731D01*
X221101267Y-57551985D01*
X220868518Y-57688265D01*
X220657881Y-57856716D01*
X220473766Y-58053809D01*
X220320032Y-58275416D01*
X220199899Y-58516894D01*
X220198478Y-58521228D01*
X220198477Y-58521231D01*
X220198415Y-58521422D01*
X220115882Y-58773186D01*
X220115102Y-58777677D01*
X220115102Y-58777678D01*
X220083525Y-58959547D01*
X220069743Y-59038921D01*
X220065500Y-59124149D01*
X220065500Y-59892512D01*
X219582500Y-59892512D01*
X219582500Y-59155488D01*
X219580114Y-59122592D01*
X219572823Y-59022116D01*
X219567953Y-58954996D01*
X219528831Y-58777799D01*
X219510791Y-58696088D01*
X219510790Y-58696084D01*
X219509806Y-58691628D01*
X219445321Y-58521422D01*
X219415868Y-58443682D01*
X219415867Y-58443679D01*
X219414250Y-58439412D01*
X219283286Y-58203632D01*
X219172045Y-58057871D01*
X219122429Y-57992859D01*
X219122428Y-57992858D01*
X219119657Y-57989227D01*
X218926792Y-57800688D01*
X218708730Y-57641966D01*
X218542948Y-57554744D01*
X218474079Y-57518510D01*
X218474073Y-57518507D01*
X218470039Y-57516385D01*
X218465734Y-57514865D01*
X218465730Y-57514863D01*
X218220033Y-57428098D01*
X218220032Y-57428098D01*
X218215720Y-57426575D01*
X218080006Y-57399826D01*
X217955572Y-57375300D01*
X217955566Y-57375299D01*
X217951100Y-57374419D01*
X217946547Y-57374192D01*
X217946544Y-57374192D01*
X217686292Y-57361236D01*
X217686286Y-57361236D01*
X217681723Y-57361009D01*
X217413231Y-57386625D01*
X217408797Y-57387710D01*
X217408791Y-57387711D01*
X217155688Y-57449645D01*
X217151250Y-57450731D01*
X216901267Y-57551985D01*
X216668518Y-57688265D01*
X216457881Y-57856716D01*
X216273766Y-58053809D01*
X216120032Y-58275416D01*
X215999899Y-58516894D01*
X215998478Y-58521228D01*
X215998477Y-58521231D01*
X215998415Y-58521422D01*
X215915882Y-58773186D01*
X215915102Y-58777677D01*
X215915102Y-58777678D01*
X215883525Y-58959547D01*
X215869743Y-59038921D01*
X215865500Y-59124149D01*
X215865500Y-59892512D01*
X215382500Y-59892512D01*
X215382500Y-59155488D01*
X215380114Y-59122592D01*
X215372823Y-59022116D01*
X215367953Y-58954996D01*
X215328831Y-58777799D01*
X215310791Y-58696088D01*
X215310790Y-58696084D01*
X215309806Y-58691628D01*
X215245321Y-58521422D01*
X215215868Y-58443682D01*
X215215867Y-58443679D01*
X215214250Y-58439412D01*
X215083286Y-58203632D01*
X214972045Y-58057871D01*
X214922429Y-57992859D01*
X214922428Y-57992858D01*
X214919657Y-57989227D01*
X214726792Y-57800688D01*
X214508730Y-57641966D01*
X214342948Y-57554744D01*
X214274079Y-57518510D01*
X214274073Y-57518507D01*
X214270039Y-57516385D01*
X214265734Y-57514865D01*
X214265730Y-57514863D01*
X214020033Y-57428098D01*
X214020032Y-57428098D01*
X214015720Y-57426575D01*
X213880006Y-57399826D01*
X213755572Y-57375300D01*
X213755566Y-57375299D01*
X213751100Y-57374419D01*
X213746547Y-57374192D01*
X213746544Y-57374192D01*
X213486292Y-57361236D01*
X213486286Y-57361236D01*
X213481723Y-57361009D01*
X213213231Y-57386625D01*
X213208797Y-57387710D01*
X213208791Y-57387711D01*
X212955688Y-57449645D01*
X212951250Y-57450731D01*
X212701267Y-57551985D01*
X212468518Y-57688265D01*
X212257881Y-57856716D01*
X212073766Y-58053809D01*
X211920032Y-58275416D01*
X211799899Y-58516894D01*
X211798478Y-58521228D01*
X211798477Y-58521231D01*
X211798415Y-58521422D01*
X211715882Y-58773186D01*
X211715102Y-58777677D01*
X211715102Y-58777678D01*
X211683525Y-58959547D01*
X211669743Y-59038921D01*
X211665500Y-59124149D01*
X211665500Y-59892512D01*
X211182000Y-59892512D01*
X211182000Y-59796115D01*
X211177525Y-59780876D01*
X211176135Y-59779671D01*
X211168452Y-59778000D01*
X209596115Y-59778000D01*
X209580876Y-59782475D01*
X209579671Y-59783865D01*
X209578000Y-59791548D01*
X209578000Y-61648174D01*
X209069939Y-61648174D01*
X209070000Y-61647985D01*
X209070000Y-59796115D01*
X209065525Y-59780876D01*
X209064135Y-59779671D01*
X209056452Y-59778000D01*
X207484115Y-59778000D01*
X207468876Y-59782475D01*
X207467671Y-59783865D01*
X207466000Y-59791548D01*
X207466000Y-59890206D01*
X205458000Y-59890206D01*
X205458000Y-59251885D01*
X207466000Y-59251885D01*
X207470475Y-59267124D01*
X207471865Y-59268329D01*
X207479548Y-59270000D01*
X209051885Y-59270000D01*
X209067124Y-59265525D01*
X209068329Y-59264135D01*
X209070000Y-59256452D01*
X209070000Y-59251885D01*
X209578000Y-59251885D01*
X209582475Y-59267124D01*
X209583865Y-59268329D01*
X209591548Y-59270000D01*
X211163885Y-59270000D01*
X211179124Y-59265525D01*
X211180329Y-59264135D01*
X211182000Y-59256452D01*
X211182000Y-59157794D01*
X211181835Y-59153223D01*
X211167787Y-58959620D01*
X211166473Y-58950611D01*
X211110311Y-58696231D01*
X211107708Y-58687501D01*
X211015414Y-58443893D01*
X211011579Y-58435632D01*
X210885085Y-58207899D01*
X210880095Y-58200274D01*
X210722054Y-57993191D01*
X210716014Y-57986364D01*
X210529736Y-57804265D01*
X210522774Y-57798382D01*
X210312157Y-57645078D01*
X210304427Y-57640267D01*
X210073878Y-57518969D01*
X210065528Y-57515322D01*
X209819901Y-57428581D01*
X209811106Y-57426175D01*
X209595775Y-57383733D01*
X209582863Y-57384912D01*
X209578000Y-57400015D01*
X209578000Y-59251885D01*
X209070000Y-59251885D01*
X209070000Y-57399826D01*
X209065749Y-57385349D01*
X209053488Y-57383286D01*
X209017867Y-57386685D01*
X209008875Y-57388205D01*
X208755842Y-57450122D01*
X208747173Y-57452922D01*
X208505718Y-57550722D01*
X208497545Y-57554744D01*
X208272747Y-57686368D01*
X208265235Y-57691531D01*
X208061787Y-57854231D01*
X208055104Y-57860420D01*
X207877267Y-58050794D01*
X207871557Y-58057871D01*
X207723066Y-58271918D01*
X207718429Y-58279759D01*
X207602396Y-58512997D01*
X207598940Y-58521422D01*
X207517788Y-58768974D01*
X207515588Y-58777799D01*
X207470897Y-59035189D01*
X207470050Y-59042807D01*
X207466078Y-59122592D01*
X207466000Y-59125733D01*
X207466000Y-59251885D01*
X205458000Y-59251885D01*
X205458000Y-54069669D01*
X227592001Y-54069669D01*
X227592371Y-54076490D01*
X227597895Y-54127352D01*
X227601521Y-54142604D01*
X227646676Y-54263054D01*
X227655214Y-54278649D01*
X227731715Y-54380724D01*
X227744276Y-54393285D01*
X227846351Y-54469786D01*
X227861946Y-54478324D01*
X227982394Y-54523478D01*
X227997649Y-54527105D01*
X228048514Y-54532631D01*
X228055328Y-54533000D01*
X228677885Y-54533000D01*
X228693124Y-54528525D01*
X228694329Y-54527135D01*
X228696000Y-54519452D01*
X228696000Y-54514884D01*
X229204000Y-54514884D01*
X229208475Y-54530123D01*
X229209865Y-54531328D01*
X229217548Y-54532999D01*
X229844669Y-54532999D01*
X229851490Y-54532629D01*
X229902352Y-54527105D01*
X229917604Y-54523479D01*
X230038054Y-54478324D01*
X230053649Y-54469786D01*
X230155724Y-54393285D01*
X230168285Y-54380724D01*
X230244786Y-54278649D01*
X230253324Y-54263054D01*
X230298478Y-54142606D01*
X230302105Y-54127351D01*
X230307631Y-54076486D01*
X230308000Y-54069672D01*
X230308000Y-53447115D01*
X230303525Y-53431876D01*
X230302135Y-53430671D01*
X230294452Y-53429000D01*
X229222115Y-53429000D01*
X229206876Y-53433475D01*
X229205671Y-53434865D01*
X229204000Y-53442548D01*
X229204000Y-54514884D01*
X228696000Y-54514884D01*
X228696000Y-53447115D01*
X228691525Y-53431876D01*
X228690135Y-53430671D01*
X228682452Y-53429000D01*
X227610116Y-53429000D01*
X227594877Y-53433475D01*
X227593672Y-53434865D01*
X227592001Y-53442548D01*
X227592001Y-54069669D01*
X205458000Y-54069669D01*
X205458000Y-48659000D01*
X205478002Y-48590879D01*
X205531658Y-48544386D01*
X205584000Y-48533000D01*
X214892808Y-48533000D01*
X214960929Y-48553002D01*
G37*
G04 #@! TD.AperFunction*
M02*
